<svg width="48" height="48" viewBox="0 0 48 48" fill="none" xmlns="http://www.w3.org/2000/svg">
<g clip-path="url(#clip0_2248_84998)">
<path d="M41.5153 31.1523V35.9985L20.7461 47.9985V43.1523L41.5153 31.1523Z" fill="#131E33"/>
<path d="M-0.0234375 31.1523L20.7458 19.1523L41.515 31.1523L20.7458 43.1523L-0.0234375 31.1523Z" fill="#57A7E0"/>
<path d="M20.7443 4.84766V24.0015L4.12891 33.6938V14.3092L20.7443 4.84766Z" fill="#131E33"/>
<path d="M20.7458 0L-0.0234375 12L20.7458 24L41.515 12L20.7458 0Z" fill="#CDE7F6"/>
<path d="M-0.0234375 24.6914V29.5376L20.7458 41.5376V36.6914L-0.0234375 24.6914Z" fill="#CDE7F6"/>
<path d="M41.5153 24.6914V29.5376L20.7461 41.5376V36.6914L41.5153 24.6914Z" fill="#CDE7F6"/>
<path d="M-0.0234375 24.6914L20.7458 12.6914L41.515 24.6914L20.7458 36.6914L-0.0234375 24.6914Z" fill="#57A7E0"/>
<path d="M-0.0234375 18.4609V23.3071L20.7458 35.3071V30.4609L-0.0234375 18.4609Z" fill="#CDE7F6"/>
<path d="M41.5153 18.4609V23.3071L20.7461 35.3071V30.4609L41.5153 18.4609Z" fill="#CDE7F6"/>
<path d="M-0.0234375 18.4609L20.7458 6.46094L41.515 18.4609L20.7458 30.4609L-0.0234375 18.4609Z" fill="#57A7E0"/>
<path d="M41.5153 12V16.8461L20.7461 28.8461V24L41.5153 12Z" fill="#131E33"/>
<path d="M-0.0234375 12L20.7458 0L41.515 12L20.7458 24L-0.0234375 12Z" fill="#57A7E0"/>
<path d="M4.13041 19.3846L20.7458 28.8461V24L16.5919 21.6923L-0.0234375 12V36L12.8996 43.3846L16.5919 45.6923L20.7458 48V43.1538L4.13041 33.4615V19.3846Z" fill="#131E33"/>
</g>
<defs>
<clipPath id="clip0_2248_84998">
<rect width="48" height="48" fill="white"/>
</clipPath>
</defs>
</svg>
