<svg width="48" height="48" viewBox="0 0 48 48" fill="none" xmlns="http://www.w3.org/2000/svg">
<g clip-path="url(#clip0_2250_85733)">
<path d="M32.354 28.6886V19.3093L40.6298 14.3438V23.9989L48.9057 19.3093V28.6886L40.6298 33.6541V43.0334L32.354 47.9989V38.3437L24.0781 43.0334V33.6541L32.354 28.6886Z" fill="#CDE7F6"/>
<path d="M7.52586 33.6541L-0.75 28.6886V19.3093L7.52586 23.9989V14.3438L15.8017 19.3093V28.6886L24.0776 33.6541V43.0334L15.8017 38.3437V47.9989L7.52586 43.0334V33.6541Z" fill="#131E33"/>
<path d="M32.3525 28.6897L24.0766 33.6552L15.8008 28.6897L24.0766 24L32.3525 28.6897Z" fill="#57A7E0"/>
<path d="M24.0781 23.9989V14.3438L32.354 19.3093V28.6886L24.0781 23.9989Z" fill="#131E33"/>
<path d="M15.8008 19.3093V28.6886L24.0766 23.9989V14.3438L15.8008 19.3093Z" fill="#CDE7F6"/>
<path d="M32.354 47.9989L24.0781 43.0334L32.354 38.3438V47.9989Z" fill="#131E33"/>
<path d="M24.0766 43.0334L15.8008 38.3438V47.9989L24.0766 43.0334Z" fill="#CDE7F6"/>
<path d="M48.9048 19.3093L40.6289 14.3438V23.9989L48.9048 19.3093Z" fill="#57A7E0"/>
<path d="M40.6308 14.3448L32.3549 9.65517L40.6308 4.96552L32.3549 0L24.0791 4.96552L15.8032 0L7.52734 4.96552L15.8032 9.65517L7.52734 14.3448L15.8032 19.3103L24.0791 14.3448L32.3549 19.3103L40.6308 14.3448Z" fill="#57A7E0"/>
<path d="M40.6274 14.3442V4.96484L32.3516 9.6545L40.6274 14.3442Z" fill="#CDE7F6"/>
<path d="M-0.75 19.3093L7.52586 14.3438V23.9989L-0.75 19.3093Z" fill="#57A7E0"/>
<path d="M7.52734 14.3442V4.96484L15.8032 9.6545L7.52734 14.3442Z" fill="#131E33"/>
</g>
<defs>
<clipPath id="clip0_2250_85733">
<rect width="48" height="48" fill="white"/>
</clipPath>
</defs>
</svg>
