<svg width="64" height="64" viewBox="0 0 64 64" fill="none" xmlns="http://www.w3.org/2000/svg">
<g clip-path="url(#clip0_3720_100713)">
<path d="M54.9789 7.15774C56.9738 8.23302 58.2122 10.6209 58.2122 14.0519V33.8172C58.2072 35.2311 57.7549 36.8601 56.8947 38.3754C56.5263 39.0255 56.0666 39.6904 55.4881 40.3257C53.6911 42.3008 51.5109 43.1313 49.9783 42.4169C47.405 41.0203 44.8318 39.6262 42.261 38.2295C41.3439 37.7327 40.1129 37.8662 38.8325 38.6003L30.7296 43.25C29.2786 44.083 27.8844 45.5365 26.8512 47.2965L19.3045 60.1578C18.0636 62.2713 16.2072 63.8088 14.5905 63.9843C14.5362 63.9917 14.4842 63.9942 14.4299 63.9966C14.3755 64.0016 14.3236 64.0016 14.2741 64.0016C13.8069 64.0065 13.3991 63.8829 13.058 63.6555C12.9813 63.6184 2.01103 57.3176 1.94182 57.2706C1.01486 56.8133 0.503174 55.6663 0.569916 54.1338L0.5625 53.8693V34.1039C0.5625 27.3581 5.35057 19.1415 11.2559 15.7525L12.3287 15.137L14.902 13.6613L32.5316 3.54877L34.3435 2.5081L36.1777 1.45507C39.1934 -0.275266 41.9149 -0.408748 43.8603 0.770348L54.9765 7.15527L54.9789 7.15774Z" fill="#8DC6EA"/>
<path d="M6.18359 57.3809L6.17617 57.1164V37.3511C6.17617 30.6053 10.9642 22.3887 16.8696 18.9997L17.9424 18.3842L20.5157 16.9085L38.1428 6.79595L39.9547 5.75528L41.7889 4.70225C44.8046 2.97192 47.5261 2.83844 49.4715 4.01754L48.5297 3.45394C46.5843 2.27485 43.8628 2.40833 40.8471 4.13866L39.0129 5.19169L37.201 6.23236L19.5739 16.3449L17.0006 17.8206L15.9278 18.4361C10.0224 21.8251 5.23438 30.0392 5.23438 36.7875V56.5528L5.24179 56.8173C5.17505 58.3499 5.68673 59.4969 6.6137 59.9542C6.62358 59.9616 6.84111 60.0877 7.2119 60.3003C6.50493 59.749 6.12673 58.7108 6.18606 57.3809H6.18359Z" fill="#8DC6EA"/>
<path d="M58.2124 33.8175V14.0497C58.2124 7.30393 53.4243 4.57989 47.5189 7.96887L45.6848 9.0219L43.8729 10.0626L26.2458 20.1751L23.6725 21.6508L22.5997 22.2663C16.6943 25.6553 11.9062 33.8695 11.9062 40.6177V60.3831L11.9137 60.6476C11.8247 62.6622 12.7343 64.0143 14.2793 64.0019C14.3287 64.0019 14.3806 64.0019 14.435 63.997C14.4894 63.9945 14.5413 63.9896 14.5957 63.9846C16.2123 63.8091 18.0687 62.2716 19.3096 60.1581L26.8563 47.2968C27.8896 45.5368 29.2812 44.0833 30.7347 43.2503L38.8376 38.6007C40.1181 37.8665 41.3491 37.7306 42.2661 38.2299C44.8394 39.6265 47.4102 41.0231 49.9834 42.4173C51.516 43.1317 53.6962 42.2986 55.4933 40.3261C56.0692 39.6932 56.5315 39.0258 56.8973 38.3757C57.7575 36.8605 58.2099 35.229 58.2149 33.82L58.2124 33.8175Z" fill="#4692CA"/>
<path d="M23.0417 43.1484C18.9012 45.5239 15.5469 43.6156 15.5469 38.8868C15.5469 34.1581 18.9012 28.401 23.0417 26.0255C27.1821 23.65 30.5365 25.5583 30.5365 30.2871C30.5365 35.0158 27.1821 40.7729 23.0417 43.1484Z" fill="#131E33"/>
<path d="M47.0729 29.3632C42.9325 31.7387 39.5781 29.8304 39.5781 25.1017C39.5781 20.3729 42.9325 14.6159 47.0729 12.2404C51.2134 9.86486 54.5677 11.7732 54.5677 16.5019C54.5677 21.2307 51.2134 26.9877 47.0729 29.3632Z" fill="#131E33"/>
<path fill-rule="evenodd" clip-rule="evenodd" d="M16.8164 42.9285C18.1882 44.1398 20.3213 44.1999 22.7176 42.8251C26.858 40.4496 30.2124 34.6925 30.2124 29.9638C30.2124 28.1976 29.7445 26.8249 28.9424 25.9219C29.9409 26.8035 30.5361 28.295 30.5361 30.2869C30.5361 35.0156 27.1817 40.7727 23.0412 43.1482C20.4472 44.6364 18.1618 44.4433 16.8164 42.9285Z" fill="#3977A6"/>
<path fill-rule="evenodd" clip-rule="evenodd" d="M40.8438 29.1431C42.2155 30.3561 44.3494 30.4169 46.7469 29.0414C50.8873 26.6659 54.2417 20.9089 54.2417 16.1801C54.2417 14.4155 53.7746 13.0437 52.9739 12.1406C53.9711 13.0225 54.5655 14.5133 54.5655 16.5039C54.5655 21.2326 51.2112 26.9897 47.0707 29.3652C44.4753 30.8542 42.1888 30.6601 40.8438 29.1431Z" fill="#3977A6"/>
<path d="M28.6062 14.1285C27.8004 14.1285 26.9945 13.9481 26.3667 13.5847C25.6646 13.1793 25.2617 12.5786 25.2617 11.9359C25.2617 11.2933 25.6696 10.6827 26.379 10.2724C27.6446 9.54314 29.6197 9.5382 30.8779 10.2649C31.5799 10.6703 31.9828 11.271 31.9828 11.9137C31.9828 12.5564 31.575 13.167 30.8655 13.5773C30.2302 13.9431 29.417 14.126 28.6037 14.126L28.6062 14.1285Z" fill="#3977A6"/>
<path d="M45.3514 18.532C45.3514 18.532 45.3662 18.5419 45.3736 18.5444C45.3811 18.5493 45.3885 18.5543 45.3959 18.5568C45.4033 18.5617 45.4107 18.5666 45.4181 18.5691C45.4256 18.5741 45.433 18.579 45.4404 18.5815C45.4478 18.5864 45.4552 18.5914 45.4626 18.5938C45.4701 18.5988 45.4775 18.6037 45.4849 18.6062C45.4923 18.6111 45.4997 18.6161 45.5071 18.6186C45.5145 18.6235 45.522 18.6284 45.5294 18.6309C45.5368 18.6359 45.5442 18.6408 45.5516 18.6433C45.559 18.6482 45.5665 18.6532 45.5739 18.6556C45.5813 18.6606 45.5887 18.6655 45.5961 18.668C45.6035 18.6729 45.611 18.6779 45.6184 18.6803C45.6258 18.6853 45.6332 18.6902 45.6406 18.6927C45.648 18.6977 45.6554 18.7026 45.6629 18.7051C45.6703 18.71 45.6777 18.715 45.6851 18.7174C45.6925 18.7224 45.6999 18.7273 45.7074 18.7298C45.7148 18.7347 45.7222 18.7397 45.7296 18.7421C45.737 18.7471 45.7444 18.752 45.7519 18.7545C45.7593 18.7595 45.7667 18.7644 45.7741 18.7669C45.7815 18.7718 45.7889 18.7768 45.7963 18.7792C45.8038 18.7842 45.8112 18.7891 45.8186 18.7916C45.826 18.7965 45.8334 18.8015 45.8408 18.8039C45.8483 18.8089 45.8557 18.8138 45.8631 18.8163C45.8705 18.8212 45.8779 18.8262 45.8853 18.8287C45.8928 18.8336 45.9002 18.8386 45.9076 18.841C45.915 18.846 45.9224 18.8509 45.9298 18.8534C45.9372 18.8583 45.9447 18.8633 45.9521 18.8657C45.9595 18.8707 45.9669 18.8756 45.9743 18.8781C45.9817 18.883 45.9892 18.888 45.9966 18.8905C46.004 18.8954 46.0114 18.9003 46.0188 18.9028C46.0262 18.9078 46.0336 18.9127 46.0411 18.9152C46.0485 18.9201 46.0559 18.9251 46.0633 18.9275C46.0707 18.9325 46.0781 18.9374 46.0856 18.9399C46.093 18.9448 46.1004 18.9498 46.1078 18.9523C46.5083 19.1871 47.0669 19.1574 47.6849 18.8039C48.9085 18.1019 49.8997 16.4013 49.8997 15.0046C49.8997 14.3001 49.6476 13.8082 49.2397 13.5833C49.2323 13.5783 49.2249 13.5734 49.2175 13.5709C49.21 13.566 49.2026 13.561 49.1952 13.5586C49.1878 13.5536 49.1804 13.5487 49.173 13.5462C49.1655 13.5413 49.1581 13.5363 49.1507 13.5339C49.1433 13.5289 49.1359 13.524 49.1285 13.5215C49.1211 13.5165 49.1136 13.5116 49.1062 13.5091C49.0988 13.5042 49.0914 13.4992 49.084 13.4968C49.0766 13.4918 49.0691 13.4869 49.0617 13.4844C49.0543 13.4795 49.0469 13.4745 49.0395 13.4721C49.0321 13.4671 49.0246 13.4622 49.0172 13.4597C49.0098 13.4547 49.0024 13.4498 48.995 13.4473C48.9876 13.4424 48.9802 13.4374 48.9727 13.435C48.9653 13.43 48.9579 13.4251 48.9505 13.4226C48.9431 13.4177 48.9357 13.4127 48.9282 13.4103C48.9208 13.4053 48.9134 13.4004 48.906 13.3979C48.8986 13.393 48.8912 13.388 48.8837 13.3855C48.8763 13.3806 48.8689 13.3756 48.8615 13.3732C48.8541 13.3682 48.8467 13.3633 48.8393 13.3608C48.8318 13.3559 48.8244 13.3509 48.817 13.3485C48.8096 13.3435 48.8022 13.3386 48.7948 13.3361C48.7873 13.3312 48.7799 13.3262 48.7725 13.3237C48.7651 13.3188 48.7577 13.3139 48.7503 13.3114C48.7429 13.3064 48.7354 13.3015 48.728 13.299C48.7206 13.2941 48.7132 13.2891 48.7058 13.2867C48.6984 13.2817 48.6909 13.2768 48.6835 13.2743C48.6761 13.2694 48.6687 13.2644 48.6613 13.2619C48.6539 13.257 48.6464 13.2521 48.639 13.2496C48.6316 13.2446 48.6242 13.2397 48.6168 13.2372C48.6094 13.2323 48.602 13.2273 48.5945 13.2249C48.5871 13.2199 48.5797 13.215 48.5723 13.2125C48.5649 13.2076 48.5575 13.2026 48.55 13.2001C48.5426 13.1952 48.5352 13.1903 48.5278 13.1878C48.5204 13.1828 48.513 13.1779 48.5055 13.1754C48.4981 13.1705 48.4907 13.1655 48.4833 13.1631C48.0829 12.9282 47.5242 12.9579 46.9062 13.3139C45.6826 14.0159 44.6914 15.7165 44.6914 17.1132C44.6914 17.8177 44.9435 18.3096 45.3514 18.5345V18.532Z" fill="#8DC6EA"/>
<path d="M44.8452 21.2124C44.8452 21.2124 44.8303 21.2025 44.8229 21.2C44.8155 21.1951 44.8081 21.1901 44.8007 21.1877C44.7933 21.1827 44.7858 21.1778 44.7784 21.1753C44.771 21.1704 44.7636 21.1654 44.7562 21.1629C44.7488 21.158 44.7414 21.1531 44.7339 21.1506C44.7265 21.1456 44.7191 21.1407 44.7117 21.1382C44.7043 21.1333 44.6969 21.1283 44.6894 21.1259C44.682 21.1209 44.6746 21.116 44.6672 21.1135C44.6598 21.1086 44.6524 21.1036 44.6449 21.1011C44.6375 21.0962 44.6301 21.0913 44.6227 21.0888C44.6153 21.0838 44.6079 21.0789 44.6005 21.0764C44.593 21.0715 44.5856 21.0665 44.5782 21.0641C44.5708 21.0591 44.5634 21.0542 44.556 21.0517C44.5485 21.0468 44.5411 21.0418 44.5337 21.0393C44.5337 21.0393 44.5189 21.0295 44.5115 21.027C44.504 21.022 44.4966 21.0171 44.4892 21.0146C44.4818 21.0097 44.4744 21.0047 44.467 21.0023C44.4596 20.9973 44.4521 20.9924 44.4447 20.9899C44.4373 20.985 44.4299 20.98 44.4225 20.9776C44.4151 20.9726 44.4076 20.9701 44.4027 20.9652C44.4027 20.9652 44.4027 20.9652 44.4002 20.9652C44.3928 20.9602 44.3854 20.9553 44.378 20.9528C44.3706 20.9479 44.3632 20.9429 44.3557 20.9405C44.3483 20.9355 44.3409 20.9306 44.3335 20.9281C44.3261 20.9232 44.3187 20.9182 44.3112 20.9158C44.3038 20.9108 44.2964 20.9059 44.289 20.9034C44.2816 20.8984 44.2742 20.8935 44.2667 20.891C44.2593 20.8861 44.2519 20.8811 44.2445 20.8787C44.2371 20.8737 44.2297 20.8688 44.2223 20.8663C44.2148 20.8614 44.2074 20.8564 44.2 20.854C44.1926 20.849 44.1852 20.8441 44.1778 20.8416C44.1703 20.8367 44.1629 20.8317 44.1555 20.8292C44.1481 20.8243 44.1407 20.8193 44.1333 20.8169C44.1258 20.8119 44.1184 20.807 44.111 20.8045C44.1036 20.7996 44.0962 20.7946 44.0888 20.7922C43.6883 20.5573 43.1297 20.587 42.5117 20.9405C41.2881 21.6425 40.2969 23.3432 40.2969 24.7398C40.2969 25.4443 40.549 25.9362 40.9569 26.1611C40.9643 26.1661 40.9717 26.171 40.9791 26.1735C40.9865 26.1784 40.9939 26.1834 41.0014 26.1858C41.0088 26.1908 41.0162 26.1957 41.0236 26.1982C41.031 26.2031 41.0384 26.2081 41.0459 26.2106C41.0533 26.2155 41.0607 26.2205 41.0681 26.2229C41.0755 26.2279 41.0829 26.2328 41.0904 26.2353C41.0978 26.2402 41.1052 26.2452 41.1126 26.2476C41.12 26.2526 41.1274 26.2575 41.1348 26.26C41.1423 26.2649 41.1497 26.2699 41.1571 26.2724C41.1645 26.2773 41.1719 26.2822 41.1793 26.2847C41.1868 26.2897 41.1942 26.2946 41.2016 26.2971C41.209 26.302 41.2164 26.307 41.2238 26.3094C41.2313 26.3144 41.2387 26.3193 41.2461 26.3218C41.2535 26.3267 41.2609 26.3317 41.2683 26.3342C41.2757 26.3391 41.2832 26.3416 41.2881 26.3465C41.2881 26.3465 41.2881 26.3465 41.2906 26.3465C41.298 26.3515 41.3054 26.3564 41.3128 26.3589C41.3202 26.3638 41.3277 26.3688 41.3351 26.3712C41.34 26.3712 41.3425 26.3762 41.3474 26.3787C41.3524 26.3811 41.3548 26.3836 41.3598 26.3861C41.3647 26.3861 41.3672 26.391 41.3721 26.3935C41.3771 26.3935 41.3796 26.3984 41.3845 26.4009C41.3895 26.4009 41.3919 26.4058 41.3969 26.4083C41.4018 26.4108 41.4043 26.4133 41.4092 26.4157C41.4166 26.4207 41.4241 26.4256 41.4315 26.4281C41.4389 26.433 41.4463 26.438 41.4537 26.4405C41.4611 26.4454 41.4686 26.4503 41.476 26.4528C41.4834 26.4578 41.4908 26.4627 41.4982 26.4652C41.5056 26.4701 41.513 26.4751 41.5205 26.4775C41.5279 26.4825 41.5353 26.4874 41.5427 26.4899C41.5501 26.4948 41.5575 26.4998 41.565 26.5023C41.5724 26.5072 41.5798 26.5121 41.5872 26.5146C41.5946 26.5196 41.602 26.5245 41.6095 26.527C41.6169 26.5319 41.6243 26.5369 41.6317 26.5393C41.6391 26.5443 41.6465 26.5492 41.6539 26.5517C41.6614 26.5566 41.6688 26.5616 41.6762 26.564C41.6836 26.569 41.691 26.5739 41.6984 26.5764C41.7059 26.5814 41.7133 26.5863 41.7207 26.5888C42.1211 26.8236 42.6798 26.7939 43.2978 26.4405C44.5214 25.7384 45.5126 24.0378 45.5126 22.6411C45.5126 21.9366 45.2605 21.4447 44.8526 21.2198L44.8452 21.2124Z" fill="#8DC6EA"/>
<path d="M49.271 23.7317C49.271 23.7317 49.2561 23.7218 49.2487 23.7194C49.2413 23.7144 49.2339 23.7095 49.2265 23.707C49.219 23.7021 49.2116 23.6971 49.2042 23.6946C49.1968 23.6897 49.1894 23.6848 49.182 23.6823C49.1746 23.6773 49.1671 23.6724 49.1597 23.6699C49.1523 23.665 49.1449 23.66 49.1375 23.6576C49.1301 23.6526 49.1226 23.6477 49.1152 23.6452C49.1078 23.6403 49.1004 23.6353 49.093 23.6329C49.0856 23.6279 49.0781 23.623 49.0707 23.6205C49.0633 23.6155 49.0559 23.6106 49.0485 23.6081C49.0411 23.6032 49.0337 23.5982 49.0262 23.5958C49.0188 23.5908 49.0114 23.5859 49.004 23.5834C48.9966 23.5785 48.9892 23.5735 48.9817 23.5711C48.9743 23.5661 48.9669 23.5612 48.9595 23.5587C48.9521 23.5537 48.9447 23.5488 48.9372 23.5463C48.9298 23.5414 48.9224 23.5364 48.915 23.534C48.9076 23.529 48.9002 23.5241 48.8928 23.5216C48.8853 23.5167 48.8779 23.5117 48.8705 23.5093C48.8631 23.5043 48.8557 23.4994 48.8483 23.4969C48.8408 23.492 48.8334 23.487 48.826 23.4845C48.8186 23.4796 48.8112 23.4746 48.8038 23.4722C48.7964 23.4672 48.7889 23.4623 48.7815 23.4598C48.7741 23.4549 48.7667 23.4499 48.7593 23.4475C48.7519 23.4425 48.7444 23.4376 48.737 23.4351C48.7296 23.4302 48.7222 23.4252 48.7148 23.4227C48.7074 23.4178 48.6999 23.4129 48.6925 23.4104C48.6851 23.4054 48.6777 23.4005 48.6703 23.398C48.6629 23.3931 48.6555 23.3881 48.648 23.3857C48.6406 23.3807 48.6332 23.3758 48.6258 23.3733C48.6184 23.3684 48.611 23.3634 48.6035 23.3609C48.5961 23.356 48.5887 23.3511 48.5813 23.3486C48.5739 23.3436 48.5665 23.3387 48.559 23.3362C48.5516 23.3313 48.5442 23.3263 48.5368 23.3239C48.5294 23.3189 48.522 23.314 48.5146 23.3115C48.1141 23.0767 47.5555 23.1063 46.9375 23.4623C45.7139 24.1643 44.7227 25.865 44.7227 27.2616C44.7227 27.9661 44.9748 28.458 45.3827 28.6829C45.3901 28.6879 45.3975 28.6928 45.4049 28.6953C45.4123 28.7002 45.4197 28.7052 45.4271 28.7077C45.4346 28.7126 45.442 28.7176 45.4494 28.72C45.4568 28.725 45.4642 28.7299 45.4716 28.7324C45.4791 28.7373 45.4865 28.7423 45.4939 28.7447C45.5013 28.7497 45.5087 28.7546 45.5161 28.7571C45.5236 28.762 45.531 28.767 45.5384 28.7695C45.5458 28.7744 45.5532 28.7793 45.5606 28.7818C45.568 28.7868 45.5755 28.7917 45.5829 28.7942C45.5903 28.7991 45.5977 28.8041 45.6051 28.8065C45.6125 28.8115 45.62 28.8164 45.6274 28.8189C45.6348 28.8238 45.6422 28.8288 45.6496 28.8313C45.657 28.8362 45.6645 28.8411 45.6719 28.8436C45.6793 28.8486 45.6867 28.8535 45.6941 28.856C45.7015 28.8609 45.7089 28.8659 45.7164 28.8683C45.7164 28.8683 45.7164 28.8683 45.7188 28.8683C45.7262 28.8733 45.7312 28.8758 45.7386 28.8807C45.746 28.8856 45.7534 28.8906 45.7609 28.8931C45.7683 28.898 45.7757 28.9029 45.7831 28.9054C45.7905 28.9104 45.7979 28.9153 45.8054 28.9178C45.8128 28.9227 45.8202 28.9277 45.8276 28.9301C45.835 28.9351 45.8424 28.94 45.8498 28.9425C45.8573 28.9474 45.8647 28.9524 45.8721 28.9549C45.8795 28.9598 45.8869 28.9647 45.8943 28.9672C45.9018 28.9722 45.9092 28.9771 45.9166 28.9796C45.924 28.9845 45.9314 28.9895 45.9388 28.9919C45.9463 28.9969 45.9537 29.0018 45.9611 29.0043C45.9685 29.0092 45.9759 29.0142 45.9833 29.0167C45.9907 29.0216 45.9982 29.0265 46.0056 29.029C46.013 29.034 46.0204 29.0389 46.0278 29.0414C46.0352 29.0463 46.0427 29.0513 46.0501 29.0537C46.0575 29.0587 46.0649 29.0636 46.0723 29.0661C46.0797 29.071 46.0871 29.076 46.0946 29.0784C46.102 29.0834 46.1094 29.0883 46.1168 29.0908C46.1242 29.0958 46.1316 29.1007 46.1391 29.1032C46.5395 29.338 47.0982 29.3083 47.7161 28.9549C48.9397 28.2528 49.931 26.5522 49.931 25.1555C49.931 24.451 49.6788 23.9591 49.271 23.7342V23.7317Z" fill="#8DC6EA"/>
<path d="M54.0337 15.9439C54.0337 15.9439 54.0189 15.934 54.0115 15.9315C54.004 15.9266 53.9966 15.9216 53.9892 15.9192C53.9818 15.9142 53.9744 15.9093 53.967 15.9068C53.9596 15.9019 53.9521 15.8969 53.9447 15.8945C53.9373 15.8895 53.9299 15.8846 53.9225 15.8821C53.9151 15.8771 53.9076 15.8722 53.9002 15.8697C53.8928 15.8648 53.8854 15.8598 53.878 15.8574C53.8706 15.8524 53.8631 15.8475 53.8557 15.845C53.8483 15.8401 53.8409 15.8351 53.8335 15.8327C53.8261 15.8277 53.8187 15.8228 53.8112 15.8203C53.8038 15.8153 53.7964 15.8104 53.789 15.8079C53.7816 15.803 53.7742 15.798 53.7667 15.7956C53.7593 15.7906 53.7519 15.7857 53.7445 15.7832C53.7371 15.7783 53.7297 15.7733 53.7223 15.7709C53.7148 15.7659 53.7074 15.761 53.7 15.7585H53.6975C53.6975 15.7585 53.6852 15.7486 53.6778 15.7461C53.6703 15.7412 53.6629 15.7362 53.6555 15.7338C53.6481 15.7288 53.6407 15.7264 53.6357 15.7214C53.6357 15.7214 53.6357 15.7214 53.6333 15.7214C53.6283 15.7214 53.6258 15.7165 53.6209 15.714C53.616 15.7115 53.6135 15.7091 53.6085 15.7066C53.6036 15.7066 53.6011 15.7016 53.5962 15.6992C53.5912 15.6967 53.5888 15.6942 53.5838 15.6918C53.5764 15.6868 53.569 15.6819 53.5616 15.6794C53.5542 15.6745 53.5467 15.6695 53.5393 15.667C53.5319 15.6621 53.5245 15.6571 53.5171 15.6547C53.5097 15.6497 53.5023 15.6448 53.4948 15.6423C53.4874 15.6374 53.48 15.6324 53.4726 15.63C53.4652 15.625 53.4578 15.6201 53.4503 15.6176C53.4429 15.6127 53.4355 15.6077 53.4281 15.6052C53.4207 15.6003 53.4133 15.5954 53.4058 15.5929C53.3984 15.5879 53.391 15.583 53.3836 15.5805C53.3762 15.5756 53.3688 15.5706 53.3614 15.5682C53.3539 15.5632 53.3465 15.5583 53.3391 15.5558C53.3317 15.5509 53.3243 15.5459 53.3169 15.5434C53.3094 15.5385 53.302 15.5336 53.2946 15.5311C53.2872 15.5261 53.2798 15.5212 53.2724 15.5187C52.8719 15.2839 52.3133 15.3136 51.6953 15.667C50.4717 16.3691 49.4805 18.0697 49.4805 19.4663C49.4805 20.1708 49.7326 20.6627 50.1405 20.8877C50.1479 20.8926 50.1553 20.8976 50.1627 20.9001C50.1701 20.905 50.1775 20.9099 50.185 20.9124C50.1924 20.9174 50.1998 20.9223 50.2072 20.9248C50.2146 20.9297 50.222 20.9347 50.2295 20.9371C50.2369 20.9421 50.2443 20.947 50.2517 20.9495C50.2591 20.9544 50.2665 20.9594 50.274 20.9618C50.2814 20.9668 50.2888 20.9717 50.2962 20.9742C50.3036 20.9792 50.311 20.9841 50.3184 20.9866C50.3259 20.9915 50.3333 20.9965 50.3407 20.9989C50.3481 21.0039 50.3555 21.0088 50.3629 21.0113C50.3704 21.0162 50.3778 21.0212 50.3852 21.0236C50.3926 21.0286 50.4 21.0335 50.4074 21.036C50.4148 21.0409 50.4223 21.0459 50.4297 21.0484C50.4371 21.0533 50.4445 21.0583 50.4519 21.0607C50.4593 21.0657 50.4668 21.0706 50.4742 21.0731C50.4816 21.078 50.489 21.083 50.4964 21.0854C50.5038 21.0904 50.5113 21.0953 50.5187 21.0978C50.5261 21.1027 50.5335 21.1077 50.5409 21.1102C50.5459 21.1102 50.5483 21.1151 50.5533 21.1176C50.5582 21.12 50.5607 21.1225 50.5656 21.125C50.5706 21.125 50.573 21.1299 50.578 21.1324C50.5829 21.1349 50.5854 21.1374 50.5904 21.1398C50.5978 21.1448 50.6052 21.1497 50.6126 21.1522C50.62 21.1571 50.6274 21.1621 50.6348 21.1645C50.6423 21.1695 50.6497 21.1744 50.6571 21.1769C50.6645 21.1818 50.6719 21.1868 50.6793 21.1893C50.6868 21.1942 50.6942 21.1991 50.7016 21.2016C50.709 21.2066 50.7164 21.2115 50.7238 21.214C50.7313 21.2189 50.7387 21.2239 50.7461 21.2263C50.7535 21.2313 50.7609 21.2362 50.7683 21.2387C50.7757 21.2436 50.7832 21.2486 50.7906 21.2511C50.798 21.256 50.8054 21.2609 50.8128 21.2634C50.8202 21.2684 50.8277 21.2733 50.8351 21.2758C50.8425 21.2807 50.8499 21.2857 50.8573 21.2881C50.8647 21.2931 50.8721 21.298 50.8796 21.3005C50.887 21.3054 50.8944 21.3104 50.9018 21.3129C51.3023 21.5477 51.8609 21.518 52.4789 21.1645C53.7025 20.4625 54.6937 18.7619 54.6937 17.3652C54.6937 16.6607 54.4416 16.1688 54.0337 15.9439Z" fill="#8DC6EA"/>
<path d="M28.7748 30.6006C28.7748 30.6006 28.7599 30.5907 28.7525 30.5883C28.7451 30.5833 28.7377 30.5784 28.7303 30.5759C28.7229 30.571 28.7154 30.566 28.708 30.5636C28.7006 30.5586 28.6932 30.5537 28.6858 30.5512C28.6784 30.5463 28.671 30.5413 28.6635 30.5388C28.6561 30.5339 28.6487 30.529 28.6413 30.5265C28.6339 30.5215 28.6265 30.5166 28.619 30.5141C28.6116 30.5092 28.6042 30.5042 28.5968 30.5018C28.5894 30.4968 28.582 30.4919 28.5745 30.4894C28.5671 30.4845 28.5597 30.4795 28.5523 30.477C28.5449 30.4721 28.5375 30.4672 28.5301 30.4647C28.5226 30.4597 28.5152 30.4548 28.5078 30.4523C28.5004 30.4474 28.493 30.4424 28.4856 30.44C28.4781 30.435 28.4707 30.4301 28.4633 30.4276C28.4633 30.4276 28.4485 30.4177 28.4411 30.4152C28.4336 30.4103 28.4262 30.4054 28.4188 30.4029C28.4114 30.3979 28.404 30.393 28.3966 30.3905C28.3892 30.3856 28.3817 30.3806 28.3743 30.3782C28.3669 30.3732 28.3595 30.3683 28.3521 30.3658C28.3447 30.3609 28.3397 30.3584 28.3323 30.3534C28.3323 30.3534 28.3323 30.3534 28.3298 30.3534C28.3224 30.3485 28.315 30.3436 28.3076 30.3411C28.3002 30.3361 28.2928 30.3312 28.2853 30.3287C28.2779 30.3238 28.2705 30.3188 28.2631 30.3164C28.2557 30.3114 28.2483 30.3065 28.2408 30.304C28.2334 30.2991 28.226 30.2941 28.2186 30.2916C28.2112 30.2867 28.2038 30.2818 28.1963 30.2793C28.1889 30.2743 28.1815 30.2694 28.1741 30.2669C28.1667 30.262 28.1593 30.257 28.1519 30.2546C28.1444 30.2496 28.137 30.2447 28.1296 30.2422C28.1222 30.2373 28.1148 30.2323 28.1074 30.2299C28.0999 30.2249 28.0925 30.22 28.0851 30.2175C28.0777 30.2125 28.0703 30.2076 28.0629 30.2051C28.0554 30.2002 28.048 30.1952 28.0406 30.1928C28.0332 30.1878 28.0258 30.1829 28.0184 30.1804C27.917 30.1161 27.7761 30.1211 27.6179 30.2101L25.4698 31.4411V28.9939C25.4698 28.8135 25.4031 28.6899 25.2968 28.6355C25.2894 28.6305 25.282 28.6256 25.2746 28.6231C25.2671 28.6182 25.2597 28.6132 25.2523 28.6108C25.2449 28.6058 25.2375 28.6009 25.2301 28.5984C25.2227 28.5935 25.2152 28.5885 25.2078 28.586C25.2004 28.5811 25.193 28.5761 25.1856 28.5737C25.1782 28.5687 25.1707 28.5638 25.1633 28.5613C25.1559 28.5564 25.1485 28.5514 25.1411 28.549C25.1337 28.544 25.1262 28.5391 25.1188 28.5366C25.1114 28.5317 25.104 28.5267 25.0966 28.5242C25.0892 28.5193 25.0818 28.5144 25.0743 28.5119C25.0669 28.5069 25.0595 28.502 25.0521 28.4995C25.0447 28.4946 25.0373 28.4896 25.0298 28.4872C25.0224 28.4822 25.015 28.4773 25.0076 28.4748C25.0002 28.4699 24.9928 28.4649 24.9853 28.4624C24.9779 28.4575 24.9705 28.4526 24.9631 28.4501C24.9557 28.4451 24.9483 28.4402 24.9409 28.4377C24.9334 28.4328 24.926 28.4278 24.9186 28.4254C24.9112 28.4204 24.9038 28.4155 24.8964 28.413C24.8889 28.4081 24.8815 28.4031 24.8741 28.4006C24.8667 28.3957 24.8593 28.3908 24.8519 28.3883C24.8444 28.3833 24.837 28.3784 24.8296 28.3759C24.8222 28.371 24.8148 28.366 24.8074 28.3636C24.8 28.3586 24.7925 28.3537 24.7851 28.3512C24.7777 28.3463 24.7703 28.3413 24.7629 28.3388C24.7555 28.3339 24.748 28.329 24.7406 28.3265C24.7332 28.3215 24.7258 28.3166 24.7184 28.3141C24.711 28.3092 24.7036 28.3042 24.6961 28.3018C24.6887 28.2968 24.6813 28.2919 24.6739 28.2894C24.6665 28.2845 24.6591 28.2795 24.6516 28.277C24.6442 28.2721 24.6368 28.2672 24.6294 28.2647C24.622 28.2597 24.6146 28.2548 24.6071 28.2523C24.5997 28.2474 24.5923 28.2424 24.5849 28.24C24.5775 28.235 24.5701 28.2301 24.5627 28.2276C24.5552 28.2227 24.5478 28.2177 24.5404 28.2153C24.4391 28.151 24.2982 28.1559 24.14 28.2449L22.0833 29.424C21.7793 29.5995 21.5321 30.0222 21.5321 30.3707V33.4705C21.5321 33.6262 21.4209 33.8166 21.2849 33.8932L18.5708 35.4505C18.2667 35.626 18.0195 36.0487 18.0195 36.3972V38.7455C18.0195 38.926 18.0863 39.0496 18.1926 39.104C18.2 39.1089 18.2074 39.1139 18.2148 39.1163C18.2222 39.1213 18.2296 39.1262 18.2371 39.1287C18.2445 39.1336 18.2519 39.1386 18.2593 39.1411C18.2667 39.146 18.2741 39.1509 18.2816 39.1534C18.289 39.1584 18.2964 39.1633 18.3038 39.1658C18.3112 39.1707 18.3186 39.1757 18.326 39.1781C18.3335 39.1831 18.3409 39.188 18.3483 39.1905C18.3557 39.1954 18.3631 39.2004 18.3705 39.2029C18.378 39.2078 18.3854 39.2127 18.3928 39.2152C18.4002 39.2202 18.4076 39.2251 18.415 39.2276C18.4225 39.2325 18.4299 39.2375 18.4373 39.2399C18.4447 39.2449 18.4521 39.2498 18.4595 39.2523C18.4669 39.2572 18.4744 39.2622 18.4818 39.2647C18.4892 39.2696 18.4966 39.2745 18.504 39.277C18.5114 39.282 18.5189 39.2869 18.5263 39.2894C18.5337 39.2943 18.5411 39.2993 18.5485 39.3017C18.5559 39.3067 18.5633 39.3116 18.5708 39.3141C18.5782 39.319 18.5856 39.324 18.593 39.3264C18.6004 39.3314 18.6078 39.3363 18.6153 39.3388C18.6227 39.3437 18.6301 39.3487 18.6375 39.3512C18.6449 39.3561 18.6523 39.3611 18.6598 39.3635C18.6672 39.3685 18.6746 39.3734 18.682 39.3759C18.6894 39.3808 18.6968 39.3858 18.7042 39.3882C18.7117 39.3932 18.7191 39.3981 18.7265 39.4006C18.7339 39.4055 18.7413 39.4105 18.7487 39.413C18.7562 39.4179 18.7636 39.4229 18.771 39.4253C18.7784 39.4303 18.7858 39.4352 18.7932 39.4377C18.8007 39.4426 18.8081 39.4476 18.8155 39.45C18.8229 39.455 18.8303 39.4599 18.8377 39.4624C18.8451 39.4673 18.8526 39.4723 18.86 39.4748C18.8674 39.4797 18.8748 39.4846 18.8822 39.4871C18.8896 39.4921 18.8971 39.497 18.9045 39.4995C18.9119 39.5044 18.9193 39.5094 18.9267 39.5118C18.9341 39.5168 18.9415 39.5217 18.949 39.5242C19.0503 39.5885 19.1912 39.5835 19.3494 39.4945L21.4975 38.2635V40.7107C21.4975 40.8912 21.5642 41.0148 21.6705 41.0691C21.6779 41.0741 21.6854 41.079 21.6928 41.0815C21.7002 41.0864 21.7076 41.0914 21.715 41.0939C21.7224 41.0988 21.7299 41.1037 21.7373 41.1062C21.7447 41.1112 21.7521 41.1161 21.7595 41.1186C21.7669 41.1235 21.7743 41.1285 21.7818 41.1309C21.7892 41.1359 21.7966 41.1408 21.804 41.1433C21.8114 41.1482 21.8188 41.1532 21.8263 41.1557C21.8337 41.1606 21.8411 41.1655 21.8485 41.168C21.8559 41.173 21.8633 41.1779 21.8708 41.1804C21.8782 41.1853 21.8856 41.1903 21.893 41.1927C21.9004 41.1977 21.9078 41.2026 21.9152 41.2051C21.9227 41.21 21.9301 41.215 21.9375 41.2175C21.9449 41.2224 21.9523 41.2273 21.9597 41.2298C21.9672 41.2348 21.9746 41.2397 21.982 41.2422C21.9894 41.2471 21.9968 41.2521 22.0042 41.2545C22.0117 41.2595 22.0191 41.2644 22.0265 41.2669C22.0339 41.2718 22.0413 41.2768 22.0487 41.2792C22.0561 41.2842 22.0636 41.2891 22.071 41.2916C22.0784 41.2966 22.0858 41.3015 22.0932 41.304C22.1006 41.3089 22.1081 41.3139 22.1155 41.3163C22.1229 41.3213 22.1303 41.3262 22.1377 41.3287C22.1451 41.3336 22.1525 41.3386 22.16 41.341C22.1674 41.346 22.1748 41.3509 22.1822 41.3534C22.1896 41.3583 22.197 41.3633 22.2045 41.3658C22.2119 41.3707 22.2193 41.3757 22.2267 41.3781C22.2341 41.3831 22.2415 41.388 22.249 41.3905C22.2564 41.3954 22.2638 41.4004 22.2712 41.4028C22.2786 41.4078 22.286 41.4127 22.2934 41.4152C22.3009 41.4201 22.3083 41.4251 22.3157 41.4276C22.3231 41.4325 22.3305 41.4374 22.3379 41.4399C22.3454 41.4449 22.3528 41.4498 22.3602 41.4523C22.3676 41.4572 22.375 41.4622 22.3824 41.4646C22.3899 41.4696 22.3973 41.4745 22.4047 41.477C22.4121 41.4819 22.4195 41.4869 22.4269 41.4894C22.5283 41.5536 22.6692 41.5487 22.8274 41.4597L24.884 40.2806C25.188 40.1051 25.4352 39.6824 25.4352 39.3339V36.2341C25.4352 36.0784 25.5465 35.888 25.6824 35.8114L28.3966 34.2541C28.7006 34.0786 28.9478 33.6559 28.9478 33.3074V30.9591C28.9478 30.7786 28.8811 30.655 28.7748 30.6006Z" fill="#8DC6EA"/>
<path d="M38.4718 35.4631C38.4718 35.4631 38.4644 35.4607 38.4594 35.4582C38.4545 35.4582 38.452 35.4508 38.4495 35.4483C38.4446 35.4483 38.4421 35.4458 38.4372 35.4434C38.4322 35.4434 38.4298 35.436 38.4273 35.4335C38.4223 35.4335 38.4199 35.431 38.4149 35.4285C38.41 35.4285 38.4075 35.4211 38.405 35.4186C38.4001 35.4186 38.3976 35.4162 38.3927 35.4137C38.3877 35.4137 38.3853 35.4063 38.3828 35.4038C38.3778 35.4038 38.3754 35.4013 38.3704 35.3989C38.3655 35.3989 38.363 35.3915 38.3605 35.389C38.3556 35.389 38.3531 35.3865 38.3482 35.384C38.3432 35.384 38.3408 35.3766 38.3383 35.3742C38.3334 35.3742 38.3309 35.3717 38.3259 35.3692C38.321 35.3692 38.3185 35.3618 38.316 35.3593C38.3111 35.3593 38.3086 35.3568 38.3037 35.3544C38.2987 35.3544 38.2963 35.347 38.2938 35.3445C38.2889 35.3445 38.2864 35.342 38.2814 35.3395C38.2765 35.3395 38.274 35.3321 38.2716 35.3297C38.2666 35.3297 38.2641 35.3272 38.2592 35.3247C38.2542 35.3247 38.2518 35.3173 38.2493 35.3148C38.2444 35.3148 38.2419 35.3124 38.2369 35.3099C38.232 35.3074 38.2295 35.3025 38.2271 35.3C38.2221 35.3 38.2196 35.2975 38.2147 35.295C38.2098 35.295 38.2073 35.2876 38.2048 35.2852C38.1999 35.2852 38.1974 35.2827 38.1924 35.2802C38.1875 35.2802 38.185 35.2728 38.1826 35.2703C38.1776 35.2703 38.1751 35.2679 38.1702 35.2654C38.1653 35.2629 38.1628 35.258 38.1603 35.2555C38.1554 35.2555 38.1529 35.253 38.148 35.2506C38.143 35.2506 38.1405 35.2431 38.1381 35.2407C38.1331 35.2407 38.1307 35.2382 38.1257 35.2357C38.1208 35.2357 38.1183 35.2283 38.1158 35.2258C38.1109 35.2258 38.1084 35.2234 38.1035 35.2209C38.0985 35.2209 38.096 35.2135 38.0936 35.211C38.0886 35.211 38.0862 35.2085 38.0812 35.2061C38.0763 35.2061 38.0738 35.1986 38.0713 35.1962C38.0664 35.1962 38.0639 35.1937 38.059 35.1912C38.054 35.1912 38.0516 35.1838 38.0491 35.1813C38.0441 35.1813 38.0417 35.1789 38.0367 35.1764C38.0318 35.1764 38.0293 35.169 38.0268 35.1665C38.0219 35.1665 38.0194 35.164 38.0145 35.1616C38.0095 35.1616 38.0071 35.1542 38.0046 35.1517C37.9996 35.1517 37.9947 35.1492 37.9922 35.1467C37.9873 35.1467 37.9848 35.1393 37.9823 35.1368C37.9774 35.1368 37.9749 35.1344 37.97 35.1319C37.965 35.1319 37.9626 35.1245 37.9601 35.122C37.9551 35.122 37.9527 35.1195 37.9477 35.1171C37.9428 35.1171 37.9403 35.1097 37.9378 35.1072C37.9329 35.1072 37.9304 35.1047 37.9255 35.1022C37.9205 35.0998 37.9181 35.0948 37.9156 35.0924C37.9107 35.0924 37.9082 35.0899 37.9032 35.0874C37.8983 35.0874 37.8958 35.08 37.8934 35.0775C37.8884 35.0775 37.8859 35.0751 37.881 35.0726C37.876 35.0726 37.8736 35.0652 37.8711 35.0627C37.8662 35.0627 37.8637 35.0602 37.8587 35.0577C37.8538 35.0577 37.8513 35.0503 37.8489 35.0479C37.8439 35.0479 37.8414 35.0454 37.8365 35.0429C37.8316 35.0429 37.8291 35.0355 37.8266 35.033C37.8217 35.033 37.8192 35.0306 37.8142 35.0281C37.8093 35.0281 37.8068 35.0207 37.8044 35.0182C37.7994 35.0182 37.7969 35.0157 37.792 35.0133C37.7871 35.0133 37.7846 35.0058 37.7821 35.0034C37.7772 35.0034 37.7747 35.0009 37.7698 34.9984C37.7648 34.9984 37.7623 34.991 37.7599 34.9885C37.7549 34.9885 37.7525 34.9861 37.7475 34.9836C37.7426 34.9836 37.7401 34.9762 37.7376 34.9737C37.7327 34.9737 37.7302 34.9712 37.7253 34.9688C37.7203 34.9688 37.7178 34.9613 37.7154 34.9589C37.7104 34.9589 37.708 34.9564 37.703 34.9539C37.6981 34.9539 37.6956 34.9465 37.6931 34.944C37.5448 34.86 37.3421 34.8724 37.1147 35.0009L33.0657 37.3245C32.6158 37.584 32.25 38.2119 32.25 38.726C32.25 38.9831 32.3415 39.1636 32.4898 39.2476C32.4947 39.2476 32.4972 39.2501 32.5021 39.2526C32.5071 39.2526 32.5095 39.26 32.512 39.2625C32.517 39.2625 32.5194 39.2649 32.5244 39.2674C32.5293 39.2674 32.5318 39.2748 32.5343 39.2773C32.5392 39.2773 32.5417 39.2798 32.5466 39.2822C32.5516 39.2847 32.554 39.2896 32.5565 39.2921C32.5615 39.2921 32.5639 39.2946 32.5689 39.2971C32.5738 39.2971 32.5763 39.3045 32.5788 39.3069C32.5837 39.3069 32.5862 39.3094 32.5911 39.3119C32.5961 39.3119 32.5985 39.3193 32.601 39.3218C32.606 39.3218 32.6084 39.3243 32.6134 39.3267C32.6183 39.3267 32.6208 39.3341 32.6233 39.3366C32.6282 39.3366 32.6307 39.3391 32.6356 39.3416C32.6406 39.3416 32.643 39.349 32.6455 39.3514C32.6504 39.3514 32.6529 39.3539 32.6579 39.3564C32.6628 39.3564 32.6653 39.3638 32.6678 39.3663C32.6727 39.3663 32.6752 39.3687 32.6801 39.3712C32.6851 39.3712 32.6875 39.3786 32.69 39.3811C32.6949 39.3811 32.6999 39.3836 32.7024 39.386C32.7073 39.386 32.7098 39.3935 32.7122 39.3959C32.7172 39.3959 32.7197 39.3984 32.7246 39.4009C32.7295 39.4009 32.732 39.4083 32.7345 39.4108C32.7394 39.4108 32.7419 39.4132 32.7469 39.4157C32.7518 39.4157 32.7543 39.4231 32.7567 39.4256C32.7617 39.4256 32.7642 39.4281 32.7691 39.4305C32.774 39.433 32.7765 39.438 32.779 39.4404C32.7839 39.4404 32.7864 39.4429 32.7913 39.4454C32.7963 39.4454 32.7988 39.4528 32.8012 39.4553C32.8062 39.4553 32.8086 39.4577 32.8136 39.4602C32.8185 39.4602 32.821 39.4676 32.8235 39.4701C32.8284 39.4701 32.8309 39.4726 32.8358 39.475C32.8358 39.475 32.8383 39.4775 32.8408 39.48C32.8408 39.48 32.8433 39.4825 32.8457 39.4849C32.8482 39.4849 32.8531 39.4874 32.8581 39.4899C32.863 39.4899 32.8655 39.4973 32.868 39.4998C32.8729 39.4998 32.8754 39.5022 32.8803 39.5047C32.8853 39.5047 32.8877 39.5121 32.8902 39.5146C32.8952 39.5146 32.8976 39.5171 32.9026 39.5195C32.9075 39.5195 32.91 39.5269 32.9125 39.5294C32.9174 39.5294 32.9199 39.5319 32.9248 39.5344C32.9298 39.5344 32.9322 39.5418 32.9347 39.5442C32.9397 39.5442 32.9421 39.5467 32.9471 39.5492C32.952 39.5492 32.9545 39.5566 32.957 39.5591C32.9619 39.5591 32.9644 39.5616 32.9693 39.564C32.9743 39.564 32.9767 39.5714 32.9792 39.5739C32.9842 39.5739 32.9866 39.5764 32.9916 39.5789C32.9965 39.5789 32.999 39.5863 33.0015 39.5887C33.0064 39.5887 33.0113 39.5912 33.0138 39.5937C33.0188 39.5937 33.0212 39.6011 33.0237 39.6036C33.0287 39.6036 33.0311 39.606 33.0361 39.6085C33.041 39.6085 33.0435 39.6159 33.046 39.6184C33.0509 39.6184 33.0534 39.6209 33.0583 39.6234C33.0633 39.6234 33.0657 39.6308 33.0682 39.6332C33.0731 39.6332 33.0756 39.6357 33.0806 39.6382C33.0855 39.6407 33.088 39.6456 33.0904 39.6481C33.0954 39.6481 33.0979 39.6505 33.1028 39.653C33.1077 39.653 33.1102 39.6604 33.1127 39.6629C33.1176 39.6629 33.1201 39.6654 33.1251 39.6678C33.13 39.6678 33.1325 39.6753 33.1349 39.6777C33.1399 39.6777 33.1424 39.6802 33.1473 39.6827C33.1522 39.6851 33.1547 39.6901 33.1572 39.6926C33.1621 39.6926 33.1646 39.695 33.1695 39.6975C33.1745 39.6975 33.177 39.7049 33.1794 39.7074C33.1844 39.7074 33.1869 39.7099 33.1918 39.7123C33.1967 39.7123 33.1992 39.7198 33.2017 39.7222C33.2066 39.7222 33.2091 39.7247 33.214 39.7272C33.219 39.7272 33.2215 39.7346 33.2239 39.7371C33.2289 39.7371 33.2313 39.7395 33.2363 39.742C33.2412 39.742 33.2437 39.7494 33.2462 39.7519C33.2511 39.7519 33.2536 39.7544 33.2585 39.7568C33.2635 39.7568 33.266 39.7642 33.2684 39.7667C33.4167 39.8508 33.6194 39.8384 33.8468 39.7099L37.8958 37.3863C38.3482 37.1267 38.714 36.4989 38.714 35.9847C38.714 35.7276 38.6226 35.5472 38.4742 35.4631H38.4718Z" fill="#8DC6EA"/>
<path d="M43.289 26.4337C42.0655 27.1358 41.0742 26.5722 41.0742 25.1755C41.0742 23.7789 42.0655 22.0782 43.289 21.3762C44.5126 20.6742 45.5039 21.2378 45.5039 22.6344C45.5039 24.031 44.5126 25.7317 43.289 26.4337Z" fill="#F6F9FC"/>
<path d="M47.7187 28.9518C46.4951 29.6539 45.5039 29.0903 45.5039 27.6912C45.5039 26.2921 46.4951 24.5939 47.7187 23.8918C48.9423 23.1898 49.9336 23.7534 49.9336 25.15C49.9336 26.5467 48.9423 28.2473 47.7187 28.9494V28.9518Z" fill="#F6F9FC"/>
<path d="M47.7187 18.8361C46.4951 19.5381 45.5039 18.9745 45.5039 17.5779C45.5039 16.1813 46.4951 14.4806 47.7187 13.7786C48.9423 13.0765 49.9336 13.6401 49.9336 15.0368C49.9336 16.4334 48.9423 18.1341 47.7187 18.8361Z" fill="#F6F9FC"/>
<path d="M50.2656 19.906C50.2656 18.5094 51.2569 16.8087 52.4804 16.1067C53.704 15.4047 54.6953 15.9683 54.6953 17.3649C54.6953 18.7615 53.704 20.4622 52.4804 21.1642C51.2569 21.8662 50.2656 21.3026 50.2656 19.906Z" fill="#F6F9FC"/>
<path d="M28.3947 30.6431L25.6806 32.2004C25.5446 32.2795 25.4334 32.2153 25.4334 32.0595V28.9598C25.4334 28.6112 25.1862 28.4703 24.8821 28.6458L22.8255 29.8249C22.5215 30.0004 22.2743 30.4231 22.2743 30.7717V33.8714C22.2743 34.0272 22.1631 34.2175 22.0271 34.2941L19.313 35.8514C19.0089 36.0269 18.7617 36.4496 18.7617 36.7982V39.1465C18.7617 39.495 19.0089 39.6359 19.313 39.4604L22.0271 37.9031C22.1631 37.824 22.2743 37.8883 22.2743 38.044V41.1438C22.2743 41.4923 22.5215 41.6332 22.8255 41.4577L24.8821 40.2786C25.1862 40.1031 25.4334 39.6804 25.4334 39.3319V36.2321C25.4334 36.0764 25.5446 35.886 25.6806 35.8094L28.3947 34.2521C28.6988 34.0766 28.946 33.6539 28.946 33.3054V30.9571C28.946 30.6085 28.6988 30.4676 28.3947 30.6431Z" fill="#F6F9FC"/>
<path d="M37.8945 37.3867L33.8455 39.7103C33.6206 39.8388 33.4154 39.8512 33.2671 39.7672C33.1188 39.6831 33.0273 39.5027 33.0273 39.2456C33.0273 38.7314 33.3932 38.1036 33.8431 37.844L37.892 35.5204C38.117 35.3919 38.3222 35.3795 38.4705 35.4636C38.6188 35.5476 38.7102 35.7281 38.7102 35.9851C38.7102 36.4993 38.3444 37.1272 37.892 37.3867H37.8945Z" fill="#8DC6EA"/>
<path d="M26.707 3.72369V11.9205C26.707 11.9205 26.707 11.9279 26.707 11.9329C26.707 12.2987 26.9369 12.6423 27.3374 12.8722C27.6933 13.0774 28.1531 13.1812 28.6129 13.1812C29.0726 13.1812 29.5398 13.0774 29.9007 12.8673C30.3061 12.6349 30.5385 12.2888 30.5385 11.9205V3.71875L26.7095 3.72369H26.707Z" fill="#1D2939"/>
<path d="M28.6129 4.98072C28.1531 4.98072 27.6958 4.8769 27.3374 4.67173C26.9369 4.44184 26.707 4.09825 26.707 3.73241C26.707 3.36656 26.9394 3.01803 27.3448 2.78567C28.0641 2.37039 29.1913 2.36792 29.9081 2.78072C30.3086 3.01061 30.5385 3.3542 30.5385 3.72005C30.5385 4.08589 30.3061 4.43442 29.9007 4.66678C29.5398 4.87442 29.0751 4.98072 28.6129 4.98072Z" fill="#98A2B3"/>
</g>
<defs>
<clipPath id="clip0_3720_100713">
<rect width="57.6497" height="64" fill="white" transform="translate(0.5625)"/>
</clipPath>
</defs>
</svg>
