<svg width="64" height="64" viewBox="0 0 64 64" fill="none" xmlns="http://www.w3.org/2000/svg">
<path d="M27.8128 58.0181L5.38281 45.1582V19.1394L27.8128 5.98047L50.2429 18.8403V44.8592L27.8128 58.0181ZM8.37348 43.3638L27.8128 54.7284L47.2522 43.3638V20.6347L27.8128 9.56927L8.37348 20.6347V43.3638Z" fill="#CDE7F6"/>
<path d="M34.392 11.6625V3.88672L27.8125 7.77459V15.5503L34.392 11.6625Z" fill="#131E33"/>
<path d="M21.2344 11.6625V3.88672L27.8138 7.77459V15.5503L21.2344 11.6625Z" fill="#57A7E0"/>
<path d="M34.3933 3.88787L27.8138 0L21.2344 3.88787L27.8138 7.77574L34.3933 3.88787Z" fill="#CDE7F6"/>
<path d="M13.4584 23.9242V16.1484L6.87891 20.0363V27.812L13.4584 23.9242Z" fill="#131E33"/>
<path d="M0 23.9242V16.1484L6.87854 20.0363V27.812L0 23.9242Z" fill="#57A7E0"/>
<path d="M13.458 16.1496L6.87854 12.2617L0 16.1496L6.87854 20.0375L13.458 16.1496Z" fill="#CDE7F6"/>
<path d="M13.7574 48.1468V40.3711L6.87891 44.259V52.0347L13.7574 48.1468Z" fill="#131E33"/>
<path d="M0.300781 48.1468V40.3711L6.88025 44.259V52.0347L0.300781 48.1468Z" fill="#57A7E0"/>
<path d="M13.7588 40.3722L6.88025 36.4844L0.300781 40.3722L6.88025 44.2601L13.7588 40.3722Z" fill="#CDE7F6"/>
<path d="M34.691 60.1117V52.3359L27.8125 56.2238V63.9996L34.691 60.1117Z" fill="#131E33"/>
<path d="M21.2344 60.1117V52.3359L27.8138 56.2238V63.9996L21.2344 60.1117Z" fill="#57A7E0"/>
<path d="M34.6924 52.3371L27.8138 48.4492L21.2344 52.3371L27.8138 56.225L34.6924 52.3371Z" fill="#CDE7F6"/>
<path d="M34.691 35.8851V28.1094L27.8125 31.9972V39.773L34.691 35.8851Z" fill="#131E33"/>
<path d="M21.2344 35.8851V28.1094L27.8138 31.9972V39.773L21.2344 35.8851Z" fill="#57A7E0"/>
<path d="M34.6924 28.1105L27.8138 24.2227L21.2344 28.1105L27.8138 31.9984L34.6924 28.1105Z" fill="#CDE7F6"/>
<path d="M55.3256 48.1468V40.3711L48.7461 44.259V52.0347L55.3256 48.1468Z" fill="#131E33"/>
<path d="M41.8672 48.1468V40.3711L48.4467 44.259V52.0347L41.8672 48.1468Z" fill="#57A7E0"/>
<path d="M55.3269 40.3722L48.7474 36.4844L42.168 40.3722L48.7474 44.2601L55.3269 40.3722Z" fill="#CDE7F6"/>
<path d="M55.3256 22.4281V14.6523L48.7461 18.5402V26.316L55.3256 22.4281Z" fill="#131E33"/>
<path d="M42.168 22.4298V14.9531L48.7474 18.5419V26.3177L42.168 22.4298Z" fill="#57A7E0"/>
<path d="M55.3269 14.9526L48.7474 10.7656L42.168 14.6535L48.7474 18.8404L55.3269 14.9526Z" fill="#CDE7F6"/>
</svg>
