<svg width="64" height="64" viewBox="0 0 64 64" fill="none" xmlns="http://www.w3.org/2000/svg">
<g clip-path="url(#clip0_3720_100547)">
<path d="M42.44 46.8147C42.44 46.9995 42.44 47.2151 42.3784 47.3999C42.3784 47.5539 42.286 47.7079 42.2552 47.8619C42.1936 48.0467 42.1628 48.2315 42.1012 48.4163C42.0396 48.5703 41.978 48.7243 41.9164 48.8783C41.824 49.0631 41.7624 49.2479 41.6392 49.4634C41.5776 49.5866 41.4852 49.7406 41.3928 49.8638C41.2696 50.0794 41.1156 50.295 40.9616 50.5106C40.8692 50.6338 40.7768 50.757 40.6536 50.8802C40.4073 51.1574 40.1609 51.4346 39.8837 51.7118C39.7913 51.8042 39.6989 51.9274 39.5757 52.0197C39.3909 52.1737 39.2061 52.3277 39.0213 52.4817C38.8365 52.6049 38.6825 52.7589 38.4977 52.8821C38.2821 53.0361 38.0665 53.1901 37.851 53.3133C37.6046 53.4673 37.389 53.6213 37.1426 53.7753C36.3418 54.2373 35.4794 54.6377 34.5555 55.0072C34.3091 55.0996 34.0935 55.192 33.8471 55.2844C33.2927 55.5 32.7075 55.654 32.1224 55.808C31.5064 55.9928 30.8904 56.1468 30.2744 56.27C29.5353 56.424 28.7961 56.5472 28.0261 56.6704C27.8413 56.6704 27.6565 56.732 27.4717 56.732C26.4554 56.8552 25.4082 56.886 24.3611 56.9168C24.2071 56.9168 24.0223 56.9168 23.8683 56.9168C22.8519 56.9168 21.8048 56.8552 20.7884 56.732C20.6344 56.732 20.4804 56.7012 20.3264 56.6704C19.3101 56.5472 18.3245 56.3932 17.3389 56.1468C17.1541 56.116 17.0001 56.0544 16.8153 56.0236C15.9222 55.808 15.0906 55.5308 14.259 55.2536C14.105 55.192 13.9511 55.1612 13.7971 55.0996C12.8115 54.73 11.8567 54.2681 10.9944 53.7753C7.3601 51.681 5.54297 48.9091 5.54297 46.168V53.2825C5.54297 56.0236 7.3293 58.7955 10.9636 60.8898C11.7951 61.3826 12.6883 61.783 13.6123 62.1526C13.6739 62.1526 13.7047 62.1834 13.7663 62.2142C13.9203 62.2758 14.0742 62.3066 14.2282 62.3682C14.7518 62.553 15.3062 62.7685 15.8606 62.9225C16.1686 63.0149 16.4766 63.0765 16.7845 63.1381C16.9693 63.1689 17.1233 63.2305 17.3081 63.2613C17.4621 63.2921 17.6161 63.3537 17.7701 63.3845C18.3861 63.5077 18.9713 63.6309 19.618 63.6925C19.8336 63.7233 20.0492 63.7541 20.2956 63.7541C20.4496 63.7541 20.6036 63.7849 20.7576 63.8157C20.9732 63.8157 21.2196 63.8773 21.4352 63.8773C22.0511 63.9389 22.6363 63.9697 23.2523 63.9697C23.4371 63.9697 23.6219 63.9697 23.8375 63.9697C23.9915 63.9697 24.1763 63.9697 24.3303 63.9697C24.6075 63.9697 24.8846 63.9697 25.1618 63.9697C25.8394 63.9697 26.5478 63.9081 27.2254 63.8465C27.3177 63.8465 27.3793 63.8465 27.4409 63.8157C27.6257 63.8157 27.8105 63.7541 27.9953 63.7541C28.5189 63.6925 29.0733 63.6309 29.5661 63.5385C29.7817 63.5077 29.9972 63.4153 30.2436 63.3845C30.8904 63.2613 31.4756 63.1073 32.0916 62.9225C32.3996 62.8301 32.7691 62.7685 33.0771 62.6762C33.3235 62.5838 33.5699 62.4914 33.8163 62.399C34.0627 62.3066 34.3091 62.2142 34.5247 62.1218C35.4178 61.7522 36.311 61.3518 37.1118 60.8898C37.1734 60.859 37.2658 60.7974 37.3274 60.7666C37.4814 60.6742 37.6354 60.551 37.7894 60.4586C38.0049 60.3046 38.2513 60.1814 38.4669 60.0274C38.6517 59.9043 38.8057 59.7503 38.9905 59.6271C39.1753 59.4731 39.3909 59.3191 39.5449 59.1651C39.5757 59.1343 39.6373 59.1035 39.6681 59.0727C39.7297 59.0111 39.7913 58.9495 39.8529 58.8571C40.1301 58.5799 40.4073 58.3027 40.6228 58.0255C40.6844 57.9639 40.746 57.9023 40.8076 57.8407C40.8692 57.7791 40.9 57.7175 40.9308 57.6559C41.0848 57.4403 41.2388 57.2248 41.362 57.0092C41.4236 56.9168 41.4852 56.8244 41.5468 56.732C41.5468 56.7012 41.5776 56.6396 41.6084 56.578C41.7008 56.3932 41.7932 56.2084 41.8856 55.9928C41.9472 55.8696 42.0088 55.7772 42.0396 55.654C42.0396 55.6232 42.0396 55.5924 42.0704 55.5308C42.132 55.346 42.1936 55.1612 42.2244 54.9764C42.2552 54.8532 42.3168 54.73 42.3168 54.6069C42.3168 54.5761 42.3168 54.5453 42.3168 54.5145C42.3476 54.3297 42.3784 54.1141 42.3784 53.9293C42.3784 53.8061 42.4092 53.6829 42.4092 53.5597C42.4092 53.4981 42.4092 53.4673 42.4092 53.4057V46.2912C42.4092 46.476 42.4092 46.6608 42.4092 46.8147H42.44Z" fill="#131E33"/>
<path d="M37.0196 38.6532C44.2574 42.8418 44.319 49.5868 37.1428 53.7754C29.9667 57.9641 18.2323 57.9641 10.9946 53.7754C3.75689 49.5868 3.75689 42.8418 10.933 38.6532C18.1091 34.4646 29.7819 34.4646 37.0196 38.6532Z" fill="#CDE7F6"/>
<path d="M24.0836 54.268C19.6794 54.268 15.3675 53.2516 12.3185 51.4961C9.70055 49.9869 8.19141 48.0466 8.19141 46.1987C8.19141 44.3507 9.66975 42.4412 12.2569 40.9321C15.3367 39.1457 19.4946 38.1602 23.9604 38.1602C28.4262 38.1602 32.5841 39.1457 35.6948 40.9321C38.3127 42.4412 39.8526 44.3815 39.8526 46.2603C39.8526 48.1082 38.3743 49.9869 35.818 51.4961C32.7689 53.2516 28.5186 54.268 24.0836 54.268Z" fill="#70B7E4"/>
<path d="M36.9278 34.9866C36.9278 35.1714 36.9278 35.387 36.8662 35.5718C36.8662 35.7258 36.7738 35.8798 36.743 36.0338C36.6814 36.2186 36.6506 36.4034 36.589 36.5882C36.5274 36.7422 36.4658 36.8961 36.4042 37.0501C36.3118 37.2349 36.2502 37.4197 36.127 37.6353C36.0654 37.7585 35.973 37.9125 35.8806 38.0357C35.7575 38.2513 35.6035 38.4669 35.4495 38.6825C35.3571 38.8057 35.2647 38.9289 35.1415 39.0521C34.8951 39.3293 34.6487 39.6064 34.3715 39.8836C34.2791 39.976 34.1867 40.0992 34.0635 40.1916C33.8787 40.3456 33.6939 40.4996 33.5091 40.6536C33.3243 40.7768 33.1704 40.9308 32.9856 41.054C32.77 41.208 32.5544 41.362 32.3388 41.4852C32.0924 41.6392 31.8768 41.7932 31.6304 41.9472C30.8296 42.4091 29.9673 42.8095 29.0433 43.1791C28.7969 43.2715 28.5813 43.3639 28.3349 43.4563C27.7806 43.6719 27.1954 43.8259 26.6102 43.9799C25.9942 44.1647 25.3782 44.3187 24.7623 44.4419C24.0231 44.5959 23.2839 44.7191 22.514 44.8423C22.3292 44.8423 22.1444 44.9038 21.9596 44.9038C20.9432 45.027 19.8961 45.0578 18.8489 45.0886C18.6949 45.0886 18.5101 45.0886 18.3561 45.0886C17.3397 45.0886 16.2926 45.027 15.2762 44.9038C15.1222 44.9038 14.9682 44.8731 14.8142 44.8423C13.7979 44.7191 12.8123 44.5651 11.8268 44.3187C11.642 44.2879 11.488 44.2263 11.3032 44.1955C10.41 43.9799 9.57844 43.7027 8.74687 43.4255C8.59288 43.3639 8.43888 43.3331 8.28489 43.2715C7.29933 42.9019 6.34456 42.4399 5.48219 41.9472C1.81713 39.8528 0 37.0809 0 34.3398V41.4544C0 44.1955 1.78633 46.9674 5.4206 49.0617C6.25217 49.5545 7.14533 49.9549 8.0693 50.3244C8.13089 50.3244 8.16169 50.3552 8.22329 50.386C8.37729 50.4476 8.53128 50.4784 8.68527 50.54C9.20885 50.7248 9.76323 50.9404 10.3176 51.0944C10.6256 51.1868 10.9336 51.2484 11.2416 51.31C11.4264 51.3408 11.5804 51.4024 11.7652 51.4332C11.9192 51.464 12.0731 51.5256 12.2271 51.5564C12.8431 51.6796 13.4283 51.8028 14.0751 51.8644C14.2907 51.8952 14.5063 51.926 14.7526 51.926C14.9066 51.926 15.0606 51.9568 15.2146 51.9876C15.4302 51.9876 15.6766 52.0492 15.8922 52.0492C16.5082 52.1108 17.0934 52.1416 17.7093 52.1416C17.8941 52.1416 18.0789 52.1416 18.2945 52.1416C18.4485 52.1416 18.6333 52.1416 18.7873 52.1416C19.0645 52.1416 19.3417 52.1416 19.6189 52.1416C20.2964 52.1416 21.0048 52.08 21.6824 52.0184C21.7748 52.0184 21.8364 52.0184 21.898 51.9876C22.0828 51.9876 22.2676 51.926 22.4524 51.926C22.9759 51.8644 23.5303 51.8028 24.0231 51.7104C24.2387 51.6796 24.4543 51.5872 24.7007 51.5564C25.3474 51.4332 25.9326 51.2792 26.5486 51.0944C26.8566 51.002 27.2262 50.9404 27.5342 50.848C27.7806 50.7556 28.0269 50.6632 28.2733 50.5708C28.5197 50.4784 28.7661 50.386 28.9817 50.2936C29.8749 49.9241 30.768 49.5237 31.5688 49.0617C31.6304 49.0309 31.7228 48.9693 31.7844 48.9385C31.9384 48.8461 32.0924 48.7229 32.2464 48.6305C32.462 48.4765 32.7084 48.3533 32.924 48.1993C33.1088 48.0761 33.2627 47.9221 33.4475 47.7989C33.6323 47.6449 33.8479 47.491 34.0019 47.337C34.0327 47.3062 34.0943 47.2754 34.1251 47.2446C34.1867 47.183 34.2483 47.1214 34.3099 47.029C34.5871 46.7518 34.8643 46.4746 35.0799 46.1974C35.1415 46.1358 35.2031 46.0742 35.2647 46.0126C35.3263 45.951 35.3571 45.8894 35.3879 45.8278C35.5419 45.6122 35.6959 45.3966 35.8191 45.181C35.8807 45.0886 35.9422 44.9962 36.0038 44.9038C36.0038 44.873 36.0346 44.8115 36.0654 44.7499C36.1578 44.5651 36.2502 44.3803 36.3426 44.1647C36.4042 44.0415 36.4658 43.9491 36.4966 43.8259C36.4966 43.7951 36.4966 43.7643 36.5274 43.7027C36.589 43.5179 36.6506 43.3331 36.6814 43.1483C36.7122 43.0251 36.7738 42.9019 36.7738 42.7787C36.7738 42.7479 36.7738 42.7171 36.7738 42.6863C36.8046 42.5015 36.8354 42.2859 36.8354 42.1012C36.8354 41.978 36.8662 41.8548 36.8662 41.7316C36.8662 41.67 36.8662 41.6392 36.8662 41.5776V34.463C36.8662 34.6478 36.8662 34.8326 36.8662 34.9866H36.9278Z" fill="#131E33"/>
<path d="M31.4767 26.8251C38.7144 31.0137 38.776 37.7587 31.5999 41.9473C24.4237 46.136 12.6894 46.136 5.45165 41.9473C-1.78608 37.7587 -1.78608 31.0137 5.39005 26.8251C12.5662 22.6364 24.2389 22.6364 31.4767 26.8251Z" fill="#CDE7F6"/>
<path d="M18.5406 42.4398C14.1364 42.4398 9.82457 41.4235 6.77548 39.6679C4.15758 38.1588 2.64844 36.2185 2.64844 34.3705C2.64844 32.5226 4.12678 30.6131 6.71388 29.1039C9.79377 27.3176 13.9516 26.332 18.4174 26.332C22.8833 26.332 27.0411 27.3176 30.1518 29.1039C32.7697 30.6131 34.3097 32.5534 34.3097 34.4321C34.3097 36.2801 32.8313 38.1588 30.275 39.6679C27.2259 41.4235 22.9757 42.4398 18.5406 42.4398Z" fill="#70B7E4"/>
<path d="M47.0923 23.1312C47.0923 23.3159 47.0923 23.5315 47.0307 23.7163C47.0307 23.8703 46.9383 24.0243 46.9075 24.1783C46.8459 24.3631 46.8151 24.5479 46.7535 24.7327C46.6919 24.8867 46.6303 25.0407 46.5687 25.1947C46.4763 25.3795 46.4147 25.5643 46.2916 25.7799C46.23 25.903 46.1376 26.057 46.0452 26.1802C45.922 26.3958 45.768 26.6114 45.614 26.827C45.5216 26.9502 45.4292 27.0734 45.306 27.1966C45.0596 27.4738 44.8132 27.751 44.536 28.0282C44.4436 28.1206 44.3512 28.2438 44.228 28.3362C44.0432 28.4901 43.8585 28.6441 43.6737 28.7981C43.4889 28.9213 43.3349 29.0753 43.1501 29.1985C42.9345 29.3525 42.7189 29.5065 42.5033 29.6297C42.2569 29.7837 42.0413 29.9377 41.7949 30.0917C40.9942 30.5537 40.1318 30.9541 39.2078 31.3236C38.9614 31.416 38.7458 31.5084 38.4995 31.6008C37.9451 31.8164 37.3599 31.9704 36.7747 32.1244C36.1587 32.3092 35.5428 32.4632 34.9268 32.5864C34.1876 32.7404 33.4484 32.8636 32.6785 32.9868C32.4937 32.9868 32.3089 33.0484 32.1241 33.0484C31.1077 33.1716 30.0606 33.2024 29.0134 33.2332C28.8594 33.2332 28.6746 33.2332 28.5206 33.2332C27.5043 33.2332 26.4571 33.1716 25.4407 33.0484C25.2867 33.0484 25.1328 33.0176 24.9788 32.9868C23.9624 32.8636 22.9768 32.7096 21.9913 32.4632C21.8065 32.4324 21.6525 32.3708 21.4677 32.34C20.5745 32.1244 19.743 31.8472 18.9114 31.57C18.7574 31.5084 18.6034 31.4776 18.4494 31.416C17.4638 31.0465 16.5091 30.5845 15.6467 30.0917C12.0124 27.9974 10.1953 25.2255 10.1953 22.4844V29.5989C10.1953 32.34 11.9816 35.1119 15.6159 37.2062C16.4475 37.699 17.3406 38.0994 18.2646 38.469C18.3262 38.469 18.357 38.4998 18.4186 38.5306C18.5726 38.5922 18.7266 38.623 18.8806 38.6846C19.4042 38.8694 19.9585 39.085 20.5129 39.2389C20.8209 39.3313 21.1289 39.3929 21.4369 39.4545C21.6217 39.4853 21.7757 39.5469 21.9605 39.5777C22.1145 39.6085 22.2685 39.6701 22.4225 39.7009C23.0384 39.8241 23.6236 39.9473 24.2704 40.0089C24.486 40.0397 24.7016 40.0705 24.948 40.0705C25.102 40.0705 25.2559 40.1013 25.4099 40.1321C25.6255 40.1321 25.8719 40.1937 26.0875 40.1937C26.7035 40.2553 27.2887 40.2861 27.9046 40.2861C28.0894 40.2861 28.2742 40.2861 28.4898 40.2861C28.6438 40.2861 28.8286 40.2861 28.9826 40.2861C29.2598 40.2861 29.537 40.2861 29.8142 40.2861C30.4918 40.2861 31.2001 40.2245 31.8777 40.1629C31.9701 40.1629 32.0317 40.1629 32.0933 40.1321C32.2781 40.1321 32.4629 40.0705 32.6477 40.0705C33.1713 40.0089 33.7256 39.9473 34.2184 39.8549C34.434 39.8241 34.6496 39.7317 34.896 39.7009C35.5428 39.5777 36.1279 39.4237 36.7439 39.2389C37.0519 39.1465 37.4215 39.085 37.7295 38.9926C37.9759 38.9002 38.2223 38.8078 38.4687 38.7154C38.715 38.623 38.9614 38.5306 39.177 38.4382C40.0702 38.0686 40.9634 37.6682 41.7641 37.2062C41.8257 37.1754 41.9181 37.1138 41.9797 37.083C42.1337 36.9906 42.2877 36.8674 42.4417 36.775C42.6573 36.621 42.9037 36.4978 43.1193 36.3439C43.3041 36.2207 43.4581 36.0667 43.6429 35.9435C43.8277 35.7895 44.0432 35.6355 44.1972 35.4815C44.228 35.4507 44.2896 35.4199 44.3204 35.3891C44.382 35.3275 44.4436 35.2659 44.5052 35.1735C44.7824 34.8963 45.0596 34.6191 45.2752 34.3419C45.3368 34.2803 45.3984 34.2187 45.46 34.1571C45.5216 34.0955 45.5524 34.0339 45.5832 33.9723C45.7372 33.7568 45.8912 33.5412 46.0144 33.3256C46.076 33.2332 46.1376 33.1408 46.1992 33.0484C46.1992 33.0176 46.23 32.956 46.2608 32.8944C46.3532 32.7096 46.4455 32.5248 46.5379 32.3092C46.5995 32.186 46.6611 32.0936 46.6919 31.9704C46.6919 31.9396 46.6919 31.9088 46.7227 31.8472C46.7843 31.6624 46.8459 31.4776 46.8767 31.2928C46.9075 31.1696 46.9691 31.0465 46.9691 30.9233C46.9691 30.8925 46.9691 30.8617 46.9691 30.8309C46.9999 30.6461 47.0307 30.4305 47.0307 30.2457C47.0307 30.1225 47.0615 29.9993 47.0615 29.8761C47.0615 29.8145 47.0615 29.7837 47.0615 29.7221V22.6076C47.0615 22.7924 47.0615 22.9772 47.0615 23.1312H47.0923Z" fill="#131E33"/>
<path d="M41.6407 14.9696C48.8785 19.1582 48.9401 25.9032 41.7639 30.0918C34.5878 34.2805 22.8534 34.2805 15.6157 30.0918C8.37798 25.9032 8.37798 19.1582 15.5541 14.9696C22.7302 10.781 34.403 10.781 41.6407 14.9696Z" fill="#CDE7F6"/>
<path d="M28.7047 30.5844C24.3005 30.5844 19.9886 29.568 16.9395 27.8125C14.3216 26.3033 12.8125 24.363 12.8125 22.5151C12.8125 20.6671 14.2908 18.7576 16.8779 17.2485C19.9578 15.4621 24.1157 14.4766 28.5815 14.4766C33.0473 14.4766 37.2052 15.4621 40.3159 17.2485C42.9338 18.7576 44.4737 20.6979 44.4737 22.5767C44.4737 24.4246 42.9954 26.3033 40.4391 27.8125C37.39 29.568 33.1397 30.5844 28.7047 30.5844Z" fill="#70B7E4"/>
<path d="M39.7017 11.303C39.7017 11.4878 39.7017 11.7034 39.6401 11.8882C39.6401 12.0422 39.5477 12.1962 39.5169 12.3502C39.4553 12.535 39.4245 12.7198 39.3629 12.9046C39.3013 13.0586 39.2397 13.2126 39.1781 13.3665C39.0857 13.5513 39.0241 13.7361 38.9009 13.9517C38.8393 14.0749 38.7469 14.2289 38.6545 14.3521C38.5313 14.5677 38.3773 14.7833 38.2234 14.9989C38.131 15.1221 38.0386 15.2453 37.9154 15.3685C37.669 15.6457 37.4226 15.9229 37.1454 16.2C37.053 16.2924 36.9606 16.4156 36.8374 16.508C36.6526 16.662 36.4678 16.816 36.283 16.97C36.0982 17.0932 35.9442 17.2472 35.7594 17.3704C35.5439 17.5244 35.3283 17.6784 35.1127 17.8016C34.8663 17.9556 34.6507 18.1096 34.4043 18.2636C33.6035 18.7255 32.7412 19.1259 31.8172 19.4955C31.5708 19.5879 31.3552 19.6803 31.1088 19.7727C30.5544 19.9883 29.9693 20.1423 29.3841 20.2963C28.7681 20.4811 28.1521 20.6351 27.5362 20.7583C26.797 20.9123 26.0578 21.0355 25.2878 21.1587C25.1031 21.1587 24.9183 21.2203 24.7335 21.2203C23.7171 21.3434 22.6699 21.3742 21.6228 21.405C21.4688 21.405 21.284 21.405 21.13 21.405C20.1136 21.405 19.0665 21.3434 18.0501 21.2203C17.8961 21.2203 17.7421 21.1895 17.5881 21.1587C16.5718 21.0355 15.5862 20.8815 14.6006 20.6351C14.4159 20.6043 14.2619 20.5427 14.0771 20.5119C13.1839 20.2963 12.3523 20.0191 11.5208 19.7419C11.3668 19.6803 11.2128 19.6495 11.0588 19.5879C10.0732 19.2183 9.11845 18.7563 8.25608 18.2636C4.62182 16.1692 2.80469 13.3973 2.80469 10.6562V17.7708C2.80469 20.5119 4.59102 23.2838 8.22528 25.3781C9.05685 25.8709 9.95002 26.2713 10.874 26.6408C10.9356 26.6408 10.9664 26.6716 11.028 26.7024C11.182 26.764 11.336 26.7948 11.49 26.8564C12.0135 27.0412 12.5679 27.2568 13.1223 27.4108C13.4303 27.5032 13.7383 27.5648 14.0463 27.6264C14.2311 27.6572 14.3851 27.7188 14.5698 27.7496C14.7238 27.7804 14.8778 27.842 15.0318 27.8728C15.6478 27.996 16.233 28.1192 16.8798 28.1808C17.0954 28.2116 17.3109 28.2424 17.5573 28.2424C17.7113 28.2424 17.8653 28.2732 18.0193 28.304C18.2349 28.304 18.4813 28.3656 18.6969 28.3656C19.3129 28.4272 19.898 28.458 20.514 28.458C20.6988 28.458 20.8836 28.458 21.0992 28.458C21.2532 28.458 21.438 28.458 21.592 28.458C21.8692 28.458 22.1464 28.458 22.4236 28.458C23.1011 28.458 23.8095 28.3964 24.4871 28.3348C24.5795 28.3348 24.6411 28.3348 24.7027 28.304C24.8875 28.304 25.0723 28.2424 25.257 28.2424C25.7806 28.1808 26.335 28.1192 26.8278 28.0268C27.0434 27.996 27.259 27.9036 27.5054 27.8728C28.1521 27.7496 28.7373 27.5956 29.3533 27.4108C29.6613 27.3184 30.0309 27.2568 30.3389 27.1644C30.5852 27.072 30.8316 26.9796 31.078 26.8872C31.3244 26.7948 31.5708 26.7024 31.7864 26.6101C32.6796 26.2405 33.5727 25.8401 34.3735 25.3781C34.4351 25.3473 34.5275 25.2857 34.5891 25.2549C34.7431 25.1625 34.8971 25.0393 35.0511 24.9469C35.2667 24.7929 35.5131 24.6697 35.7287 24.5157C35.9134 24.3925 36.0674 24.2385 36.2522 24.1153C36.437 23.9614 36.6526 23.8074 36.8066 23.6534C36.8374 23.6226 36.899 23.5918 36.9298 23.561C36.9914 23.4994 37.053 23.4378 37.1146 23.3454C37.3918 23.0682 37.669 22.791 37.8846 22.5138C37.9462 22.4522 38.0078 22.3906 38.0694 22.329C38.131 22.2674 38.1618 22.2058 38.1926 22.1442C38.3465 21.9286 38.5005 21.713 38.6237 21.4974C38.6853 21.405 38.7469 21.3126 38.8085 21.2203C38.8085 21.1895 38.8393 21.1279 38.8701 21.0663C38.9625 20.8815 39.0549 20.6967 39.1473 20.4811C39.2089 20.3579 39.2705 20.2655 39.3013 20.1423C39.3013 20.1115 39.3013 20.0807 39.3321 20.0191C39.3937 19.8343 39.4553 19.6495 39.4861 19.4647C39.5169 19.3415 39.5785 19.2183 39.5785 19.0951C39.5785 19.0643 39.5785 19.0335 39.5785 19.0027C39.6093 18.8179 39.6401 18.6024 39.6401 18.4176C39.6401 18.2944 39.6709 18.1712 39.6709 18.048C39.6709 17.9864 39.6709 17.9556 39.6709 17.894V10.7794C39.6709 10.9642 39.6709 11.149 39.6709 11.303H39.7017Z" fill="#131E33"/>
<path d="M34.2501 3.14148C41.4878 7.33012 41.5494 14.0751 34.3733 18.2637C27.1972 22.4524 15.4628 22.4524 8.22508 18.2637C0.987355 14.0751 0.987355 7.33012 8.16349 3.14148C15.3396 -1.04716 27.0124 -1.04716 34.2501 3.14148Z" fill="#CDE7F6"/>
<path d="M21.3141 18.7562C16.9098 18.7562 12.598 17.7399 9.54892 15.9843C6.93102 14.4752 5.42188 12.5349 5.42188 10.6869C5.42188 8.83901 6.90022 6.92948 9.48732 5.42033C12.5672 3.634 16.725 2.64844 21.1909 2.64844C25.6567 2.64844 29.8146 3.634 32.9252 5.42033C35.5431 6.92948 37.0831 8.8698 37.0831 10.7485C37.0831 12.5965 35.6047 14.4752 33.0484 15.9843C29.9993 17.7399 25.7491 18.7562 21.3141 18.7562Z" fill="#70B7E4"/>
</g>
<defs>
<clipPath id="clip0_3720_100547">
<rect width="47.1222" height="64" fill="white"/>
</clipPath>
</defs>
</svg>
