<svg width="316" height="190" viewBox="0 0 316 190" fill="none" xmlns="http://www.w3.org/2000/svg">
<g clip-path="url(#clip0_8600_60689)">
<rect width="316" height="190" rx="20" fill="url(#paint0_linear_8600_60689)"/>
<g filter="url(#filter0_f_8600_60689)">
<path opacity="0.3" d="M-16 64C-16 19.8172 19.8172 -16 64 -16V64H-16Z" fill="#85E13A"/>
<path opacity="0.3" d="M64 -16C108.183 -16 144 19.8172 144 64H64V-16Z" fill="#85E13A"/>
<path opacity="0.3" d="M-16 64H64V144C19.8172 144 -16 108.183 -16 64Z" fill="#D5F564"/>
<path opacity="0.3" d="M64 64H144C144 108.183 108.183 144 64 144V64Z" fill="#85E13A"/>
</g>
<path d="M265.84 150V144.216H266.36V150H265.84ZM272.067 148.424C272.067 148.712 272.008 148.96 271.891 149.168C271.774 149.376 271.619 149.547 271.427 149.68C271.235 149.813 271.014 149.912 270.763 149.976C270.518 150.04 270.267 150.072 270.011 150.072C269.744 150.072 269.499 150.043 269.275 149.984C269.051 149.925 268.854 149.832 268.683 149.704C268.518 149.576 268.382 149.413 268.275 149.216C268.168 149.013 268.102 148.773 268.075 148.496H268.619C268.624 148.704 268.667 148.88 268.747 149.024C268.827 149.168 268.931 149.285 269.059 149.376C269.187 149.467 269.334 149.533 269.499 149.576C269.67 149.613 269.848 149.632 270.035 149.632C270.211 149.632 270.387 149.613 270.563 149.576C270.744 149.533 270.907 149.469 271.051 149.384C271.195 149.293 271.312 149.176 271.403 149.032C271.494 148.888 271.539 148.715 271.539 148.512C271.539 148.357 271.507 148.221 271.443 148.104C271.384 147.987 271.299 147.883 271.187 147.792C271.08 147.701 270.95 147.621 270.795 147.552C270.646 147.483 270.478 147.419 270.291 147.36L269.867 147.224C269.632 147.149 269.416 147.069 269.219 146.984C269.022 146.899 268.851 146.797 268.707 146.68C268.563 146.563 268.448 146.424 268.363 146.264C268.283 146.099 268.243 145.904 268.243 145.68C268.243 145.408 268.296 145.176 268.403 144.984C268.515 144.792 268.659 144.635 268.835 144.512C269.016 144.384 269.222 144.291 269.451 144.232C269.68 144.173 269.915 144.144 270.155 144.144C270.374 144.144 270.59 144.168 270.803 144.216C271.022 144.259 271.214 144.333 271.379 144.44C271.55 144.541 271.688 144.68 271.795 144.856C271.902 145.027 271.958 145.24 271.963 145.496H271.427C271.411 145.32 271.366 145.173 271.291 145.056C271.222 144.939 271.131 144.845 271.019 144.776C270.907 144.701 270.779 144.651 270.635 144.624C270.491 144.592 270.339 144.576 270.179 144.576C270.014 144.576 269.846 144.597 269.675 144.64C269.51 144.677 269.36 144.739 269.227 144.824C269.094 144.904 268.984 145.013 268.899 145.152C268.814 145.285 268.771 145.448 268.771 145.64C268.771 145.923 268.878 146.149 269.091 146.32C269.31 146.485 269.643 146.64 270.091 146.784L270.571 146.936C270.806 147.011 271.014 147.091 271.195 147.176C271.376 147.256 271.531 147.352 271.659 147.464C271.787 147.576 271.886 147.709 271.955 147.864C272.024 148.019 272.062 148.205 272.067 148.424ZM277.405 148.424C277.405 148.712 277.346 148.96 277.229 149.168C277.111 149.376 276.957 149.547 276.765 149.68C276.573 149.813 276.351 149.912 276.101 149.976C275.855 150.04 275.605 150.072 275.349 150.072C275.082 150.072 274.837 150.043 274.613 149.984C274.389 149.925 274.191 149.832 274.021 149.704C273.855 149.576 273.719 149.413 273.613 149.216C273.506 149.013 273.439 148.773 273.413 148.496H273.957C273.962 148.704 274.005 148.88 274.085 149.024C274.165 149.168 274.269 149.285 274.397 149.376C274.525 149.467 274.671 149.533 274.837 149.576C275.007 149.613 275.186 149.632 275.373 149.632C275.549 149.632 275.725 149.613 275.901 149.576C276.082 149.533 276.245 149.469 276.389 149.384C276.533 149.293 276.65 149.176 276.741 149.032C276.831 148.888 276.877 148.715 276.877 148.512C276.877 148.357 276.845 148.221 276.781 148.104C276.722 147.987 276.637 147.883 276.525 147.792C276.418 147.701 276.287 147.621 276.133 147.552C275.983 147.483 275.815 147.419 275.629 147.36L275.205 147.224C274.97 147.149 274.754 147.069 274.557 146.984C274.359 146.899 274.189 146.797 274.045 146.68C273.901 146.563 273.786 146.424 273.701 146.264C273.621 146.099 273.581 145.904 273.581 145.68C273.581 145.408 273.634 145.176 273.741 144.984C273.853 144.792 273.997 144.635 274.173 144.512C274.354 144.384 274.559 144.291 274.789 144.232C275.018 144.173 275.253 144.144 275.493 144.144C275.711 144.144 275.927 144.168 276.141 144.216C276.359 144.259 276.551 144.333 276.717 144.44C276.887 144.541 277.026 144.68 277.133 144.856C277.239 145.027 277.295 145.24 277.301 145.496H276.765C276.749 145.32 276.703 145.173 276.629 145.056C276.559 144.939 276.469 144.845 276.357 144.776C276.245 144.701 276.117 144.651 275.973 144.624C275.829 144.592 275.677 144.576 275.517 144.576C275.351 144.576 275.183 144.597 275.013 144.64C274.847 144.677 274.698 144.739 274.565 144.824C274.431 144.904 274.322 145.013 274.237 145.152C274.151 145.285 274.109 145.448 274.109 145.64C274.109 145.923 274.215 146.149 274.429 146.32C274.647 146.485 274.981 146.64 275.429 146.784L275.909 146.936C276.143 147.011 276.351 147.091 276.533 147.176C276.714 147.256 276.869 147.352 276.997 147.464C277.125 147.576 277.223 147.709 277.293 147.864C277.362 148.019 277.399 148.205 277.405 148.424ZM283.47 147.872C283.47 148.219 283.419 148.528 283.318 148.8C283.217 149.072 283.07 149.304 282.878 149.496C282.691 149.688 282.459 149.835 282.182 149.936C281.91 150.037 281.601 150.088 281.254 150.088C280.539 150.088 279.99 149.899 279.606 149.52C279.227 149.136 279.038 148.587 279.038 147.872V144.216H279.582V147.688C279.582 147.912 279.593 148.136 279.614 148.36C279.641 148.584 279.718 148.792 279.846 148.984C280.001 149.219 280.206 149.389 280.462 149.496C280.723 149.597 280.987 149.648 281.254 149.648C281.574 149.648 281.873 149.579 282.15 149.44C282.427 149.301 282.635 149.08 282.774 148.776C282.849 148.611 282.891 148.432 282.902 148.24C282.918 148.048 282.926 147.864 282.926 147.688V144.216H283.47V147.872ZM285.471 150V144.216H288.903V144.648H285.991V146.776H288.791V147.208H285.991V149.568H289.023V150H285.471ZM295.228 147.088C295.228 147.477 295.18 147.84 295.084 148.176C294.993 148.512 294.852 148.808 294.66 149.064C294.468 149.32 294.222 149.528 293.924 149.688C293.625 149.843 293.27 149.939 292.86 149.976C292.7 149.992 292.537 150 292.372 150C292.212 150 292.052 150 291.892 150H290.684V144.216H292.244C292.441 144.216 292.622 144.219 292.788 144.224C292.953 144.229 293.108 144.245 293.252 144.272C293.401 144.293 293.545 144.331 293.684 144.384C293.822 144.432 293.966 144.504 294.116 144.6C294.313 144.728 294.481 144.883 294.62 145.064C294.764 145.24 294.878 145.437 294.964 145.656C295.054 145.869 295.121 146.099 295.164 146.344C295.206 146.584 295.228 146.832 295.228 147.088ZM294.684 147.08C294.684 146.883 294.67 146.685 294.644 146.488C294.617 146.291 294.572 146.101 294.508 145.92C294.444 145.733 294.356 145.56 294.244 145.4C294.132 145.24 293.99 145.099 293.82 144.976C293.708 144.896 293.585 144.835 293.452 144.792C293.318 144.744 293.182 144.712 293.044 144.696C292.905 144.675 292.764 144.661 292.62 144.656C292.481 144.651 292.345 144.648 292.212 144.648H291.204V149.568H292.38C292.801 149.568 293.156 149.515 293.444 149.408C293.737 149.296 293.974 149.136 294.156 148.928C294.342 148.715 294.476 148.453 294.556 148.144C294.641 147.835 294.684 147.48 294.684 147.08Z" fill="#F6F9FC"/>
<path d="M235.98 167V159.523C235.835 159.653 235.701 159.767 235.579 159.867C235.457 159.958 235.327 160.046 235.189 160.13C235.051 160.215 234.902 160.302 234.742 160.394C234.581 160.486 234.394 160.593 234.18 160.715V160.004C234.547 159.844 234.876 159.66 235.166 159.454C235.457 159.24 235.743 158.991 236.026 158.708H236.691V167H235.98ZM240.368 167V166.209C240.658 165.941 240.987 165.628 241.354 165.268C241.729 164.909 242.096 164.53 242.455 164.133C242.822 163.735 243.162 163.338 243.476 162.94C243.789 162.543 244.038 162.172 244.221 161.828C244.397 161.499 244.485 161.143 244.485 160.761C244.485 160.264 244.336 159.878 244.038 159.603C243.747 159.328 243.369 159.19 242.902 159.19C242.405 159.19 242 159.347 241.687 159.66C241.381 159.966 241.232 160.383 241.239 160.91H240.46C240.467 160.536 240.532 160.203 240.655 159.913C240.777 159.622 240.945 159.377 241.159 159.179C241.381 158.972 241.641 158.819 241.939 158.72C242.237 158.613 242.562 158.559 242.914 158.559C243.243 158.559 243.548 158.605 243.831 158.697C244.122 158.781 244.374 158.915 244.588 159.098C244.802 159.274 244.967 159.496 245.081 159.763C245.204 160.031 245.265 160.341 245.265 160.692C245.265 160.991 245.215 161.277 245.116 161.553C245.024 161.828 244.902 162.092 244.749 162.344C244.596 162.596 244.424 162.841 244.233 163.078C244.049 163.307 243.869 163.529 243.694 163.743C243.311 164.202 242.898 164.649 242.455 165.085C242.019 165.513 241.591 165.933 241.171 166.346H245.368V167H240.368ZM247.45 167.126H246.728L249.446 158.559H250.157L247.45 167.126ZM253.895 167V159.523C253.75 159.653 253.616 159.767 253.494 159.867C253.371 159.958 253.241 160.046 253.104 160.13C252.966 160.215 252.817 160.302 252.657 160.394C252.496 160.486 252.309 160.593 252.095 160.715V160.004C252.462 159.844 252.79 159.66 253.081 159.454C253.371 159.24 253.658 158.991 253.941 158.708H254.606V167H253.895ZM258.283 167V166.209C258.573 165.941 258.902 165.628 259.269 165.268C259.644 164.909 260.011 164.53 260.37 164.133C260.737 163.735 261.077 163.338 261.391 162.94C261.704 162.543 261.953 162.172 262.136 161.828C262.312 161.499 262.4 161.143 262.4 160.761C262.4 160.264 262.251 159.878 261.953 159.603C261.662 159.328 261.284 159.19 260.817 159.19C260.32 159.19 259.915 159.347 259.601 159.66C259.296 159.966 259.147 160.383 259.154 160.91H258.374C258.382 160.536 258.447 160.203 258.569 159.913C258.692 159.622 258.86 159.377 259.074 159.179C259.296 158.972 259.556 158.819 259.854 158.72C260.152 158.613 260.477 158.559 260.829 158.559C261.157 158.559 261.463 158.605 261.746 158.697C262.037 158.781 262.289 158.915 262.503 159.098C262.717 159.274 262.881 159.496 262.996 159.763C263.118 160.031 263.18 160.341 263.18 160.692C263.18 160.991 263.13 161.277 263.031 161.553C262.939 161.828 262.816 162.092 262.664 162.344C262.511 162.596 262.339 162.841 262.147 163.078C261.964 163.307 261.784 163.529 261.608 163.743C261.226 164.202 260.813 164.649 260.37 165.085C259.934 165.513 259.506 165.933 259.085 166.346H263.283V167H258.283ZM265.365 167.126H264.643L267.361 158.559H268.072L265.365 167.126ZM269.207 167V166.209C269.497 165.941 269.826 165.628 270.193 165.268C270.568 164.909 270.935 164.53 271.294 164.133C271.661 163.735 272.001 163.338 272.315 162.94C272.628 162.543 272.877 162.172 273.06 161.828C273.236 161.499 273.324 161.143 273.324 160.761C273.324 160.264 273.175 159.878 272.877 159.603C272.586 159.328 272.208 159.19 271.741 159.19C271.244 159.19 270.839 159.347 270.526 159.66C270.22 159.966 270.071 160.383 270.078 160.91H269.298C269.306 160.536 269.371 160.203 269.493 159.913C269.616 159.622 269.784 159.377 269.998 159.179C270.22 158.972 270.48 158.819 270.778 158.72C271.076 158.613 271.401 158.559 271.753 158.559C272.081 158.559 272.387 158.605 272.67 158.697C272.961 158.781 273.213 158.915 273.427 159.098C273.641 159.274 273.806 159.496 273.92 159.763C274.043 160.031 274.104 160.341 274.104 160.692C274.104 160.991 274.054 161.277 273.955 161.553C273.863 161.828 273.741 162.092 273.588 162.344C273.435 162.596 273.263 162.841 273.072 163.078C272.888 163.307 272.708 163.529 272.533 163.743C272.15 164.202 271.737 164.649 271.294 165.085C270.858 165.513 270.43 165.933 270.009 166.346H274.207V167H269.207ZM281.439 162.734C281.439 163.185 281.404 163.667 281.335 164.179C281.266 164.691 281.133 165.165 280.934 165.601C280.743 166.037 280.475 166.4 280.131 166.69C279.787 166.973 279.34 167.115 278.789 167.115C278.407 167.115 278.078 167.05 277.803 166.92C277.528 166.782 277.291 166.602 277.092 166.381C276.901 166.151 276.744 165.888 276.622 165.589C276.507 165.291 276.415 164.978 276.347 164.649C276.278 164.32 276.232 163.988 276.209 163.651C276.186 163.315 276.175 162.994 276.175 162.688C276.175 162.267 276.213 161.816 276.289 161.335C276.366 160.853 276.503 160.406 276.702 159.993C276.901 159.58 277.172 159.24 277.516 158.972C277.86 158.697 278.304 158.559 278.847 158.559C279.389 158.559 279.829 158.693 280.166 158.961C280.502 159.228 280.766 159.569 280.957 159.981C281.148 160.394 281.274 160.845 281.335 161.335C281.404 161.824 281.439 162.29 281.439 162.734ZM280.67 162.86C280.67 162.653 280.662 162.42 280.647 162.16C280.632 161.893 280.601 161.621 280.555 161.346C280.517 161.071 280.456 160.803 280.372 160.543C280.288 160.283 280.177 160.054 280.039 159.855C279.909 159.649 279.745 159.484 279.546 159.362C279.355 159.232 279.122 159.167 278.847 159.167C278.419 159.167 278.078 159.297 277.826 159.557C277.581 159.817 277.39 160.138 277.253 160.52C277.123 160.895 277.038 161.293 277 161.713C276.962 162.134 276.943 162.508 276.943 162.837C276.943 163.036 276.951 163.269 276.966 163.537C276.981 163.797 277.012 164.064 277.058 164.339C277.103 164.607 277.165 164.875 277.241 165.142C277.325 165.402 277.436 165.635 277.574 165.842C277.711 166.04 277.876 166.205 278.067 166.335C278.266 166.457 278.499 166.518 278.766 166.518C279.042 166.518 279.279 166.457 279.477 166.335C279.684 166.213 279.856 166.052 279.993 165.853C280.139 165.654 280.253 165.429 280.338 165.177C280.429 164.917 280.498 164.653 280.544 164.385C280.597 164.11 280.632 163.842 280.647 163.582C280.662 163.315 280.67 163.074 280.67 162.86ZM287.409 165.142V167H286.663V165.142H282.936V164.339L286.48 158.708H287.409V164.511H288.682V165.142H287.409ZM286.675 159.5L283.59 164.511H286.675V159.5ZM295.351 162.436C295.351 162.749 295.34 163.082 295.317 163.433C295.294 163.785 295.248 164.137 295.179 164.488C295.118 164.84 295.026 165.18 294.904 165.509C294.782 165.83 294.617 166.117 294.411 166.369C294.212 166.614 293.964 166.813 293.665 166.966C293.375 167.111 293.027 167.183 292.622 167.183C292.285 167.183 291.972 167.138 291.681 167.046C291.398 166.954 291.15 166.82 290.936 166.644C290.729 166.461 290.561 166.232 290.431 165.956C290.309 165.681 290.236 165.36 290.213 164.993H291.028C291.051 165.49 291.196 165.868 291.463 166.128C291.731 166.381 292.113 166.507 292.61 166.507C293.084 166.507 293.455 166.377 293.723 166.117C293.99 165.857 294.193 165.528 294.331 165.131C294.468 164.725 294.556 164.286 294.594 163.812C294.633 163.338 294.659 162.887 294.675 162.459C294.231 163.361 293.532 163.812 292.576 163.812C292.209 163.812 291.876 163.747 291.578 163.617C291.28 163.487 291.024 163.307 290.81 163.078C290.596 162.841 290.431 162.562 290.317 162.241C290.202 161.92 290.145 161.572 290.145 161.197C290.145 160.807 290.21 160.452 290.34 160.13C290.47 159.802 290.649 159.523 290.879 159.293C291.108 159.064 291.379 158.888 291.693 158.766C292.014 158.636 292.362 158.575 292.736 158.582C293.226 158.59 293.635 158.693 293.964 158.892C294.3 159.083 294.571 159.351 294.778 159.695C294.984 160.039 295.13 160.444 295.214 160.91C295.305 161.377 295.351 161.885 295.351 162.436ZM294.503 161.163C294.503 160.887 294.461 160.631 294.376 160.394C294.292 160.157 294.174 159.951 294.021 159.775C293.868 159.591 293.681 159.45 293.459 159.351C293.245 159.251 293.004 159.202 292.736 159.202C292.461 159.202 292.209 159.255 291.98 159.362C291.758 159.461 291.567 159.599 291.406 159.775C291.246 159.951 291.119 160.161 291.028 160.406C290.944 160.65 290.902 160.914 290.902 161.197C290.902 161.472 290.94 161.732 291.016 161.977C291.093 162.214 291.204 162.424 291.349 162.608C291.494 162.783 291.674 162.921 291.888 163.02C292.102 163.12 292.347 163.17 292.622 163.17C292.905 163.17 293.161 163.124 293.39 163.032C293.627 162.933 293.826 162.795 293.986 162.619C294.155 162.436 294.281 162.222 294.365 161.977C294.457 161.732 294.503 161.461 294.503 161.163Z" fill="#F6F9FC"/>
<path d="M32.0393 162.642C31.4478 163.095 30.7946 163.446 30.0972 163.688L30.0421 163.708C29.7949 163.792 29.5146 163.702 29.3601 163.485L29.0313 163.026C28.8437 162.762 28.5944 162.622 28.2744 162.598C28.1287 162.587 27.9897 162.583 27.8176 162.583C27.6653 162.583 27.5218 162.594 27.3784 162.611C27.0893 162.647 26.8554 162.788 26.6876 163.033L26.3036 163.591C26.1536 163.81 25.8689 163.907 25.6151 163.823C24.9817 163.616 24.3461 163.271 23.6157 162.742C23.4811 162.645 23.2913 162.662 23.1942 162.784C23.1125 162.885 23.1103 163.031 23.1853 163.137C23.6135 163.744 24.046 164.35 24.4675 164.937L25.2223 165.992C25.6328 166.571 26.1756 166.877 26.8818 166.932C27.193 166.957 27.4909 166.968 27.7822 166.968C28.1795 166.968 28.5613 166.946 28.9364 166.899C29.5676 166.822 30.0752 166.513 30.4459 165.979C30.7108 165.597 30.9778 165.207 31.236 164.829L31.3552 164.657C31.6443 164.238 31.9378 163.808 32.2313 163.386C32.3129 163.269 32.3924 163.152 32.474 163.037C32.5116 162.984 32.5292 162.923 32.5292 162.861C32.5292 162.773 32.4851 162.691 32.4145 162.636C32.3107 162.554 32.154 162.558 32.0415 162.645L32.0393 162.642Z" fill="#D0F8AB"/>
<path d="M21.7443 161.305C21.133 160.884 20.5967 160.369 20.1509 159.782L20.1156 159.734C19.9589 159.524 19.9589 159.229 20.1156 159.017L20.0318 158.955L20.1355 158.988L20.4511 158.562C20.6431 158.302 20.7004 158.021 20.6254 157.708C20.5923 157.567 20.5526 157.432 20.4974 157.269C20.4489 157.128 20.3937 156.991 20.3341 156.861C20.2105 156.596 20.0053 156.419 19.7184 156.333L19.0674 156.141C18.8114 156.066 18.6326 155.826 18.6348 155.556C18.6348 154.892 18.7672 154.181 19.0475 153.321C19.0983 153.162 19.0232 152.987 18.8776 152.935C18.7562 152.888 18.6172 152.93 18.5399 153.034C18.0875 153.639 17.6373 154.25 17.2026 154.839L17.1849 154.861C16.9421 155.192 16.6972 155.523 16.4522 155.852C16.0307 156.421 15.9049 157.033 16.0704 157.719C16.2448 158.436 16.461 159.072 16.7347 159.663C17.0017 160.241 17.4541 160.628 18.0765 160.815C18.5223 160.948 18.9747 161.082 19.4138 161.212L19.5749 161.261C20.0759 161.409 20.5901 161.561 21.0933 161.713L21.1242 161.614L21.1175 161.72C21.2455 161.76 21.3757 161.797 21.5015 161.837C21.5302 161.846 21.5611 161.85 21.592 161.85C21.6251 161.85 21.656 161.846 21.6869 161.835C21.7708 161.806 21.8348 161.74 21.8679 161.656C21.912 161.532 21.8612 161.385 21.7443 161.305Z" fill="#D0F8AB"/>
<path d="M23.6245 148.388C23.8386 148.19 23.9423 147.938 23.9357 147.64L23.918 146.963C23.9114 146.696 24.0835 146.453 24.3395 146.369C24.9707 146.166 25.6835 146.071 26.5817 146.071H26.5927C26.7605 146.071 26.9017 145.945 26.9083 145.789C26.9149 145.658 26.8311 145.539 26.7075 145.497C26.0322 145.268 25.3525 145.04 24.6904 144.82L24.5492 144.773C24.1586 144.643 23.7702 144.513 23.3795 144.383C22.7064 144.158 22.0863 144.228 21.4861 144.597C20.8571 144.983 20.3208 145.387 19.8441 145.83C19.3785 146.263 19.149 146.813 19.1644 147.464C19.1755 147.929 19.1887 148.401 19.1997 148.858L19.2042 149.039C19.2174 149.558 19.2328 150.088 19.2439 150.613C19.2461 150.756 19.2505 150.897 19.2505 151.039C19.2505 151.103 19.2726 151.164 19.3101 151.215C19.363 151.286 19.4469 151.328 19.5352 151.33H19.544C19.672 151.33 19.7912 151.235 19.8309 151.103C20.045 150.39 20.365 149.721 20.7997 149.097L20.8196 149.068C20.9719 148.854 21.2521 148.763 21.5015 148.847L21.5346 148.75V148.858L22.0378 149.026C22.3445 149.13 22.627 149.097 22.9029 148.927C23.0264 148.852 23.1478 148.77 23.2802 148.671C23.4038 148.578 23.5142 148.488 23.6179 148.388H23.6245Z" fill="#D0F8AB"/>
<path d="M34.842 148.955C35.2327 149.494 35.5438 150.145 35.8219 151.006C35.866 151.14 35.9874 151.228 36.1154 151.228C36.1397 151.228 36.164 151.226 36.1882 151.22C36.314 151.184 36.4023 151.07 36.4023 150.939C36.4133 150.213 36.4177 149.483 36.4244 148.774L36.4354 147.43C36.442 146.722 36.1838 146.153 35.6453 145.696C35.0848 145.217 34.5353 144.831 33.9659 144.515C33.4098 144.204 32.8161 144.158 32.2026 144.374C31.7635 144.528 31.3177 144.685 30.8873 144.84L30.7262 144.897C30.2341 145.071 29.7309 145.25 29.2322 145.424C29.0976 145.471 28.963 145.517 28.8305 145.563C28.7687 145.583 28.718 145.623 28.6805 145.674C28.6297 145.747 28.6165 145.837 28.6407 145.925C28.6783 146.051 28.7996 146.137 28.9409 146.137H28.9497C29.6956 146.12 30.4283 146.219 31.15 146.437L31.1919 146.451C31.4413 146.528 31.6134 146.768 31.6112 147.031L31.6068 147.596C31.6046 147.92 31.7215 148.179 31.9687 148.388C32.079 148.483 32.1916 148.569 32.3284 148.668C32.452 148.755 32.5756 148.834 32.7014 148.902C32.9574 149.044 33.2288 149.066 33.5091 148.969L34.1491 148.741C34.3985 148.653 34.6854 148.741 34.842 148.96V148.955Z" fill="#D0F8AB"/>
<path d="M39.1697 155.814C38.8872 155.446 38.6003 155.07 38.32 154.706L38.0905 154.408C37.8124 154.046 37.53 153.678 37.2541 153.314L37.232 153.285C37.1526 153.181 37.0753 153.078 36.9981 152.974C36.9606 152.921 36.9076 152.886 36.8458 152.868C36.762 152.842 36.6715 152.857 36.5942 152.908C36.4861 152.981 36.442 153.131 36.4883 153.265C36.7355 153.967 36.8679 154.695 36.8833 155.435V155.494C36.8878 155.755 36.7134 155.993 36.4618 156.075L35.9234 156.244C35.6144 156.342 35.4047 156.534 35.2812 156.832C35.226 156.964 35.1774 157.096 35.1245 157.262C35.0803 157.408 35.045 157.549 35.0163 157.688C34.9612 157.975 35.023 158.239 35.2039 158.476L35.6166 159.014C35.7799 159.226 35.7821 159.524 35.6232 159.74C35.2326 160.279 34.7096 160.775 33.9769 161.307C33.8423 161.406 33.8026 161.592 33.8886 161.72C33.9438 161.804 34.0365 161.85 34.1336 161.85C34.1623 161.85 34.191 161.846 34.2197 161.837C34.9413 161.614 35.6652 161.384 36.3647 161.164L36.3912 161.155C36.7818 161.031 37.1747 160.908 37.5675 160.784C38.2428 160.572 38.704 160.151 38.9732 159.497C39.2535 158.815 39.4521 158.175 39.5779 157.536C39.6993 156.911 39.5625 156.333 39.1675 155.816L39.1697 155.814Z" fill="#D0F8AB"/>
<path d="M47.1439 153.402V144.591C47.1439 144.265 47.4085 144 47.7344 144H48.7927C49.1187 144 49.3832 144.265 49.3832 144.591V148.8H49.5014C49.7376 147.534 50.621 146.372 52.5297 146.372C54.5423 146.372 55.5249 147.685 55.5249 149.414V153.402C55.5249 153.728 55.2604 153.992 54.9344 153.992H53.8761C53.5501 153.992 53.2856 153.728 53.2856 153.402V150.085C53.2856 148.833 52.747 148.384 51.3486 148.384C49.8415 148.384 49.3785 148.994 49.3785 150.246V153.397C49.3785 153.723 49.114 153.987 48.788 153.987H47.7297C47.4037 153.987 47.1392 153.723 47.1392 153.397L47.1439 153.402Z" fill="#D0F8AB"/>
<path d="M56.342 151.172V147.109C56.342 146.783 56.6066 146.518 56.9326 146.518H57.9909C58.3168 146.518 58.5814 146.783 58.5814 147.109V150.425C58.5814 151.635 59.0869 152.14 60.5042 152.14C61.9215 152.14 62.4885 151.573 62.4885 150.307V147.109C62.4885 146.783 62.753 146.518 63.079 146.518H64.1373C64.4633 146.518 64.7278 146.783 64.7278 147.109V153.402C64.7278 153.728 64.4633 153.992 64.1373 153.992H63.2255C62.8995 153.992 62.6349 153.728 62.6349 153.402V151.71H62.5168C62.3231 152.962 61.416 154.139 59.446 154.139C57.3436 154.139 56.3468 152.844 56.3468 151.172H56.342Z" fill="#D0F8AB"/>
<path d="M65.5691 153.402V147.109C65.5691 146.783 65.8337 146.518 66.1597 146.518H67.0526C67.3786 146.518 67.6431 146.783 67.6431 147.109V148.786H67.7613C67.9408 147.534 68.6872 146.372 70.5628 146.372C72.2919 146.372 73.1707 147.43 73.336 148.814H73.4683C73.6478 147.548 74.4085 146.372 76.3313 146.372C78.2541 146.372 79.1943 147.638 79.1943 149.339V153.402C79.1943 153.728 78.9297 153.992 78.6037 153.992H77.5455C77.2195 153.992 76.9549 153.728 76.9549 153.402V150.085C76.9549 148.847 76.525 148.384 75.24 148.384C73.8841 148.384 73.4967 148.923 73.4967 150.217V153.402C73.4967 153.728 73.2321 153.992 72.9061 153.992H71.8478C71.5219 153.992 71.2573 153.728 71.2573 153.402V150.085C71.2573 148.847 70.8274 148.384 69.5423 148.384C68.1864 148.384 67.799 148.923 67.799 150.217V153.402C67.799 153.728 67.5345 153.992 67.2085 153.992H66.1502C65.8243 153.992 65.5597 153.728 65.5597 153.402H65.5691Z" fill="#D0F8AB"/>
<path d="M80.0444 152.14C80.0444 151.034 80.8664 150.349 82.4585 150.189L85.6617 149.863V149.579C85.6617 148.611 85.2317 148.342 84.0365 148.342C82.8412 148.342 82.4396 148.639 82.4396 149.49V149.551H80.1908V149.508C80.1908 147.661 81.7404 146.376 84.2018 146.376C86.6632 146.376 87.8679 147.657 87.8679 149.612V153.406C87.8679 153.732 87.6034 153.997 87.2774 153.997H86.3656C86.0396 153.997 85.775 153.732 85.775 153.406V152.282H85.6569C85.312 153.444 84.2727 154.143 82.6144 154.143C80.9562 154.143 80.0349 153.397 80.0349 152.145L80.0444 152.14ZM83.2617 152.56C83.6207 152.56 83.942 152.542 84.2254 152.494C84.9813 152.376 84.816 151.242 84.0554 151.327L83.068 151.441C82.5294 151.483 82.2932 151.634 82.2932 151.994C82.2932 152.395 82.605 152.56 83.2617 152.56Z" fill="#D0F8AB"/>
<path d="M88.7042 153.402V147.109C88.7042 146.783 88.9688 146.518 89.2948 146.518H90.1877C90.5137 146.518 90.7783 146.783 90.7783 147.109V148.814H90.9105C91.1042 147.562 91.9971 146.372 93.953 146.372C95.9089 146.372 96.9625 147.685 96.9625 149.339V153.402C96.9625 153.728 96.6979 153.992 96.3719 153.992H95.3137C94.9877 153.992 94.7231 153.728 94.7231 153.402V150.085C94.7231 148.895 94.2318 148.384 92.8617 148.384C91.4916 148.384 90.9389 148.951 90.9389 150.217V153.402C90.9389 153.728 90.6743 153.992 90.3483 153.992H89.2901C88.9641 153.992 88.6995 153.728 88.6995 153.402H88.7042Z" fill="#D0F8AB"/>
<path d="M97.7987 145.295V144.874C97.7987 144.548 98.0633 144.284 98.3893 144.284H99.4475C99.7735 144.284 100.038 144.548 100.038 144.874V145.295C100.038 145.621 99.7735 145.885 99.4475 145.885H98.3893C98.0633 145.885 97.7987 145.621 97.7987 145.295ZM97.7987 153.402V147.109C97.7987 146.783 98.0633 146.518 98.3893 146.518H99.4475C99.7735 146.518 100.038 146.783 100.038 147.109V153.402C100.038 153.728 99.7735 153.992 99.4475 153.992H98.3893C98.0633 153.992 97.7987 153.728 97.7987 153.402Z" fill="#D0F8AB"/>
<path d="M104.625 153.992C102.882 153.992 101.824 153.17 101.824 151.294V148.961C101.824 148.635 101.559 148.37 101.233 148.37C100.907 148.37 100.643 148.105 100.643 147.779V147.109C100.643 146.783 100.907 146.518 101.233 146.518C101.559 146.518 101.824 146.253 101.824 145.927V145.658C101.824 145.332 102.088 145.068 102.414 145.068H103.473C103.799 145.068 104.063 145.332 104.063 145.658V145.927C104.063 146.253 104.328 146.518 104.654 146.518H105.891C106.217 146.518 106.482 146.783 106.482 147.109V147.779C106.482 148.105 106.217 148.37 105.891 148.37H104.654C104.328 148.37 104.063 148.635 104.063 148.961V151.039C104.063 151.786 104.347 151.979 105.136 151.979H105.887C106.213 151.979 106.477 152.244 106.477 152.57V153.406C106.477 153.732 106.213 153.997 105.887 153.997H104.625V153.992Z" fill="#D0F8AB"/>
<path d="M107.989 155.934V155.083C107.989 154.757 108.254 154.493 108.58 154.493H109.648C109.78 154.493 109.898 154.483 109.997 154.465C110.375 154.398 110.569 153.973 110.404 153.628L107.352 147.359C107.163 146.967 107.446 146.513 107.881 146.513H109.095C109.326 146.513 109.534 146.646 109.629 146.854L111.041 149.901C111.041 149.901 111.055 149.934 111.06 149.953L111.679 151.687H111.83L112.421 149.934C112.421 149.934 112.43 149.906 112.435 149.896L113.692 146.877C113.781 146.66 113.999 146.513 114.235 146.513H115.411C115.841 146.513 116.125 146.958 115.945 147.35L112.633 154.521C111.92 156.085 110.918 156.52 109.043 156.52H108.585C108.259 156.52 107.994 156.255 107.994 155.929L107.989 155.934Z" fill="#D0F8AB"/>
<path d="M47.144 166.422V157.597C47.144 157.271 47.4086 157.006 47.7346 157.006H48.6275C48.9535 157.006 49.218 157.271 49.218 157.597V159.052H49.3692C49.6385 157.62 50.5928 156.86 52.3503 156.86C54.6464 156.86 55.9267 158.381 55.9267 160.753C55.9267 163.124 54.6747 164.627 52.4259 164.627C50.6968 164.627 49.7425 163.776 49.4873 162.463H49.3834V166.422C49.3834 166.748 49.1188 167.013 48.7929 167.013H47.7346C47.4086 167.013 47.144 166.748 47.144 166.422ZM51.5566 162.586C52.9881 162.586 53.659 162.109 53.659 160.753C53.659 159.397 52.9881 158.92 51.5708 158.92C50.1535 158.92 49.3787 159.411 49.3787 160.739V160.857C49.3787 162.137 50.1535 162.586 51.5566 162.586Z" fill="#D0F8AB"/>
<path d="M56.5501 163.89V157.597C56.5501 157.271 56.8147 157.006 57.1407 157.006H58.0336C58.3596 157.006 58.6241 157.271 58.6241 157.597V158.991H58.7564C58.9643 157.781 59.7533 156.86 61.2603 156.86C62.9281 156.86 63.6178 158.008 63.6178 159.468V160.115C63.6178 160.441 63.3533 160.706 63.0273 160.706H61.969C61.643 160.706 61.3785 160.441 61.3785 160.115V159.931C61.3785 159.109 61.0525 158.754 60.1407 158.754C59.1438 158.754 58.7848 159.217 58.7848 160.157V163.89C58.7848 164.216 58.5202 164.48 58.1942 164.48H57.136C56.81 164.48 56.5454 164.216 56.5454 163.89H56.5501Z" fill="#D0F8AB"/>
<path d="M63.84 160.753C63.84 158.367 65.5549 156.86 68.1014 156.86C70.6478 156.86 72.3628 158.367 72.3628 160.753C72.3628 163.139 70.6478 164.627 68.1014 164.627C65.5549 164.627 63.84 163.106 63.84 160.753ZM70.147 160.753C70.147 159.439 69.6084 158.83 68.1061 158.83C66.6037 158.83 66.0651 159.439 66.0651 160.753C66.0651 162.066 66.5848 162.647 68.1061 162.647C69.6273 162.647 70.147 162.066 70.147 160.753Z" fill="#D0F8AB"/>
<path d="M76.3926 164.476C74.6493 164.476 73.591 163.654 73.591 161.778V159.444C73.591 159.118 73.3264 158.854 73.0005 158.854C72.6745 158.854 72.4099 158.589 72.4099 158.263V157.592C72.4099 157.266 72.6745 157.002 73.0005 157.002C73.3264 157.002 73.591 156.737 73.591 156.411V156.142C73.591 155.816 73.8556 155.551 74.1816 155.551H75.2398C75.5658 155.551 75.8304 155.816 75.8304 156.142V156.411C75.8304 156.737 76.0949 157.002 76.4209 157.002H77.6587C77.9847 157.002 78.2493 157.266 78.2493 157.592V158.263C78.2493 158.589 77.9847 158.854 77.6587 158.854H76.4209C76.0949 158.854 75.8304 159.118 75.8304 159.444V161.523C75.8304 162.269 76.1138 162.463 76.9028 162.463H77.654C77.98 162.463 78.2445 162.728 78.2445 163.054V163.89C78.2445 164.216 77.98 164.48 77.654 164.48H76.3926V164.476Z" fill="#D0F8AB"/>
<path d="M78.4949 160.753C78.4949 158.367 80.2099 156.86 82.7563 156.86C85.3028 156.86 87.0177 158.367 87.0177 160.753C87.0177 163.139 85.3028 164.627 82.7563 164.627C80.2099 164.627 78.4949 163.106 78.4949 160.753ZM84.802 160.753C84.802 159.439 84.2634 158.83 82.7611 158.83C81.2587 158.83 80.7201 159.439 80.7201 160.753C80.7201 162.066 81.2398 162.647 82.7611 162.647C84.2823 162.647 84.802 162.066 84.802 160.753Z" fill="#D0F8AB"/>
<path d="M87.4099 160.753C87.4099 158.367 89.0493 156.86 91.6146 156.86C94.0146 156.86 95.654 158.14 95.654 160.082V160.29H93.4335V160.172C93.4335 159.217 92.7343 158.872 91.5721 158.872C90.2445 158.872 89.6351 159.364 89.6351 160.753C89.6351 162.142 90.2445 162.614 91.5721 162.614C92.7343 162.614 93.4335 162.269 93.4335 161.315V161.197H95.654V161.405C95.654 163.328 94.0146 164.627 91.6146 164.627C89.0493 164.627 87.4099 163.106 87.4099 160.753Z" fill="#D0F8AB"/>
<path d="M96.0413 160.753C96.0413 158.367 97.7563 156.86 100.303 156.86C102.849 156.86 104.564 158.367 104.564 160.753C104.564 163.139 102.849 164.627 100.303 164.627C97.7563 164.627 96.0413 163.106 96.0413 160.753ZM102.344 160.753C102.344 159.439 101.805 158.83 100.303 158.83C98.8004 158.83 98.2618 159.439 98.2618 160.753C98.2618 162.066 98.7815 162.647 100.303 162.647C101.824 162.647 102.344 162.066 102.344 160.753Z" fill="#D0F8AB"/>
<path d="M105.178 163.89V155.079C105.178 154.753 105.443 154.488 105.769 154.488H106.827C107.153 154.488 107.418 154.753 107.418 155.079V163.89C107.418 164.216 107.153 164.48 106.827 164.48H105.769C105.443 164.48 105.178 164.216 105.178 163.89Z" fill="#D0F8AB"/>
<path d="M24.302 24.68V38H21.386V24.68H24.302ZM26.786 33.572H23.582V30.98H26.138C26.846 30.98 27.374 30.83 27.722 30.53C28.07 30.218 28.244 29.75 28.244 29.126C28.244 28.502 28.07 28.04 27.722 27.74C27.374 27.428 26.846 27.272 26.138 27.272H23.582V24.68H26.786C27.698 24.68 28.49 24.866 29.162 25.238C29.846 25.61 30.374 26.132 30.746 26.804C31.13 27.464 31.322 28.238 31.322 29.126C31.322 30.014 31.13 30.794 30.746 31.466C30.374 32.126 29.846 32.642 29.162 33.014C28.49 33.386 27.698 33.572 26.786 33.572ZM39.0133 29V31.61H38.1313C37.3393 31.61 36.7153 31.802 36.2593 32.186C35.8153 32.57 35.5933 33.206 35.5933 34.094V38H32.8213V29.018H35.4313L35.6473 30.944H35.3953C35.5153 30.344 35.7853 29.852 36.2053 29.468C36.6373 29.072 37.2193 28.874 37.9513 28.874C38.1193 28.874 38.2873 28.886 38.4553 28.91C38.6353 28.922 38.8213 28.952 39.0133 29ZM39.6654 33.482C39.6654 32.534 39.8754 31.706 40.2954 30.998C40.7274 30.278 41.3154 29.72 42.0594 29.324C42.8154 28.928 43.6734 28.73 44.6334 28.73C45.5934 28.73 46.4454 28.928 47.1894 29.324C47.9334 29.72 48.5154 30.278 48.9354 30.998C49.3674 31.706 49.5834 32.534 49.5834 33.482C49.5834 34.43 49.3674 35.258 48.9354 35.966C48.5154 36.674 47.9334 37.226 47.1894 37.622C46.4454 38.018 45.5934 38.216 44.6334 38.216C43.6734 38.216 42.8154 38.018 42.0594 37.622C41.3154 37.226 40.7274 36.674 40.2954 35.966C39.8754 35.258 39.6654 34.43 39.6654 33.482ZM42.4554 33.464C42.4554 33.92 42.5454 34.322 42.7254 34.67C42.9174 35.006 43.1754 35.27 43.4994 35.462C43.8234 35.642 44.2014 35.732 44.6334 35.732C45.0654 35.732 45.4434 35.642 45.7674 35.462C46.0914 35.27 46.3434 35.006 46.5234 34.67C46.7034 34.322 46.7934 33.92 46.7934 33.464C46.7934 33.008 46.7034 32.612 46.5234 32.276C46.3434 31.94 46.0914 31.682 45.7674 31.502C45.4434 31.31 45.0654 31.214 44.6334 31.214C44.2014 31.214 43.8234 31.31 43.4994 31.502C43.1754 31.682 42.9174 31.94 42.7254 32.276C42.5454 32.612 42.4554 33.008 42.4554 33.464ZM50.7045 33.482C50.7045 32.534 50.9145 31.706 51.3345 30.998C51.7665 30.278 52.3545 29.72 53.0985 29.324C53.8545 28.928 54.7125 28.73 55.6725 28.73C56.6325 28.73 57.4845 28.928 58.2285 29.324C58.9725 29.72 59.5545 30.278 59.9745 30.998C60.4065 31.706 60.6225 32.534 60.6225 33.482C60.6225 34.43 60.4065 35.258 59.9745 35.966C59.5545 36.674 58.9725 37.226 58.2285 37.622C57.4845 38.018 56.6325 38.216 55.6725 38.216C54.7125 38.216 53.8545 38.018 53.0985 37.622C52.3545 37.226 51.7665 36.674 51.3345 35.966C50.9145 35.258 50.7045 34.43 50.7045 33.482ZM53.4945 33.464C53.4945 33.92 53.5845 34.322 53.7645 34.67C53.9565 35.006 54.2145 35.27 54.5385 35.462C54.8625 35.642 55.2405 35.732 55.6725 35.732C56.1045 35.732 56.4825 35.642 56.8065 35.462C57.1305 35.27 57.3825 35.006 57.5625 34.67C57.7425 34.322 57.8325 33.92 57.8325 33.464C57.8325 33.008 57.7425 32.612 57.5625 32.276C57.3825 31.94 57.1305 31.682 56.8065 31.502C56.4825 31.31 56.1045 31.214 55.6725 31.214C55.2405 31.214 54.8625 31.31 54.5385 31.502C54.2145 31.682 53.9565 31.94 53.7645 32.276C53.5845 32.612 53.4945 33.008 53.4945 33.464ZM61.3835 29H67.5575V31.304H61.3835V29ZM67.5575 24.536V26.912C67.4015 26.912 67.2575 26.912 67.1255 26.912C67.0055 26.912 66.8915 26.912 66.7835 26.912C66.2195 26.912 65.8475 27.044 65.6675 27.308C65.4875 27.572 65.3975 27.896 65.3975 28.28V38H62.6255V28.28C62.6255 27.38 62.7755 26.648 63.0755 26.084C63.3755 25.52 63.8015 25.106 64.3535 24.842C64.9055 24.566 65.5595 24.428 66.3155 24.428C66.5075 24.428 66.7055 24.44 66.9095 24.464C67.1255 24.476 67.3415 24.5 67.5575 24.536ZM73.0814 33.482C73.0814 32.534 73.2914 31.706 73.7114 30.998C74.1434 30.278 74.7314 29.72 75.4754 29.324C76.2314 28.928 77.0894 28.73 78.0494 28.73C79.0094 28.73 79.8614 28.928 80.6054 29.324C81.3494 29.72 81.9314 30.278 82.3514 30.998C82.7834 31.706 82.9994 32.534 82.9994 33.482C82.9994 34.43 82.7834 35.258 82.3514 35.966C81.9314 36.674 81.3494 37.226 80.6054 37.622C79.8614 38.018 79.0094 38.216 78.0494 38.216C77.0894 38.216 76.2314 38.018 75.4754 37.622C74.7314 37.226 74.1434 36.674 73.7114 35.966C73.2914 35.258 73.0814 34.43 73.0814 33.482ZM75.8714 33.464C75.8714 33.92 75.9614 34.322 76.1414 34.67C76.3334 35.006 76.5914 35.27 76.9154 35.462C77.2394 35.642 77.6174 35.732 78.0494 35.732C78.4814 35.732 78.8594 35.642 79.1834 35.462C79.5074 35.27 79.7594 35.006 79.9394 34.67C80.1194 34.322 80.2094 33.92 80.2094 33.464C80.2094 33.008 80.1194 32.612 79.9394 32.276C79.7594 31.94 79.5074 31.682 79.1834 31.502C78.8594 31.31 78.4814 31.214 78.0494 31.214C77.6174 31.214 77.2394 31.31 76.9154 31.502C76.5914 31.682 76.3334 31.94 76.1414 32.276C75.9614 32.612 75.8714 33.008 75.8714 33.464ZM83.7605 29H89.9345V31.304H83.7605V29ZM89.9345 24.536V26.912C89.7785 26.912 89.6345 26.912 89.5025 26.912C89.3825 26.912 89.2685 26.912 89.1605 26.912C88.5965 26.912 88.2245 27.044 88.0445 27.308C87.8645 27.572 87.7745 27.896 87.7745 28.28V38H85.0025V28.28C85.0025 27.38 85.1525 26.648 85.4525 26.084C85.7525 25.52 86.1785 25.106 86.7305 24.842C87.2825 24.566 87.9365 24.428 88.6925 24.428C88.8845 24.428 89.0825 24.44 89.2865 24.464C89.5025 24.476 89.7185 24.5 89.9345 24.536ZM99.2024 38H96.2864V24.68H99.2024V29.936H104.35V24.68H107.266V38H104.35V32.636H99.2024V38ZM115.666 29H118.438V38H115.828L115.648 36.992C115.372 37.364 114.976 37.664 114.46 37.892C113.956 38.12 113.434 38.234 112.894 38.234C111.874 38.234 111.064 37.916 110.464 37.28C109.876 36.632 109.582 35.756 109.582 34.652V29H112.354V33.644C112.354 34.376 112.486 34.916 112.75 35.264C113.014 35.6 113.428 35.768 113.992 35.768C114.592 35.768 115.018 35.606 115.27 35.282C115.534 34.946 115.666 34.412 115.666 33.68V29ZM123.291 38H120.519V29H123.111L123.417 30.548L123.129 30.224C123.309 29.864 123.633 29.522 124.101 29.198C124.569 28.874 125.175 28.712 125.919 28.712C126.711 28.712 127.347 28.91 127.827 29.306C128.307 29.702 128.661 30.218 128.889 30.854H128.457C128.601 30.218 128.949 29.702 129.501 29.306C130.053 28.91 130.713 28.712 131.481 28.712C132.645 28.712 133.515 29.024 134.091 29.648C134.667 30.26 134.955 31.082 134.955 32.114V38H132.183V32.888C132.183 32.324 132.045 31.904 131.769 31.628C131.505 31.352 131.151 31.214 130.707 31.214C130.443 31.214 130.191 31.274 129.951 31.394C129.711 31.502 129.513 31.7 129.357 31.988C129.201 32.264 129.123 32.66 129.123 33.176V38H126.351V32.888C126.351 32.324 126.219 31.91 125.955 31.646C125.691 31.37 125.337 31.232 124.893 31.232C124.629 31.232 124.371 31.292 124.119 31.412C123.879 31.52 123.681 31.718 123.525 32.006C123.369 32.282 123.291 32.672 123.291 33.176V38ZM139.655 38.234C138.707 38.234 137.951 37.976 137.387 37.46C136.835 36.932 136.559 36.23 136.559 35.354C136.559 34.526 136.841 33.866 137.405 33.374C137.981 32.882 138.809 32.594 139.889 32.51L142.409 32.312V32.168C142.409 31.868 142.349 31.622 142.229 31.43C142.109 31.226 141.935 31.076 141.707 30.98C141.491 30.872 141.215 30.818 140.879 30.818C140.291 30.818 139.841 30.926 139.529 31.142C139.229 31.358 139.079 31.67 139.079 32.078H136.775C136.775 31.394 136.949 30.8 137.297 30.296C137.645 29.792 138.137 29.402 138.773 29.126C139.421 28.85 140.171 28.712 141.023 28.712C141.899 28.712 142.637 28.868 143.237 29.18C143.849 29.492 144.311 29.948 144.623 30.548C144.947 31.148 145.109 31.88 145.109 32.744V38H142.661L142.481 36.812C142.337 37.22 141.995 37.562 141.455 37.838C140.927 38.102 140.327 38.234 139.655 38.234ZM140.627 36.182C141.155 36.182 141.587 36.056 141.923 35.804C142.259 35.54 142.427 35.15 142.427 34.634V34.148L141.023 34.274C140.423 34.322 139.997 34.424 139.745 34.58C139.505 34.724 139.385 34.94 139.385 35.228C139.385 35.552 139.487 35.792 139.691 35.948C139.895 36.104 140.207 36.182 140.627 36.182ZM149.869 38H147.097V29H149.707L149.887 29.936C150.163 29.552 150.541 29.252 151.021 29.036C151.513 28.82 152.053 28.712 152.641 28.712C153.709 28.712 154.537 29.042 155.125 29.702C155.725 30.35 156.025 31.262 156.025 32.438V38H153.253V33.104C153.253 32.54 153.109 32.09 152.821 31.754C152.533 31.406 152.149 31.232 151.669 31.232C151.117 31.232 150.679 31.4 150.355 31.736C150.031 32.06 149.869 32.504 149.869 33.068V38ZM158.013 38V29H160.785V38H158.013ZM159.381 27.596C158.937 27.596 158.559 27.446 158.247 27.146C157.947 26.834 157.797 26.456 157.797 26.012C157.797 25.568 157.947 25.196 158.247 24.896C158.559 24.596 158.937 24.446 159.381 24.446C159.813 24.446 160.179 24.596 160.479 24.896C160.791 25.196 160.947 25.568 160.947 26.012C160.947 26.456 160.791 26.834 160.479 27.146C160.179 27.446 159.813 27.596 159.381 27.596ZM162.018 29H168.21V31.304H162.018V29ZM166.5 38H163.728V26.21H166.5V38ZM171.472 29L174.118 36.776L172.768 39.98L168.502 29H171.472ZM168.736 42.32V39.998H170.266C170.578 39.998 170.836 39.956 171.04 39.872C171.244 39.8 171.418 39.674 171.562 39.494C171.706 39.314 171.838 39.062 171.958 38.738L175.612 29H178.492L173.92 39.962C173.548 40.874 173.092 41.534 172.552 41.942C172.024 42.362 171.364 42.572 170.572 42.572C170.236 42.572 169.912 42.548 169.6 42.5C169.3 42.464 169.012 42.404 168.736 42.32Z" fill="#F6F9FC"/>
<g style="mix-blend-mode:hard-light">
<rect x="224" y="20" width="72" height="22" rx="11" fill="#FAFAFA"/>
<g style="mix-blend-mode:multiply">
<path d="M235.836 36L232.536 27.324H233.796L235.908 32.868C236.004 33.108 236.096 33.36 236.184 33.624C236.272 33.88 236.36 34.172 236.448 34.5C236.552 34.156 236.652 33.844 236.748 33.564C236.844 33.284 236.928 33.048 237 32.856L239.1 27.324H240.324L237.06 36H235.836ZM242.842 36.144C242.274 36.144 241.77 36.016 241.33 35.76C240.89 35.496 240.546 35.136 240.298 34.68C240.05 34.216 239.926 33.68 239.926 33.072C239.926 32.456 240.046 31.916 240.286 31.452C240.534 30.988 240.87 30.624 241.294 30.36C241.726 30.096 242.226 29.964 242.794 29.964C243.354 29.964 243.838 30.084 244.246 30.324C244.662 30.564 244.982 30.9 245.206 31.332C245.438 31.764 245.554 32.272 245.554 32.856V33.276L240.526 33.288L240.55 32.532H244.426C244.426 32.044 244.278 31.652 243.982 31.356C243.686 31.06 243.29 30.912 242.794 30.912C242.418 30.912 242.094 30.996 241.822 31.164C241.558 31.324 241.354 31.564 241.21 31.884C241.074 32.196 241.006 32.572 241.006 33.012C241.006 33.716 241.166 34.26 241.486 34.644C241.806 35.02 242.266 35.208 242.866 35.208C243.306 35.208 243.666 35.12 243.946 34.944C244.226 34.768 244.414 34.512 244.51 34.176H245.566C245.422 34.8 245.114 35.284 244.642 35.628C244.17 35.972 243.57 36.144 242.842 36.144ZM250.174 30.084V31.116H249.67C249.134 31.116 248.71 31.272 248.398 31.584C248.094 31.888 247.942 32.324 247.942 32.892V36H246.814V30.144H247.87L247.966 31.32H247.858C247.938 30.936 248.13 30.624 248.434 30.384C248.738 30.136 249.118 30.012 249.574 30.012C249.678 30.012 249.774 30.02 249.862 30.036C249.958 30.044 250.062 30.06 250.174 30.084ZM251.232 36V30.132H252.36V36H251.232ZM251.784 28.74C251.584 28.74 251.408 28.668 251.256 28.524C251.112 28.372 251.04 28.196 251.04 27.996C251.04 27.788 251.112 27.612 251.256 27.468C251.408 27.324 251.584 27.252 251.784 27.252C251.992 27.252 252.168 27.324 252.312 27.468C252.456 27.612 252.528 27.788 252.528 27.996C252.528 28.196 252.456 28.372 252.312 28.524C252.168 28.668 251.992 28.74 251.784 28.74ZM253.374 30.132H259.098V31.08H253.374V30.132ZM256.734 27.216V28.188C256.662 28.188 256.582 28.188 256.494 28.188C256.414 28.188 256.326 28.188 256.23 28.188C255.886 28.188 255.654 28.276 255.534 28.452C255.422 28.628 255.366 28.876 255.366 29.196V36H254.238V29.196C254.238 28.716 254.318 28.328 254.478 28.032C254.638 27.728 254.854 27.508 255.126 27.372C255.398 27.236 255.702 27.168 256.038 27.168C256.15 27.168 256.266 27.172 256.386 27.18C256.506 27.188 256.622 27.2 256.734 27.216ZM257.97 36V30.132H259.098V36H257.97ZM258.534 28.692C258.326 28.692 258.154 28.624 258.018 28.488C257.882 28.344 257.814 28.172 257.814 27.972C257.814 27.764 257.882 27.592 258.018 27.456C258.154 27.32 258.326 27.252 258.534 27.252C258.734 27.252 258.902 27.32 259.038 27.456C259.174 27.592 259.242 27.764 259.242 27.972C259.242 28.172 259.174 28.344 259.038 28.488C258.902 28.624 258.734 28.692 258.534 28.692ZM263.233 36.144C262.665 36.144 262.161 36.016 261.721 35.76C261.281 35.496 260.937 35.136 260.689 34.68C260.441 34.216 260.317 33.68 260.317 33.072C260.317 32.456 260.437 31.916 260.677 31.452C260.925 30.988 261.261 30.624 261.685 30.36C262.117 30.096 262.617 29.964 263.185 29.964C263.745 29.964 264.229 30.084 264.637 30.324C265.053 30.564 265.373 30.9 265.597 31.332C265.829 31.764 265.945 32.272 265.945 32.856V33.276L260.917 33.288L260.941 32.532H264.817C264.817 32.044 264.669 31.652 264.373 31.356C264.077 31.06 263.681 30.912 263.185 30.912C262.809 30.912 262.485 30.996 262.213 31.164C261.949 31.324 261.745 31.564 261.601 31.884C261.465 32.196 261.397 32.572 261.397 33.012C261.397 33.716 261.557 34.26 261.877 34.644C262.197 35.02 262.657 35.208 263.257 35.208C263.697 35.208 264.057 35.12 264.337 34.944C264.617 34.768 264.805 34.512 264.901 34.176H265.957C265.813 34.8 265.505 35.284 265.033 35.628C264.561 35.972 263.961 36.144 263.233 36.144ZM269.557 36.144C268.989 36.144 268.501 36.016 268.093 35.76C267.685 35.496 267.369 35.132 267.145 34.668C266.929 34.204 266.821 33.676 266.821 33.084C266.821 32.484 266.933 31.952 267.157 31.488C267.381 31.016 267.701 30.644 268.117 30.372C268.533 30.1 269.029 29.964 269.605 29.964C270.061 29.964 270.465 30.06 270.817 30.252C271.177 30.436 271.457 30.712 271.657 31.08V27.168H272.773V36H271.765L271.669 34.932C271.477 35.324 271.193 35.624 270.817 35.832C270.449 36.04 270.029 36.144 269.557 36.144ZM269.785 35.124C270.169 35.124 270.497 35.036 270.769 34.86C271.049 34.684 271.265 34.44 271.417 34.128C271.569 33.816 271.645 33.456 271.645 33.048C271.645 32.64 271.569 32.284 271.417 31.98C271.265 31.668 271.049 31.424 270.769 31.248C270.497 31.072 270.169 30.984 269.785 30.984C269.401 30.984 269.073 31.076 268.801 31.26C268.529 31.436 268.321 31.68 268.177 31.992C268.033 32.296 267.961 32.648 267.961 33.048C267.961 33.456 268.033 33.816 268.177 34.128C268.321 34.44 268.529 34.684 268.801 34.86C269.073 35.036 269.401 35.124 269.785 35.124Z" fill="#98A2B3"/>
</g>
<g clip-path="url(#clip1_8600_60689)">
<path d="M287.267 27.1251C287.381 27.4007 287.6 27.6198 287.875 27.7342L288.841 28.1343C289.117 28.2484 289.336 28.4675 289.45 28.7431C289.564 29.0188 289.564 29.3285 289.45 29.6042L289.05 30.5694C288.936 30.8452 288.936 31.1552 289.05 31.4308L289.449 32.3958C289.506 32.5323 289.535 32.6786 289.535 32.8264C289.535 32.9742 289.506 33.1206 289.45 33.2571C289.393 33.3937 289.31 33.5178 289.206 33.6222C289.101 33.7267 288.977 33.8096 288.84 33.8661L287.875 34.2659C287.6 34.3799 287.38 34.5987 287.266 34.8741L286.866 35.84C286.752 36.1157 286.533 36.3347 286.257 36.4489C285.981 36.5631 285.672 36.5631 285.396 36.4489L284.431 36.0491C284.155 35.9352 283.846 35.9354 283.57 36.0497L282.604 36.4493C282.329 36.5632 282.019 36.5631 281.744 36.449C281.468 36.3349 281.249 36.1161 281.135 35.8408L280.735 34.8746C280.621 34.5989 280.402 34.3799 280.127 34.2655L279.161 33.8654C278.885 33.7512 278.666 33.5324 278.552 33.2569C278.438 32.9814 278.438 32.6718 278.552 32.3962L278.952 31.431C279.065 31.1553 279.065 30.8457 278.951 30.5702L278.552 29.6036C278.495 29.4671 278.466 29.3207 278.466 29.1729C278.466 29.0251 278.495 28.8788 278.552 28.7422C278.608 28.6057 278.691 28.4816 278.796 28.3771C278.9 28.2726 279.024 28.1897 279.161 28.1332L280.126 27.7334C280.401 27.6196 280.62 27.4011 280.735 27.1259L281.135 26.16C281.249 25.8843 281.468 25.6653 281.744 25.5512C282.019 25.437 282.329 25.437 282.605 25.5512L283.57 25.951C283.846 26.0649 284.155 26.0646 284.431 25.9503L285.397 25.5518C285.673 25.4377 285.982 25.4377 286.258 25.5518C286.534 25.666 286.753 25.8849 286.867 26.1605L287.267 27.1267L287.267 27.1251Z" fill="#32D583"/>
<path fill-rule="evenodd" clip-rule="evenodd" d="M286.35 29.4271C286.43 29.3012 286.457 29.1486 286.425 29.0028C286.392 28.8571 286.303 28.7302 286.177 28.6501C286.052 28.5699 285.899 28.543 285.753 28.5754C285.608 28.6077 285.481 28.6967 285.4 28.8226L283.198 32.2838L282.19 31.0238C282.097 30.9072 281.961 30.8325 281.813 30.816C281.664 30.7994 281.515 30.8425 281.399 30.9357C281.282 31.0289 281.207 31.1646 281.191 31.3129C281.174 31.4612 281.218 31.61 281.311 31.7266L282.811 33.6016C282.867 33.6715 282.938 33.7271 283.02 33.7638C283.102 33.8004 283.191 33.817 283.281 33.8121C283.37 33.8073 283.457 33.7812 283.534 33.7359C283.612 33.6907 283.677 33.6277 283.725 33.5521L286.35 29.4271Z" fill="white"/>
</g>
</g>
</g>
<rect x="0.5" y="0.5" width="315" height="189" rx="19.5" stroke="url(#paint1_linear_8600_60689)"/>
<defs>
<filter id="filter0_f_8600_60689" x="-144" y="-144" width="416" height="416" filterUnits="userSpaceOnUse" color-interpolation-filters="sRGB">
<feFlood flood-opacity="0" result="BackgroundImageFix"/>
<feBlend mode="normal" in="SourceGraphic" in2="BackgroundImageFix" result="shape"/>
<feGaussianBlur stdDeviation="64" result="effect1_foregroundBlur_8600_60689"/>
</filter>
<linearGradient id="paint0_linear_8600_60689" x1="15.7873" y1="2.05045e-05" x2="341.34" y2="228.824" gradientUnits="userSpaceOnUse">
<stop stop-color="white" stop-opacity="0.51"/>
<stop offset="1" stop-color="white" stop-opacity="0"/>
</linearGradient>
<linearGradient id="paint1_linear_8600_60689" x1="1.78532e-07" y1="8.02303" x2="308.782" y2="201.518" gradientUnits="userSpaceOnUse">
<stop stop-color="white"/>
<stop offset="1" stop-color="white" stop-opacity="0.2"/>
</linearGradient>
<clipPath id="clip0_8600_60689">
<rect width="316" height="190" rx="20" fill="white"/>
</clipPath>
<clipPath id="clip1_8600_60689">
<rect width="12" height="12" fill="white" transform="translate(278 25)"/>
</clipPath>
</defs>
</svg>
