<svg width="316" height="190" viewBox="0 0 316 190" fill="none" xmlns="http://www.w3.org/2000/svg">
<g clip-path="url(#clip0_8600_56591)">
<rect width="316" height="190" rx="20" fill="url(#paint0_linear_8600_56591)"/>
<g filter="url(#filter0_f_8600_56591)">
<path opacity="0.3" d="M-16 64C-16 19.8172 19.8172 -16 64 -16V64H-16Z" fill="#EE46BC"/>
<path opacity="0.3" d="M64 -16C108.183 -16 144 19.8172 144 64H64V-16Z" fill="#EF6820"/>
<path opacity="0.3" d="M-16 64H64V144C19.8172 144 -16 108.183 -16 64Z" fill="#2E90FA"/>
<path opacity="0.3" d="M64 64H144C144 108.183 108.183 144 64 144V64Z" fill="#12B76A"/>
</g>
<path d="M265.84 150V144.216H266.36V150H265.84ZM272.067 148.424C272.067 148.712 272.008 148.96 271.891 149.168C271.774 149.376 271.619 149.547 271.427 149.68C271.235 149.813 271.014 149.912 270.763 149.976C270.518 150.04 270.267 150.072 270.011 150.072C269.744 150.072 269.499 150.043 269.275 149.984C269.051 149.925 268.854 149.832 268.683 149.704C268.518 149.576 268.382 149.413 268.275 149.216C268.168 149.013 268.102 148.773 268.075 148.496H268.619C268.624 148.704 268.667 148.88 268.747 149.024C268.827 149.168 268.931 149.285 269.059 149.376C269.187 149.467 269.334 149.533 269.499 149.576C269.67 149.613 269.848 149.632 270.035 149.632C270.211 149.632 270.387 149.613 270.563 149.576C270.744 149.533 270.907 149.469 271.051 149.384C271.195 149.293 271.312 149.176 271.403 149.032C271.494 148.888 271.539 148.715 271.539 148.512C271.539 148.357 271.507 148.221 271.443 148.104C271.384 147.987 271.299 147.883 271.187 147.792C271.08 147.701 270.95 147.621 270.795 147.552C270.646 147.483 270.478 147.419 270.291 147.36L269.867 147.224C269.632 147.149 269.416 147.069 269.219 146.984C269.022 146.899 268.851 146.797 268.707 146.68C268.563 146.563 268.448 146.424 268.363 146.264C268.283 146.099 268.243 145.904 268.243 145.68C268.243 145.408 268.296 145.176 268.403 144.984C268.515 144.792 268.659 144.635 268.835 144.512C269.016 144.384 269.222 144.291 269.451 144.232C269.68 144.173 269.915 144.144 270.155 144.144C270.374 144.144 270.59 144.168 270.803 144.216C271.022 144.259 271.214 144.333 271.379 144.44C271.55 144.541 271.688 144.68 271.795 144.856C271.902 145.027 271.958 145.24 271.963 145.496H271.427C271.411 145.32 271.366 145.173 271.291 145.056C271.222 144.939 271.131 144.845 271.019 144.776C270.907 144.701 270.779 144.651 270.635 144.624C270.491 144.592 270.339 144.576 270.179 144.576C270.014 144.576 269.846 144.597 269.675 144.64C269.51 144.677 269.36 144.739 269.227 144.824C269.094 144.904 268.984 145.013 268.899 145.152C268.814 145.285 268.771 145.448 268.771 145.64C268.771 145.923 268.878 146.149 269.091 146.32C269.31 146.485 269.643 146.64 270.091 146.784L270.571 146.936C270.806 147.011 271.014 147.091 271.195 147.176C271.376 147.256 271.531 147.352 271.659 147.464C271.787 147.576 271.886 147.709 271.955 147.864C272.024 148.019 272.062 148.205 272.067 148.424ZM277.405 148.424C277.405 148.712 277.346 148.96 277.229 149.168C277.111 149.376 276.957 149.547 276.765 149.68C276.573 149.813 276.351 149.912 276.101 149.976C275.855 150.04 275.605 150.072 275.349 150.072C275.082 150.072 274.837 150.043 274.613 149.984C274.389 149.925 274.191 149.832 274.021 149.704C273.855 149.576 273.719 149.413 273.613 149.216C273.506 149.013 273.439 148.773 273.413 148.496H273.957C273.962 148.704 274.005 148.88 274.085 149.024C274.165 149.168 274.269 149.285 274.397 149.376C274.525 149.467 274.671 149.533 274.837 149.576C275.007 149.613 275.186 149.632 275.373 149.632C275.549 149.632 275.725 149.613 275.901 149.576C276.082 149.533 276.245 149.469 276.389 149.384C276.533 149.293 276.65 149.176 276.741 149.032C276.831 148.888 276.877 148.715 276.877 148.512C276.877 148.357 276.845 148.221 276.781 148.104C276.722 147.987 276.637 147.883 276.525 147.792C276.418 147.701 276.287 147.621 276.133 147.552C275.983 147.483 275.815 147.419 275.629 147.36L275.205 147.224C274.97 147.149 274.754 147.069 274.557 146.984C274.359 146.899 274.189 146.797 274.045 146.68C273.901 146.563 273.786 146.424 273.701 146.264C273.621 146.099 273.581 145.904 273.581 145.68C273.581 145.408 273.634 145.176 273.741 144.984C273.853 144.792 273.997 144.635 274.173 144.512C274.354 144.384 274.559 144.291 274.789 144.232C275.018 144.173 275.253 144.144 275.493 144.144C275.711 144.144 275.927 144.168 276.141 144.216C276.359 144.259 276.551 144.333 276.717 144.44C276.887 144.541 277.026 144.68 277.133 144.856C277.239 145.027 277.295 145.24 277.301 145.496H276.765C276.749 145.32 276.703 145.173 276.629 145.056C276.559 144.939 276.469 144.845 276.357 144.776C276.245 144.701 276.117 144.651 275.973 144.624C275.829 144.592 275.677 144.576 275.517 144.576C275.351 144.576 275.183 144.597 275.013 144.64C274.847 144.677 274.698 144.739 274.565 144.824C274.431 144.904 274.322 145.013 274.237 145.152C274.151 145.285 274.109 145.448 274.109 145.64C274.109 145.923 274.215 146.149 274.429 146.32C274.647 146.485 274.981 146.64 275.429 146.784L275.909 146.936C276.143 147.011 276.351 147.091 276.533 147.176C276.714 147.256 276.869 147.352 276.997 147.464C277.125 147.576 277.223 147.709 277.293 147.864C277.362 148.019 277.399 148.205 277.405 148.424ZM283.47 147.872C283.47 148.219 283.419 148.528 283.318 148.8C283.217 149.072 283.07 149.304 282.878 149.496C282.691 149.688 282.459 149.835 282.182 149.936C281.91 150.037 281.601 150.088 281.254 150.088C280.539 150.088 279.99 149.899 279.606 149.52C279.227 149.136 279.038 148.587 279.038 147.872V144.216H279.582V147.688C279.582 147.912 279.593 148.136 279.614 148.36C279.641 148.584 279.718 148.792 279.846 148.984C280.001 149.219 280.206 149.389 280.462 149.496C280.723 149.597 280.987 149.648 281.254 149.648C281.574 149.648 281.873 149.579 282.15 149.44C282.427 149.301 282.635 149.08 282.774 148.776C282.849 148.611 282.891 148.432 282.902 148.24C282.918 148.048 282.926 147.864 282.926 147.688V144.216H283.47V147.872ZM285.471 150V144.216H288.903V144.648H285.991V146.776H288.791V147.208H285.991V149.568H289.023V150H285.471ZM295.228 147.088C295.228 147.477 295.18 147.84 295.084 148.176C294.993 148.512 294.852 148.808 294.66 149.064C294.468 149.32 294.222 149.528 293.924 149.688C293.625 149.843 293.27 149.939 292.86 149.976C292.7 149.992 292.537 150 292.372 150C292.212 150 292.052 150 291.892 150H290.684V144.216H292.244C292.441 144.216 292.622 144.219 292.788 144.224C292.953 144.229 293.108 144.245 293.252 144.272C293.401 144.293 293.545 144.331 293.684 144.384C293.822 144.432 293.966 144.504 294.116 144.6C294.313 144.728 294.481 144.883 294.62 145.064C294.764 145.24 294.878 145.437 294.964 145.656C295.054 145.869 295.121 146.099 295.164 146.344C295.206 146.584 295.228 146.832 295.228 147.088ZM294.684 147.08C294.684 146.883 294.67 146.685 294.644 146.488C294.617 146.291 294.572 146.101 294.508 145.92C294.444 145.733 294.356 145.56 294.244 145.4C294.132 145.24 293.99 145.099 293.82 144.976C293.708 144.896 293.585 144.835 293.452 144.792C293.318 144.744 293.182 144.712 293.044 144.696C292.905 144.675 292.764 144.661 292.62 144.656C292.481 144.651 292.345 144.648 292.212 144.648H291.204V149.568H292.38C292.801 149.568 293.156 149.515 293.444 149.408C293.737 149.296 293.974 149.136 294.156 148.928C294.342 148.715 294.476 148.453 294.556 148.144C294.641 147.835 294.684 147.48 294.684 147.08Z" fill="#F6F9FC"/>
<path d="M235.98 167V159.523C235.835 159.653 235.701 159.767 235.579 159.867C235.457 159.958 235.327 160.046 235.189 160.13C235.051 160.215 234.902 160.302 234.742 160.394C234.581 160.486 234.394 160.593 234.18 160.715V160.004C234.547 159.844 234.876 159.66 235.166 159.454C235.457 159.24 235.743 158.991 236.026 158.708H236.691V167H235.98ZM240.368 167V166.209C240.658 165.941 240.987 165.628 241.354 165.268C241.729 164.909 242.096 164.53 242.455 164.133C242.822 163.735 243.162 163.338 243.476 162.94C243.789 162.543 244.038 162.172 244.221 161.828C244.397 161.499 244.485 161.143 244.485 160.761C244.485 160.264 244.336 159.878 244.038 159.603C243.747 159.328 243.369 159.19 242.902 159.19C242.405 159.19 242 159.347 241.687 159.66C241.381 159.966 241.232 160.383 241.239 160.91H240.46C240.467 160.536 240.532 160.203 240.655 159.913C240.777 159.622 240.945 159.377 241.159 159.179C241.381 158.972 241.641 158.819 241.939 158.72C242.237 158.613 242.562 158.559 242.914 158.559C243.243 158.559 243.548 158.605 243.831 158.697C244.122 158.781 244.374 158.915 244.588 159.098C244.802 159.274 244.967 159.496 245.081 159.763C245.204 160.031 245.265 160.341 245.265 160.692C245.265 160.991 245.215 161.277 245.116 161.553C245.024 161.828 244.902 162.092 244.749 162.344C244.596 162.596 244.424 162.841 244.233 163.078C244.049 163.307 243.869 163.529 243.694 163.743C243.311 164.202 242.898 164.649 242.455 165.085C242.019 165.513 241.591 165.933 241.171 166.346H245.368V167H240.368ZM247.45 167.126H246.728L249.446 158.559H250.157L247.45 167.126ZM253.895 167V159.523C253.75 159.653 253.616 159.767 253.494 159.867C253.371 159.958 253.241 160.046 253.104 160.13C252.966 160.215 252.817 160.302 252.657 160.394C252.496 160.486 252.309 160.593 252.095 160.715V160.004C252.462 159.844 252.79 159.66 253.081 159.454C253.371 159.24 253.658 158.991 253.941 158.708H254.606V167H253.895ZM258.283 167V166.209C258.573 165.941 258.902 165.628 259.269 165.268C259.644 164.909 260.011 164.53 260.37 164.133C260.737 163.735 261.077 163.338 261.391 162.94C261.704 162.543 261.953 162.172 262.136 161.828C262.312 161.499 262.4 161.143 262.4 160.761C262.4 160.264 262.251 159.878 261.953 159.603C261.662 159.328 261.284 159.19 260.817 159.19C260.32 159.19 259.915 159.347 259.601 159.66C259.296 159.966 259.147 160.383 259.154 160.91H258.374C258.382 160.536 258.447 160.203 258.569 159.913C258.692 159.622 258.86 159.377 259.074 159.179C259.296 158.972 259.556 158.819 259.854 158.72C260.152 158.613 260.477 158.559 260.829 158.559C261.157 158.559 261.463 158.605 261.746 158.697C262.037 158.781 262.289 158.915 262.503 159.098C262.717 159.274 262.881 159.496 262.996 159.763C263.118 160.031 263.18 160.341 263.18 160.692C263.18 160.991 263.13 161.277 263.031 161.553C262.939 161.828 262.816 162.092 262.664 162.344C262.511 162.596 262.339 162.841 262.147 163.078C261.964 163.307 261.784 163.529 261.608 163.743C261.226 164.202 260.813 164.649 260.37 165.085C259.934 165.513 259.506 165.933 259.085 166.346H263.283V167H258.283ZM265.365 167.126H264.643L267.361 158.559H268.072L265.365 167.126ZM269.207 167V166.209C269.497 165.941 269.826 165.628 270.193 165.268C270.568 164.909 270.935 164.53 271.294 164.133C271.661 163.735 272.001 163.338 272.315 162.94C272.628 162.543 272.877 162.172 273.06 161.828C273.236 161.499 273.324 161.143 273.324 160.761C273.324 160.264 273.175 159.878 272.877 159.603C272.586 159.328 272.208 159.19 271.741 159.19C271.244 159.19 270.839 159.347 270.526 159.66C270.22 159.966 270.071 160.383 270.078 160.91H269.298C269.306 160.536 269.371 160.203 269.493 159.913C269.616 159.622 269.784 159.377 269.998 159.179C270.22 158.972 270.48 158.819 270.778 158.72C271.076 158.613 271.401 158.559 271.753 158.559C272.081 158.559 272.387 158.605 272.67 158.697C272.961 158.781 273.213 158.915 273.427 159.098C273.641 159.274 273.806 159.496 273.92 159.763C274.043 160.031 274.104 160.341 274.104 160.692C274.104 160.991 274.054 161.277 273.955 161.553C273.863 161.828 273.741 162.092 273.588 162.344C273.435 162.596 273.263 162.841 273.072 163.078C272.888 163.307 272.708 163.529 272.533 163.743C272.15 164.202 271.737 164.649 271.294 165.085C270.858 165.513 270.43 165.933 270.009 166.346H274.207V167H269.207ZM281.439 162.734C281.439 163.185 281.404 163.667 281.335 164.179C281.266 164.691 281.133 165.165 280.934 165.601C280.743 166.037 280.475 166.4 280.131 166.69C279.787 166.973 279.34 167.115 278.789 167.115C278.407 167.115 278.078 167.05 277.803 166.92C277.528 166.782 277.291 166.602 277.092 166.381C276.901 166.151 276.744 165.888 276.622 165.589C276.507 165.291 276.415 164.978 276.347 164.649C276.278 164.32 276.232 163.988 276.209 163.651C276.186 163.315 276.175 162.994 276.175 162.688C276.175 162.267 276.213 161.816 276.289 161.335C276.366 160.853 276.503 160.406 276.702 159.993C276.901 159.58 277.172 159.24 277.516 158.972C277.86 158.697 278.304 158.559 278.847 158.559C279.389 158.559 279.829 158.693 280.166 158.961C280.502 159.228 280.766 159.569 280.957 159.981C281.148 160.394 281.274 160.845 281.335 161.335C281.404 161.824 281.439 162.29 281.439 162.734ZM280.67 162.86C280.67 162.653 280.662 162.42 280.647 162.16C280.632 161.893 280.601 161.621 280.555 161.346C280.517 161.071 280.456 160.803 280.372 160.543C280.288 160.283 280.177 160.054 280.039 159.855C279.909 159.649 279.745 159.484 279.546 159.362C279.355 159.232 279.122 159.167 278.847 159.167C278.419 159.167 278.078 159.297 277.826 159.557C277.581 159.817 277.39 160.138 277.253 160.52C277.123 160.895 277.038 161.293 277 161.713C276.962 162.134 276.943 162.508 276.943 162.837C276.943 163.036 276.951 163.269 276.966 163.537C276.981 163.797 277.012 164.064 277.058 164.339C277.103 164.607 277.165 164.875 277.241 165.142C277.325 165.402 277.436 165.635 277.574 165.842C277.711 166.04 277.876 166.205 278.067 166.335C278.266 166.457 278.499 166.518 278.766 166.518C279.042 166.518 279.279 166.457 279.477 166.335C279.684 166.213 279.856 166.052 279.993 165.853C280.139 165.654 280.253 165.429 280.338 165.177C280.429 164.917 280.498 164.653 280.544 164.385C280.597 164.11 280.632 163.842 280.647 163.582C280.662 163.315 280.67 163.074 280.67 162.86ZM287.409 165.142V167H286.663V165.142H282.936V164.339L286.48 158.708H287.409V164.511H288.682V165.142H287.409ZM286.675 159.5L283.59 164.511H286.675V159.5ZM295.351 162.436C295.351 162.749 295.34 163.082 295.317 163.433C295.294 163.785 295.248 164.137 295.179 164.488C295.118 164.84 295.026 165.18 294.904 165.509C294.782 165.83 294.617 166.117 294.411 166.369C294.212 166.614 293.964 166.813 293.665 166.966C293.375 167.111 293.027 167.183 292.622 167.183C292.285 167.183 291.972 167.138 291.681 167.046C291.398 166.954 291.15 166.82 290.936 166.644C290.729 166.461 290.561 166.232 290.431 165.956C290.309 165.681 290.236 165.36 290.213 164.993H291.028C291.051 165.49 291.196 165.868 291.463 166.128C291.731 166.381 292.113 166.507 292.61 166.507C293.084 166.507 293.455 166.377 293.723 166.117C293.99 165.857 294.193 165.528 294.331 165.131C294.468 164.725 294.556 164.286 294.594 163.812C294.633 163.338 294.659 162.887 294.675 162.459C294.231 163.361 293.532 163.812 292.576 163.812C292.209 163.812 291.876 163.747 291.578 163.617C291.28 163.487 291.024 163.307 290.81 163.078C290.596 162.841 290.431 162.562 290.317 162.241C290.202 161.92 290.145 161.572 290.145 161.197C290.145 160.807 290.21 160.452 290.34 160.13C290.47 159.802 290.649 159.523 290.879 159.293C291.108 159.064 291.379 158.888 291.693 158.766C292.014 158.636 292.362 158.575 292.736 158.582C293.226 158.59 293.635 158.693 293.964 158.892C294.3 159.083 294.571 159.351 294.778 159.695C294.984 160.039 295.13 160.444 295.214 160.91C295.305 161.377 295.351 161.885 295.351 162.436ZM294.503 161.163C294.503 160.887 294.461 160.631 294.376 160.394C294.292 160.157 294.174 159.951 294.021 159.775C293.868 159.591 293.681 159.45 293.459 159.351C293.245 159.251 293.004 159.202 292.736 159.202C292.461 159.202 292.209 159.255 291.98 159.362C291.758 159.461 291.567 159.599 291.406 159.775C291.246 159.951 291.119 160.161 291.028 160.406C290.944 160.65 290.902 160.914 290.902 161.197C290.902 161.472 290.94 161.732 291.016 161.977C291.093 162.214 291.204 162.424 291.349 162.608C291.494 162.783 291.674 162.921 291.888 163.02C292.102 163.12 292.347 163.17 292.622 163.17C292.905 163.17 293.161 163.124 293.39 163.032C293.627 162.933 293.826 162.795 293.986 162.619C294.155 162.436 294.281 162.222 294.365 161.977C294.457 161.732 294.503 161.461 294.503 161.163Z" fill="#F6F9FC"/>
<g style="mix-blend-mode:plus-lighter">
<path d="M33.1452 145.125H23.6467L16 152.759V162.241L23.6467 169.875H33.1452L40.7919 162.241V152.759L33.1452 145.125ZM24.9609 162.361L20.0623 157.47L24.9609 152.58C26.8128 150.731 29.8596 150.731 31.7115 152.58L36.6101 157.47L31.7115 162.361C29.8596 164.209 26.8726 164.209 24.9609 162.361Z" fill="#444CE7"/>
<path d="M51.689 163.26C53.2103 163.26 54.4612 162.484 54.85 161.319V163.125H57.0982V158.569C57.0982 157.539 56.2868 156.662 55.1881 156.662H51.9764V158.569H54.2584C54.5457 158.569 54.7317 158.754 54.7317 159.041C54.7317 160.138 53.278 161.201 51.8074 161.201C49.8465 161.201 48.2914 159.666 48.2914 157.219C48.2914 154.772 49.8465 153.354 51.8581 153.354C53.3794 153.354 54.4274 154.181 54.6133 155.447H57.132C56.9798 152.916 54.85 151.177 51.875 151.177C48.7478 151.177 45.8742 153.186 45.8742 157.219C45.8742 161.252 48.6633 163.26 51.689 163.26Z" fill="#131E33"/>
<path d="M58.0633 163.125H60.4128V150.924H58.0633V163.125Z" fill="#131E33"/>
<path d="M65.4811 163.26C68.1012 163.26 69.9775 161.404 69.9775 158.872C69.9775 156.341 68.1012 154.485 65.4811 154.485C62.8611 154.485 60.9848 156.341 60.9848 158.872C60.9848 161.404 62.8611 163.26 65.4811 163.26ZM65.4811 161.235C64.2134 161.235 63.3513 160.273 63.3513 158.872C63.3513 157.455 64.2134 156.493 65.4811 156.493C66.7489 156.493 67.611 157.455 67.611 158.872C67.611 160.273 66.7489 161.235 65.4811 161.235Z" fill="#131E33"/>
<path d="M75.235 163.26C77.7536 163.26 79.2581 161.522 79.2581 158.872C79.2581 156.223 77.7536 154.485 75.2688 154.485C74.2039 154.485 73.3756 154.89 72.9023 155.514V150.924H70.5527V163.125H72.9023V162.197C73.3756 162.855 74.2546 163.26 75.235 163.26ZM74.8631 161.235C73.5954 161.235 72.7671 160.29 72.7671 158.872C72.7671 157.438 73.5954 156.493 74.8631 156.493C76.0971 156.493 76.9423 157.438 76.9423 158.872C76.9423 160.29 76.0971 161.235 74.8631 161.235Z" fill="#131E33"/>
<path d="M83.1912 154.485C80.8585 154.485 79.4724 155.852 79.371 157.556H81.467C81.5008 156.847 82.0248 156.206 83.056 156.206C84.0195 156.206 84.5773 156.696 84.5773 157.404C84.5773 157.759 84.3575 158.029 83.9349 158.029H82.4981C80.6387 158.029 79.3879 159.041 79.3879 160.712C79.3879 162.163 80.5204 163.26 82.177 163.26C83.3433 163.26 84.2899 162.737 84.5773 161.944V163.125H86.91V157.657C86.91 155.734 85.3379 154.485 83.1912 154.485ZM82.7686 161.556C82.1094 161.556 81.6361 161.167 81.6361 160.611C81.6361 159.952 82.1432 159.514 82.8531 159.514H84.5773V159.632C84.5773 160.712 83.918 161.556 82.7686 161.556Z" fill="#131E33"/>
<path d="M87.8128 163.125H90.1624V150.924H87.8128V163.125Z" fill="#131E33"/>
<path d="M91.4105 163.125H96.2449C98.7467 163.125 100.471 161.842 100.471 159.598C100.471 158.046 99.558 157.101 98.4762 156.679C99.1693 156.307 99.8623 155.464 99.8623 154.35C99.8623 152.376 98.2565 151.312 96.1097 151.312H91.4105V163.125ZM93.9123 155.818V153.321H95.8731C97.0056 153.321 97.5127 153.776 97.5127 154.569C97.5127 155.362 97.0056 155.818 95.9238 155.818H93.9123ZM93.9123 160.931V157.961H96.0252C97.4282 157.961 98.0536 158.501 98.0536 159.463C98.0536 160.425 97.4282 160.931 96.0252 160.931H93.9123Z" fill="#131E33"/>
<path d="M104.558 154.485C102.226 154.485 100.84 155.852 100.738 157.556H102.834C102.868 156.847 103.392 156.206 104.423 156.206C105.387 156.206 105.944 156.696 105.944 157.404C105.944 157.759 105.725 158.029 105.302 158.029H103.865C102.006 158.029 100.755 159.041 100.755 160.712C100.755 162.163 101.888 163.26 103.544 163.26C104.71 163.26 105.657 162.737 105.944 161.944V163.125H108.277V157.657C108.277 155.734 106.705 154.485 104.558 154.485ZM104.136 161.556C103.477 161.556 103.003 161.167 103.003 160.611C103.003 159.952 103.51 159.514 104.22 159.514H105.944V159.632C105.944 160.712 105.285 161.556 104.136 161.556Z" fill="#131E33"/>
<path d="M109.045 163.125H111.411V158.467C111.411 157.371 112.138 156.577 113.169 156.577C114.15 156.577 114.809 157.32 114.809 158.349V163.125H117.175V157.826C117.175 155.869 115.925 154.485 113.998 154.485C112.831 154.485 111.885 154.974 111.411 155.801V154.62H109.045V163.125Z" fill="#131E33"/>
<path d="M123.92 163.125H126.76L123.092 157.961L126.489 154.62H123.514L120.556 157.522V150.924H118.19V163.125H120.556V160.459L121.503 159.531L123.92 163.125Z" fill="#131E33"/>
</g>
<path d="M32.546 24.68L23.564 36.416V32.024L29.108 24.68H32.546ZM24.302 24.68V38H21.386V24.68H24.302ZM26.192 32.69L28.046 30.134L32.582 38H29.216L26.192 32.69ZM37.4417 32.942L32.9417 24.68H36.1997L38.4317 29C38.5397 29.204 38.6297 29.396 38.7017 29.576C38.7857 29.744 38.8637 29.912 38.9357 30.08C38.9957 29.972 39.0497 29.864 39.0977 29.756C39.1457 29.636 39.1997 29.516 39.2597 29.396C39.3197 29.264 39.3857 29.126 39.4577 28.982L41.6897 24.68H44.8577L40.3577 32.942V38H37.4417V32.942ZM51.105 38.216C49.773 38.216 48.621 37.94 47.649 37.388C46.677 36.824 45.927 36.032 45.399 35.012C44.871 33.98 44.607 32.762 44.607 31.358C44.607 29.966 44.883 28.754 45.435 27.722C45.987 26.69 46.761 25.892 47.757 25.328C48.753 24.752 49.911 24.464 51.231 24.464C52.347 24.464 53.337 24.668 54.201 25.076C55.077 25.472 55.791 26.036 56.343 26.768C56.895 27.5 57.237 28.364 57.369 29.36H54.291C54.099 28.688 53.727 28.172 53.175 27.812C52.635 27.452 51.963 27.272 51.159 27.272C50.439 27.272 49.815 27.434 49.287 27.758C48.771 28.082 48.375 28.55 48.099 29.162C47.823 29.762 47.685 30.488 47.685 31.34C47.685 32.168 47.823 32.888 48.099 33.5C48.387 34.112 48.789 34.586 49.305 34.922C49.833 35.246 50.451 35.408 51.159 35.408C51.975 35.408 52.665 35.222 53.229 34.85C53.805 34.466 54.183 33.944 54.363 33.284H57.387C57.231 34.268 56.865 35.132 56.289 35.876C55.725 36.62 54.999 37.196 54.111 37.604C53.223 38.012 52.221 38.216 51.105 38.216ZM67.0168 24.68V38H64.1008V24.68H67.0168ZM64.6228 38V35.3H72.2728V38H64.6228ZM77.761 38.234C76.861 38.234 76.057 38.03 75.349 37.622C74.653 37.214 74.101 36.656 73.693 35.948C73.297 35.228 73.099 34.406 73.099 33.482C73.099 32.546 73.291 31.724 73.675 31.016C74.071 30.296 74.617 29.732 75.313 29.324C76.009 28.916 76.807 28.712 77.707 28.712C78.655 28.712 79.471 28.91 80.155 29.306C80.839 29.69 81.367 30.242 81.739 30.962C82.111 31.67 82.297 32.516 82.297 33.5V34.202L74.557 34.238L74.593 32.528H79.543C79.543 32.048 79.381 31.67 79.057 31.394C78.733 31.106 78.289 30.962 77.725 30.962C77.257 30.962 76.873 31.052 76.573 31.232C76.285 31.412 76.069 31.694 75.925 32.078C75.781 32.45 75.709 32.93 75.709 33.518C75.709 34.358 75.877 34.982 76.213 35.39C76.561 35.786 77.095 35.984 77.815 35.984C78.343 35.984 78.781 35.894 79.129 35.714C79.477 35.534 79.699 35.282 79.795 34.958H82.333C82.177 35.954 81.685 36.752 80.857 37.352C80.029 37.94 78.997 38.234 77.761 38.234ZM86.0375 38L82.5275 29H85.5155L86.6135 32.15C86.8415 32.81 87.0335 33.404 87.1895 33.932C87.3575 34.448 87.4595 34.808 87.4955 35.012C87.5555 34.748 87.6695 34.352 87.8375 33.824C88.0175 33.296 88.2215 32.738 88.4495 32.15L89.6555 29H92.5355L88.7735 38H86.0375ZM97.3958 38.234C96.4958 38.234 95.6918 38.03 94.9838 37.622C94.2878 37.214 93.7358 36.656 93.3278 35.948C92.9318 35.228 92.7338 34.406 92.7338 33.482C92.7338 32.546 92.9258 31.724 93.3098 31.016C93.7058 30.296 94.2518 29.732 94.9478 29.324C95.6438 28.916 96.4418 28.712 97.3418 28.712C98.2898 28.712 99.1058 28.91 99.7898 29.306C100.474 29.69 101.002 30.242 101.374 30.962C101.746 31.67 101.932 32.516 101.932 33.5V34.202L94.1918 34.238L94.2278 32.528H99.1778C99.1778 32.048 99.0158 31.67 98.6918 31.394C98.3678 31.106 97.9238 30.962 97.3598 30.962C96.8918 30.962 96.5078 31.052 96.2078 31.232C95.9198 31.412 95.7038 31.694 95.5598 32.078C95.4158 32.45 95.3438 32.93 95.3438 33.518C95.3438 34.358 95.5118 34.982 95.8478 35.39C96.1958 35.786 96.7298 35.984 97.4498 35.984C97.9778 35.984 98.4158 35.894 98.7638 35.714C99.1118 35.534 99.3338 35.282 99.4298 34.958H101.968C101.812 35.954 101.32 36.752 100.492 37.352C99.6638 37.94 98.6318 38.234 97.3958 38.234ZM106.345 38H103.573V24.428H106.345V38ZM115.781 27.29H112.757V24.68H118.571V38H115.781V27.29Z" fill="#F6F9FC"/>
<g style="mix-blend-mode:hard-light">
<rect x="224" y="20" width="72" height="22" rx="11" fill="#FAFAFA"/>
<g style="mix-blend-mode:multiply">
<path d="M235.836 36L232.536 27.324H233.796L235.908 32.868C236.004 33.108 236.096 33.36 236.184 33.624C236.272 33.88 236.36 34.172 236.448 34.5C236.552 34.156 236.652 33.844 236.748 33.564C236.844 33.284 236.928 33.048 237 32.856L239.1 27.324H240.324L237.06 36H235.836ZM242.842 36.144C242.274 36.144 241.77 36.016 241.33 35.76C240.89 35.496 240.546 35.136 240.298 34.68C240.05 34.216 239.926 33.68 239.926 33.072C239.926 32.456 240.046 31.916 240.286 31.452C240.534 30.988 240.87 30.624 241.294 30.36C241.726 30.096 242.226 29.964 242.794 29.964C243.354 29.964 243.838 30.084 244.246 30.324C244.662 30.564 244.982 30.9 245.206 31.332C245.438 31.764 245.554 32.272 245.554 32.856V33.276L240.526 33.288L240.55 32.532H244.426C244.426 32.044 244.278 31.652 243.982 31.356C243.686 31.06 243.29 30.912 242.794 30.912C242.418 30.912 242.094 30.996 241.822 31.164C241.558 31.324 241.354 31.564 241.21 31.884C241.074 32.196 241.006 32.572 241.006 33.012C241.006 33.716 241.166 34.26 241.486 34.644C241.806 35.02 242.266 35.208 242.866 35.208C243.306 35.208 243.666 35.12 243.946 34.944C244.226 34.768 244.414 34.512 244.51 34.176H245.566C245.422 34.8 245.114 35.284 244.642 35.628C244.17 35.972 243.57 36.144 242.842 36.144ZM250.174 30.084V31.116H249.67C249.134 31.116 248.71 31.272 248.398 31.584C248.094 31.888 247.942 32.324 247.942 32.892V36H246.814V30.144H247.87L247.966 31.32H247.858C247.938 30.936 248.13 30.624 248.434 30.384C248.738 30.136 249.118 30.012 249.574 30.012C249.678 30.012 249.774 30.02 249.862 30.036C249.958 30.044 250.062 30.06 250.174 30.084ZM251.232 36V30.132H252.36V36H251.232ZM251.784 28.74C251.584 28.74 251.408 28.668 251.256 28.524C251.112 28.372 251.04 28.196 251.04 27.996C251.04 27.788 251.112 27.612 251.256 27.468C251.408 27.324 251.584 27.252 251.784 27.252C251.992 27.252 252.168 27.324 252.312 27.468C252.456 27.612 252.528 27.788 252.528 27.996C252.528 28.196 252.456 28.372 252.312 28.524C252.168 28.668 251.992 28.74 251.784 28.74ZM253.374 30.132H259.098V31.08H253.374V30.132ZM256.734 27.216V28.188C256.662 28.188 256.582 28.188 256.494 28.188C256.414 28.188 256.326 28.188 256.23 28.188C255.886 28.188 255.654 28.276 255.534 28.452C255.422 28.628 255.366 28.876 255.366 29.196V36H254.238V29.196C254.238 28.716 254.318 28.328 254.478 28.032C254.638 27.728 254.854 27.508 255.126 27.372C255.398 27.236 255.702 27.168 256.038 27.168C256.15 27.168 256.266 27.172 256.386 27.18C256.506 27.188 256.622 27.2 256.734 27.216ZM257.97 36V30.132H259.098V36H257.97ZM258.534 28.692C258.326 28.692 258.154 28.624 258.018 28.488C257.882 28.344 257.814 28.172 257.814 27.972C257.814 27.764 257.882 27.592 258.018 27.456C258.154 27.32 258.326 27.252 258.534 27.252C258.734 27.252 258.902 27.32 259.038 27.456C259.174 27.592 259.242 27.764 259.242 27.972C259.242 28.172 259.174 28.344 259.038 28.488C258.902 28.624 258.734 28.692 258.534 28.692ZM263.233 36.144C262.665 36.144 262.161 36.016 261.721 35.76C261.281 35.496 260.937 35.136 260.689 34.68C260.441 34.216 260.317 33.68 260.317 33.072C260.317 32.456 260.437 31.916 260.677 31.452C260.925 30.988 261.261 30.624 261.685 30.36C262.117 30.096 262.617 29.964 263.185 29.964C263.745 29.964 264.229 30.084 264.637 30.324C265.053 30.564 265.373 30.9 265.597 31.332C265.829 31.764 265.945 32.272 265.945 32.856V33.276L260.917 33.288L260.941 32.532H264.817C264.817 32.044 264.669 31.652 264.373 31.356C264.077 31.06 263.681 30.912 263.185 30.912C262.809 30.912 262.485 30.996 262.213 31.164C261.949 31.324 261.745 31.564 261.601 31.884C261.465 32.196 261.397 32.572 261.397 33.012C261.397 33.716 261.557 34.26 261.877 34.644C262.197 35.02 262.657 35.208 263.257 35.208C263.697 35.208 264.057 35.12 264.337 34.944C264.617 34.768 264.805 34.512 264.901 34.176H265.957C265.813 34.8 265.505 35.284 265.033 35.628C264.561 35.972 263.961 36.144 263.233 36.144ZM269.557 36.144C268.989 36.144 268.501 36.016 268.093 35.76C267.685 35.496 267.369 35.132 267.145 34.668C266.929 34.204 266.821 33.676 266.821 33.084C266.821 32.484 266.933 31.952 267.157 31.488C267.381 31.016 267.701 30.644 268.117 30.372C268.533 30.1 269.029 29.964 269.605 29.964C270.061 29.964 270.465 30.06 270.817 30.252C271.177 30.436 271.457 30.712 271.657 31.08V27.168H272.773V36H271.765L271.669 34.932C271.477 35.324 271.193 35.624 270.817 35.832C270.449 36.04 270.029 36.144 269.557 36.144ZM269.785 35.124C270.169 35.124 270.497 35.036 270.769 34.86C271.049 34.684 271.265 34.44 271.417 34.128C271.569 33.816 271.645 33.456 271.645 33.048C271.645 32.64 271.569 32.284 271.417 31.98C271.265 31.668 271.049 31.424 270.769 31.248C270.497 31.072 270.169 30.984 269.785 30.984C269.401 30.984 269.073 31.076 268.801 31.26C268.529 31.436 268.321 31.68 268.177 31.992C268.033 32.296 267.961 32.648 267.961 33.048C267.961 33.456 268.033 33.816 268.177 34.128C268.321 34.44 268.529 34.684 268.801 34.86C269.073 35.036 269.401 35.124 269.785 35.124Z" fill="#98A2B3"/>
</g>
<g clip-path="url(#clip1_8600_56591)">
<path d="M287.267 27.1251C287.381 27.4007 287.6 27.6198 287.875 27.7342L288.841 28.1343C289.117 28.2484 289.336 28.4675 289.45 28.7431C289.564 29.0188 289.564 29.3285 289.45 29.6042L289.05 30.5694C288.936 30.8452 288.936 31.1552 289.05 31.4308L289.449 32.3958C289.506 32.5323 289.535 32.6786 289.535 32.8264C289.535 32.9742 289.506 33.1206 289.45 33.2571C289.393 33.3937 289.31 33.5178 289.206 33.6222C289.101 33.7267 288.977 33.8096 288.84 33.8661L287.875 34.2659C287.6 34.3799 287.38 34.5987 287.266 34.8741L286.866 35.84C286.752 36.1157 286.533 36.3347 286.257 36.4489C285.981 36.5631 285.672 36.5631 285.396 36.4489L284.431 36.0491C284.155 35.9352 283.846 35.9354 283.57 36.0497L282.604 36.4493C282.329 36.5632 282.019 36.5631 281.744 36.449C281.468 36.3349 281.249 36.1161 281.135 35.8408L280.735 34.8746C280.621 34.5989 280.402 34.3799 280.127 34.2655L279.161 33.8654C278.885 33.7512 278.666 33.5324 278.552 33.2569C278.438 32.9814 278.438 32.6718 278.552 32.3962L278.952 31.431C279.065 31.1553 279.065 30.8457 278.951 30.5702L278.552 29.6036C278.495 29.4671 278.466 29.3207 278.466 29.1729C278.466 29.0251 278.495 28.8788 278.552 28.7422C278.608 28.6057 278.691 28.4816 278.796 28.3771C278.9 28.2726 279.024 28.1897 279.161 28.1332L280.126 27.7334C280.401 27.6196 280.62 27.4011 280.735 27.1259L281.135 26.16C281.249 25.8843 281.468 25.6653 281.744 25.5512C282.019 25.437 282.329 25.437 282.605 25.5512L283.57 25.951C283.846 26.0649 284.155 26.0646 284.431 25.9503L285.397 25.5518C285.673 25.4377 285.982 25.4377 286.258 25.5518C286.534 25.666 286.753 25.8849 286.867 26.1605L287.267 27.1267L287.267 27.1251Z" fill="#32D583"/>
<path fill-rule="evenodd" clip-rule="evenodd" d="M286.35 29.4271C286.43 29.3012 286.457 29.1486 286.425 29.0028C286.392 28.8571 286.303 28.7302 286.177 28.6501C286.052 28.5699 285.899 28.543 285.753 28.5754C285.608 28.6077 285.481 28.6967 285.4 28.8226L283.198 32.2838L282.19 31.0238C282.097 30.9072 281.961 30.8325 281.813 30.816C281.664 30.7994 281.515 30.8425 281.399 30.9357C281.282 31.0289 281.207 31.1646 281.191 31.3129C281.174 31.4612 281.218 31.61 281.311 31.7266L282.811 33.6016C282.867 33.6715 282.938 33.7271 283.02 33.7638C283.102 33.8004 283.191 33.817 283.281 33.8121C283.37 33.8073 283.457 33.7812 283.534 33.7359C283.612 33.6907 283.677 33.6277 283.725 33.5521L286.35 29.4271Z" fill="white"/>
</g>
</g>
</g>
<rect x="0.5" y="0.5" width="315" height="189" rx="19.5" stroke="url(#paint1_linear_8600_56591)"/>
<defs>
<filter id="filter0_f_8600_56591" x="-144" y="-144" width="416" height="416" filterUnits="userSpaceOnUse" color-interpolation-filters="sRGB">
<feFlood flood-opacity="0" result="BackgroundImageFix"/>
<feBlend mode="normal" in="SourceGraphic" in2="BackgroundImageFix" result="shape"/>
<feGaussianBlur stdDeviation="64" result="effect1_foregroundBlur_8600_56591"/>
</filter>
<linearGradient id="paint0_linear_8600_56591" x1="15.7873" y1="2.05045e-05" x2="341.34" y2="228.824" gradientUnits="userSpaceOnUse">
<stop stop-color="white" stop-opacity="0.51"/>
<stop offset="1" stop-color="white" stop-opacity="0"/>
</linearGradient>
<linearGradient id="paint1_linear_8600_56591" x1="1.78532e-07" y1="8.02303" x2="308.782" y2="201.518" gradientUnits="userSpaceOnUse">
<stop stop-color="white"/>
<stop offset="1" stop-color="white" stop-opacity="0.2"/>
</linearGradient>
<clipPath id="clip0_8600_56591">
<rect width="316" height="190" rx="20" fill="white"/>
</clipPath>
<clipPath id="clip1_8600_56591">
<rect width="12" height="12" fill="white" transform="translate(278 25)"/>
</clipPath>
</defs>
</svg>
