<svg width="316" height="190" viewBox="0 0 316 190" fill="none" xmlns="http://www.w3.org/2000/svg">
<g clip-path="url(#clip0_8600_61018)">
<rect width="316" height="190" rx="20" fill="url(#paint0_linear_8600_61018)"/>
<g filter="url(#filter0_f_8600_61018)">
<path opacity="0.3" d="M-16 64C-16 19.8172 19.8172 -16 64 -16V64H-16Z" fill="#FDE272"/>
<path opacity="0.3" d="M64 -16C108.183 -16 144 19.8172 144 64H64V-16Z" fill="#FAC515"/>
<path opacity="0.3" d="M-16 64H64V144C19.8172 144 -16 108.183 -16 64Z" fill="#FDE272"/>
<path opacity="0.3" d="M64 64H144C144 108.183 108.183 144 64 144V64Z" fill="#B54708"/>
</g>
<path d="M265.84 150V144.216H266.36V150H265.84ZM272.067 148.424C272.067 148.712 272.008 148.96 271.891 149.168C271.774 149.376 271.619 149.547 271.427 149.68C271.235 149.813 271.014 149.912 270.763 149.976C270.518 150.04 270.267 150.072 270.011 150.072C269.744 150.072 269.499 150.043 269.275 149.984C269.051 149.925 268.854 149.832 268.683 149.704C268.518 149.576 268.382 149.413 268.275 149.216C268.168 149.013 268.102 148.773 268.075 148.496H268.619C268.624 148.704 268.667 148.88 268.747 149.024C268.827 149.168 268.931 149.285 269.059 149.376C269.187 149.467 269.334 149.533 269.499 149.576C269.67 149.613 269.848 149.632 270.035 149.632C270.211 149.632 270.387 149.613 270.563 149.576C270.744 149.533 270.907 149.469 271.051 149.384C271.195 149.293 271.312 149.176 271.403 149.032C271.494 148.888 271.539 148.715 271.539 148.512C271.539 148.357 271.507 148.221 271.443 148.104C271.384 147.987 271.299 147.883 271.187 147.792C271.08 147.701 270.95 147.621 270.795 147.552C270.646 147.483 270.478 147.419 270.291 147.36L269.867 147.224C269.632 147.149 269.416 147.069 269.219 146.984C269.022 146.899 268.851 146.797 268.707 146.68C268.563 146.563 268.448 146.424 268.363 146.264C268.283 146.099 268.243 145.904 268.243 145.68C268.243 145.408 268.296 145.176 268.403 144.984C268.515 144.792 268.659 144.635 268.835 144.512C269.016 144.384 269.222 144.291 269.451 144.232C269.68 144.173 269.915 144.144 270.155 144.144C270.374 144.144 270.59 144.168 270.803 144.216C271.022 144.259 271.214 144.333 271.379 144.44C271.55 144.541 271.688 144.68 271.795 144.856C271.902 145.027 271.958 145.24 271.963 145.496H271.427C271.411 145.32 271.366 145.173 271.291 145.056C271.222 144.939 271.131 144.845 271.019 144.776C270.907 144.701 270.779 144.651 270.635 144.624C270.491 144.592 270.339 144.576 270.179 144.576C270.014 144.576 269.846 144.597 269.675 144.64C269.51 144.677 269.36 144.739 269.227 144.824C269.094 144.904 268.984 145.013 268.899 145.152C268.814 145.285 268.771 145.448 268.771 145.64C268.771 145.923 268.878 146.149 269.091 146.32C269.31 146.485 269.643 146.64 270.091 146.784L270.571 146.936C270.806 147.011 271.014 147.091 271.195 147.176C271.376 147.256 271.531 147.352 271.659 147.464C271.787 147.576 271.886 147.709 271.955 147.864C272.024 148.019 272.062 148.205 272.067 148.424ZM277.405 148.424C277.405 148.712 277.346 148.96 277.229 149.168C277.111 149.376 276.957 149.547 276.765 149.68C276.573 149.813 276.351 149.912 276.101 149.976C275.855 150.04 275.605 150.072 275.349 150.072C275.082 150.072 274.837 150.043 274.613 149.984C274.389 149.925 274.191 149.832 274.021 149.704C273.855 149.576 273.719 149.413 273.613 149.216C273.506 149.013 273.439 148.773 273.413 148.496H273.957C273.962 148.704 274.005 148.88 274.085 149.024C274.165 149.168 274.269 149.285 274.397 149.376C274.525 149.467 274.671 149.533 274.837 149.576C275.007 149.613 275.186 149.632 275.373 149.632C275.549 149.632 275.725 149.613 275.901 149.576C276.082 149.533 276.245 149.469 276.389 149.384C276.533 149.293 276.65 149.176 276.741 149.032C276.831 148.888 276.877 148.715 276.877 148.512C276.877 148.357 276.845 148.221 276.781 148.104C276.722 147.987 276.637 147.883 276.525 147.792C276.418 147.701 276.287 147.621 276.133 147.552C275.983 147.483 275.815 147.419 275.629 147.36L275.205 147.224C274.97 147.149 274.754 147.069 274.557 146.984C274.359 146.899 274.189 146.797 274.045 146.68C273.901 146.563 273.786 146.424 273.701 146.264C273.621 146.099 273.581 145.904 273.581 145.68C273.581 145.408 273.634 145.176 273.741 144.984C273.853 144.792 273.997 144.635 274.173 144.512C274.354 144.384 274.559 144.291 274.789 144.232C275.018 144.173 275.253 144.144 275.493 144.144C275.711 144.144 275.927 144.168 276.141 144.216C276.359 144.259 276.551 144.333 276.717 144.44C276.887 144.541 277.026 144.68 277.133 144.856C277.239 145.027 277.295 145.24 277.301 145.496H276.765C276.749 145.32 276.703 145.173 276.629 145.056C276.559 144.939 276.469 144.845 276.357 144.776C276.245 144.701 276.117 144.651 275.973 144.624C275.829 144.592 275.677 144.576 275.517 144.576C275.351 144.576 275.183 144.597 275.013 144.64C274.847 144.677 274.698 144.739 274.565 144.824C274.431 144.904 274.322 145.013 274.237 145.152C274.151 145.285 274.109 145.448 274.109 145.64C274.109 145.923 274.215 146.149 274.429 146.32C274.647 146.485 274.981 146.64 275.429 146.784L275.909 146.936C276.143 147.011 276.351 147.091 276.533 147.176C276.714 147.256 276.869 147.352 276.997 147.464C277.125 147.576 277.223 147.709 277.293 147.864C277.362 148.019 277.399 148.205 277.405 148.424ZM283.47 147.872C283.47 148.219 283.419 148.528 283.318 148.8C283.217 149.072 283.07 149.304 282.878 149.496C282.691 149.688 282.459 149.835 282.182 149.936C281.91 150.037 281.601 150.088 281.254 150.088C280.539 150.088 279.99 149.899 279.606 149.52C279.227 149.136 279.038 148.587 279.038 147.872V144.216H279.582V147.688C279.582 147.912 279.593 148.136 279.614 148.36C279.641 148.584 279.718 148.792 279.846 148.984C280.001 149.219 280.206 149.389 280.462 149.496C280.723 149.597 280.987 149.648 281.254 149.648C281.574 149.648 281.873 149.579 282.15 149.44C282.427 149.301 282.635 149.08 282.774 148.776C282.849 148.611 282.891 148.432 282.902 148.24C282.918 148.048 282.926 147.864 282.926 147.688V144.216H283.47V147.872ZM285.471 150V144.216H288.903V144.648H285.991V146.776H288.791V147.208H285.991V149.568H289.023V150H285.471ZM295.228 147.088C295.228 147.477 295.18 147.84 295.084 148.176C294.993 148.512 294.852 148.808 294.66 149.064C294.468 149.32 294.222 149.528 293.924 149.688C293.625 149.843 293.27 149.939 292.86 149.976C292.7 149.992 292.537 150 292.372 150C292.212 150 292.052 150 291.892 150H290.684V144.216H292.244C292.441 144.216 292.622 144.219 292.788 144.224C292.953 144.229 293.108 144.245 293.252 144.272C293.401 144.293 293.545 144.331 293.684 144.384C293.822 144.432 293.966 144.504 294.116 144.6C294.313 144.728 294.481 144.883 294.62 145.064C294.764 145.24 294.878 145.437 294.964 145.656C295.054 145.869 295.121 146.099 295.164 146.344C295.206 146.584 295.228 146.832 295.228 147.088ZM294.684 147.08C294.684 146.883 294.67 146.685 294.644 146.488C294.617 146.291 294.572 146.101 294.508 145.92C294.444 145.733 294.356 145.56 294.244 145.4C294.132 145.24 293.99 145.099 293.82 144.976C293.708 144.896 293.585 144.835 293.452 144.792C293.318 144.744 293.182 144.712 293.044 144.696C292.905 144.675 292.764 144.661 292.62 144.656C292.481 144.651 292.345 144.648 292.212 144.648H291.204V149.568H292.38C292.801 149.568 293.156 149.515 293.444 149.408C293.737 149.296 293.974 149.136 294.156 148.928C294.342 148.715 294.476 148.453 294.556 148.144C294.641 147.835 294.684 147.48 294.684 147.08Z" fill="#F6F9FC"/>
<path d="M235.98 167V159.523C235.835 159.653 235.701 159.767 235.579 159.867C235.457 159.958 235.327 160.046 235.189 160.13C235.051 160.215 234.902 160.302 234.742 160.394C234.581 160.486 234.394 160.593 234.18 160.715V160.004C234.547 159.844 234.876 159.66 235.166 159.454C235.457 159.24 235.743 158.991 236.026 158.708H236.691V167H235.98ZM240.368 167V166.209C240.658 165.941 240.987 165.628 241.354 165.268C241.729 164.909 242.096 164.53 242.455 164.133C242.822 163.735 243.162 163.338 243.476 162.94C243.789 162.543 244.038 162.172 244.221 161.828C244.397 161.499 244.485 161.143 244.485 160.761C244.485 160.264 244.336 159.878 244.038 159.603C243.747 159.328 243.369 159.19 242.902 159.19C242.405 159.19 242 159.347 241.687 159.66C241.381 159.966 241.232 160.383 241.239 160.91H240.46C240.467 160.536 240.532 160.203 240.655 159.913C240.777 159.622 240.945 159.377 241.159 159.179C241.381 158.972 241.641 158.819 241.939 158.72C242.237 158.613 242.562 158.559 242.914 158.559C243.243 158.559 243.548 158.605 243.831 158.697C244.122 158.781 244.374 158.915 244.588 159.098C244.802 159.274 244.967 159.496 245.081 159.763C245.204 160.031 245.265 160.341 245.265 160.692C245.265 160.991 245.215 161.277 245.116 161.553C245.024 161.828 244.902 162.092 244.749 162.344C244.596 162.596 244.424 162.841 244.233 163.078C244.049 163.307 243.869 163.529 243.694 163.743C243.311 164.202 242.898 164.649 242.455 165.085C242.019 165.513 241.591 165.933 241.171 166.346H245.368V167H240.368ZM247.45 167.126H246.728L249.446 158.559H250.157L247.45 167.126ZM253.895 167V159.523C253.75 159.653 253.616 159.767 253.494 159.867C253.371 159.958 253.241 160.046 253.104 160.13C252.966 160.215 252.817 160.302 252.657 160.394C252.496 160.486 252.309 160.593 252.095 160.715V160.004C252.462 159.844 252.79 159.66 253.081 159.454C253.371 159.24 253.658 158.991 253.941 158.708H254.606V167H253.895ZM258.283 167V166.209C258.573 165.941 258.902 165.628 259.269 165.268C259.644 164.909 260.011 164.53 260.37 164.133C260.737 163.735 261.077 163.338 261.391 162.94C261.704 162.543 261.953 162.172 262.136 161.828C262.312 161.499 262.4 161.143 262.4 160.761C262.4 160.264 262.251 159.878 261.953 159.603C261.662 159.328 261.284 159.19 260.817 159.19C260.32 159.19 259.915 159.347 259.601 159.66C259.296 159.966 259.147 160.383 259.154 160.91H258.374C258.382 160.536 258.447 160.203 258.569 159.913C258.692 159.622 258.86 159.377 259.074 159.179C259.296 158.972 259.556 158.819 259.854 158.72C260.152 158.613 260.477 158.559 260.829 158.559C261.157 158.559 261.463 158.605 261.746 158.697C262.037 158.781 262.289 158.915 262.503 159.098C262.717 159.274 262.881 159.496 262.996 159.763C263.118 160.031 263.18 160.341 263.18 160.692C263.18 160.991 263.13 161.277 263.031 161.553C262.939 161.828 262.816 162.092 262.664 162.344C262.511 162.596 262.339 162.841 262.147 163.078C261.964 163.307 261.784 163.529 261.608 163.743C261.226 164.202 260.813 164.649 260.37 165.085C259.934 165.513 259.506 165.933 259.085 166.346H263.283V167H258.283ZM265.365 167.126H264.643L267.361 158.559H268.072L265.365 167.126ZM269.207 167V166.209C269.497 165.941 269.826 165.628 270.193 165.268C270.568 164.909 270.935 164.53 271.294 164.133C271.661 163.735 272.001 163.338 272.315 162.94C272.628 162.543 272.877 162.172 273.06 161.828C273.236 161.499 273.324 161.143 273.324 160.761C273.324 160.264 273.175 159.878 272.877 159.603C272.586 159.328 272.208 159.19 271.741 159.19C271.244 159.19 270.839 159.347 270.526 159.66C270.22 159.966 270.071 160.383 270.078 160.91H269.298C269.306 160.536 269.371 160.203 269.493 159.913C269.616 159.622 269.784 159.377 269.998 159.179C270.22 158.972 270.48 158.819 270.778 158.72C271.076 158.613 271.401 158.559 271.753 158.559C272.081 158.559 272.387 158.605 272.67 158.697C272.961 158.781 273.213 158.915 273.427 159.098C273.641 159.274 273.806 159.496 273.92 159.763C274.043 160.031 274.104 160.341 274.104 160.692C274.104 160.991 274.054 161.277 273.955 161.553C273.863 161.828 273.741 162.092 273.588 162.344C273.435 162.596 273.263 162.841 273.072 163.078C272.888 163.307 272.708 163.529 272.533 163.743C272.15 164.202 271.737 164.649 271.294 165.085C270.858 165.513 270.43 165.933 270.009 166.346H274.207V167H269.207ZM281.439 162.734C281.439 163.185 281.404 163.667 281.335 164.179C281.266 164.691 281.133 165.165 280.934 165.601C280.743 166.037 280.475 166.4 280.131 166.69C279.787 166.973 279.34 167.115 278.789 167.115C278.407 167.115 278.078 167.05 277.803 166.92C277.528 166.782 277.291 166.602 277.092 166.381C276.901 166.151 276.744 165.888 276.622 165.589C276.507 165.291 276.415 164.978 276.347 164.649C276.278 164.32 276.232 163.988 276.209 163.651C276.186 163.315 276.175 162.994 276.175 162.688C276.175 162.267 276.213 161.816 276.289 161.335C276.366 160.853 276.503 160.406 276.702 159.993C276.901 159.58 277.172 159.24 277.516 158.972C277.86 158.697 278.304 158.559 278.847 158.559C279.389 158.559 279.829 158.693 280.166 158.961C280.502 159.228 280.766 159.569 280.957 159.981C281.148 160.394 281.274 160.845 281.335 161.335C281.404 161.824 281.439 162.29 281.439 162.734ZM280.67 162.86C280.67 162.653 280.662 162.42 280.647 162.16C280.632 161.893 280.601 161.621 280.555 161.346C280.517 161.071 280.456 160.803 280.372 160.543C280.288 160.283 280.177 160.054 280.039 159.855C279.909 159.649 279.745 159.484 279.546 159.362C279.355 159.232 279.122 159.167 278.847 159.167C278.419 159.167 278.078 159.297 277.826 159.557C277.581 159.817 277.39 160.138 277.253 160.52C277.123 160.895 277.038 161.293 277 161.713C276.962 162.134 276.943 162.508 276.943 162.837C276.943 163.036 276.951 163.269 276.966 163.537C276.981 163.797 277.012 164.064 277.058 164.339C277.103 164.607 277.165 164.875 277.241 165.142C277.325 165.402 277.436 165.635 277.574 165.842C277.711 166.04 277.876 166.205 278.067 166.335C278.266 166.457 278.499 166.518 278.766 166.518C279.042 166.518 279.279 166.457 279.477 166.335C279.684 166.213 279.856 166.052 279.993 165.853C280.139 165.654 280.253 165.429 280.338 165.177C280.429 164.917 280.498 164.653 280.544 164.385C280.597 164.11 280.632 163.842 280.647 163.582C280.662 163.315 280.67 163.074 280.67 162.86ZM287.409 165.142V167H286.663V165.142H282.936V164.339L286.48 158.708H287.409V164.511H288.682V165.142H287.409ZM286.675 159.5L283.59 164.511H286.675V159.5ZM295.351 162.436C295.351 162.749 295.34 163.082 295.317 163.433C295.294 163.785 295.248 164.137 295.179 164.488C295.118 164.84 295.026 165.18 294.904 165.509C294.782 165.83 294.617 166.117 294.411 166.369C294.212 166.614 293.964 166.813 293.665 166.966C293.375 167.111 293.027 167.183 292.622 167.183C292.285 167.183 291.972 167.138 291.681 167.046C291.398 166.954 291.15 166.82 290.936 166.644C290.729 166.461 290.561 166.232 290.431 165.956C290.309 165.681 290.236 165.36 290.213 164.993H291.028C291.051 165.49 291.196 165.868 291.463 166.128C291.731 166.381 292.113 166.507 292.61 166.507C293.084 166.507 293.455 166.377 293.723 166.117C293.99 165.857 294.193 165.528 294.331 165.131C294.468 164.725 294.556 164.286 294.594 163.812C294.633 163.338 294.659 162.887 294.675 162.459C294.231 163.361 293.532 163.812 292.576 163.812C292.209 163.812 291.876 163.747 291.578 163.617C291.28 163.487 291.024 163.307 290.81 163.078C290.596 162.841 290.431 162.562 290.317 162.241C290.202 161.92 290.145 161.572 290.145 161.197C290.145 160.807 290.21 160.452 290.34 160.13C290.47 159.802 290.649 159.523 290.879 159.293C291.108 159.064 291.379 158.888 291.693 158.766C292.014 158.636 292.362 158.575 292.736 158.582C293.226 158.59 293.635 158.693 293.964 158.892C294.3 159.083 294.571 159.351 294.778 159.695C294.984 160.039 295.13 160.444 295.214 160.91C295.305 161.377 295.351 161.885 295.351 162.436ZM294.503 161.163C294.503 160.887 294.461 160.631 294.376 160.394C294.292 160.157 294.174 159.951 294.021 159.775C293.868 159.591 293.681 159.45 293.459 159.351C293.245 159.251 293.004 159.202 292.736 159.202C292.461 159.202 292.209 159.255 291.98 159.362C291.758 159.461 291.567 159.599 291.406 159.775C291.246 159.951 291.119 160.161 291.028 160.406C290.944 160.65 290.902 160.914 290.902 161.197C290.902 161.472 290.94 161.732 291.016 161.977C291.093 162.214 291.204 162.424 291.349 162.608C291.494 162.783 291.674 162.921 291.888 163.02C292.102 163.12 292.347 163.17 292.622 163.17C292.905 163.17 293.161 163.124 293.39 163.032C293.627 162.933 293.826 162.795 293.986 162.619C294.155 162.436 294.281 162.222 294.365 161.977C294.457 161.732 294.503 161.461 294.503 161.163Z" fill="#F6F9FC"/>
<g clip-path="url(#clip1_8600_61018)">
<path fill-rule="evenodd" clip-rule="evenodd" d="M31.3721 146.214V158.248L29.2431 157.009V147.453L31.3721 146.214ZM28.3562 149.984V156.493L26.2273 155.254V151.222L28.3562 149.984ZM19.3294 140H42.4373C44.2686 140 45.7662 141.509 45.7662 143.356V166.645C45.7662 167.77 45.2096 168.77 44.3606 169.38V162.299C43.6511 161.887 42.9416 161.474 42.2321 161.061V170H41.1674V151.845L39.0384 150.606V170H38.0145V155.538L35.8855 156.776V170H34.5888V143.369L32.4598 144.607V170H25.757V155.528L23.628 156.767V170H22.5633V159.59L20.4343 160.829V170H19.5345V163.614L17.4056 164.853V169.38C16.5566 168.77 16 167.77 16 166.645V143.356C16 141.509 17.4981 140 19.3294 140Z" fill="#FEF7C3"/>
<path d="M54.0869 149.835H53.8755V160.335H56.1564V156.235H59.817V154.163H56.1564V151.964H60.5069V149.835H56.1564H54.0869Z" fill="#FEF0C7"/>
<path d="M66.0534 156.93C66.0534 157.507 65.9522 157.926 65.7509 158.186C65.5491 158.446 65.2135 158.576 64.7442 158.576C64.3027 158.576 63.9791 158.441 63.7729 158.172C63.5663 157.902 63.4633 157.479 63.4633 156.902V153.241H61.295V157.697C61.295 158.567 61.5275 159.255 61.992 159.761C62.4565 160.268 63.0879 160.52 63.8856 160.52C64.3079 160.52 64.7183 160.43 65.1176 160.251C65.5165 160.071 65.8238 159.835 66.04 159.541L66.1809 160.336H68.2221V153.241H66.0539V156.931L66.0534 156.93Z" fill="#FEF0C7"/>
<path d="M72.6987 151.041H70.5304V153.241H69.1929V155.057H70.5304V160.335H72.6987V155.057H74.0362V153.241H72.6987V151.041Z" fill="#FEF0C7"/>
<path d="M79.6819 156.93C79.6819 157.507 79.5808 157.926 79.3794 158.186C79.1776 158.446 78.842 158.576 78.3727 158.576C77.9312 158.576 77.6076 158.441 77.4015 158.172C77.1949 157.902 77.0918 157.479 77.0918 156.902V153.241H74.9235V157.697C74.9235 158.567 75.156 159.255 75.6206 159.761C76.0851 160.268 76.7164 160.52 77.5141 160.52C77.9365 160.52 78.3468 160.43 78.7462 160.251C79.145 160.071 79.4523 159.835 79.6685 159.541L79.8095 160.336H81.8507V153.241H79.6824V156.931L79.6819 156.93Z" fill="#FEF0C7"/>
<path d="M87.4955 153.141C86.9231 153.141 86.4701 153.295 86.1369 153.602C85.9216 153.801 85.7562 154.034 85.6412 154.302L85.5247 153.255H83.4835V160.335H85.6517V157.256C85.6517 156.556 85.8277 156.055 86.1795 155.752C86.5314 155.45 87.017 155.298 87.6369 155.298H88.3267V153.241C88.1767 153.203 88.0333 153.177 87.8972 153.162C87.761 153.148 87.6273 153.141 87.4959 153.141H87.4955Z" fill="#FEF0C7"/>
<path d="M93.5492 158.533C93.2769 158.675 92.9341 158.746 92.5214 158.746C91.9581 158.746 91.5429 158.588 91.2754 158.271C91.0904 158.051 90.9696 157.75 90.9125 157.365L96.0271 157.341V156.788C96.0271 156.012 95.8814 155.343 95.5909 154.78C95.2999 154.217 94.8872 153.782 94.3522 153.474C93.8172 153.167 93.1786 153.013 92.4375 153.013C91.6963 153.013 91.1091 153.174 90.565 153.496C90.0204 153.818 89.5957 154.26 89.2908 154.823C88.9854 155.386 88.8334 156.036 88.8334 156.774C88.8334 157.512 88.9907 158.148 89.3052 158.711C89.6196 159.274 90.0516 159.716 90.6005 160.038C91.1494 160.359 91.7759 160.52 92.4801 160.52C93.4466 160.52 94.2539 160.286 94.9015 159.818C95.5492 159.35 95.9341 158.723 96.0559 157.938H94.0708C93.9955 158.193 93.822 158.392 93.5497 158.534L93.5492 158.533ZM91.5568 155C91.7865 154.858 92.0846 154.787 92.4509 154.787C92.8919 154.787 93.2395 154.898 93.4926 155.12C93.7462 155.342 93.8728 155.643 93.8728 156.021H90.9418C90.9682 155.889 91.0017 155.768 91.0429 155.659C91.1556 155.361 91.3267 155.141 91.5568 154.999V155Z" fill="#FEF0C7"/>
<path d="M107.48 157.845C107.034 158.143 106.492 158.292 105.854 158.292C105.3 158.292 104.819 158.162 104.411 157.901C104.003 157.642 103.688 157.27 103.468 156.788C103.247 156.305 103.137 155.738 103.137 155.085C103.137 154.432 103.245 153.839 103.461 153.361C103.676 152.884 103.988 152.517 104.397 152.262C104.805 152.006 105.291 151.878 105.854 151.878C106.483 151.878 107.011 152.02 107.438 152.304C107.865 152.588 108.154 152.995 108.304 153.525H110.711C110.608 152.739 110.34 152.058 109.909 151.481C109.477 150.904 108.921 150.457 108.241 150.14C107.56 149.824 106.783 149.665 105.91 149.665C104.878 149.665 103.972 149.89 103.193 150.339C102.414 150.788 101.809 151.42 101.377 152.234C100.945 153.047 100.729 154.002 100.729 155.1C100.729 156.197 100.935 157.164 101.348 157.973C101.761 158.782 102.348 159.406 103.108 159.846C103.869 160.286 104.77 160.506 105.811 160.506C106.684 160.506 107.468 160.345 108.163 160.024C108.858 159.702 109.428 159.248 109.873 158.662C110.319 158.075 110.603 157.394 110.725 156.618H108.36C108.219 157.139 107.926 157.548 107.48 157.845L107.48 157.845Z" fill="#FEF0C7"/>
<path d="M114.147 153.24H111.978V160.335H114.147V153.24Z" fill="#FEF0C7"/>
<path d="M113.048 149.651C112.701 149.651 112.408 149.769 112.168 150.005C111.929 150.242 111.809 150.535 111.809 150.885C111.809 151.235 111.929 151.531 112.168 151.772C112.407 152.013 112.701 152.134 113.048 152.134C113.396 152.134 113.675 152.013 113.914 151.772C114.153 151.531 114.273 151.235 114.273 150.885C114.273 150.535 114.153 150.242 113.914 150.005C113.675 149.769 113.386 149.651 113.048 149.651Z" fill="#FEF0C7"/>
<path d="M118.624 151.041H116.455V153.241H115.118V155.057H116.455V160.335H118.624V155.057H119.961V153.241H118.624V151.041Z" fill="#FEF0C7"/>
<path d="M125.747 153.24L124.049 157.802L122.51 153.24H120.186L123.015 160.579L122.89 160.917C122.796 161.173 122.693 161.372 122.58 161.513C122.467 161.655 122.331 161.757 122.172 161.818C122.012 161.879 121.81 161.91 121.566 161.91H120.37V163.741C120.585 163.807 120.813 163.857 121.052 163.89C121.291 163.923 121.543 163.94 121.805 163.94C122.425 163.94 122.943 163.776 123.361 163.45C123.778 163.124 124.133 162.601 124.424 161.882L128 153.241H125.747V153.24Z" fill="#FEF0C7"/>
</g>
<path d="M27.146 38.216C25.814 38.216 24.662 37.94 23.69 37.388C22.718 36.824 21.968 36.032 21.44 35.012C20.912 33.98 20.648 32.762 20.648 31.358C20.648 29.966 20.924 28.754 21.476 27.722C22.028 26.69 22.802 25.892 23.798 25.328C24.794 24.752 25.952 24.464 27.272 24.464C28.388 24.464 29.378 24.668 30.242 25.076C31.118 25.472 31.832 26.036 32.384 26.768C32.936 27.5 33.278 28.364 33.41 29.36H30.332C30.14 28.688 29.768 28.172 29.216 27.812C28.676 27.452 28.004 27.272 27.2 27.272C26.48 27.272 25.856 27.434 25.328 27.758C24.812 28.082 24.416 28.55 24.14 29.162C23.864 29.762 23.726 30.488 23.726 31.34C23.726 32.168 23.864 32.888 24.14 33.5C24.428 34.112 24.83 34.586 25.346 34.922C25.874 35.246 26.492 35.408 27.2 35.408C28.016 35.408 28.706 35.222 29.27 34.85C29.846 34.466 30.224 33.944 30.404 33.284H33.428C33.272 34.268 32.906 35.132 32.33 35.876C31.766 36.62 31.04 37.196 30.152 37.604C29.264 38.012 28.262 38.216 27.146 38.216ZM35.0362 38V29H37.8082V38H35.0362ZM36.4042 27.596C35.9602 27.596 35.5822 27.446 35.2702 27.146C34.9702 26.834 34.8202 26.456 34.8202 26.012C34.8202 25.568 34.9702 25.196 35.2702 24.896C35.5822 24.596 35.9602 24.446 36.4042 24.446C36.8362 24.446 37.2022 24.596 37.5022 24.896C37.8142 25.196 37.9702 25.568 37.9702 26.012C37.9702 26.456 37.8142 26.834 37.5022 27.146C37.2022 27.446 36.8362 27.596 36.4042 27.596ZM39.0418 29H45.2338V31.304H39.0418V29ZM43.5238 38H40.7518V26.21H43.5238V38ZM46.4795 38V29H49.2515V38H46.4795ZM47.8475 27.596C47.4035 27.596 47.0255 27.446 46.7135 27.146C46.4135 26.834 46.2635 26.456 46.2635 26.012C46.2635 25.568 46.4135 25.196 46.7135 24.896C47.0255 24.596 47.4035 24.446 47.8475 24.446C48.2795 24.446 48.6455 24.596 48.9455 24.896C49.2575 25.196 49.4135 25.568 49.4135 26.012C49.4135 26.456 49.2575 26.834 48.9455 27.146C48.6455 27.446 48.2795 27.596 47.8475 27.596ZM58.4771 38H50.9351V35.696L54.9671 31.304H50.9351V29H58.4771V31.304L54.3371 35.696H58.4771V38ZM64.3489 38.234C63.4489 38.234 62.6449 38.03 61.9369 37.622C61.2409 37.214 60.6889 36.656 60.2809 35.948C59.8849 35.228 59.6869 34.406 59.6869 33.482C59.6869 32.546 59.8789 31.724 60.2629 31.016C60.6589 30.296 61.2049 29.732 61.9009 29.324C62.5969 28.916 63.3949 28.712 64.2949 28.712C65.2429 28.712 66.0589 28.91 66.7429 29.306C67.4269 29.69 67.9549 30.242 68.3269 30.962C68.6989 31.67 68.8849 32.516 68.8849 33.5V34.202L61.1449 34.238L61.1809 32.528H66.1309C66.1309 32.048 65.9689 31.67 65.6449 31.394C65.3209 31.106 64.8769 30.962 64.3129 30.962C63.8449 30.962 63.4609 31.052 63.1609 31.232C62.8729 31.412 62.6569 31.694 62.5129 32.078C62.3689 32.45 62.2969 32.93 62.2969 33.518C62.2969 34.358 62.4649 34.982 62.8009 35.39C63.1489 35.786 63.6829 35.984 64.4029 35.984C64.9309 35.984 65.3689 35.894 65.7169 35.714C66.0649 35.534 66.2869 35.282 66.3829 34.958H68.9209C68.7649 35.954 68.2729 36.752 67.4449 37.352C66.6169 37.94 65.5849 38.234 64.3489 38.234ZM73.2984 38H70.5264V29H73.1364L73.3164 29.936C73.5924 29.552 73.9704 29.252 74.4504 29.036C74.9424 28.82 75.4824 28.712 76.0704 28.712C77.1384 28.712 77.9664 29.042 78.5544 29.702C79.1544 30.35 79.4544 31.262 79.4544 32.438V38H76.6824V33.104C76.6824 32.54 76.5384 32.09 76.2504 31.754C75.9624 31.406 75.5784 31.232 75.0984 31.232C74.5464 31.232 74.1084 31.4 73.7844 31.736C73.4604 32.06 73.2984 32.504 73.2984 33.068V38ZM80.689 35.156H83.317C83.341 35.468 83.467 35.714 83.695 35.894C83.923 36.074 84.247 36.164 84.667 36.164C85.099 36.164 85.417 36.092 85.621 35.948C85.825 35.804 85.927 35.618 85.927 35.39C85.927 35.258 85.873 35.126 85.765 34.994C85.669 34.862 85.453 34.76 85.117 34.688L83.461 34.328C82.633 34.148 82.015 33.86 81.607 33.464C81.199 33.056 80.995 32.456 80.995 31.664C80.995 31.04 81.157 30.512 81.481 30.08C81.817 29.636 82.267 29.3 82.831 29.072C83.395 28.832 84.037 28.712 84.757 28.712C85.453 28.712 86.065 28.838 86.593 29.09C87.133 29.342 87.553 29.696 87.853 30.152C88.153 30.608 88.303 31.142 88.303 31.754H85.675C85.675 31.442 85.585 31.196 85.405 31.016C85.225 30.824 84.967 30.728 84.631 30.728C84.319 30.728 84.067 30.806 83.875 30.962C83.695 31.106 83.605 31.298 83.605 31.538C83.605 31.922 83.929 32.186 84.577 32.33L86.251 32.69C86.995 32.846 87.559 33.116 87.943 33.5C88.339 33.872 88.537 34.418 88.537 35.138C88.537 35.774 88.369 36.326 88.033 36.794C87.697 37.262 87.229 37.622 86.629 37.874C86.029 38.114 85.339 38.234 84.559 38.234C83.371 38.234 82.429 37.952 81.733 37.388C81.037 36.812 80.689 36.068 80.689 35.156ZM92.7574 38H89.9854V24.428H92.7754V29.936C93.0514 29.552 93.4294 29.252 93.9094 29.036C94.4014 28.82 94.9414 28.712 95.5294 28.712C96.5974 28.712 97.4254 29.042 98.0134 29.702C98.6134 30.35 98.9134 31.262 98.9134 32.438V38H96.1414V33.104C96.1414 32.72 96.0754 32.39 95.9434 32.114C95.8114 31.838 95.6254 31.622 95.3854 31.466C95.1574 31.31 94.8814 31.232 94.5574 31.232C94.1974 31.232 93.8794 31.31 93.6034 31.466C93.3394 31.61 93.1294 31.82 92.9734 32.096C92.8294 32.372 92.7574 32.696 92.7574 33.068V38ZM100.901 38V29H103.673V38H100.901ZM102.269 27.596C101.825 27.596 101.447 27.446 101.135 27.146C100.835 26.834 100.685 26.456 100.685 26.012C100.685 25.568 100.835 25.196 101.135 24.896C101.447 24.596 101.825 24.446 102.269 24.446C102.701 24.446 103.067 24.596 103.367 24.896C103.679 25.196 103.835 25.568 103.835 26.012C103.835 26.456 103.679 26.834 103.367 27.146C103.067 27.446 102.701 27.596 102.269 27.596ZM105.753 42.32V29H108.363L108.507 30.098C108.759 29.678 109.149 29.342 109.677 29.09C110.205 28.838 110.787 28.712 111.423 28.712C112.263 28.712 113.001 28.898 113.637 29.27C114.273 29.642 114.771 30.176 115.131 30.872C115.491 31.556 115.671 32.384 115.671 33.356C115.671 34.304 115.503 35.15 115.167 35.894C114.843 36.626 114.363 37.202 113.727 37.622C113.103 38.042 112.341 38.252 111.441 38.252C110.817 38.252 110.241 38.144 109.713 37.928C109.185 37.712 108.789 37.436 108.525 37.1V42.32H105.753ZM108.543 33.5C108.543 33.944 108.633 34.34 108.813 34.688C109.005 35.024 109.263 35.288 109.587 35.48C109.923 35.66 110.307 35.75 110.739 35.75C111.183 35.75 111.561 35.654 111.873 35.462C112.197 35.27 112.443 35.006 112.611 34.67C112.791 34.334 112.881 33.944 112.881 33.5C112.881 33.056 112.791 32.666 112.611 32.33C112.443 31.994 112.197 31.73 111.873 31.538C111.561 31.346 111.183 31.25 110.739 31.25C110.307 31.25 109.923 31.346 109.587 31.538C109.263 31.718 109.005 31.976 108.813 32.312C108.633 32.648 108.543 33.044 108.543 33.5Z" fill="#F6F9FC"/>
<g style="mix-blend-mode:hard-light">
<rect x="224" y="20" width="72" height="22" rx="11" fill="#FAFAFA"/>
<g style="mix-blend-mode:multiply">
<path d="M235.836 36L232.536 27.324H233.796L235.908 32.868C236.004 33.108 236.096 33.36 236.184 33.624C236.272 33.88 236.36 34.172 236.448 34.5C236.552 34.156 236.652 33.844 236.748 33.564C236.844 33.284 236.928 33.048 237 32.856L239.1 27.324H240.324L237.06 36H235.836ZM242.842 36.144C242.274 36.144 241.77 36.016 241.33 35.76C240.89 35.496 240.546 35.136 240.298 34.68C240.05 34.216 239.926 33.68 239.926 33.072C239.926 32.456 240.046 31.916 240.286 31.452C240.534 30.988 240.87 30.624 241.294 30.36C241.726 30.096 242.226 29.964 242.794 29.964C243.354 29.964 243.838 30.084 244.246 30.324C244.662 30.564 244.982 30.9 245.206 31.332C245.438 31.764 245.554 32.272 245.554 32.856V33.276L240.526 33.288L240.55 32.532H244.426C244.426 32.044 244.278 31.652 243.982 31.356C243.686 31.06 243.29 30.912 242.794 30.912C242.418 30.912 242.094 30.996 241.822 31.164C241.558 31.324 241.354 31.564 241.21 31.884C241.074 32.196 241.006 32.572 241.006 33.012C241.006 33.716 241.166 34.26 241.486 34.644C241.806 35.02 242.266 35.208 242.866 35.208C243.306 35.208 243.666 35.12 243.946 34.944C244.226 34.768 244.414 34.512 244.51 34.176H245.566C245.422 34.8 245.114 35.284 244.642 35.628C244.17 35.972 243.57 36.144 242.842 36.144ZM250.174 30.084V31.116H249.67C249.134 31.116 248.71 31.272 248.398 31.584C248.094 31.888 247.942 32.324 247.942 32.892V36H246.814V30.144H247.87L247.966 31.32H247.858C247.938 30.936 248.13 30.624 248.434 30.384C248.738 30.136 249.118 30.012 249.574 30.012C249.678 30.012 249.774 30.02 249.862 30.036C249.958 30.044 250.062 30.06 250.174 30.084ZM251.232 36V30.132H252.36V36H251.232ZM251.784 28.74C251.584 28.74 251.408 28.668 251.256 28.524C251.112 28.372 251.04 28.196 251.04 27.996C251.04 27.788 251.112 27.612 251.256 27.468C251.408 27.324 251.584 27.252 251.784 27.252C251.992 27.252 252.168 27.324 252.312 27.468C252.456 27.612 252.528 27.788 252.528 27.996C252.528 28.196 252.456 28.372 252.312 28.524C252.168 28.668 251.992 28.74 251.784 28.74ZM253.374 30.132H259.098V31.08H253.374V30.132ZM256.734 27.216V28.188C256.662 28.188 256.582 28.188 256.494 28.188C256.414 28.188 256.326 28.188 256.23 28.188C255.886 28.188 255.654 28.276 255.534 28.452C255.422 28.628 255.366 28.876 255.366 29.196V36H254.238V29.196C254.238 28.716 254.318 28.328 254.478 28.032C254.638 27.728 254.854 27.508 255.126 27.372C255.398 27.236 255.702 27.168 256.038 27.168C256.15 27.168 256.266 27.172 256.386 27.18C256.506 27.188 256.622 27.2 256.734 27.216ZM257.97 36V30.132H259.098V36H257.97ZM258.534 28.692C258.326 28.692 258.154 28.624 258.018 28.488C257.882 28.344 257.814 28.172 257.814 27.972C257.814 27.764 257.882 27.592 258.018 27.456C258.154 27.32 258.326 27.252 258.534 27.252C258.734 27.252 258.902 27.32 259.038 27.456C259.174 27.592 259.242 27.764 259.242 27.972C259.242 28.172 259.174 28.344 259.038 28.488C258.902 28.624 258.734 28.692 258.534 28.692ZM263.233 36.144C262.665 36.144 262.161 36.016 261.721 35.76C261.281 35.496 260.937 35.136 260.689 34.68C260.441 34.216 260.317 33.68 260.317 33.072C260.317 32.456 260.437 31.916 260.677 31.452C260.925 30.988 261.261 30.624 261.685 30.36C262.117 30.096 262.617 29.964 263.185 29.964C263.745 29.964 264.229 30.084 264.637 30.324C265.053 30.564 265.373 30.9 265.597 31.332C265.829 31.764 265.945 32.272 265.945 32.856V33.276L260.917 33.288L260.941 32.532H264.817C264.817 32.044 264.669 31.652 264.373 31.356C264.077 31.06 263.681 30.912 263.185 30.912C262.809 30.912 262.485 30.996 262.213 31.164C261.949 31.324 261.745 31.564 261.601 31.884C261.465 32.196 261.397 32.572 261.397 33.012C261.397 33.716 261.557 34.26 261.877 34.644C262.197 35.02 262.657 35.208 263.257 35.208C263.697 35.208 264.057 35.12 264.337 34.944C264.617 34.768 264.805 34.512 264.901 34.176H265.957C265.813 34.8 265.505 35.284 265.033 35.628C264.561 35.972 263.961 36.144 263.233 36.144ZM269.557 36.144C268.989 36.144 268.501 36.016 268.093 35.76C267.685 35.496 267.369 35.132 267.145 34.668C266.929 34.204 266.821 33.676 266.821 33.084C266.821 32.484 266.933 31.952 267.157 31.488C267.381 31.016 267.701 30.644 268.117 30.372C268.533 30.1 269.029 29.964 269.605 29.964C270.061 29.964 270.465 30.06 270.817 30.252C271.177 30.436 271.457 30.712 271.657 31.08V27.168H272.773V36H271.765L271.669 34.932C271.477 35.324 271.193 35.624 270.817 35.832C270.449 36.04 270.029 36.144 269.557 36.144ZM269.785 35.124C270.169 35.124 270.497 35.036 270.769 34.86C271.049 34.684 271.265 34.44 271.417 34.128C271.569 33.816 271.645 33.456 271.645 33.048C271.645 32.64 271.569 32.284 271.417 31.98C271.265 31.668 271.049 31.424 270.769 31.248C270.497 31.072 270.169 30.984 269.785 30.984C269.401 30.984 269.073 31.076 268.801 31.26C268.529 31.436 268.321 31.68 268.177 31.992C268.033 32.296 267.961 32.648 267.961 33.048C267.961 33.456 268.033 33.816 268.177 34.128C268.321 34.44 268.529 34.684 268.801 34.86C269.073 35.036 269.401 35.124 269.785 35.124Z" fill="#98A2B3"/>
</g>
<g clip-path="url(#clip2_8600_61018)">
<path d="M287.267 27.1251C287.381 27.4007 287.6 27.6198 287.875 27.7342L288.841 28.1343C289.117 28.2484 289.336 28.4675 289.45 28.7431C289.564 29.0188 289.564 29.3285 289.45 29.6042L289.05 30.5694C288.936 30.8452 288.936 31.1552 289.05 31.4308L289.449 32.3958C289.506 32.5323 289.535 32.6786 289.535 32.8264C289.535 32.9742 289.506 33.1206 289.45 33.2571C289.393 33.3937 289.31 33.5178 289.206 33.6222C289.101 33.7267 288.977 33.8096 288.84 33.8661L287.875 34.2659C287.6 34.3799 287.38 34.5987 287.266 34.8741L286.866 35.84C286.752 36.1157 286.533 36.3347 286.257 36.4489C285.981 36.5631 285.672 36.5631 285.396 36.4489L284.431 36.0491C284.155 35.9352 283.846 35.9354 283.57 36.0497L282.604 36.4493C282.329 36.5632 282.019 36.5631 281.744 36.449C281.468 36.3349 281.249 36.1161 281.135 35.8408L280.735 34.8746C280.621 34.5989 280.402 34.3799 280.127 34.2655L279.161 33.8654C278.885 33.7512 278.666 33.5324 278.552 33.2569C278.438 32.9814 278.438 32.6718 278.552 32.3962L278.952 31.431C279.065 31.1553 279.065 30.8457 278.951 30.5702L278.552 29.6036C278.495 29.4671 278.466 29.3207 278.466 29.1729C278.466 29.0251 278.495 28.8788 278.552 28.7422C278.608 28.6057 278.691 28.4816 278.796 28.3771C278.9 28.2726 279.024 28.1897 279.161 28.1332L280.126 27.7334C280.401 27.6196 280.62 27.4011 280.735 27.1259L281.135 26.16C281.249 25.8843 281.468 25.6653 281.744 25.5512C282.019 25.437 282.329 25.437 282.605 25.5512L283.57 25.951C283.846 26.0649 284.155 26.0646 284.431 25.9503L285.397 25.5518C285.673 25.4377 285.982 25.4377 286.258 25.5518C286.534 25.666 286.753 25.8849 286.867 26.1605L287.267 27.1267L287.267 27.1251Z" fill="#32D583"/>
<path fill-rule="evenodd" clip-rule="evenodd" d="M286.35 29.4271C286.43 29.3012 286.457 29.1486 286.425 29.0028C286.392 28.8571 286.303 28.7302 286.177 28.6501C286.052 28.5699 285.899 28.543 285.753 28.5754C285.608 28.6077 285.481 28.6967 285.4 28.8226L283.198 32.2838L282.19 31.0238C282.097 30.9072 281.961 30.8325 281.813 30.816C281.664 30.7994 281.515 30.8425 281.399 30.9357C281.282 31.0289 281.207 31.1646 281.191 31.3129C281.174 31.4612 281.218 31.61 281.311 31.7266L282.811 33.6016C282.867 33.6715 282.938 33.7271 283.02 33.7638C283.102 33.8004 283.191 33.817 283.281 33.8121C283.37 33.8073 283.457 33.7812 283.534 33.7359C283.612 33.6907 283.677 33.6277 283.725 33.5521L286.35 29.4271Z" fill="white"/>
</g>
</g>
</g>
<rect x="0.5" y="0.5" width="315" height="189" rx="19.5" stroke="url(#paint1_linear_8600_61018)"/>
<defs>
<filter id="filter0_f_8600_61018" x="-144" y="-144" width="416" height="416" filterUnits="userSpaceOnUse" color-interpolation-filters="sRGB">
<feFlood flood-opacity="0" result="BackgroundImageFix"/>
<feBlend mode="normal" in="SourceGraphic" in2="BackgroundImageFix" result="shape"/>
<feGaussianBlur stdDeviation="64" result="effect1_foregroundBlur_8600_61018"/>
</filter>
<linearGradient id="paint0_linear_8600_61018" x1="15.7873" y1="2.05045e-05" x2="341.34" y2="228.824" gradientUnits="userSpaceOnUse">
<stop stop-color="white" stop-opacity="0.51"/>
<stop offset="1" stop-color="white" stop-opacity="0"/>
</linearGradient>
<linearGradient id="paint1_linear_8600_61018" x1="1.78532e-07" y1="8.02303" x2="308.782" y2="201.518" gradientUnits="userSpaceOnUse">
<stop stop-color="white"/>
<stop offset="1" stop-color="white" stop-opacity="0.2"/>
</linearGradient>
<clipPath id="clip0_8600_61018">
<rect width="316" height="190" rx="20" fill="white"/>
</clipPath>
<clipPath id="clip1_8600_61018">
<rect width="112" height="30" fill="white" transform="translate(16 140)"/>
</clipPath>
<clipPath id="clip2_8600_61018">
<rect width="12" height="12" fill="white" transform="translate(278 25)"/>
</clipPath>
</defs>
</svg>
