<svg width="316" height="190" viewBox="0 0 316 190" fill="none" xmlns="http://www.w3.org/2000/svg">
<g clip-path="url(#clip0_8600_60900)">
<rect width="316" height="190" rx="20" fill="url(#paint0_linear_8600_60900)"/>
<g filter="url(#filter0_f_8600_60900)">
<path opacity="0.3" d="M-16 64C-16 19.8172 19.8172 -16 64 -16V64H-16Z" fill="#00EDBE"/>
<path opacity="0.3" d="M64 -16C108.183 -16 144 19.8172 144 64H64V-16Z" fill="#004EEB"/>
<path opacity="0.3" d="M-16 64H64V144C19.8172 144 -16 108.183 -16 64Z" fill="#00EDBE"/>
<path opacity="0.3" d="M64 64H144C144 108.183 108.183 144 64 144V64Z" fill="#FCFCFC"/>
</g>
<path d="M265.84 150V144.216H266.36V150H265.84ZM272.067 148.424C272.067 148.712 272.008 148.96 271.891 149.168C271.774 149.376 271.619 149.547 271.427 149.68C271.235 149.813 271.014 149.912 270.763 149.976C270.518 150.04 270.267 150.072 270.011 150.072C269.744 150.072 269.499 150.043 269.275 149.984C269.051 149.925 268.854 149.832 268.683 149.704C268.518 149.576 268.382 149.413 268.275 149.216C268.168 149.013 268.102 148.773 268.075 148.496H268.619C268.624 148.704 268.667 148.88 268.747 149.024C268.827 149.168 268.931 149.285 269.059 149.376C269.187 149.467 269.334 149.533 269.499 149.576C269.67 149.613 269.848 149.632 270.035 149.632C270.211 149.632 270.387 149.613 270.563 149.576C270.744 149.533 270.907 149.469 271.051 149.384C271.195 149.293 271.312 149.176 271.403 149.032C271.494 148.888 271.539 148.715 271.539 148.512C271.539 148.357 271.507 148.221 271.443 148.104C271.384 147.987 271.299 147.883 271.187 147.792C271.08 147.701 270.95 147.621 270.795 147.552C270.646 147.483 270.478 147.419 270.291 147.36L269.867 147.224C269.632 147.149 269.416 147.069 269.219 146.984C269.022 146.899 268.851 146.797 268.707 146.68C268.563 146.563 268.448 146.424 268.363 146.264C268.283 146.099 268.243 145.904 268.243 145.68C268.243 145.408 268.296 145.176 268.403 144.984C268.515 144.792 268.659 144.635 268.835 144.512C269.016 144.384 269.222 144.291 269.451 144.232C269.68 144.173 269.915 144.144 270.155 144.144C270.374 144.144 270.59 144.168 270.803 144.216C271.022 144.259 271.214 144.333 271.379 144.44C271.55 144.541 271.688 144.68 271.795 144.856C271.902 145.027 271.958 145.24 271.963 145.496H271.427C271.411 145.32 271.366 145.173 271.291 145.056C271.222 144.939 271.131 144.845 271.019 144.776C270.907 144.701 270.779 144.651 270.635 144.624C270.491 144.592 270.339 144.576 270.179 144.576C270.014 144.576 269.846 144.597 269.675 144.64C269.51 144.677 269.36 144.739 269.227 144.824C269.094 144.904 268.984 145.013 268.899 145.152C268.814 145.285 268.771 145.448 268.771 145.64C268.771 145.923 268.878 146.149 269.091 146.32C269.31 146.485 269.643 146.64 270.091 146.784L270.571 146.936C270.806 147.011 271.014 147.091 271.195 147.176C271.376 147.256 271.531 147.352 271.659 147.464C271.787 147.576 271.886 147.709 271.955 147.864C272.024 148.019 272.062 148.205 272.067 148.424ZM277.405 148.424C277.405 148.712 277.346 148.96 277.229 149.168C277.111 149.376 276.957 149.547 276.765 149.68C276.573 149.813 276.351 149.912 276.101 149.976C275.855 150.04 275.605 150.072 275.349 150.072C275.082 150.072 274.837 150.043 274.613 149.984C274.389 149.925 274.191 149.832 274.021 149.704C273.855 149.576 273.719 149.413 273.613 149.216C273.506 149.013 273.439 148.773 273.413 148.496H273.957C273.962 148.704 274.005 148.88 274.085 149.024C274.165 149.168 274.269 149.285 274.397 149.376C274.525 149.467 274.671 149.533 274.837 149.576C275.007 149.613 275.186 149.632 275.373 149.632C275.549 149.632 275.725 149.613 275.901 149.576C276.082 149.533 276.245 149.469 276.389 149.384C276.533 149.293 276.65 149.176 276.741 149.032C276.831 148.888 276.877 148.715 276.877 148.512C276.877 148.357 276.845 148.221 276.781 148.104C276.722 147.987 276.637 147.883 276.525 147.792C276.418 147.701 276.287 147.621 276.133 147.552C275.983 147.483 275.815 147.419 275.629 147.36L275.205 147.224C274.97 147.149 274.754 147.069 274.557 146.984C274.359 146.899 274.189 146.797 274.045 146.68C273.901 146.563 273.786 146.424 273.701 146.264C273.621 146.099 273.581 145.904 273.581 145.68C273.581 145.408 273.634 145.176 273.741 144.984C273.853 144.792 273.997 144.635 274.173 144.512C274.354 144.384 274.559 144.291 274.789 144.232C275.018 144.173 275.253 144.144 275.493 144.144C275.711 144.144 275.927 144.168 276.141 144.216C276.359 144.259 276.551 144.333 276.717 144.44C276.887 144.541 277.026 144.68 277.133 144.856C277.239 145.027 277.295 145.24 277.301 145.496H276.765C276.749 145.32 276.703 145.173 276.629 145.056C276.559 144.939 276.469 144.845 276.357 144.776C276.245 144.701 276.117 144.651 275.973 144.624C275.829 144.592 275.677 144.576 275.517 144.576C275.351 144.576 275.183 144.597 275.013 144.64C274.847 144.677 274.698 144.739 274.565 144.824C274.431 144.904 274.322 145.013 274.237 145.152C274.151 145.285 274.109 145.448 274.109 145.64C274.109 145.923 274.215 146.149 274.429 146.32C274.647 146.485 274.981 146.64 275.429 146.784L275.909 146.936C276.143 147.011 276.351 147.091 276.533 147.176C276.714 147.256 276.869 147.352 276.997 147.464C277.125 147.576 277.223 147.709 277.293 147.864C277.362 148.019 277.399 148.205 277.405 148.424ZM283.47 147.872C283.47 148.219 283.419 148.528 283.318 148.8C283.217 149.072 283.07 149.304 282.878 149.496C282.691 149.688 282.459 149.835 282.182 149.936C281.91 150.037 281.601 150.088 281.254 150.088C280.539 150.088 279.99 149.899 279.606 149.52C279.227 149.136 279.038 148.587 279.038 147.872V144.216H279.582V147.688C279.582 147.912 279.593 148.136 279.614 148.36C279.641 148.584 279.718 148.792 279.846 148.984C280.001 149.219 280.206 149.389 280.462 149.496C280.723 149.597 280.987 149.648 281.254 149.648C281.574 149.648 281.873 149.579 282.15 149.44C282.427 149.301 282.635 149.08 282.774 148.776C282.849 148.611 282.891 148.432 282.902 148.24C282.918 148.048 282.926 147.864 282.926 147.688V144.216H283.47V147.872ZM285.471 150V144.216H288.903V144.648H285.991V146.776H288.791V147.208H285.991V149.568H289.023V150H285.471ZM295.228 147.088C295.228 147.477 295.18 147.84 295.084 148.176C294.993 148.512 294.852 148.808 294.66 149.064C294.468 149.32 294.222 149.528 293.924 149.688C293.625 149.843 293.27 149.939 292.86 149.976C292.7 149.992 292.537 150 292.372 150C292.212 150 292.052 150 291.892 150H290.684V144.216H292.244C292.441 144.216 292.622 144.219 292.788 144.224C292.953 144.229 293.108 144.245 293.252 144.272C293.401 144.293 293.545 144.331 293.684 144.384C293.822 144.432 293.966 144.504 294.116 144.6C294.313 144.728 294.481 144.883 294.62 145.064C294.764 145.24 294.878 145.437 294.964 145.656C295.054 145.869 295.121 146.099 295.164 146.344C295.206 146.584 295.228 146.832 295.228 147.088ZM294.684 147.08C294.684 146.883 294.67 146.685 294.644 146.488C294.617 146.291 294.572 146.101 294.508 145.92C294.444 145.733 294.356 145.56 294.244 145.4C294.132 145.24 293.99 145.099 293.82 144.976C293.708 144.896 293.585 144.835 293.452 144.792C293.318 144.744 293.182 144.712 293.044 144.696C292.905 144.675 292.764 144.661 292.62 144.656C292.481 144.651 292.345 144.648 292.212 144.648H291.204V149.568H292.38C292.801 149.568 293.156 149.515 293.444 149.408C293.737 149.296 293.974 149.136 294.156 148.928C294.342 148.715 294.476 148.453 294.556 148.144C294.641 147.835 294.684 147.48 294.684 147.08Z" fill="#F6F9FC"/>
<path d="M235.98 167V159.523C235.835 159.653 235.701 159.767 235.579 159.867C235.457 159.958 235.327 160.046 235.189 160.13C235.051 160.215 234.902 160.302 234.742 160.394C234.581 160.486 234.394 160.593 234.18 160.715V160.004C234.547 159.844 234.876 159.66 235.166 159.454C235.457 159.24 235.743 158.991 236.026 158.708H236.691V167H235.98ZM240.368 167V166.209C240.658 165.941 240.987 165.628 241.354 165.268C241.729 164.909 242.096 164.53 242.455 164.133C242.822 163.735 243.162 163.338 243.476 162.94C243.789 162.543 244.038 162.172 244.221 161.828C244.397 161.499 244.485 161.143 244.485 160.761C244.485 160.264 244.336 159.878 244.038 159.603C243.747 159.328 243.369 159.19 242.902 159.19C242.405 159.19 242 159.347 241.687 159.66C241.381 159.966 241.232 160.383 241.239 160.91H240.46C240.467 160.536 240.532 160.203 240.655 159.913C240.777 159.622 240.945 159.377 241.159 159.179C241.381 158.972 241.641 158.819 241.939 158.72C242.237 158.613 242.562 158.559 242.914 158.559C243.243 158.559 243.548 158.605 243.831 158.697C244.122 158.781 244.374 158.915 244.588 159.098C244.802 159.274 244.967 159.496 245.081 159.763C245.204 160.031 245.265 160.341 245.265 160.692C245.265 160.991 245.215 161.277 245.116 161.553C245.024 161.828 244.902 162.092 244.749 162.344C244.596 162.596 244.424 162.841 244.233 163.078C244.049 163.307 243.869 163.529 243.694 163.743C243.311 164.202 242.898 164.649 242.455 165.085C242.019 165.513 241.591 165.933 241.171 166.346H245.368V167H240.368ZM247.45 167.126H246.728L249.446 158.559H250.157L247.45 167.126ZM253.895 167V159.523C253.75 159.653 253.616 159.767 253.494 159.867C253.371 159.958 253.241 160.046 253.104 160.13C252.966 160.215 252.817 160.302 252.657 160.394C252.496 160.486 252.309 160.593 252.095 160.715V160.004C252.462 159.844 252.79 159.66 253.081 159.454C253.371 159.24 253.658 158.991 253.941 158.708H254.606V167H253.895ZM258.283 167V166.209C258.573 165.941 258.902 165.628 259.269 165.268C259.644 164.909 260.011 164.53 260.37 164.133C260.737 163.735 261.077 163.338 261.391 162.94C261.704 162.543 261.953 162.172 262.136 161.828C262.312 161.499 262.4 161.143 262.4 160.761C262.4 160.264 262.251 159.878 261.953 159.603C261.662 159.328 261.284 159.19 260.817 159.19C260.32 159.19 259.915 159.347 259.601 159.66C259.296 159.966 259.147 160.383 259.154 160.91H258.374C258.382 160.536 258.447 160.203 258.569 159.913C258.692 159.622 258.86 159.377 259.074 159.179C259.296 158.972 259.556 158.819 259.854 158.72C260.152 158.613 260.477 158.559 260.829 158.559C261.157 158.559 261.463 158.605 261.746 158.697C262.037 158.781 262.289 158.915 262.503 159.098C262.717 159.274 262.881 159.496 262.996 159.763C263.118 160.031 263.18 160.341 263.18 160.692C263.18 160.991 263.13 161.277 263.031 161.553C262.939 161.828 262.816 162.092 262.664 162.344C262.511 162.596 262.339 162.841 262.147 163.078C261.964 163.307 261.784 163.529 261.608 163.743C261.226 164.202 260.813 164.649 260.37 165.085C259.934 165.513 259.506 165.933 259.085 166.346H263.283V167H258.283ZM265.365 167.126H264.643L267.361 158.559H268.072L265.365 167.126ZM269.207 167V166.209C269.497 165.941 269.826 165.628 270.193 165.268C270.568 164.909 270.935 164.53 271.294 164.133C271.661 163.735 272.001 163.338 272.315 162.94C272.628 162.543 272.877 162.172 273.06 161.828C273.236 161.499 273.324 161.143 273.324 160.761C273.324 160.264 273.175 159.878 272.877 159.603C272.586 159.328 272.208 159.19 271.741 159.19C271.244 159.19 270.839 159.347 270.526 159.66C270.22 159.966 270.071 160.383 270.078 160.91H269.298C269.306 160.536 269.371 160.203 269.493 159.913C269.616 159.622 269.784 159.377 269.998 159.179C270.22 158.972 270.48 158.819 270.778 158.72C271.076 158.613 271.401 158.559 271.753 158.559C272.081 158.559 272.387 158.605 272.67 158.697C272.961 158.781 273.213 158.915 273.427 159.098C273.641 159.274 273.806 159.496 273.92 159.763C274.043 160.031 274.104 160.341 274.104 160.692C274.104 160.991 274.054 161.277 273.955 161.553C273.863 161.828 273.741 162.092 273.588 162.344C273.435 162.596 273.263 162.841 273.072 163.078C272.888 163.307 272.708 163.529 272.533 163.743C272.15 164.202 271.737 164.649 271.294 165.085C270.858 165.513 270.43 165.933 270.009 166.346H274.207V167H269.207ZM281.439 162.734C281.439 163.185 281.404 163.667 281.335 164.179C281.266 164.691 281.133 165.165 280.934 165.601C280.743 166.037 280.475 166.4 280.131 166.69C279.787 166.973 279.34 167.115 278.789 167.115C278.407 167.115 278.078 167.05 277.803 166.92C277.528 166.782 277.291 166.602 277.092 166.381C276.901 166.151 276.744 165.888 276.622 165.589C276.507 165.291 276.415 164.978 276.347 164.649C276.278 164.32 276.232 163.988 276.209 163.651C276.186 163.315 276.175 162.994 276.175 162.688C276.175 162.267 276.213 161.816 276.289 161.335C276.366 160.853 276.503 160.406 276.702 159.993C276.901 159.58 277.172 159.24 277.516 158.972C277.86 158.697 278.304 158.559 278.847 158.559C279.389 158.559 279.829 158.693 280.166 158.961C280.502 159.228 280.766 159.569 280.957 159.981C281.148 160.394 281.274 160.845 281.335 161.335C281.404 161.824 281.439 162.29 281.439 162.734ZM280.67 162.86C280.67 162.653 280.662 162.42 280.647 162.16C280.632 161.893 280.601 161.621 280.555 161.346C280.517 161.071 280.456 160.803 280.372 160.543C280.288 160.283 280.177 160.054 280.039 159.855C279.909 159.649 279.745 159.484 279.546 159.362C279.355 159.232 279.122 159.167 278.847 159.167C278.419 159.167 278.078 159.297 277.826 159.557C277.581 159.817 277.39 160.138 277.253 160.52C277.123 160.895 277.038 161.293 277 161.713C276.962 162.134 276.943 162.508 276.943 162.837C276.943 163.036 276.951 163.269 276.966 163.537C276.981 163.797 277.012 164.064 277.058 164.339C277.103 164.607 277.165 164.875 277.241 165.142C277.325 165.402 277.436 165.635 277.574 165.842C277.711 166.04 277.876 166.205 278.067 166.335C278.266 166.457 278.499 166.518 278.766 166.518C279.042 166.518 279.279 166.457 279.477 166.335C279.684 166.213 279.856 166.052 279.993 165.853C280.139 165.654 280.253 165.429 280.338 165.177C280.429 164.917 280.498 164.653 280.544 164.385C280.597 164.11 280.632 163.842 280.647 163.582C280.662 163.315 280.67 163.074 280.67 162.86ZM287.409 165.142V167H286.663V165.142H282.936V164.339L286.48 158.708H287.409V164.511H288.682V165.142H287.409ZM286.675 159.5L283.59 164.511H286.675V159.5ZM295.351 162.436C295.351 162.749 295.34 163.082 295.317 163.433C295.294 163.785 295.248 164.137 295.179 164.488C295.118 164.84 295.026 165.18 294.904 165.509C294.782 165.83 294.617 166.117 294.411 166.369C294.212 166.614 293.964 166.813 293.665 166.966C293.375 167.111 293.027 167.183 292.622 167.183C292.285 167.183 291.972 167.138 291.681 167.046C291.398 166.954 291.15 166.82 290.936 166.644C290.729 166.461 290.561 166.232 290.431 165.956C290.309 165.681 290.236 165.36 290.213 164.993H291.028C291.051 165.49 291.196 165.868 291.463 166.128C291.731 166.381 292.113 166.507 292.61 166.507C293.084 166.507 293.455 166.377 293.723 166.117C293.99 165.857 294.193 165.528 294.331 165.131C294.468 164.725 294.556 164.286 294.594 163.812C294.633 163.338 294.659 162.887 294.675 162.459C294.231 163.361 293.532 163.812 292.576 163.812C292.209 163.812 291.876 163.747 291.578 163.617C291.28 163.487 291.024 163.307 290.81 163.078C290.596 162.841 290.431 162.562 290.317 162.241C290.202 161.92 290.145 161.572 290.145 161.197C290.145 160.807 290.21 160.452 290.34 160.13C290.47 159.802 290.649 159.523 290.879 159.293C291.108 159.064 291.379 158.888 291.693 158.766C292.014 158.636 292.362 158.575 292.736 158.582C293.226 158.59 293.635 158.693 293.964 158.892C294.3 159.083 294.571 159.351 294.778 159.695C294.984 160.039 295.13 160.444 295.214 160.91C295.305 161.377 295.351 161.885 295.351 162.436ZM294.503 161.163C294.503 160.887 294.461 160.631 294.376 160.394C294.292 160.157 294.174 159.951 294.021 159.775C293.868 159.591 293.681 159.45 293.459 159.351C293.245 159.251 293.004 159.202 292.736 159.202C292.461 159.202 292.209 159.255 291.98 159.362C291.758 159.461 291.567 159.599 291.406 159.775C291.246 159.951 291.119 160.161 291.028 160.406C290.944 160.65 290.902 160.914 290.902 161.197C290.902 161.472 290.94 161.732 291.016 161.977C291.093 162.214 291.204 162.424 291.349 162.608C291.494 162.783 291.674 162.921 291.888 163.02C292.102 163.12 292.347 163.17 292.622 163.17C292.905 163.17 293.161 163.124 293.39 163.032C293.627 162.933 293.826 162.795 293.986 162.619C294.155 162.436 294.281 162.222 294.365 161.977C294.457 161.732 294.503 161.461 294.503 161.163Z" fill="#F6F9FC"/>
<path d="M27.146 38.216C25.814 38.216 24.662 37.94 23.69 37.388C22.718 36.824 21.968 36.032 21.44 35.012C20.912 33.98 20.648 32.762 20.648 31.358C20.648 29.966 20.924 28.754 21.476 27.722C22.028 26.69 22.802 25.892 23.798 25.328C24.794 24.752 25.952 24.464 27.272 24.464C28.388 24.464 29.378 24.668 30.242 25.076C31.118 25.472 31.832 26.036 32.384 26.768C32.936 27.5 33.278 28.364 33.41 29.36H30.332C30.14 28.688 29.768 28.172 29.216 27.812C28.676 27.452 28.004 27.272 27.2 27.272C26.48 27.272 25.856 27.434 25.328 27.758C24.812 28.082 24.416 28.55 24.14 29.162C23.864 29.762 23.726 30.488 23.726 31.34C23.726 32.168 23.864 32.888 24.14 33.5C24.428 34.112 24.83 34.586 25.346 34.922C25.874 35.246 26.492 35.408 27.2 35.408C28.016 35.408 28.706 35.222 29.27 34.85C29.846 34.466 30.224 33.944 30.404 33.284H33.428C33.272 34.268 32.906 35.132 32.33 35.876C31.766 36.62 31.04 37.196 30.152 37.604C29.264 38.012 28.262 38.216 27.146 38.216ZM39.2122 38.234C38.3122 38.234 37.5082 38.03 36.8002 37.622C36.1042 37.214 35.5522 36.656 35.1442 35.948C34.7482 35.228 34.5502 34.406 34.5502 33.482C34.5502 32.546 34.7422 31.724 35.1262 31.016C35.5222 30.296 36.0682 29.732 36.7642 29.324C37.4602 28.916 38.2582 28.712 39.1582 28.712C40.1062 28.712 40.9222 28.91 41.6062 29.306C42.2902 29.69 42.8182 30.242 43.1902 30.962C43.5622 31.67 43.7482 32.516 43.7482 33.5V34.202L36.0082 34.238L36.0442 32.528H40.9942C40.9942 32.048 40.8322 31.67 40.5082 31.394C40.1842 31.106 39.7402 30.962 39.1762 30.962C38.7082 30.962 38.3242 31.052 38.0242 31.232C37.7362 31.412 37.5202 31.694 37.3762 32.078C37.2322 32.45 37.1602 32.93 37.1602 33.518C37.1602 34.358 37.3282 34.982 37.6642 35.39C38.0122 35.786 38.5462 35.984 39.2662 35.984C39.7942 35.984 40.2322 35.894 40.5802 35.714C40.9282 35.534 41.1502 35.282 41.2462 34.958H43.7842C43.6282 35.954 43.1362 36.752 42.3082 37.352C41.4802 37.94 40.4482 38.234 39.2122 38.234ZM51.5817 29V31.61H50.6997C49.9077 31.61 49.2837 31.802 48.8277 32.186C48.3837 32.57 48.1617 33.206 48.1617 34.094V38H45.3897V29.018H47.9997L48.2157 30.944H47.9637C48.0837 30.344 48.3537 29.852 48.7737 29.468C49.2057 29.072 49.7877 28.874 50.5197 28.874C50.6877 28.874 50.8557 28.886 51.0237 28.91C51.2037 28.922 51.3897 28.952 51.5817 29ZM52.489 29H58.681V31.304H52.489V29ZM56.971 38H54.199V26.21H56.971V38ZM59.9268 38V29H62.6988V38H59.9268ZM61.2948 27.596C60.8508 27.596 60.4728 27.446 60.1608 27.146C59.8608 26.834 59.7108 26.456 59.7108 26.012C59.7108 25.568 59.8608 25.196 60.1608 24.896C60.4728 24.596 60.8508 24.446 61.2948 24.446C61.7268 24.446 62.0928 24.596 62.3928 24.896C62.7048 25.196 62.8608 25.568 62.8608 26.012C62.8608 26.456 62.7048 26.834 62.3928 27.146C62.0928 27.446 61.7268 27.596 61.2948 27.596ZM63.9324 29H74.0484V31.304H63.9324V29ZM69.9084 24.536V26.912C69.7524 26.912 69.6084 26.912 69.4764 26.912C69.3564 26.912 69.2424 26.912 69.1344 26.912C68.6544 26.912 68.3364 27.044 68.1804 27.308C68.0244 27.572 67.9464 27.896 67.9464 28.28V38H65.1744V28.28C65.1744 27.38 65.3184 26.648 65.6064 26.084C65.8944 25.52 66.3024 25.106 66.8304 24.842C67.3584 24.566 67.9704 24.428 68.6664 24.428C68.8584 24.428 69.0564 24.44 69.2604 24.464C69.4764 24.476 69.6924 24.5 69.9084 24.536ZM71.2584 38V29H74.0484V38H71.2584ZM72.6624 27.596C72.2184 27.596 71.8404 27.446 71.5284 27.146C71.2284 26.834 71.0784 26.456 71.0784 26.012C71.0784 25.568 71.2284 25.196 71.5284 24.896C71.8404 24.596 72.2184 24.446 72.6624 24.446C73.0944 24.446 73.4604 24.596 73.7604 24.896C74.0724 25.196 74.2284 25.568 74.2284 26.012C74.2284 26.456 74.0724 26.834 73.7604 27.146C73.4604 27.446 73.0944 27.596 72.6624 27.596ZM80.3274 38.234C79.4274 38.234 78.6234 38.03 77.9154 37.622C77.2194 37.214 76.6674 36.656 76.2594 35.948C75.8634 35.228 75.6654 34.406 75.6654 33.482C75.6654 32.546 75.8574 31.724 76.2414 31.016C76.6374 30.296 77.1834 29.732 77.8794 29.324C78.5754 28.916 79.3734 28.712 80.2734 28.712C81.2214 28.712 82.0374 28.91 82.7214 29.306C83.4054 29.69 83.9334 30.242 84.3054 30.962C84.6774 31.67 84.8634 32.516 84.8634 33.5V34.202L77.1234 34.238L77.1594 32.528H82.1094C82.1094 32.048 81.9474 31.67 81.6234 31.394C81.2994 31.106 80.8554 30.962 80.2914 30.962C79.8234 30.962 79.4394 31.052 79.1394 31.232C78.8514 31.412 78.6354 31.694 78.4914 32.078C78.3474 32.45 78.2754 32.93 78.2754 33.518C78.2754 34.358 78.4434 34.982 78.7794 35.39C79.1274 35.786 79.6614 35.984 80.3814 35.984C80.9094 35.984 81.3474 35.894 81.6954 35.714C82.0434 35.534 82.2654 35.282 82.3614 34.958H84.8994C84.7434 35.954 84.2514 36.752 83.4234 37.352C82.5954 37.94 81.5634 38.234 80.3274 38.234ZM90.2849 38.234C89.4209 38.234 88.6709 38.042 88.0349 37.658C87.3989 37.274 86.9009 36.734 86.5409 36.038C86.1929 35.33 86.0189 34.502 86.0189 33.554C86.0189 32.594 86.1989 31.754 86.5589 31.034C86.9189 30.302 87.4289 29.732 88.0889 29.324C88.7609 28.916 89.5529 28.712 90.4649 28.712C91.0289 28.712 91.5509 28.814 92.0309 29.018C92.5229 29.222 92.9009 29.492 93.1649 29.828V24.428H95.9369V38H93.3269L93.1829 36.848C92.9429 37.256 92.5589 37.592 92.0309 37.856C91.5149 38.108 90.9329 38.234 90.2849 38.234ZM90.9509 35.696C91.3829 35.696 91.7609 35.606 92.0849 35.426C92.4209 35.234 92.6789 34.97 92.8589 34.634C93.0509 34.286 93.1469 33.89 93.1469 33.446C93.1469 32.99 93.0509 32.594 92.8589 32.258C92.6789 31.922 92.4209 31.664 92.0849 31.484C91.7609 31.292 91.3829 31.196 90.9509 31.196C90.5189 31.196 90.1409 31.292 89.8169 31.484C89.4929 31.676 89.2409 31.94 89.0609 32.276C88.8929 32.612 88.8089 33.002 88.8089 33.446C88.8089 33.89 88.8929 34.28 89.0609 34.616C89.2409 34.952 89.4929 35.216 89.8169 35.408C90.1409 35.6 90.5189 35.696 90.9509 35.696ZM101.936 29H108.128V31.304H101.936V29ZM106.418 38H103.646V26.21H106.418V38ZM115.35 29H118.122V38H115.512L115.332 36.992C115.056 37.364 114.66 37.664 114.144 37.892C113.64 38.12 113.118 38.234 112.578 38.234C111.558 38.234 110.748 37.916 110.148 37.28C109.56 36.632 109.266 35.756 109.266 34.652V29H112.038V33.644C112.038 34.376 112.17 34.916 112.434 35.264C112.698 35.6 113.112 35.768 113.676 35.768C114.276 35.768 114.702 35.606 114.954 35.282C115.218 34.946 115.35 34.412 115.35 33.68V29ZM119.356 29H125.548V31.304H119.356V29ZM123.838 38H121.066V26.21H123.838V38ZM126.22 33.482C126.22 32.534 126.43 31.706 126.85 30.998C127.282 30.278 127.87 29.72 128.614 29.324C129.37 28.928 130.228 28.73 131.188 28.73C132.148 28.73 133 28.928 133.744 29.324C134.488 29.72 135.07 30.278 135.49 30.998C135.922 31.706 136.138 32.534 136.138 33.482C136.138 34.43 135.922 35.258 135.49 35.966C135.07 36.674 134.488 37.226 133.744 37.622C133 38.018 132.148 38.216 131.188 38.216C130.228 38.216 129.37 38.018 128.614 37.622C127.87 37.226 127.282 36.674 126.85 35.966C126.43 35.258 126.22 34.43 126.22 33.482ZM129.01 33.464C129.01 33.92 129.1 34.322 129.28 34.67C129.472 35.006 129.73 35.27 130.054 35.462C130.378 35.642 130.756 35.732 131.188 35.732C131.62 35.732 131.998 35.642 132.322 35.462C132.646 35.27 132.898 35.006 133.078 34.67C133.258 34.322 133.348 33.92 133.348 33.464C133.348 33.008 133.258 32.612 133.078 32.276C132.898 31.94 132.646 31.682 132.322 31.502C131.998 31.31 131.62 31.214 131.188 31.214C130.756 31.214 130.378 31.31 130.054 31.502C129.73 31.682 129.472 31.94 129.28 32.276C129.1 32.612 129.01 33.008 129.01 33.464ZM143.937 29V31.61H143.055C142.263 31.61 141.639 31.802 141.183 32.186C140.739 32.57 140.517 33.206 140.517 34.094V38H137.745V29.018H140.355L140.571 30.944H140.319C140.439 30.344 140.709 29.852 141.129 29.468C141.561 29.072 142.143 28.874 142.875 28.874C143.043 28.874 143.211 28.886 143.379 28.91C143.559 28.922 143.745 28.952 143.937 29Z" fill="#F6F9FC"/>
<g style="mix-blend-mode:hard-light">
<rect x="224" y="20" width="72" height="22" rx="11" fill="#FAFAFA"/>
<g style="mix-blend-mode:multiply">
<path d="M235.836 36L232.536 27.324H233.796L235.908 32.868C236.004 33.108 236.096 33.36 236.184 33.624C236.272 33.88 236.36 34.172 236.448 34.5C236.552 34.156 236.652 33.844 236.748 33.564C236.844 33.284 236.928 33.048 237 32.856L239.1 27.324H240.324L237.06 36H235.836ZM242.842 36.144C242.274 36.144 241.77 36.016 241.33 35.76C240.89 35.496 240.546 35.136 240.298 34.68C240.05 34.216 239.926 33.68 239.926 33.072C239.926 32.456 240.046 31.916 240.286 31.452C240.534 30.988 240.87 30.624 241.294 30.36C241.726 30.096 242.226 29.964 242.794 29.964C243.354 29.964 243.838 30.084 244.246 30.324C244.662 30.564 244.982 30.9 245.206 31.332C245.438 31.764 245.554 32.272 245.554 32.856V33.276L240.526 33.288L240.55 32.532H244.426C244.426 32.044 244.278 31.652 243.982 31.356C243.686 31.06 243.29 30.912 242.794 30.912C242.418 30.912 242.094 30.996 241.822 31.164C241.558 31.324 241.354 31.564 241.21 31.884C241.074 32.196 241.006 32.572 241.006 33.012C241.006 33.716 241.166 34.26 241.486 34.644C241.806 35.02 242.266 35.208 242.866 35.208C243.306 35.208 243.666 35.12 243.946 34.944C244.226 34.768 244.414 34.512 244.51 34.176H245.566C245.422 34.8 245.114 35.284 244.642 35.628C244.17 35.972 243.57 36.144 242.842 36.144ZM250.174 30.084V31.116H249.67C249.134 31.116 248.71 31.272 248.398 31.584C248.094 31.888 247.942 32.324 247.942 32.892V36H246.814V30.144H247.87L247.966 31.32H247.858C247.938 30.936 248.13 30.624 248.434 30.384C248.738 30.136 249.118 30.012 249.574 30.012C249.678 30.012 249.774 30.02 249.862 30.036C249.958 30.044 250.062 30.06 250.174 30.084ZM251.232 36V30.132H252.36V36H251.232ZM251.784 28.74C251.584 28.74 251.408 28.668 251.256 28.524C251.112 28.372 251.04 28.196 251.04 27.996C251.04 27.788 251.112 27.612 251.256 27.468C251.408 27.324 251.584 27.252 251.784 27.252C251.992 27.252 252.168 27.324 252.312 27.468C252.456 27.612 252.528 27.788 252.528 27.996C252.528 28.196 252.456 28.372 252.312 28.524C252.168 28.668 251.992 28.74 251.784 28.74ZM253.374 30.132H259.098V31.08H253.374V30.132ZM256.734 27.216V28.188C256.662 28.188 256.582 28.188 256.494 28.188C256.414 28.188 256.326 28.188 256.23 28.188C255.886 28.188 255.654 28.276 255.534 28.452C255.422 28.628 255.366 28.876 255.366 29.196V36H254.238V29.196C254.238 28.716 254.318 28.328 254.478 28.032C254.638 27.728 254.854 27.508 255.126 27.372C255.398 27.236 255.702 27.168 256.038 27.168C256.15 27.168 256.266 27.172 256.386 27.18C256.506 27.188 256.622 27.2 256.734 27.216ZM257.97 36V30.132H259.098V36H257.97ZM258.534 28.692C258.326 28.692 258.154 28.624 258.018 28.488C257.882 28.344 257.814 28.172 257.814 27.972C257.814 27.764 257.882 27.592 258.018 27.456C258.154 27.32 258.326 27.252 258.534 27.252C258.734 27.252 258.902 27.32 259.038 27.456C259.174 27.592 259.242 27.764 259.242 27.972C259.242 28.172 259.174 28.344 259.038 28.488C258.902 28.624 258.734 28.692 258.534 28.692ZM263.233 36.144C262.665 36.144 262.161 36.016 261.721 35.76C261.281 35.496 260.937 35.136 260.689 34.68C260.441 34.216 260.317 33.68 260.317 33.072C260.317 32.456 260.437 31.916 260.677 31.452C260.925 30.988 261.261 30.624 261.685 30.36C262.117 30.096 262.617 29.964 263.185 29.964C263.745 29.964 264.229 30.084 264.637 30.324C265.053 30.564 265.373 30.9 265.597 31.332C265.829 31.764 265.945 32.272 265.945 32.856V33.276L260.917 33.288L260.941 32.532H264.817C264.817 32.044 264.669 31.652 264.373 31.356C264.077 31.06 263.681 30.912 263.185 30.912C262.809 30.912 262.485 30.996 262.213 31.164C261.949 31.324 261.745 31.564 261.601 31.884C261.465 32.196 261.397 32.572 261.397 33.012C261.397 33.716 261.557 34.26 261.877 34.644C262.197 35.02 262.657 35.208 263.257 35.208C263.697 35.208 264.057 35.12 264.337 34.944C264.617 34.768 264.805 34.512 264.901 34.176H265.957C265.813 34.8 265.505 35.284 265.033 35.628C264.561 35.972 263.961 36.144 263.233 36.144ZM269.557 36.144C268.989 36.144 268.501 36.016 268.093 35.76C267.685 35.496 267.369 35.132 267.145 34.668C266.929 34.204 266.821 33.676 266.821 33.084C266.821 32.484 266.933 31.952 267.157 31.488C267.381 31.016 267.701 30.644 268.117 30.372C268.533 30.1 269.029 29.964 269.605 29.964C270.061 29.964 270.465 30.06 270.817 30.252C271.177 30.436 271.457 30.712 271.657 31.08V27.168H272.773V36H271.765L271.669 34.932C271.477 35.324 271.193 35.624 270.817 35.832C270.449 36.04 270.029 36.144 269.557 36.144ZM269.785 35.124C270.169 35.124 270.497 35.036 270.769 34.86C271.049 34.684 271.265 34.44 271.417 34.128C271.569 33.816 271.645 33.456 271.645 33.048C271.645 32.64 271.569 32.284 271.417 31.98C271.265 31.668 271.049 31.424 270.769 31.248C270.497 31.072 270.169 30.984 269.785 30.984C269.401 30.984 269.073 31.076 268.801 31.26C268.529 31.436 268.321 31.68 268.177 31.992C268.033 32.296 267.961 32.648 267.961 33.048C267.961 33.456 268.033 33.816 268.177 34.128C268.321 34.44 268.529 34.684 268.801 34.86C269.073 35.036 269.401 35.124 269.785 35.124Z" fill="#98A2B3"/>
</g>
<g clip-path="url(#clip1_8600_60900)">
<path d="M287.267 27.1251C287.381 27.4007 287.6 27.6198 287.875 27.7342L288.841 28.1343C289.117 28.2484 289.336 28.4675 289.45 28.7431C289.564 29.0188 289.564 29.3285 289.45 29.6042L289.05 30.5694C288.936 30.8452 288.936 31.1552 289.05 31.4308L289.449 32.3958C289.506 32.5323 289.535 32.6786 289.535 32.8264C289.535 32.9742 289.506 33.1206 289.45 33.2571C289.393 33.3937 289.31 33.5178 289.206 33.6222C289.101 33.7267 288.977 33.8096 288.84 33.8661L287.875 34.2659C287.6 34.3799 287.38 34.5987 287.266 34.8741L286.866 35.84C286.752 36.1157 286.533 36.3347 286.257 36.4489C285.981 36.5631 285.672 36.5631 285.396 36.4489L284.431 36.0491C284.155 35.9352 283.846 35.9354 283.57 36.0497L282.604 36.4493C282.329 36.5632 282.019 36.5631 281.744 36.449C281.468 36.3349 281.249 36.1161 281.135 35.8408L280.735 34.8746C280.621 34.5989 280.402 34.3799 280.127 34.2655L279.161 33.8654C278.885 33.7512 278.666 33.5324 278.552 33.2569C278.438 32.9814 278.438 32.6718 278.552 32.3962L278.952 31.431C279.065 31.1553 279.065 30.8457 278.951 30.5702L278.552 29.6036C278.495 29.4671 278.466 29.3207 278.466 29.1729C278.466 29.0251 278.495 28.8788 278.552 28.7422C278.608 28.6057 278.691 28.4816 278.796 28.3771C278.9 28.2726 279.024 28.1897 279.161 28.1332L280.126 27.7334C280.401 27.6196 280.62 27.4011 280.735 27.1259L281.135 26.16C281.249 25.8843 281.468 25.6653 281.744 25.5512C282.019 25.437 282.329 25.437 282.605 25.5512L283.57 25.951C283.846 26.0649 284.155 26.0646 284.431 25.9503L285.397 25.5518C285.673 25.4377 285.982 25.4377 286.258 25.5518C286.534 25.666 286.753 25.8849 286.867 26.1605L287.267 27.1267L287.267 27.1251Z" fill="#32D583"/>
<path fill-rule="evenodd" clip-rule="evenodd" d="M286.35 29.4271C286.43 29.3012 286.457 29.1486 286.425 29.0028C286.392 28.8571 286.303 28.7302 286.177 28.6501C286.052 28.5699 285.899 28.543 285.753 28.5754C285.608 28.6077 285.481 28.6967 285.4 28.8226L283.198 32.2838L282.19 31.0238C282.097 30.9072 281.961 30.8325 281.813 30.816C281.664 30.7994 281.515 30.8425 281.399 30.9357C281.282 31.0289 281.207 31.1646 281.191 31.3129C281.174 31.4612 281.218 31.61 281.311 31.7266L282.811 33.6016C282.867 33.6715 282.938 33.7271 283.02 33.7638C283.102 33.8004 283.191 33.817 283.281 33.8121C283.37 33.8073 283.457 33.7812 283.534 33.7359C283.612 33.6907 283.677 33.6277 283.725 33.5521L286.35 29.4271Z" fill="white"/>
</g>
</g>
<g clip-path="url(#clip2_8600_60900)">
<path d="M30.1822 148.789C28.0665 148.814 26.0057 149.452 24.2593 150.62C22.5129 151.789 21.1588 153.436 20.3674 155.356C19.5759 157.275 19.3825 159.38 19.8115 161.407C20.2404 163.434 21.2725 165.291 22.778 166.745C24.2834 168.199 26.195 169.186 28.2722 169.58C30.3494 169.974 32.4994 169.759 34.4517 168.961C36.4041 168.163 38.0715 166.818 39.2443 165.096C40.4172 163.373 41.043 161.35 41.043 159.28C41.025 156.48 39.8707 153.802 37.8339 151.834C35.7972 149.867 33.0448 148.771 30.1822 148.789Z" fill="#00EDBE"/>
<path d="M34.475 155.4C34.4459 154.876 34.5767 154.354 34.8509 153.903H26.096C26.0175 153.902 25.9398 153.917 25.8672 153.946C25.7946 153.975 25.7285 154.018 25.6729 154.072C25.6172 154.126 25.5729 154.191 25.5426 154.261C25.5124 154.332 25.4966 154.408 25.4963 154.485V156.315C25.4966 156.392 25.5124 156.468 25.5426 156.539C25.5729 156.61 25.6172 156.674 25.6729 156.728C25.7285 156.782 25.7946 156.825 25.8672 156.854C25.9398 156.883 26.0175 156.898 26.096 156.898H34.8509C34.5767 156.446 34.4459 155.925 34.475 155.4" fill="#141BEB"/>
<path d="M24.1314 159.309C24.16 159.834 24.0287 160.355 23.7541 160.806H32.509C32.5875 160.807 32.6652 160.792 32.7378 160.763C32.8104 160.734 32.8765 160.691 32.9321 160.637C32.9878 160.583 33.0321 160.518 33.0624 160.448C33.0926 160.377 33.1084 160.301 33.1087 160.224V158.394C33.1084 158.317 33.0926 158.241 33.0624 158.17C33.0321 158.099 32.9878 158.035 32.9321 157.981C32.8765 157.927 32.8104 157.884 32.7378 157.855C32.6652 157.826 32.5875 157.811 32.509 157.811H23.7541C24.0282 158.263 24.1591 158.784 24.13 159.309" fill="#141BEB"/>
<path d="M34.475 163.218C34.4459 162.693 34.5767 162.172 34.8509 161.72H26.096C26.0175 161.72 25.9398 161.735 25.8672 161.764C25.7946 161.793 25.7285 161.836 25.6729 161.89C25.6172 161.944 25.5729 162.008 25.5426 162.079C25.5124 162.15 25.4966 162.226 25.4963 162.303V164.133C25.4966 164.21 25.5124 164.286 25.5426 164.356C25.5729 164.427 25.6172 164.492 25.6729 164.546C25.7285 164.6 25.7946 164.642 25.8672 164.672C25.9398 164.701 26.0175 164.716 26.096 164.715H34.8509C34.5767 164.263 34.4459 163.742 34.475 163.218" fill="#141BEB"/>
</g>
<path d="M49 158.215C49 157.782 49.0544 157.362 49.1632 156.956C49.276 156.549 49.4493 156.168 49.683 155.811C49.9167 155.451 50.1967 155.137 50.5231 154.868C50.8535 154.6 51.2524 154.389 51.7198 154.236C52.1872 154.079 52.6969 154 53.2489 154C54.5584 154 55.602 154.395 56.3796 155.185C57.1573 155.97 57.5461 157.044 57.5461 158.405C57.5461 158.83 57.4937 159.244 57.389 159.647C57.2842 160.045 57.119 160.427 56.8934 160.791C56.6677 161.151 56.3917 161.468 56.0653 161.74C55.739 162.008 55.336 162.223 54.8566 162.384C54.3811 162.541 53.8573 162.619 53.2851 162.619C52.4188 162.619 51.6593 162.435 51.0066 162.067C50.3579 161.699 49.8603 161.184 49.5137 160.521C49.1712 159.854 49 159.085 49 158.215ZM51.2906 158.33C51.2906 159.005 51.4679 159.566 51.8225 160.015C52.1811 160.463 52.6525 160.687 53.2368 160.687C53.8815 160.687 54.365 160.471 54.6873 160.038C55.0137 159.604 55.1769 159.008 55.1769 158.249C55.1769 157.486 55.0036 156.908 54.6571 156.513C54.3146 156.118 53.8573 155.921 53.2851 155.921C52.6566 155.921 52.167 156.137 51.8165 156.57C51.4659 157.003 51.2906 157.59 51.2906 158.33Z" fill="#F6F9FC"/>
<path d="M58.5313 162.798C58.5393 161.586 58.5574 160.252 58.5857 158.796C58.6179 157.339 58.6501 156.572 58.6824 156.496C58.7065 156.492 58.7589 156.49 58.8395 156.49C58.9201 156.49 59.0309 156.492 59.1719 156.496C59.4459 156.503 59.7421 156.515 60.0604 156.53L60.5378 156.553C60.5378 156.576 60.5358 156.683 60.5318 156.875C60.5278 157.063 60.5257 157.168 60.5257 157.191C60.5499 157.149 60.6083 157.095 60.701 157.03C60.7937 156.961 60.9146 156.888 61.0637 156.812C61.2127 156.731 61.4041 156.664 61.6378 156.611C61.8756 156.557 62.1234 156.53 62.3812 156.53C62.7519 156.53 63.0984 156.595 63.4208 156.726C63.7472 156.856 64.0352 157.044 64.2851 157.289C64.5349 157.534 64.7323 157.849 64.8774 158.232C65.0224 158.615 65.0949 159.045 65.0949 159.52C65.0949 159.976 65.0164 160.394 64.8592 160.774C64.7061 161.149 64.4966 161.458 64.2307 161.699C63.9688 161.941 63.6666 162.129 63.3241 162.263C62.9816 162.393 62.619 162.46 62.2362 162.464C61.8695 162.464 61.527 162.403 61.2087 162.28C60.8904 162.158 60.701 162.046 60.6406 161.947C60.6406 161.977 60.6406 162.125 60.6406 162.389C60.6446 162.65 60.6466 162.903 60.6466 163.148C60.6466 163.394 60.6446 163.654 60.6406 163.93C60.6406 164.21 60.6345 164.438 60.6225 164.615C60.6104 164.795 60.5942 164.891 60.5741 164.902C60.5137 164.944 60.1893 164.975 59.601 164.994C59.456 164.998 59.327 165 59.2142 165C58.8516 165 58.6239 164.979 58.5313 164.937C58.5272 164.829 58.5252 164.597 58.5252 164.241C58.5252 163.888 58.5272 163.407 58.5313 162.798ZM60.5862 159.532C60.5862 159.903 60.703 160.204 60.9367 160.434C61.1745 160.664 61.4545 160.779 61.7768 160.779C62.1596 160.779 62.4598 160.666 62.6774 160.44C62.895 160.214 63.0038 159.915 63.0038 159.543C63.0038 159.156 62.8929 158.855 62.6713 158.64C62.4538 158.426 62.1717 158.318 61.8252 158.318C61.4182 158.318 61.11 158.43 60.9005 158.652C60.6909 158.87 60.5862 159.164 60.5862 159.532Z" fill="#F6F9FC"/>
<path d="M65.7779 159.606C65.7779 159.204 65.8424 158.821 65.9713 158.456C66.1043 158.088 66.2916 157.761 66.5334 157.473C66.7792 157.186 67.0935 156.957 67.4763 156.789C67.8631 156.616 68.2922 156.53 68.7636 156.53C69.1625 156.53 69.5292 156.599 69.8636 156.737C70.2021 156.871 70.4821 157.053 70.7037 157.283C70.9293 157.513 71.1026 157.78 71.2235 158.083C71.3484 158.382 71.4108 158.696 71.4108 159.026C71.4108 159.397 71.3746 159.7 71.3021 159.934C71.024 159.972 70.4398 159.995 69.5493 160.003C69.2068 160.007 68.9046 160.007 68.6427 160.003C68.2237 160.003 67.9094 159.999 67.6999 159.992C67.6999 160.31 67.8147 160.559 68.0444 160.739C68.274 160.915 68.6004 161.004 69.0235 161.004C69.5272 161.004 70.0087 160.868 70.468 160.595C70.5325 160.657 70.6554 160.864 70.8367 161.216C71.018 161.565 71.1107 161.782 71.1147 161.866C70.9213 162.035 70.6211 162.19 70.2141 162.332C69.8112 162.47 69.3801 162.539 68.9207 162.539C68.3808 162.539 67.9034 162.458 67.4883 162.297C67.0733 162.133 66.7449 161.912 66.5032 161.636C66.2614 161.356 66.0801 161.046 65.9592 160.705C65.8384 160.363 65.7779 159.997 65.7779 159.606ZM67.6878 158.911L69.6279 158.876C69.6279 158.853 69.6279 158.832 69.6279 158.813C69.6279 158.541 69.5554 158.316 69.4103 158.14C69.2572 157.948 69.0376 157.851 68.7515 157.847C68.4372 157.847 68.1814 157.948 67.9839 158.152C67.7865 158.355 67.6878 158.608 67.6878 158.911Z" fill="#F6F9FC"/>
<path d="M72.3114 159.29C72.3114 159.083 72.3114 158.874 72.3114 158.663C72.3114 158.031 72.3154 157.387 72.3235 156.731C72.3759 156.658 72.7022 156.607 73.3026 156.576C73.5202 156.565 73.7015 156.559 73.8465 156.559C74.1004 156.559 74.2454 156.576 74.2817 156.611C74.2575 157.074 74.2454 157.31 74.2454 157.318C74.4026 157.092 74.6403 156.898 74.9586 156.737C75.2769 156.576 75.6658 156.496 76.1251 156.496C76.794 156.496 77.3258 156.729 77.7207 157.197C78.1196 157.661 78.319 158.274 78.319 159.037C78.319 159.455 78.3069 160.051 78.2828 160.825C78.2626 161.596 78.2405 162.119 78.2163 162.395C78.2123 162.445 77.898 162.474 77.2734 162.481C77.0962 162.485 76.943 162.487 76.8141 162.487C76.4918 162.487 76.3245 162.48 76.3125 162.464C76.3004 162.319 76.2943 162.069 76.2943 161.717C76.2943 161.36 76.2984 160.875 76.3064 160.262C76.3185 159.645 76.3245 159.304 76.3245 159.238C76.3245 158.909 76.244 158.646 76.0828 158.451C75.9256 158.255 75.6919 158.157 75.3817 158.157C75.0594 158.157 74.7975 158.257 74.596 158.456C74.3945 158.652 74.2938 158.874 74.2938 159.123C74.2938 161.262 74.2777 162.353 74.2454 162.395C74.2334 162.411 74.0742 162.418 73.768 162.418C73.635 162.418 73.4799 162.418 73.3026 162.418C72.6901 162.411 72.3779 162.388 72.3658 162.349C72.3577 162.334 72.3477 162.027 72.3356 161.429C72.3235 160.831 72.3154 160.118 72.3114 159.29Z" fill="#F6F9FC"/>
<path d="M81.7036 158.215C81.7036 157.624 81.8104 157.074 82.024 156.565C82.2375 156.051 82.5377 155.606 82.9245 155.231C83.3153 154.855 83.7968 154.56 84.369 154.345C84.9452 154.13 85.5778 154.023 86.2668 154.023C86.9236 154.023 87.5058 154.102 88.0135 154.259C88.5212 154.416 88.8838 154.596 89.1014 154.799C89.1014 154.933 88.9986 155.231 88.7931 155.691C88.5877 156.151 88.4144 156.438 88.2734 156.553C87.5924 156.177 86.9316 155.99 86.291 155.99C85.6503 155.99 85.1124 156.208 84.6772 156.645C84.2461 157.078 84.0305 157.628 84.0305 158.295C84.0305 158.702 84.091 159.06 84.2119 159.371C84.3368 159.681 84.502 159.928 84.7075 160.112C84.917 160.293 85.1446 160.429 85.3904 160.521C85.6362 160.609 85.8961 160.653 86.1701 160.653C86.3595 160.653 86.5488 160.634 86.7382 160.595C86.9276 160.553 87.0827 160.511 87.2036 160.469C87.3245 160.427 87.4615 160.363 87.6146 160.279C87.7677 160.191 87.8644 160.133 87.9047 160.107C87.945 160.08 88.0175 160.03 88.1223 159.957C88.2472 160.041 88.4164 160.252 88.63 160.59C88.8435 160.927 89.0168 161.23 89.1497 161.498C88.8637 161.809 88.4265 162.077 87.8382 162.303C87.2499 162.529 86.6194 162.642 85.9465 162.642C85.3783 162.642 84.8606 162.568 84.3932 162.418C83.9258 162.269 83.5269 162.062 83.1965 161.797C82.8701 161.529 82.5921 161.209 82.3624 160.837C82.1368 160.465 81.9696 160.061 81.8608 159.624C81.756 159.183 81.7036 158.713 81.7036 158.215Z" fill="#F6F9FC"/>
<path d="M89.6514 160.699C89.6514 160.181 89.8629 159.764 90.286 159.445C90.7091 159.127 91.2369 158.968 91.8695 158.968C92.3369 158.968 92.7197 159.074 93.0178 159.284C93.0259 159.2 93.0259 159.112 93.0178 159.02C93.0098 158.928 92.9997 158.838 92.9876 158.75C92.9796 158.658 92.9514 158.573 92.903 158.497C92.8547 158.416 92.7922 158.345 92.7156 158.284C92.6431 158.223 92.5404 158.175 92.4074 158.14C92.2744 158.102 92.1193 158.083 91.942 158.083C91.7647 158.083 91.5975 158.111 91.4404 158.169C91.2832 158.223 91.1603 158.282 91.0717 158.347C90.9871 158.412 90.9085 158.474 90.836 158.531C90.7675 158.585 90.7232 158.614 90.703 158.617C90.6426 158.617 90.4673 158.493 90.1772 158.244C89.8911 157.998 89.7501 157.843 89.7541 157.778C89.7541 157.736 89.7884 157.665 89.8569 157.565C89.9213 157.469 90.0221 157.358 90.1591 157.232C90.3001 157.105 90.4633 156.986 90.6486 156.875C90.834 156.764 91.0677 156.67 91.3497 156.593C91.6318 156.513 91.9279 156.473 92.2382 156.473C93.04 156.473 93.6948 156.695 94.2025 157.14C94.7101 157.584 94.964 158.221 94.964 159.049C94.964 159.662 94.9519 160.356 94.9277 161.13C94.9035 161.901 94.8814 162.303 94.8612 162.338C94.8492 162.357 94.7101 162.366 94.4442 162.366C94.1783 162.366 93.9164 162.361 93.6585 162.349L93.2656 162.338L93.1569 161.832C92.7056 162.261 92.1777 162.476 91.5733 162.476C90.9287 162.476 90.4472 162.315 90.1289 161.993C89.8105 161.671 89.6514 161.239 89.6514 160.699ZM91.3135 160.664C91.3135 160.86 91.39 161.019 91.5431 161.142C91.6962 161.264 91.8876 161.326 92.1173 161.326C92.3752 161.326 92.5746 161.262 92.7156 161.136C92.8607 161.009 92.9332 160.852 92.9332 160.664C92.9332 160.461 92.8547 160.298 92.6975 160.176C92.5444 160.053 92.351 159.992 92.1173 159.992C91.8796 159.992 91.6862 160.057 91.5371 160.187C91.388 160.314 91.3135 160.473 91.3135 160.664Z" fill="#F6F9FC"/>
<path d="M96.1607 159.25C96.1607 159.039 96.1607 158.826 96.1607 158.612C96.1607 157.971 96.1647 157.322 96.1728 156.662C96.2211 156.601 96.4286 156.57 96.7953 156.57C96.9001 156.57 97.0189 156.572 97.1519 156.576C97.7442 156.599 98.0706 156.639 98.131 156.697C98.1109 157.092 98.0988 157.302 98.0947 157.329C98.4654 156.796 99.0477 156.53 99.8414 156.53C100.18 156.53 100.486 156.607 100.76 156.76C101.034 156.91 101.256 157.117 101.425 157.381C101.526 157.216 101.657 157.074 101.818 156.956C101.979 156.833 102.15 156.745 102.332 156.691C102.517 156.634 102.686 156.593 102.839 156.57C102.996 156.543 103.147 156.53 103.293 156.53C104.05 156.53 104.614 156.749 104.985 157.186C105.36 157.623 105.547 158.232 105.547 159.014C105.547 159.413 105.535 160.009 105.511 160.802C105.49 161.596 105.472 162.131 105.456 162.407C105.452 162.453 105.134 162.481 104.501 162.493C104.292 162.497 104.114 162.499 103.969 162.499C103.683 162.499 103.536 162.491 103.528 162.476C103.52 162.376 103.516 162.213 103.516 161.987C103.516 161.91 103.516 161.828 103.516 161.74C103.52 161.379 103.526 160.896 103.534 160.291C103.546 159.685 103.552 159.323 103.552 159.204C103.552 158.882 103.492 158.633 103.371 158.456C103.254 158.28 103.043 158.192 102.736 158.192C102.575 158.192 102.434 158.226 102.313 158.295C102.193 158.364 102.1 158.453 102.035 158.56C101.975 158.667 101.931 158.775 101.902 158.882C101.874 158.989 101.86 159.093 101.86 159.192C101.86 160.465 101.834 161.525 101.782 162.372C101.773 162.411 101.556 162.43 101.129 162.43C101.04 162.43 100.943 162.43 100.839 162.43C100.218 162.422 99.8978 162.407 99.8777 162.384C99.8656 162.238 99.8596 161.989 99.8596 161.636C99.8596 161.283 99.8636 160.806 99.8716 160.204C99.8837 159.599 99.8898 159.265 99.8898 159.204C99.8898 158.886 99.8273 158.638 99.7024 158.462C99.5815 158.282 99.372 158.192 99.0738 158.192C98.7797 158.192 98.5521 158.286 98.3909 158.474C98.2337 158.661 98.1552 158.867 98.1552 159.089C98.1552 159.453 98.1491 160.101 98.137 161.032C98.125 161.96 98.1109 162.434 98.0947 162.453C98.0826 162.468 97.9235 162.476 97.6173 162.476C97.4843 162.476 97.3292 162.476 97.1519 162.476C96.5394 162.468 96.2272 162.445 96.2151 162.407C96.207 162.391 96.1969 162.073 96.1849 161.452C96.1728 160.831 96.1647 160.097 96.1607 159.25Z" fill="#F6F9FC"/>
<path d="M106.75 162.798C106.758 161.586 106.776 160.252 106.804 158.796C106.836 157.339 106.868 156.572 106.901 156.496C106.925 156.492 106.977 156.49 107.058 156.49C107.138 156.49 107.249 156.492 107.39 156.496C107.664 156.503 107.96 156.515 108.279 156.53L108.756 156.553C108.756 156.576 108.754 156.683 108.75 156.875C108.746 157.063 108.744 157.168 108.744 157.191C108.768 157.149 108.827 157.095 108.919 157.03C109.012 156.961 109.133 156.888 109.282 156.812C109.431 156.731 109.622 156.664 109.856 156.611C110.094 156.557 110.342 156.53 110.6 156.53C110.97 156.53 111.317 156.595 111.639 156.726C111.966 156.856 112.254 157.044 112.503 157.289C112.753 157.534 112.951 157.849 113.096 158.232C113.241 158.615 113.313 159.045 113.313 159.52C113.313 159.976 113.235 160.394 113.078 160.774C112.924 161.149 112.715 161.458 112.449 161.699C112.187 161.941 111.885 162.129 111.542 162.263C111.2 162.393 110.837 162.46 110.455 162.464C110.088 162.464 109.745 162.403 109.427 162.28C109.109 162.158 108.919 162.046 108.859 161.947C108.859 161.977 108.859 162.125 108.859 162.389C108.863 162.65 108.865 162.903 108.865 163.148C108.865 163.394 108.863 163.654 108.859 163.93C108.859 164.21 108.853 164.438 108.841 164.615C108.829 164.795 108.813 164.891 108.792 164.902C108.732 164.944 108.408 164.975 107.819 164.994C107.674 164.998 107.545 165 107.433 165C107.07 165 106.842 164.979 106.75 164.937C106.746 164.829 106.744 164.597 106.744 164.241C106.744 163.888 106.746 163.407 106.75 162.798ZM108.805 159.532C108.805 159.903 108.921 160.204 109.155 160.434C109.393 160.664 109.673 160.779 109.995 160.779C110.378 160.779 110.678 160.666 110.896 160.44C111.113 160.214 111.222 159.915 111.222 159.543C111.222 159.156 111.111 158.855 110.89 158.64C110.672 158.426 110.39 158.318 110.044 158.318C109.637 158.318 109.328 158.43 109.119 158.652C108.909 158.87 108.805 159.164 108.805 159.532Z" fill="#F6F9FC"/>
<path d="M114.208 160.049C114.208 159.432 114.262 158.295 114.371 156.639C114.383 156.589 114.701 156.561 115.326 156.553C115.483 156.553 115.62 156.553 115.737 156.553C116.091 156.553 116.275 156.561 116.287 156.576C116.291 156.588 116.293 156.624 116.293 156.685C116.293 156.808 116.287 157.028 116.275 157.347C116.259 157.822 116.241 158.328 116.22 158.865C116.2 159.401 116.19 159.731 116.19 159.854C116.19 160.191 116.267 160.452 116.42 160.636C116.577 160.82 116.813 160.912 117.127 160.912C117.449 160.912 117.703 160.812 117.889 160.613C118.078 160.413 118.177 160.176 118.185 159.9C118.185 159.589 118.195 158.968 118.215 158.037C118.239 157.105 118.261 156.63 118.281 156.611C118.294 156.595 118.435 156.588 118.704 156.588C118.841 156.588 119.011 156.589 119.212 156.593C119.817 156.605 120.133 156.628 120.161 156.662C120.165 156.685 120.167 156.821 120.167 157.071C120.167 157.818 120.141 159.585 120.089 162.372C120.032 162.437 119.776 162.47 119.321 162.47C119.273 162.47 119.222 162.47 119.17 162.47C118.618 162.462 118.31 162.43 118.245 162.372C118.249 162.303 118.251 162.217 118.251 162.113C118.251 162.01 118.251 161.922 118.251 161.849C118.251 161.772 118.253 161.722 118.257 161.699C118.092 161.929 117.85 162.133 117.532 162.309C117.218 162.485 116.849 162.573 116.426 162.573C114.947 162.573 114.208 161.732 114.208 160.049Z" fill="#F6F9FC"/>
<path d="M121.14 161.947C121.132 161.939 121.128 161.924 121.128 161.901C121.124 161.839 121.154 161.721 121.219 161.544C121.299 161.314 121.394 161.096 121.503 160.889C121.612 160.678 121.682 160.58 121.714 160.595C121.73 160.603 121.811 160.647 121.956 160.728C122.101 160.808 122.24 160.881 122.373 160.946C122.506 161.007 122.675 161.069 122.881 161.13C123.09 161.188 123.286 161.216 123.467 161.216C123.709 161.216 123.892 161.18 124.017 161.107C124.146 161.03 124.21 160.925 124.21 160.791C124.21 160.657 124.14 160.551 123.999 160.475C123.862 160.394 123.598 160.319 123.207 160.25C122.514 160.139 122.002 159.942 121.672 159.658C121.342 159.371 121.176 158.98 121.176 158.485C121.176 157.856 121.39 157.368 121.817 157.019C122.248 156.67 122.845 156.496 123.606 156.496C124.114 156.496 124.597 156.557 125.057 156.68C125.52 156.802 125.804 156.913 125.909 157.013C125.921 157.025 125.927 157.042 125.927 157.065C125.927 157.164 125.854 157.383 125.709 157.72C125.528 158.146 125.413 158.362 125.365 158.37C125.361 158.37 125.276 158.332 125.111 158.255C124.946 158.178 124.738 158.102 124.489 158.025C124.239 157.948 124.007 157.91 123.793 157.91C123.568 157.91 123.395 157.954 123.274 158.042C123.157 158.131 123.098 158.24 123.098 158.37C123.098 158.5 123.165 158.6 123.298 158.669C123.431 158.738 123.675 158.796 124.029 158.842C124.779 158.945 125.321 159.133 125.655 159.405C125.989 159.677 126.157 160.082 126.157 160.618C126.157 160.883 126.106 161.132 126.006 161.366C125.909 161.6 125.764 161.811 125.57 161.998C125.377 162.182 125.117 162.328 124.791 162.435C124.468 162.543 124.098 162.596 123.679 162.596C123.127 162.596 122.595 162.518 122.083 162.361C121.571 162.204 121.257 162.066 121.14 161.947Z" fill="#F6F9FC"/>
<path d="M129.657 154.222C130.053 154.081 131.786 154.128 131.86 154.199C131.947 154.694 131.935 161.642 131.848 162.395C131.774 162.607 129.657 162.525 129.645 162.442C129.595 161.606 129.558 155.353 129.657 154.222Z" fill="#00EDBE"/>
<path d="M133.536 162.36C133.474 161.653 133.524 155.07 133.623 154.199C133.907 154.128 135.356 154.105 136.334 154.105C139.23 154.105 141 155.895 141 158.285C141 160.747 139.614 162.525 136.222 162.525C135.17 162.525 133.808 162.442 133.536 162.36ZM138.71 158.391C138.71 156.99 137.707 156.06 136.358 156.06C136.074 156.06 135.863 156.071 135.702 156.083C135.715 157.437 135.677 159.204 135.653 160.558C135.876 160.593 136.135 160.605 136.445 160.605C137.41 160.605 138.71 160.311 138.71 158.391Z" fill="#00EDBE"/>
</g>
<rect x="0.5" y="0.5" width="315" height="189" rx="19.5" stroke="url(#paint1_linear_8600_60900)"/>
<defs>
<filter id="filter0_f_8600_60900" x="-144" y="-144" width="416" height="416" filterUnits="userSpaceOnUse" color-interpolation-filters="sRGB">
<feFlood flood-opacity="0" result="BackgroundImageFix"/>
<feBlend mode="normal" in="SourceGraphic" in2="BackgroundImageFix" result="shape"/>
<feGaussianBlur stdDeviation="64" result="effect1_foregroundBlur_8600_60900"/>
</filter>
<linearGradient id="paint0_linear_8600_60900" x1="15.7873" y1="2.05045e-05" x2="341.34" y2="228.824" gradientUnits="userSpaceOnUse">
<stop stop-color="white" stop-opacity="0.51"/>
<stop offset="1" stop-color="white" stop-opacity="0"/>
</linearGradient>
<linearGradient id="paint1_linear_8600_60900" x1="1.78532e-07" y1="8.02303" x2="308.782" y2="201.518" gradientUnits="userSpaceOnUse">
<stop stop-color="white"/>
<stop offset="1" stop-color="white" stop-opacity="0.2"/>
</linearGradient>
<clipPath id="clip0_8600_60900">
<rect width="316" height="190" rx="20" fill="white"/>
</clipPath>
<clipPath id="clip1_8600_60900">
<rect width="12" height="12" fill="white" transform="translate(278 25)"/>
</clipPath>
<clipPath id="clip2_8600_60900">
<rect width="21.7219" height="20.9828" fill="white" transform="translate(19.321 148.788)"/>
</clipPath>
</defs>
</svg>
