<svg width="46" height="46" viewBox="0 0 46 46" fill="none" xmlns="http://www.w3.org/2000/svg">
<rect x="3" y="3" width="40" height="40" rx="20" fill="#E3F1FA"/>
<rect x="3" y="3" width="40" height="40" rx="20" stroke="#F0F9FF" stroke-width="6"/>
<path d="M22.9642 13.0001C17.9789 13.0001 13 17.0316 13 22.996C13 28.5116 17.4891 33 23.0065 33C28.4598 33 32.8976 28.6164 33 23.1882C33.0031 22.6425 32.3577 22.3518 31.954 22.7191C31.5629 23.0774 31.0558 23.2771 30.5252 23.2794C29.3416 23.2792 28.3972 22.3331 28.3943 21.1506V21.1443C28.3974 20.8997 28.4453 20.6591 28.5311 20.4292C28.7013 19.9776 28.3161 19.5117 27.8403 19.592C27.8119 19.5952 27.7876 19.5952 27.7605 19.5983C27.085 19.592 26.5485 19.0632 26.5484 18.3865C26.551 18.3417 26.561 18.2942 26.5737 18.2318C26.6654 17.7455 26.1819 17.3505 25.7232 17.5362C25.4722 17.6365 25.2066 17.6841 24.9363 17.6844C23.7504 17.6841 22.8031 16.7394 22.8037 15.5539C22.8052 14.5483 23.3723 14.1011 23.3723 14.1011C23.85 13.6121 23.4597 12.9994 22.9642 13.0001ZM19.6764 17.4565C20.4417 17.456 21.0624 18.0758 21.0629 18.8409C21.0633 19.6067 20.4424 20.2275 19.6764 20.2271C18.9112 20.2266 18.2912 19.606 18.2917 18.8409C18.2921 18.0765 18.9118 17.4569 19.6764 17.4565ZM23.0114 21.6196C23.7773 21.6192 24.3983 22.24 24.3979 23.0058C24.3974 23.7709 23.7767 24.3907 23.0114 24.3902C22.2468 24.3898 21.627 23.7702 21.6266 23.0058C21.6261 22.2407 22.2461 21.6201 23.0114 21.6196ZM17.4558 23.2875C18.2211 23.288 18.8411 23.9086 18.8406 24.6736C18.8402 25.4381 18.2204 26.0576 17.4558 26.0581C16.6906 26.0586 16.0698 25.4387 16.0694 24.6736C16.0689 23.9079 16.6899 23.2871 17.4558 23.2875ZM27.3928 24.8918C28.158 24.8922 28.778 25.5128 28.7775 26.2779C28.7771 27.0423 28.1574 27.662 27.3928 27.6624C26.6275 27.6628 26.0068 27.043 26.0063 26.2779C26.0059 25.5122 26.6269 24.8914 27.3928 24.8918ZM21.8953 27.1754C22.66 27.1759 23.2797 27.7955 23.2802 28.5599C23.2806 29.325 22.6606 29.9456 21.8953 29.946C21.1295 29.9465 20.5085 29.3256 20.5089 28.5599C20.5094 27.7949 21.1301 27.175 21.8953 27.1754Z" fill="#3977A6"/>
<path d="M26.8999 16.052C27.6656 16.052 28.2862 15.4315 28.2862 14.6661C28.2862 13.9007 27.6656 13.2803 26.8999 13.2803C26.1343 13.2803 25.5137 13.9007 25.5137 14.6661C25.5137 15.4315 26.1343 16.052 26.8999 16.052Z" fill="#3977A6"/>
<path d="M31.6138 15.7717C32.3794 15.7717 33.0001 15.1512 33.0001 14.3858C33.0001 13.6205 32.3794 13 31.6138 13C30.8482 13 30.2275 13.6205 30.2275 14.3858C30.2275 15.1512 30.8482 15.7717 31.6138 15.7717Z" fill="#3977A6"/>
<path d="M31.3536 20.5022C32.1192 20.5022 32.7398 19.8817 32.7398 19.1163C32.7398 18.3509 32.1192 17.7305 31.3536 17.7305C30.5879 17.7305 29.9673 18.3509 29.9673 19.1163C29.9673 19.8817 30.5879 20.5022 31.3536 20.5022Z" fill="#3977A6"/>
</svg>
