<svg width="65" height="64" viewBox="0 0 65 64" fill="none" xmlns="http://www.w3.org/2000/svg">
<g clip-path="url(#clip0_5331_140528)">
<g clip-path="url(#clip1_5331_140528)">
<path d="M55.4262 15.9986L27.7131 0L0 15.9986V48.0014L27.7131 64L55.4262 48.0014V15.9986Z" fill="#164C63"/>
<path d="M13.8622 8.00216L20.7905 4.00108L27.713 0L41.5753 8.00216L41.5696 16.0043L45.7092 20.9985L41.5696 24.0007V32.0029L34.6413 36.004L27.713 32.0029V64L13.8564 56.0036L13.8622 8.00216Z" fill="#155B75"/>
<path d="M6.93408 12.0031L13.8624 8.00206L20.7906 4.00098L34.6472 12.0031V19.9995L38.7811 24.9994L34.6414 28.0017V36.0039L27.7189 40.0049L20.7906 44.0003L20.7849 60.0046L6.93408 52.0024V12.0031Z" fill="#0E7090"/>
<path d="M0 15.9983L6.93405 12.003L13.8623 8.00195L20.7906 12.003L27.7189 15.9983V24.0005L31.8528 29.0004L27.7131 32.0027L27.7189 40.0048L20.7906 44.0001L13.8623 39.9991V56.0034L0 48.0012V15.9983Z" fill="#A5F0FC"/>
<path d="M20.7904 44.0004L27.7129 48.0014L48.7172 35.877V44.0061L27.7187 56.0036L20.7847 52.0025L20.7904 44.0004Z" fill="white"/>
</g>
</g>
<defs>
<clipPath id="clip0_5331_140528">
<rect width="64" height="64" fill="white" transform="translate(0.25)"/>
</clipPath>
<clipPath id="clip1_5331_140528">
<rect width="55.4263" height="64" fill="white"/>
</clipPath>
</defs>
</svg>
