<svg width="27" height="30" viewBox="0 0 27 30" fill="none" xmlns="http://www.w3.org/2000/svg">
<g clip-path="url(#clip0_1614_23060)">
<path d="M13.0574 0.0234375V9.9994V14.9994L8.73051 17.4754L4.40358 19.9994L0.0766602 22.4754V7.4994L4.40358 5.02344L8.73051 2.4994L13.0574 0.0234375Z" fill="#1E425C"/>
<path d="M26.0374 7.5L21.7105 5L17.3836 2.5L13.0566 0V15L17.3836 17.5L21.7105 20L26.0374 22.5V7.5Z" fill="#57A7E0"/>
<path d="M21.7113 20L17.3844 17.5L13.0574 15L8.73051 17.5L4.40358 20L0.0766602 22.5L4.40358 25L8.73051 27.476L13.0574 30L17.3844 27.476L21.7113 25L26.0382 22.5L21.7113 20Z" fill="#8DC6EA"/>
<path d="M19.2586 18.5814V11.418L13.0566 14.9997V22.1872L19.2586 18.5814Z" fill="#1E425C"/>
<path d="M6.85498 18.5814V11.418L13.0569 14.9997V22.1872L6.85498 18.5814Z" fill="#57A7E0"/>
<path d="M19.2588 11.4183L13.0569 7.8125L6.85498 11.4183L13.0569 15L19.2588 11.4183Z" fill="#8DC6EA"/>
</g>
<defs>
<clipPath id="clip0_1614_23060">
<rect width="26.25" height="30" fill="white" transform="translate(0.0766602)"/>
</clipPath>
</defs>
</svg>
