<svg width="27" height="30" viewBox="0 0 27 30" fill="none" xmlns="http://www.w3.org/2000/svg">
<g clip-path="url(#clip0_1614_23239)">
<path d="M13.1443 0.0253906V10.0014V15.0014L8.81742 17.4773L4.4905 20.0014L0.163574 22.4773V7.50135L4.4905 5.02539L8.81742 2.50135L13.1443 0.0253906Z" fill="#EAECF0"/>
<path d="M26.1243 7.5L21.7974 5L17.4705 2.5L13.1436 0V15L17.4705 17.5L21.7974 20L26.1243 22.5V7.5Z" fill="#D0D5DD"/>
<path d="M21.7982 20L17.4713 17.5L13.1443 15L8.81742 17.5L4.4905 20L0.163574 22.5L4.4905 25L8.81742 27.476L13.1443 30L17.4713 27.476L21.7982 25L26.1251 22.5L21.7982 20Z" fill="black"/>
<g clip-path="url(#clip1_1614_23239)">
<path d="M13.1506 23.997L10.5532 22.4963L7.95578 20.9955L5.35838 19.4948V10.4905L2.76098 8.98976L0.163574 7.47461V22.4674L2.76098 23.9681L5.35838 25.4688L7.95578 26.9696L10.5532 28.4703L13.1506 29.971V23.9681V23.997Z" fill="#D0D5DD"/>
<path d="M26.1374 7.50391V22.4823L23.54 23.9974L20.9426 25.4837L18.3452 26.9989L15.7478 28.4851L13.1504 30.0003V23.9974L15.7478 22.4823L18.3452 20.996L20.9426 19.4808V10.4909L23.54 9.00463L26.1374 7.50391Z" fill="#98A2B3"/>
<path d="M26.1376 7.50361L23.5402 9.00433L20.9428 10.4906L18.3454 9.00433L15.748 7.48918L13.1506 6.00289L10.5532 7.48918L7.95578 9.00433L5.35838 10.4906L2.76098 9.00433L0.163574 7.48918L2.76098 6.00289L5.35838 4.48773L7.95578 3.00144L10.5532 1.48629L13.1506 0L15.748 1.48629V1.50072L18.3454 3.00144L20.9428 4.50216L23.5402 6.00289L26.1376 7.50361Z" fill="#F2F4F7"/>
</g>
<path d="M9.53857 11.2031L13.1937 13.3133V17.5336L9.53857 15.4235V11.2031Z" fill="#475467"/>
<path d="M16.8489 11.2012V15.4226L13.1938 17.5327V13.3124L16.8489 11.2012Z" fill="#1D2939"/>
<path d="M13.1937 9.0918L9.53857 11.203L13.1937 13.3132L16.8488 11.202L13.1937 9.0918Z" fill="black"/>
</g>
<defs>
<clipPath id="clip0_1614_23239">
<rect width="26" height="30" fill="white" transform="translate(0.163574)"/>
</clipPath>
<clipPath id="clip1_1614_23239">
<rect width="25.974" height="30" fill="white" transform="translate(0.163574)"/>
</clipPath>
</defs>
</svg>
