<svg width="170" height="40" viewBox="0 0 170 40" fill="none" xmlns="http://www.w3.org/2000/svg">
<path d="M27.2672 31.6948C26.2618 32.4639 25.1513 33.0604 23.9657 33.4731L23.8719 33.5069C23.4518 33.6494 22.9753 33.4956 22.7127 33.128L22.1537 32.3476C21.8348 31.8974 21.4109 31.6611 20.8669 31.6198C20.6193 31.601 20.3829 31.5935 20.0903 31.5935C19.8314 31.5935 19.5876 31.6123 19.3437 31.6423C18.8522 31.7023 18.4546 31.9424 18.1694 32.3589L17.5166 33.308C17.2615 33.6795 16.7776 33.8445 16.3461 33.702C15.2694 33.3493 14.1889 32.764 12.9471 31.8636C12.7183 31.6986 12.3956 31.7286 12.2306 31.9349C12.0918 32.1075 12.088 32.3551 12.2156 32.5352C12.9434 33.5669 13.6787 34.5986 14.3953 35.5965L15.6783 37.3898C16.3761 38.3728 17.299 38.8943 18.4996 38.988C19.0286 39.0293 19.535 39.0481 20.0303 39.0481C20.7056 39.0481 21.3546 39.0106 21.9924 38.9318C23.0653 38.8005 23.9282 38.2752 24.5585 37.3673C25.0087 36.7183 25.4627 36.0542 25.9016 35.4127L26.1042 35.1201C26.5957 34.4073 27.0946 33.6757 27.5936 32.9591C27.7324 32.7603 27.8675 32.5615 28.0063 32.3664C28.0701 32.2763 28.1001 32.1713 28.1001 32.0662C28.1001 31.9162 28.025 31.7774 27.905 31.6836C27.7287 31.5448 27.4623 31.5523 27.271 31.6986L27.2672 31.6948Z" fill="#BA5400"/>
<path d="M9.76524 29.4201C8.72603 28.7036 7.81438 27.8294 7.05654 26.8315L6.99652 26.7489C6.73015 26.3925 6.73015 25.8898 6.99652 25.5297L6.85395 25.4246L7.03028 25.4809L7.56677 24.7568C7.89316 24.3141 7.9907 23.8377 7.86315 23.3049C7.80687 23.0648 7.73934 22.836 7.64555 22.5583C7.56302 22.3182 7.46922 22.0856 7.36793 21.8643C7.15784 21.4141 6.80893 21.114 6.32122 20.9676L5.21448 20.6412C4.77929 20.5137 4.4754 20.1048 4.47916 19.6471C4.47916 18.5178 4.70426 17.3098 5.18072 15.8466C5.267 15.5765 5.13945 15.2801 4.89184 15.1901C4.6855 15.1113 4.44914 15.1826 4.31783 15.3589C3.54875 16.3869 2.78341 17.4261 2.04433 18.4278L2.01432 18.4653C1.60164 19.028 1.1852 19.5908 0.768769 20.1498C0.0522025 21.1177 -0.161642 22.1569 0.119732 23.3237C0.416113 24.543 0.783775 25.6234 1.24898 26.6289C1.70293 27.6118 2.47202 28.2684 3.52999 28.5873C4.28782 28.8124 5.05691 29.0412 5.80349 29.2626L6.07736 29.3451C6.92899 29.5964 7.80312 29.8553 8.6585 30.1142L8.71102 29.9454L8.69977 30.1254C8.91736 30.193 9.13871 30.2567 9.35256 30.3243C9.40133 30.3393 9.45385 30.3468 9.50637 30.3468C9.56265 30.3468 9.61517 30.3393 9.6677 30.3205C9.81026 30.2717 9.91906 30.1592 9.97533 30.0166C10.0504 29.8065 9.96408 29.5552 9.76524 29.4201Z" fill="#BA5400"/>
<path d="M12.9622 7.4611C13.3262 7.12346 13.5025 6.69577 13.4912 6.18929L13.4612 5.03754C13.45 4.58359 13.7426 4.1709 14.1778 4.02834C15.2508 3.68319 16.4625 3.52187 17.9895 3.52187H18.0082C18.2933 3.52187 18.5335 3.30802 18.5447 3.04166C18.556 2.82031 18.4134 2.61772 18.2033 2.54644C17.0553 2.15626 15.8998 1.76984 14.7743 1.39468L14.5342 1.31589C13.8701 1.09455 13.2099 0.873199 12.5458 0.651851C11.4016 0.269182 10.3473 0.389235 9.32689 1.01576C8.25767 1.6723 7.34602 2.35885 6.53566 3.11294C5.74406 3.84826 5.35389 4.78242 5.38015 5.88916C5.39891 6.68076 5.42142 7.48362 5.44018 8.26021L5.44768 8.56784C5.47019 9.44948 5.49645 10.3499 5.51521 11.2428C5.51896 11.4866 5.52646 11.7267 5.52646 11.9668C5.52646 12.0756 5.56398 12.1807 5.62776 12.267C5.7178 12.387 5.86036 12.4583 6.01043 12.4621H6.02543C6.24303 12.4621 6.44562 12.3007 6.51315 12.0756C6.87706 10.8639 7.42105 9.72711 8.16013 8.66539L8.19389 8.61661C8.45275 8.2527 8.92921 8.09889 9.35315 8.24145L9.40943 8.07638V8.26021L10.2648 8.54533C10.7863 8.72166 11.2665 8.66539 11.7355 8.37651C11.9455 8.24895 12.1519 8.11014 12.377 7.94132C12.5871 7.78375 12.7747 7.62993 12.951 7.4611H12.9622Z" fill="#BA5400"/>
<path d="M32.0318 8.42542C32.6958 9.34082 33.2248 10.4476 33.6975 11.9107C33.7726 12.1396 33.9789 12.2896 34.1965 12.2896C34.2378 12.2896 34.279 12.2859 34.3203 12.2746C34.5341 12.2146 34.6842 12.0195 34.6842 11.7982C34.703 10.5639 34.7105 9.32206 34.7217 8.11778L34.7405 5.83302C34.7517 4.62874 34.3128 3.66081 33.3974 2.88422C32.4445 2.07011 31.5103 1.41357 30.5424 0.877086C29.597 0.348103 28.5878 0.269318 27.5448 0.636981C26.7982 0.899596 26.0404 1.16596 25.3088 1.42858L25.0349 1.52612C24.1983 1.8225 23.3429 2.12639 22.4951 2.42277C22.2662 2.50155 22.0374 2.58034 21.8123 2.65912C21.7072 2.69289 21.6209 2.76042 21.5572 2.84671C21.4709 2.97051 21.4484 3.12433 21.4896 3.27439C21.5534 3.48824 21.7598 3.63455 21.9999 3.63455H22.0149C23.2829 3.60454 24.5285 3.77336 25.7553 4.14478L25.8265 4.16729C26.2505 4.2986 26.5431 4.70753 26.5394 5.15397L26.5319 6.1144C26.5281 6.66589 26.7269 7.10483 27.1471 7.46124C27.3347 7.62256 27.526 7.76888 27.7586 7.9377C27.9687 8.08402 28.1788 8.21908 28.3927 8.33538C28.8279 8.57548 29.2893 8.613 29.7658 8.44793L30.8538 8.06151C31.2777 7.91144 31.7654 8.06151 32.0318 8.43292V8.42542Z" fill="#BA5400"/>
<path d="M39.389 20.0868C38.9088 19.4603 38.4211 18.8225 37.9446 18.2035L37.5545 17.697C37.0818 17.0817 36.6015 16.4552 36.1326 15.8362L36.0951 15.7874C35.96 15.6111 35.8287 15.4347 35.6974 15.2584C35.6336 15.1684 35.5436 15.1083 35.4385 15.0783C35.296 15.0333 35.1422 15.0596 35.0108 15.1459C34.827 15.2697 34.752 15.5248 34.8308 15.7536C35.2509 16.9467 35.476 18.1847 35.5023 19.4415V19.5428C35.5098 19.9855 35.2134 20.3907 34.7857 20.5295L33.8703 20.8184C33.3451 20.9834 32.9887 21.3098 32.7786 21.8163C32.6848 22.0414 32.6023 22.2665 32.5122 22.5479C32.4372 22.7955 32.3772 23.0356 32.3284 23.272C32.2346 23.7597 32.3397 24.2099 32.6473 24.6113L33.3489 25.5267C33.6265 25.8869 33.6302 26.3933 33.3601 26.761C32.6961 27.6764 31.8069 28.5205 30.5614 29.4247C30.3325 29.5935 30.265 29.9086 30.4113 30.1262C30.5051 30.2688 30.6627 30.3476 30.8277 30.3476C30.8765 30.3476 30.9253 30.3401 30.9741 30.3251C32.2009 29.9461 33.4314 29.556 34.6207 29.1808L34.6657 29.1658C35.3297 28.9557 35.9975 28.7456 36.6653 28.5355C37.8133 28.1754 38.5974 27.4588 39.0551 26.3483C39.5316 25.189 39.8692 24.1011 40.0831 23.0131C40.2894 21.9514 40.0568 20.9684 39.3853 20.0905L39.389 20.0868Z" fill="#BA5400"/>
<path d="M52.9454 15.9825V1.00393C52.9454 0.449759 53.3952 0 53.9493 0H55.7484C56.3025 0 56.7523 0.449759 56.7523 1.00393V8.15992H56.9531C57.3547 6.0075 58.8565 4.03177 62.1012 4.03177C65.5226 4.03177 67.1931 6.26451 67.1931 9.20401V15.9825C67.1931 16.5367 66.7434 16.9865 66.1892 16.9865H64.3902C63.836 16.9865 63.3862 16.5367 63.3862 15.9825V10.3445C63.3862 8.21614 62.4707 7.45316 60.0934 7.45316C57.5314 7.45316 56.7443 8.48921 56.7443 10.6175V15.9745C56.7443 16.5287 56.2945 16.9784 55.7403 16.9784H53.9413C53.3871 16.9784 52.9374 16.5287 52.9374 15.9745L52.9454 15.9825Z" fill="#BA5400"/>
<path d="M68.5819 12.1922V5.28518C68.5819 4.73101 69.0317 4.28125 69.5858 4.28125H71.3849C71.939 4.28125 72.3888 4.73101 72.3888 5.28518V10.9232C72.3888 12.9793 73.2482 13.8386 75.6576 13.8386C78.067 13.8386 79.0308 12.8749 79.0308 10.7224V5.28518C79.0308 4.73101 79.4806 4.28125 80.0347 4.28125H81.8337C82.3879 4.28125 82.8377 4.73101 82.8377 5.28518V15.983C82.8377 16.5372 82.3879 16.987 81.8337 16.987H80.2837C79.7295 16.987 79.2798 16.5372 79.2798 15.983V13.1078H79.079C78.7497 15.2361 77.2077 17.2359 73.8586 17.2359C70.2846 17.2359 68.5899 15.0353 68.5899 12.1922H68.5819Z" fill="#BA5400"/>
<path d="M84.2679 15.984V5.2861C84.2679 4.73193 84.7176 4.28218 85.2718 4.28218H86.7898C87.3439 4.28218 87.7937 4.73193 87.7937 5.2861V8.13726H87.9945C88.2997 6.00893 89.5686 4.0332 92.7571 4.0332C95.6966 4.0332 97.1904 5.83224 97.4715 8.18545H97.6964C98.0016 6.03303 99.2947 4.0332 102.563 4.0332C105.832 4.0332 107.431 6.18562 107.431 9.07693V15.984C107.431 16.5381 106.981 16.9879 106.427 16.9879H104.628C104.073 16.9879 103.624 16.5381 103.624 15.984V10.3459C103.624 8.24167 102.893 7.45459 100.708 7.45459C98.4032 7.45459 97.7446 8.37017 97.7446 10.5708V15.984C97.7446 16.5381 97.2948 16.9879 96.7407 16.9879H94.9416C94.3875 16.9879 93.9377 16.5381 93.9377 15.984V10.3459C93.9377 8.24167 93.2069 7.45459 91.0223 7.45459C88.7173 7.45459 88.0587 8.37017 88.0587 10.5708V15.984C88.0587 16.5381 87.609 16.9879 87.0548 16.9879H85.2558C84.7016 16.9879 84.2518 16.5381 84.2518 15.984H84.2679Z" fill="#BA5400"/>
<path d="M108.876 13.8393C108.876 11.96 110.274 10.7954 112.98 10.5224L118.426 9.9682V9.48632C118.426 7.83988 117.695 7.38209 115.663 7.38209C113.631 7.38209 112.948 7.88807 112.948 9.33372V9.43813H109.125V9.36585C109.125 6.22556 111.76 4.04102 115.944 4.04102C120.128 4.04102 122.176 6.21753 122.176 9.54254V15.9918C122.176 16.5459 121.727 16.9957 121.172 16.9957H119.622C119.068 16.9957 118.618 16.5459 118.618 15.9918V14.0803H118.418C117.831 16.056 116.064 17.2447 113.245 17.2447C110.426 17.2447 108.86 15.9757 108.86 13.8474L108.876 13.8393ZM114.346 14.5541C114.956 14.5541 115.502 14.522 115.984 14.4417C117.269 14.2409 116.988 12.3134 115.695 12.4579L114.016 12.6507C113.101 12.723 112.699 12.98 112.699 13.5904C112.699 14.273 113.229 14.5541 114.346 14.5541Z" fill="#BA5400"/>
<path d="M123.597 15.984V5.2861C123.597 4.73193 124.047 4.28218 124.601 4.28218H126.119C126.673 4.28218 127.123 4.73193 127.123 5.2861V8.18545H127.347C127.677 6.05712 129.195 4.0332 132.52 4.0332C135.845 4.0332 137.636 6.26594 137.636 9.07693V15.984C137.636 16.5381 137.186 16.9879 136.632 16.9879H134.833C134.279 16.9879 133.829 16.5381 133.829 15.984V10.3459C133.829 8.32198 132.994 7.45459 130.664 7.45459C128.335 7.45459 127.396 8.41836 127.396 10.5708V15.984C127.396 16.5381 126.946 16.9879 126.392 16.9879H124.593C124.039 16.9879 123.589 16.5381 123.589 15.984H123.597Z" fill="#BA5400"/>
<path d="M139.058 2.20115V1.48635C139.058 0.932181 139.507 0.482422 140.062 0.482422H141.861C142.415 0.482422 142.865 0.932181 142.865 1.48635V2.20115C142.865 2.75531 142.415 3.20507 141.861 3.20507H140.062C139.507 3.20507 139.058 2.75531 139.058 2.20115ZM139.058 15.9831V5.28521C139.058 4.73104 139.507 4.28128 140.062 4.28128H141.861C142.415 4.28128 142.865 4.73104 142.865 5.28521V15.9831C142.865 16.5372 142.415 16.987 141.861 16.987H140.062C139.507 16.987 139.058 16.5372 139.058 15.9831Z" fill="#BA5400"/>
<path d="M150.663 16.9858C147.699 16.9858 145.9 15.5883 145.9 12.3999V8.43234C145.9 7.87817 145.451 7.42841 144.896 7.42841C144.342 7.42841 143.892 6.97866 143.892 6.42449V5.28402C143.892 4.72986 144.342 4.2801 144.896 4.2801C145.451 4.2801 145.9 3.83034 145.9 3.27617V2.81838C145.9 2.26421 146.35 1.81445 146.904 1.81445H148.703C149.257 1.81445 149.707 2.26421 149.707 2.81838V3.27617C149.707 3.83034 150.157 4.2801 150.711 4.2801H152.815C153.37 4.2801 153.819 4.72986 153.819 5.28402V6.42449C153.819 6.97866 153.37 7.42841 152.815 7.42841H150.711C150.157 7.42841 149.707 7.87817 149.707 8.43234V11.9662C149.707 13.2351 150.189 13.5644 151.53 13.5644H152.807C153.362 13.5644 153.811 14.0142 153.811 14.5683V15.9899C153.811 16.5441 153.362 16.9938 152.807 16.9938H150.663V16.9858Z" fill="#BA5400"/>
<path d="M156.382 20.2881V18.8424C156.382 18.2883 156.831 17.8385 157.386 17.8385H159.201C159.426 17.8385 159.626 17.8224 159.795 17.7903C160.438 17.6779 160.767 16.955 160.486 16.3688L155.297 5.71106C154.976 5.04445 155.458 4.27344 156.197 4.27344H158.261C158.655 4.27344 159.008 4.49832 159.169 4.8517L161.57 10.032C161.57 10.032 161.594 10.0882 161.602 10.1203L162.654 13.0678H162.911L163.915 10.0882C163.915 10.0882 163.931 10.04 163.939 10.0239L166.076 4.89186C166.228 4.52241 166.598 4.27344 166.999 4.27344H168.999C169.73 4.27344 170.212 5.02839 169.907 5.695L164.277 17.8867C163.064 20.5451 161.361 21.284 158.173 21.284H157.394C156.839 21.284 156.39 20.8342 156.39 20.2801L156.382 20.2881Z" fill="#BA5400"/>
<path d="M52.9462 38.1169V23.1142C52.9462 22.5601 53.3959 22.1103 53.9501 22.1103H55.468C56.0222 22.1103 56.472 22.5601 56.472 23.1142V25.5879H56.729C57.1868 23.1544 58.8091 21.8613 61.7968 21.8613C65.7001 21.8613 67.8766 24.4474 67.8766 28.4792C67.8766 32.511 65.7482 35.065 61.9253 35.065C58.9858 35.065 57.3634 33.6193 56.9297 31.3866H56.7531V38.1169C56.7531 38.6711 56.3033 39.1208 55.7491 39.1208H53.9501C53.3959 39.1208 52.9462 38.6711 52.9462 38.1169ZM60.4475 31.5954C62.881 31.5954 64.0215 30.7842 64.0215 28.4792C64.0215 26.1742 62.881 25.363 60.4716 25.363C58.0622 25.363 56.745 26.1983 56.745 28.4551V28.6559C56.745 30.8324 58.0622 31.5954 60.4475 31.5954Z" fill="#BA5400"/>
<path d="M68.9366 33.8121V23.1142C68.9366 22.5601 69.3864 22.1103 69.9405 22.1103H71.4585C72.0126 22.1103 72.4624 22.5601 72.4624 23.1142V25.4835H72.6873C73.0407 23.4275 74.3819 21.8613 76.9439 21.8613C79.779 21.8613 80.9516 23.813 80.9516 26.2947V27.395C80.9516 27.9491 80.5019 28.3989 79.9477 28.3989H78.1487C77.5945 28.3989 77.1447 27.9491 77.1447 27.395V27.0818C77.1447 25.6843 76.5906 25.0819 75.0405 25.0819C73.3459 25.0819 72.7355 25.869 72.7355 27.4673V33.8121C72.7355 34.3662 72.2857 34.816 71.7315 34.816H69.9325C69.3783 34.816 68.9286 34.3662 68.9286 33.8121H68.9366Z" fill="#BA5400"/>
<path d="M81.329 28.4792C81.329 24.4233 84.2444 21.8613 88.5733 21.8613C92.9022 21.8613 95.8177 24.4233 95.8177 28.4792C95.8177 32.5351 92.9022 35.065 88.5733 35.065C84.2444 35.065 81.329 32.4789 81.329 28.4792ZM92.0509 28.4792C92.0509 26.2465 91.1353 25.2104 88.5814 25.2104C86.0274 25.2104 85.1118 26.2465 85.1118 28.4792C85.1118 30.712 85.9952 31.6998 88.5814 31.6998C91.1675 31.6998 92.0509 30.712 92.0509 28.4792Z" fill="#BA5400"/>
<path d="M102.668 34.8081C99.704 34.8081 97.9049 33.4106 97.9049 30.2221V26.2546C97.9049 25.7004 97.4552 25.2507 96.901 25.2507C96.3469 25.2507 95.8971 24.8009 95.8971 24.2468V23.1063C95.8971 22.5521 96.3469 22.1024 96.901 22.1024C97.4552 22.1024 97.9049 21.6526 97.9049 21.0984V20.6406C97.9049 20.0865 98.3547 19.6367 98.9089 19.6367H100.708C101.262 19.6367 101.712 20.0865 101.712 20.6406V21.0984C101.712 21.6526 102.162 22.1024 102.716 22.1024H104.82C105.374 22.1024 105.824 22.5521 105.824 23.1063V24.2468C105.824 24.8009 105.374 25.2507 104.82 25.2507H102.716C102.162 25.2507 101.712 25.7004 101.712 26.2546V29.7884C101.712 31.0574 102.194 31.3867 103.535 31.3867H104.812C105.366 31.3867 105.816 31.8364 105.816 32.3906V33.8122C105.816 34.3663 105.366 34.8161 104.812 34.8161H102.668V34.8081Z" fill="#BA5400"/>
<path d="M106.241 28.4792C106.241 24.4233 109.156 21.8613 113.485 21.8613C117.814 21.8613 120.73 24.4233 120.73 28.4792C120.73 32.5351 117.814 35.065 113.485 35.065C109.156 35.065 106.241 32.4789 106.241 28.4792ZM116.963 28.4792C116.963 26.2465 116.047 25.2104 113.493 25.2104C110.939 25.2104 110.024 26.2465 110.024 28.4792C110.024 30.712 110.907 31.6998 113.493 31.6998C116.08 31.6998 116.963 30.712 116.963 28.4792Z" fill="#BA5400"/>
<path d="M121.398 28.4792C121.398 24.4233 124.185 21.8613 128.546 21.8613C132.626 21.8613 135.413 24.0378 135.413 27.3388V27.6921H131.638V27.4914C131.638 25.869 130.45 25.2827 128.474 25.2827C126.217 25.2827 125.181 26.118 125.181 28.4792C125.181 30.8405 126.217 31.6436 128.474 31.6436C130.45 31.6436 131.638 31.0573 131.638 29.435V29.2342H135.413V29.5875C135.413 32.8563 132.626 35.065 128.546 35.065C124.185 35.065 121.398 32.4789 121.398 28.4792Z" fill="#BA5400"/>
<path d="M136.07 28.4792C136.07 24.4233 138.986 21.8613 143.315 21.8613C147.643 21.8613 150.559 24.4233 150.559 28.4792C150.559 32.5351 147.643 35.065 143.315 35.065C138.986 35.065 136.07 32.4789 136.07 28.4792ZM146.784 28.4792C146.784 26.2465 145.869 25.2104 143.315 25.2104C140.761 25.2104 139.845 26.2465 139.845 28.4792C139.845 30.712 140.728 31.6998 143.315 31.6998C145.901 31.6998 146.784 30.712 146.784 28.4792Z" fill="#BA5400"/>
<path d="M151.602 33.8126V18.834C151.602 18.2798 152.052 17.8301 152.606 17.8301H154.405C154.96 17.8301 155.409 18.2798 155.409 18.834V33.8126C155.409 34.3668 154.96 34.8165 154.405 34.8165H152.606C152.052 34.8165 151.602 34.3668 151.602 33.8126Z" fill="#BA5400"/>
</svg>
