<svg width="138" height="80" viewBox="0 0 138 80" fill="none" xmlns="http://www.w3.org/2000/svg">
<path fill-rule="evenodd" clip-rule="evenodd" d="M54.3334 43.3992L60.3925 42.8985L57.3354 34.7874L54.3334 43.3992ZM33.1946 41.4516L36.8751 41.1491C37.8617 41.0684 38.6925 40.9143 39.3655 40.6869C40.0385 40.4614 40.5538 40.1276 40.9078 39.6893C41.2635 39.251 41.4396 38.6715 41.4396 37.9526C41.4396 37.3915 41.2965 36.9073 41.0105 36.5021C40.7244 36.0968 40.3283 35.8107 39.8203 35.6402C39.3398 35.4769 38.3954 35.4531 36.9851 35.5705L33.1946 35.8822V41.4516ZM40.5245 7.63539L44.1152 7.3108C44.7955 7.24844 45.2522 6.76614 45.2522 6.11146V4.46649C45.2522 3.93834 44.9001 3.4377 44.1152 3.50922L40.5245 3.83381C39.7396 3.90533 39.3875 4.47016 39.3875 4.99831V6.64327C39.3875 7.29612 39.8441 7.69591 40.5245 7.63539ZM73.919 29.7095C73.9079 29.7003 73.9006 29.6948 73.8969 29.6893C73.9061 29.6966 73.919 29.7095 73.919 29.7095ZM43.4128 10.4449L41.2287 10.6429C40.4438 10.7144 40.0917 11.2811 40.0917 11.8092V28.3543C40.0917 29.0089 40.5483 29.4106 41.2287 29.3482L43.4128 29.1502C44.0913 29.0878 44.5498 28.6055 44.5498 27.9508V11.4058C44.548 10.8776 44.1977 10.3733 43.4128 10.4449ZM101.24 27.2833C101.24 27.2833 101.273 27.2833 101.295 27.2833C101.26 27.2833 101.245 27.2833 101.24 27.2833ZM73.9703 29.7517C74.1684 29.9387 74.3719 30.1844 74.5791 30.4889C74.7864 30.7951 75.0009 31.1124 75.2228 31.4443L83.1212 42.7353V30.6814C83.1212 29.8984 83.2899 29.2969 83.6255 28.8769C83.6347 28.8659 83.6439 28.8567 83.653 28.8457L73.919 29.7058C73.9355 29.7241 73.9538 29.737 73.9703 29.7517ZM107.62 21.7065C108.88 22.673 110.429 23.0838 112.228 22.9206C114.719 22.695 116.606 22.2824 118.007 21.6607C118.491 21.4406 118.77 21.0335 118.77 20.542V19.1281C118.771 18.2039 117.999 17.9875 117.453 18.1727C116.132 18.6092 114.423 18.9191 112.228 19.1171C111.628 19.1722 111.113 19.0089 110.699 18.6257C110.282 18.2424 110.072 17.7583 110.072 17.1824V10.3403C110.072 9.76632 110.284 9.24184 110.699 8.78705C111.115 8.33042 111.63 8.07368 112.228 8.01866C114.421 7.82061 116.178 7.82061 117.445 8.01683C118.069 8.11586 118.77 7.74175 118.77 6.82482V5.40909C118.77 4.94329 118.52 4.59303 118.038 4.42614C116.646 4.05754 114.744 3.98785 112.228 4.21525C110.433 4.37846 108.869 5.08083 107.583 6.30401C106.319 7.50152 105.65 9.03829 105.65 10.7401V17.584C105.648 19.3152 106.312 20.6998 107.62 21.7065ZM49.7066 28.5798L51.854 28.3854C52.5344 28.3231 52.991 27.8408 52.991 27.1861V15.4769C52.991 14.9286 53.2074 14.3986 53.62 13.92C54.0345 13.4652 54.548 13.2085 55.1495 13.1553L58.0359 12.8949C58.6136 12.8417 59.1106 13.0122 59.5269 13.4175C59.945 13.8008 60.154 14.2758 60.154 14.8296V26.5387C60.154 27.1953 60.6125 27.595 61.2929 27.5327L63.477 27.3346C63.5852 27.3255 63.6897 27.2906 63.7887 27.2393C64.4398 26.8927 64.5773 26.4507 64.5773 26.139V14.428C64.5773 13.8778 64.7937 13.3478 65.2063 12.871C65.6208 12.4162 66.1342 12.1595 66.7357 12.1063L69.6222 11.8459C70.2054 11.7927 70.706 11.9633 71.1517 12.3649C71.5698 12.7482 71.7807 13.2231 71.7807 13.777V25.4879C71.7807 26.1426 72.2391 26.5424 72.9177 26.4819L75.0633 26.2875C75.7436 26.2252 76.2003 25.7429 76.2003 25.0882V13.379C76.2003 11.635 75.5346 10.2596 74.2307 9.29319C72.969 8.32125 71.4176 7.91413 69.6222 8.07551L66.7357 8.33592C65.0339 8.48996 63.5687 9.10247 62.3675 10.1569C61.1718 9.31886 59.7176 8.97043 58.0378 9.12264L55.1513 9.38488C53.3725 9.54626 51.8119 10.234 50.5061 11.4388C49.2426 12.6363 48.5733 14.1731 48.5733 15.8786V27.5877C48.5714 28.2424 49.0281 28.6422 49.7066 28.5798ZM100.248 44.2134C100.635 44.1437 101.036 44.019 101.451 43.8375C101.865 43.6559 102.224 43.4194 102.531 43.1259C103.904 41.8514 104.592 39.7957 104.592 36.9569C104.592 34.958 104.289 33.4835 103.686 32.5391C103.081 31.5947 102.336 31.0225 101.452 30.8226C100.567 30.6246 99.4975 30.5769 98.2432 30.6796L95.5309 30.9033V44.6572L98.643 44.4005C99.3252 44.3455 99.8606 44.2831 100.248 44.2134ZM16.0077 30.5347V18.8237C16.0077 17.1201 15.3383 15.7062 14.0748 14.7342C12.8131 13.7623 11.2599 13.3552 9.46635 13.5166C7.21805 13.7201 5.52173 14.0154 4.40125 14.4023C3.60352 14.7067 3.51733 15.3046 3.51733 15.5448V17.0247C3.51733 17.3108 3.59252 17.5474 3.74106 17.7271C3.92995 17.9545 4.21419 18.0627 4.54062 18.0333C4.5938 18.0278 4.72584 18.0058 4.77719 17.9893C5.64643 17.7252 7.22355 17.4905 9.46635 17.287C10.044 17.2338 10.541 17.4043 10.9591 17.8096C11.3754 18.1929 11.5863 18.6678 11.5863 19.2217V20.2009L6.57986 20.6539C4.78086 20.8171 3.21841 21.5177 1.93472 22.739C0.651018 23.9567 0 25.4384 0 27.1439C0 28.8494 0.663855 30.2596 1.97139 31.2664C3.23125 32.2329 4.78269 32.6436 6.57986 32.4804L14.9074 31.7267C15.5547 31.6717 16.0077 31.1784 16.0077 30.5347ZM11.5844 28.2277L6.57803 28.6807C5.97836 28.7357 5.46305 28.5707 5.0486 28.1892C4.63048 27.8059 4.41959 27.3218 4.41959 26.746C4.41959 26.1701 4.63048 25.6787 5.0486 25.2239C5.46121 24.7691 5.97653 24.5123 6.57803 24.4592L11.5844 24.0062V28.2277ZM124.056 45.0827C122.839 45.7355 121.396 46.1316 119.727 46.2692C117.726 46.4342 116.074 46.1922 114.774 45.5448C113.851 45.0772 113.101 44.4133 112.525 43.5532C111.949 42.6932 111.661 41.8349 111.661 40.9767C111.661 40.4797 111.834 40.0377 112.18 39.6545C112.527 39.2712 112.967 39.0566 113.503 39.0126C113.935 38.9778 114.302 39.0841 114.603 39.3372C114.902 39.5884 115.159 39.9772 115.371 40.5035C115.63 41.127 115.909 41.6442 116.208 42.0513C116.507 42.4603 116.928 42.7812 117.473 43.0177C118.018 43.2543 118.731 43.335 119.617 43.2617C120.834 43.1608 121.823 42.7959 122.584 42.1668C123.345 41.5378 123.725 40.7988 123.725 39.9515C123.725 39.2785 123.519 38.7504 123.108 38.3653C122.698 37.9802 122.168 37.7032 121.517 37.5364C120.866 37.3695 119.996 37.2063 118.909 37.0467C117.451 36.8267 116.231 36.5277 115.25 36.1536C114.267 35.7777 113.488 35.2202 112.912 34.4812C112.336 33.7403 112.047 32.7848 112.047 31.6148C112.047 30.4449 112.351 29.4839 112.96 28.567C113.569 27.6501 114.449 26.9129 115.602 26.3517C115.925 26.194 116.266 26.0564 116.62 25.9336L101.326 27.2851C101.885 27.3035 102.402 27.353 102.874 27.4355C103.869 27.6115 104.774 28.0205 105.584 28.6642C107.697 30.2963 108.753 32.9554 108.753 36.6414C108.753 37.8573 108.647 38.9778 108.436 39.9992C108.223 41.0207 107.897 41.9541 107.453 42.7959C107.009 43.6394 106.442 44.406 105.751 45.0992C105.206 45.6328 104.612 46.0729 103.967 46.4214C103.321 46.7698 102.628 47.0339 101.885 47.2154C101.143 47.397 100.306 47.5254 99.3747 47.6024L94.0198 48.0443C93.2734 48.1067 92.7104 48.0388 92.3327 47.8445C91.9549 47.6501 91.7073 47.353 91.5918 46.9514C91.4763 46.5516 91.4194 46.0234 91.4194 45.3687V30.509C91.4194 29.6251 91.6175 28.9668 92.0136 28.5395C92.2061 28.3323 92.4555 28.1672 92.7636 28.0425L86.3396 28.611C86.3543 28.6257 86.369 28.6367 86.3837 28.6513C86.7247 29.0144 86.8953 29.5884 86.8953 30.3715V46.3095C86.8953 48.0884 86.1581 49.0383 84.6818 49.1593C84.3132 49.1905 83.9813 49.1648 83.6861 49.0823C83.3908 48.9998 83.1139 48.8549 82.8553 48.6458C82.5967 48.4368 82.3565 48.1874 82.1365 47.8958C81.9146 47.6061 81.6945 47.309 81.4726 47.0045L73.7667 35.8345V47.7087C73.7667 48.4826 73.587 49.0823 73.2276 49.5096C72.8682 49.935 72.406 50.1716 71.8449 50.2175C71.2635 50.2651 70.7977 50.1038 70.4475 49.7315C70.0972 49.3592 69.9212 48.7907 69.9212 48.026V32.3906C69.9212 31.7267 69.9945 31.2004 70.143 30.8098C70.2696 30.5017 70.4548 30.2285 70.7005 29.9882L59.3178 30.995C59.47 31.1197 59.6039 31.2628 59.7194 31.4205C59.9542 31.7414 60.1522 32.0917 60.3136 32.4713C60.475 32.849 60.6804 33.3552 60.9298 33.9897L66.2278 46.6286C66.6422 47.5895 66.8494 48.2956 66.8494 48.7467C66.8494 49.1978 66.6532 49.6636 66.2608 50.0872C65.8683 50.5109 65.397 50.7456 64.8432 50.7915C64.5205 50.819 64.2435 50.7841 64.0125 50.6869C63.7814 50.5897 63.5889 50.4504 63.4311 50.2651C63.2734 50.0799 63.1066 49.7902 62.9268 49.3941C62.7471 48.9998 62.5931 48.6495 62.4629 48.3469L61.4946 45.8841L53.2496 46.5644L52.2813 49.2437C51.9035 50.289 51.5808 51.0005 51.313 51.3764C51.0453 51.7524 50.607 51.967 49.9982 52.0165C49.481 52.0586 49.0244 51.9083 48.6283 51.5635C48.2322 51.2187 48.0341 50.8061 48.0341 50.3275C48.0341 50.0506 48.08 49.7608 48.1717 49.4582C48.2633 49.1557 48.4156 48.7339 48.6283 48.191L53.8163 34.6022C53.963 34.2116 54.1408 33.744 54.3481 33.1975C54.5553 32.651 54.7772 32.1925 55.0119 31.8221C55.122 31.6479 55.2503 31.4883 55.3934 31.3416L42.0851 32.5189C42.1988 32.552 42.3088 32.5868 42.417 32.6271C43.0534 32.8417 43.6164 33.1773 44.1042 33.6358C44.5938 34.0924 44.9642 34.6407 45.2173 35.2789C45.4704 35.9171 45.5988 36.6048 45.5988 37.342C45.5988 38.8531 45.1715 40.0964 44.3187 41.0702C43.466 42.044 42.1731 42.7904 40.4383 43.3112C41.1663 43.6376 41.8632 44.1529 42.5271 44.8534C43.1909 45.554 43.7832 46.3095 44.3041 47.1182C44.8249 47.9288 45.2302 48.6642 45.5217 49.3262C45.8115 49.9882 45.9582 50.4485 45.9582 50.7071C45.9582 50.9657 45.872 51.2463 45.7033 51.5232C45.5327 51.8001 45.2998 52.0256 45.0046 52.2035C44.7093 52.3796 44.3682 52.4841 43.9813 52.5153C43.5192 52.5538 43.1322 52.4768 42.8186 52.286C42.505 52.0953 42.2355 51.8441 42.0099 51.5305C41.7843 51.2169 41.4781 50.7548 41.0893 50.1404L39.4425 47.54C38.852 46.5846 38.3239 45.8639 37.8581 45.3761C37.3923 44.8883 36.9191 44.5692 36.4405 44.4151C35.96 44.2611 35.3567 44.2134 34.6287 44.2739L33.1891 44.3931V50.9033C33.1891 51.7597 33.0002 52.4071 32.6224 52.8435C32.2446 53.28 31.7513 53.5239 31.1425 53.5734C30.4878 53.6266 29.9798 53.4579 29.6204 53.0636C29.261 52.6693 29.0812 52.0623 29.0812 51.2426V35.6493C29.0812 34.7654 29.2793 34.1071 29.6754 33.6779C29.6974 33.6541 29.7249 33.6321 29.7488 33.6082L21.6285 34.3253C21.8229 34.395 22.0117 34.4757 22.1915 34.571C22.6701 34.8168 23.0955 35.1432 23.4641 35.5503C23.8328 35.9574 24.1133 36.4177 24.3077 36.933C24.5021 37.4465 24.5975 37.9985 24.5975 38.589C24.5975 40.6172 23.5834 42.1833 21.5533 43.291C24.2179 43.9182 25.5511 45.4586 25.5511 47.9105C25.5511 49.0438 25.2613 50.0891 24.68 51.0445C24.0987 52 23.3156 52.7353 22.329 53.2506C21.711 53.5606 21.0013 53.8008 20.1981 53.9732C19.3948 54.1456 18.4596 54.2758 17.3904 54.3638L11.192 54.8754C10.2971 54.9488 9.65891 54.8021 9.27563 54.4316C9.23895 54.3968 9.20411 54.3565 9.1711 54.3161V55.1193C9.1711 55.1193 9.24812 55.2679 9.39666 55.3064C14.4801 56.6378 103.657 80.0011 103.657 80.0011L127.282 42.7959V41.6552C127.154 41.9633 127.004 42.264 126.824 42.5556C126.198 43.5881 125.274 44.4298 124.056 45.0827ZM127.095 29.4784C126.899 29.4784 126.892 29.6178 126.892 29.6178C126.892 29.6343 126.893 29.6526 126.893 29.6691C126.893 30.1569 126.721 30.6117 126.374 31.0317C126.028 31.4516 125.597 31.6827 125.082 31.7267C124.61 31.7652 124.255 31.6772 124.009 31.4626C123.765 31.2481 123.499 30.885 123.213 30.3733C122.844 29.6398 122.401 29.0786 121.885 28.6935C121.368 28.3084 120.539 28.1617 119.395 28.2571C118.335 28.3451 117.478 28.6477 116.829 29.1667C116.18 29.6856 115.854 30.2725 115.854 30.9272C115.854 31.3324 115.964 31.6735 116.186 31.9504C116.407 32.2274 116.712 32.4548 117.099 32.6345C117.486 32.8142 117.878 32.9481 118.274 33.0343C118.67 33.1223 119.325 33.2433 120.238 33.3974C121.383 33.5697 122.417 33.7806 123.345 34.0264C124.271 34.2721 125.06 34.5985 125.711 35.0056C126.362 35.4128 126.868 35.9537 127.233 36.6286C127.253 36.6671 127.271 36.7075 127.29 36.746V29.6178C127.29 29.6178 127.264 29.4784 127.095 29.4784ZM135.199 3.76963C133.937 2.79768 132.386 2.39057 130.591 2.55195C128.342 2.7555 126.648 3.05075 125.527 3.4377C124.728 3.74212 124.641 4.33995 124.641 4.58019V6.06011C124.641 6.34619 124.717 6.58276 124.865 6.76247C125.054 6.98987 125.338 7.09807 125.663 7.06873C125.716 7.06323 125.848 7.04122 125.901 7.02471C126.769 6.76064 128.346 6.52591 130.591 6.32235C131.168 6.26917 131.665 6.43972 132.081 6.845C132.5 7.22827 132.71 7.70324 132.71 8.25706V9.23634L127.704 9.6893C125.905 9.85252 124.343 10.553 123.057 11.7762C121.775 12.9939 121.124 14.4757 121.124 16.1811C121.124 17.8866 121.786 19.2969 123.094 20.3036C124.355 21.2701 125.905 21.6809 127.702 21.5177L136.03 20.7639C136.677 20.7053 137.13 20.212 137.13 19.5664V7.85545C137.132 6.15547 136.463 4.74157 135.199 3.76963ZM132.71 17.2631L127.704 17.7161C127.104 17.7711 126.589 17.606 126.175 17.2246C125.756 16.8413 125.546 16.3572 125.546 15.7814C125.546 15.2055 125.756 14.7141 126.175 14.2593C126.589 13.8045 127.103 13.5477 127.704 13.4945L132.71 13.0416V17.2631ZM127.321 41.58C127.308 41.6075 127.299 41.6332 127.293 41.6479C127.304 41.6222 127.313 41.6002 127.321 41.58ZM21.2012 31.1601L23.3486 30.9657C24.029 30.9033 24.4856 30.421 24.4856 29.7663V18.0553C24.4856 17.507 24.702 16.977 25.1146 16.4984C25.5291 16.0436 26.0425 15.7869 26.6441 15.7337L29.5324 15.4714C30.11 15.4183 30.607 15.5888 31.0233 15.9941C31.4414 16.3774 31.6523 16.8523 31.6523 17.4062V29.1171C31.6523 29.7718 32.1089 30.1734 32.7893 30.1111L34.9752 29.913C35.6226 29.8544 36.0756 29.361 36.0756 28.7174V17.0064C36.0756 15.2624 35.408 13.887 34.106 12.9206C32.8443 11.9486 31.3075 11.5397 29.5342 11.701L26.6459 11.9614C24.867 12.1228 23.3064 12.8105 22.0007 14.0154C20.7354 15.2129 20.0679 16.7496 20.0679 18.4551V30.1661C20.0642 30.8226 20.5208 31.2224 21.2012 31.1601ZM93.0039 27.9581C92.9213 27.9838 92.8425 28.0113 92.7673 28.0425L93.0039 28.0223V27.9581ZM12.8168 42.8014L16.5799 42.4914C17.6032 42.4071 18.3935 42.2457 18.9529 42.0055C19.5104 41.7652 19.9377 41.3618 20.2329 40.7933C20.464 40.388 20.5795 39.9442 20.5795 39.4656C20.5795 38.4423 20.2146 37.7931 19.4865 37.5162C18.7585 37.2393 17.6472 37.1641 16.1526 37.287L12.8186 37.562V42.8014H12.8168ZM20.3154 45.8199C19.5966 45.4183 18.5219 45.2771 17.0915 45.3944L12.8168 45.7465V51.6625L17.229 51.2994C20.0055 51.0702 21.3937 49.9552 21.3937 47.9563C21.3937 46.933 21.0343 46.2215 20.3154 45.8199ZM21.634 34.3326C21.6248 34.329 21.6211 34.3271 21.6138 34.3253C21.6248 34.329 21.634 34.3326 21.634 34.3326Z" fill="#12ACEC"/>
<path d="M99.4461 9.03418C99.4718 8.58122 99.4369 8.18144 99.3544 7.8275C99.3306 7.72481 99.3031 7.62578 99.2719 7.53042C99.2206 7.37638 99.1582 7.2315 99.0903 7.09763L97.7957 7.48091C97.7957 7.48091 97.5591 8.33731 98.2724 8.68208C98.2724 8.68208 97.372 8.59222 97.6379 7.36354L99.0317 6.9821C98.8703 6.69418 98.6704 6.45028 98.4522 6.24672C98.3311 6.13302 98.2028 6.03216 98.0726 5.9423L96.8549 7.21316C95.507 7.30852 95.5693 6.20088 95.5693 6.20088C95.8701 7.12514 96.7375 7.02428 96.7375 7.02428L97.9222 5.84327C96.9594 5.23994 95.8994 5.17758 95.9123 5.17575C96.3322 5.1189 96.8659 5.14274 97.1281 5.15925C97.2162 5.16475 97.3005 5.1079 97.3225 5.03088C97.5866 4.0406 98.1037 3.33456 98.4375 2.95862C98.5402 2.84309 98.4338 2.68721 98.2743 2.72389C97.3427 2.94395 96.3561 3.53995 95.8243 3.89572C95.6849 3.98925 95.507 3.87738 95.5675 3.73434C95.7876 3.21353 96.213 2.40847 96.4478 1.96834C96.5138 1.84547 96.3891 1.72261 96.2442 1.77029C94.436 2.37546 92.8222 3.58763 91.81 4.47339C91.6504 4.61276 91.423 4.43487 91.5642 4.28083C91.5715 4.2735 91.5789 4.26616 91.5862 4.25882C91.6908 4.14696 91.5936 3.99108 91.4377 4.01859C89.9211 4.28817 85.0632 5.40315 82.1639 8.97366C82.052 9.1112 82.2152 9.27075 82.3784 9.18455C83.1578 8.77561 84.5222 8.10441 85.7582 7.74315C85.96 7.68446 86.0608 7.92653 85.8738 8.01822C84.1463 8.86363 81.0526 10.7158 80.2438 13.4208C79.3471 16.4191 79.8459 19.3404 82.3124 21.2495C85.0302 23.3529 88.4998 23.7233 91.0471 24.7723C91.1754 24.8255 91.3295 24.7155 91.2983 24.5908C91.1626 24.0241 90.7206 22.7587 89.3361 21.3173C89.2499 21.2275 89.3214 21.0789 89.4608 21.0643C89.9523 21.0056 91.0581 21.3687 92.4738 24.8787C92.5123 24.9722 92.6462 24.9997 92.7397 24.9319C93.8309 24.1305 99.0647 19.9144 94.1444 15.9441C93.5319 15.4508 90.8857 14.2955 91.0232 11.7556C91.0324 11.5979 91.2726 11.5374 91.3497 11.6731C91.6889 12.2764 92.483 13.2612 94.2563 14.0681C95.2943 14.5412 95.8114 14.9575 96.4368 16.4209C96.9484 17.6184 101.115 17.6404 100.966 15.416C100.834 13.4409 99.3177 11.2495 99.4461 9.03418Z" fill="#12ACEC"/>
<path d="M96.9838 10.0418C96.8279 10.8176 96.1017 11.3274 95.3645 11.1788C94.6255 11.0303 94.1542 10.2802 94.3101 9.50452C94.4659 8.7288 95.1921 8.21899 95.9293 8.36753C96.6666 8.51607 97.1397 9.26611 96.9838 10.0418Z" fill="white"/>
<path d="M107.243 5.04418C107.21 4.96899 107.102 4.92131 106.966 4.97816L103.313 5.96294H103.311L101.556 6.43607L101.288 6.50942L101.11 6.5571L100.929 6.60662L100.933 6.60295L99.0456 7.10543L98.9722 7.1256L98.7613 7.18978L98.3615 7.31082L98.1378 7.37684L97.7931 7.47953C98.5889 7.74727 98.8218 8.60002 98.6091 8.78157H98.8769L99.2381 8.55417L99.3188 8.50282L99.394 8.45514C99.3922 8.54683 99.3757 8.62752 99.3463 8.68988L99.4637 8.70638L107.118 5.2404C107.226 5.18905 107.274 5.1157 107.243 5.04418Z" fill="#12ACEC"/>
<path d="M97.6211 7.43468C97.6266 7.41084 97.6303 7.387 97.6358 7.36133L97.5129 7.41451C97.5496 7.42001 97.5863 7.42551 97.6211 7.43468Z" fill="#12ACEC"/>
<path d="M98.0682 7.24224H98.07L98.8274 7.03501L98.9008 7.01484L98.9723 6.99467L101.21 6.38216L101.217 6.37666L102.704 5.19383L106.04 2.53841C106.141 2.45955 106.174 2.36419 106.13 2.28717C106.082 2.20831 105.948 2.1643 105.785 2.23399L100.856 4.34842L98.7192 5.26535H98.7137L98.026 5.98422L97.9765 6.0374L97.9233 6.09241L97.2796 6.7636L96.9257 7.13404C96.9569 7.26791 96.9477 7.37794 96.8927 7.43846L97.1586 7.40729L98.3323 6.43534C98.4808 6.58205 98.6129 6.73976 98.7284 6.89564L97.6409 7.35961L98.0682 7.24224Z" fill="#12ACEC"/>
<path d="M105.723 3.90378L103.218 4.97475H103.216L101.576 6.28229L101.813 6.21811L103.724 5.70279H103.726L105.989 4.26322C106.313 4.05783 106.036 3.71673 105.723 3.90378Z" fill="#12ACEC"/>
<path d="M103.04 0C102.968 0 102.888 0.0311755 102.813 0.10453L96.3464 5.00092L95.6331 5.14029L95.9631 5.29067L95.6936 5.49606C95.7633 5.48872 95.8293 5.48505 95.8953 5.48505C96.1667 5.48505 96.4179 5.54557 96.6307 5.63726L96.5518 5.68311L96.4693 5.73079L95.6331 6.22043C96.2547 6.2241 96.6619 6.58353 96.8397 6.91913L96.9259 6.83477L97.3239 6.43866L97.333 6.42949L98.8551 4.91289L100.087 3.61819L103.159 0.390611C103.346 0.190721 103.222 0 103.04 0Z" fill="#12ACEC"/>
<path d="M98.9778 4.99352L101.261 4.01424L103.65 2.03735C103.946 1.79345 103.628 1.48903 103.342 1.71276L100.544 3.34855L98.9778 4.99352Z" fill="#12ACEC"/>
</svg>
