<svg width="170" height="32" viewBox="0 0 170 32" fill="none" xmlns="http://www.w3.org/2000/svg">
<g clip-path="url(#clip0_5845_136931)">
<path d="M16.1827 0C11.5851 0 0.261719 11.3792 0.261719 15.9999C0.261719 20.6206 11.5851 32 16.1827 32C20.7804 32 32.1039 20.6204 32.1039 15.9999C32.1039 11.3794 20.7805 0 16.1827 0ZM13.7017 25.1492C11.7629 24.6183 6.55036 15.455 7.07876 13.5066C7.60716 11.5581 16.7251 6.31979 18.6638 6.8508C20.6027 7.38173 25.8153 16.5449 25.2869 18.4934C24.7585 20.4418 15.6405 25.6802 13.7017 25.1492Z" fill="#836EF9"/>
<path d="M54.3591 19.5466V19.5408L45.3127 2.77274C45.1347 2.44268 44.6425 2.52173 44.5757 2.89112L40.0705 27.7945C40.0263 28.0385 40.2129 28.2632 40.4597 28.2632H43.9454C44.1366 28.2632 44.3005 28.1257 44.3346 27.9366L46.9583 13.4059L54.0103 26.9168C54.1585 27.2007 54.5628 27.2007 54.711 26.9168L61.763 13.4059L64.3867 27.9366C64.4208 28.1257 64.5847 28.2632 64.7759 28.2632H68.2616C68.5085 28.2632 68.695 28.0385 68.6509 27.7945L64.1456 2.89112C64.0788 2.52173 63.5867 2.44268 63.4086 2.77274L54.3591 19.5466Z" fill="black"/>
<path d="M83.307 3.24219C76.1312 3.24219 70.51 8.84611 70.51 16.0015C70.51 23.1569 76.1312 28.7639 83.307 28.7639C90.4643 28.7639 96.0715 23.1584 96.0715 16.0015C96.0715 8.84455 90.4643 3.24219 83.307 3.24219ZM83.307 24.4916C78.6276 24.4916 74.9613 20.7619 74.9613 16.0015C74.9613 11.2411 78.6276 7.51451 83.307 7.51451C87.9679 7.51451 91.6202 11.2427 91.6202 16.0015C91.6202 20.7603 87.9678 24.4916 83.307 24.4916Z" fill="black"/>
<path d="M115.796 18.927L100.79 2.69613C100.546 2.43144 100.105 2.60545 100.105 2.96675V27.8646C100.105 28.0842 100.282 28.2622 100.501 28.2622H104.128C104.347 28.2622 104.524 28.0842 104.524 27.8646V13.0456L119.496 29.3071C119.74 29.5726 120.182 29.3988 120.182 29.0371V4.13916C120.182 3.91958 120.005 3.74157 119.786 3.74157H116.191C115.973 3.74157 115.796 3.91958 115.796 4.13916V18.927Z" fill="black"/>
<path d="M124.029 28.2638H127.924C128.078 28.2638 128.219 28.1736 128.283 28.0329L131.201 21.6822H140.532L143.384 28.0298C143.448 28.1722 143.589 28.2638 143.745 28.2638H147.971C148.263 28.2638 148.454 27.9572 148.327 27.6932L136.356 2.79687C136.212 2.4974 135.788 2.4974 135.644 2.79687L123.673 27.6932C123.546 27.9572 123.737 28.2638 124.029 28.2638ZM133.03 17.742L135.93 11.4177L138.776 17.742H133.03Z" fill="black"/>
<path d="M157.781 3.74219H151.795C151.577 3.74219 151.4 3.92019 151.4 4.13977V27.8652C151.4 28.0848 151.577 28.2628 151.795 28.2628H157.781C165.202 28.2628 169.813 23.5648 169.813 16.0009C169.813 8.43708 165.202 3.74219 157.781 3.74219ZM157.781 24.056H155.851V7.91628H157.781C162.599 7.91628 165.362 10.8632 165.362 16.0009C165.362 21.1199 162.599 24.056 157.781 24.056Z" fill="black"/>
</g>
<defs>
<clipPath id="clip0_5845_136931">
<rect width="170" height="32" fill="white"/>
</clipPath>
</defs>
</svg>
