<svg width="170" height="24" viewBox="0 0 170 24" fill="none" xmlns="http://www.w3.org/2000/svg">
<g clip-path="url(#clip0_5844_136899)">
<path d="M2.38979 14.4585C1.61077 13.6584 0.841731 12.8476 0.0356445 12.073L0.0728415 11.8851L9.51136 2.45793C13.2946 -0.744978 18.3289 -0.68798 22.0812 2.4983C23.9352 4.07247 25.5898 5.97834 27.3018 7.71594C28.7182 9.15359 30.2184 10.5453 31.5581 12.0364C31.5581 12.2467 29.4987 14.0982 29.1907 14.4081C29.1555 14.4436 29.1781 14.5235 29.1686 14.5331C28.1847 15.5224 27.1579 16.4746 26.1829 17.475C25.9982 17.6644 24.992 18.8816 24.8151 18.8503L15.7791 9.8356L6.81427 18.8473C6.60349 18.9044 6.54845 18.6452 6.41977 18.5182C5.06238 17.1783 3.71951 15.8247 2.38949 14.4588L2.38979 14.4585Z" fill="#3876EA"/>
<path d="M96.7497 8.64514C96.9293 8.68445 96.8705 8.61476 96.9162 8.54778C97.5865 7.56597 98.3147 6.89258 99.4371 6.44869C102.295 5.31826 105.652 6.30778 107.082 9.09175L107.826 8.0481C110.164 5.52387 114.865 5.20986 117.301 7.74996C118.928 9.44689 119.1 11.8116 119.205 14.0451C118.977 17.0013 119.498 20.3891 119.207 23.2937C119.196 23.4041 119.149 23.6992 119.016 23.6992H115.51C115.263 23.6992 115.404 23.2074 115.402 23.0692C115.371 20.0083 115.581 16.6908 115.401 13.6726C115.223 10.6901 113.685 8.64484 110.459 9.56059C108.782 10.0365 108.347 11.3578 108.009 12.9263L107.975 23.5489C107.958 23.5842 107.84 23.6991 107.827 23.6991H104.321C104.313 23.6991 104.209 23.5952 104.209 23.5873V13.0048C104.209 12.479 103.682 11.0144 103.353 10.5811C102.02 8.82627 98.9251 9.01419 97.614 10.7383C97.228 11.246 96.7497 12.531 96.7497 13.1539V23.6245H93.0947V6.33484H96.6378C96.6457 6.33484 96.7497 6.43871 96.7497 6.44657V8.64499V8.64514Z" fill="#3876EA"/>
<path d="M166.27 20.9416C166.142 20.7744 166.072 21.2153 166.037 21.267C164.406 23.7127 160.75 24.3687 158.049 23.6774C148.763 21.2989 150.185 5.16789 161.16 6.03783C163.3 6.20746 164.829 7.23433 166.1 8.84886C166.147 8.90949 166.097 8.98508 166.27 8.9432V6.44664C166.27 6.43878 166.374 6.33491 166.382 6.33491H170V23.6246H166.382C166.374 23.6246 166.27 23.5207 166.27 23.5129C166.27 23.1721 166.349 21.0438 166.27 20.9418V20.9416ZM160.886 9.33311C154.039 9.51167 153.773 19.7188 160.2 20.5602C168.121 21.5973 168.522 9.134 160.886 9.33311Z" fill="#3876EA"/>
<path d="M72.8055 21.1286C72.8067 21.1042 72.8986 21.0466 72.8817 20.981C72.6583 20.8424 72.6019 21.2392 72.507 21.352C68.082 26.6099 59.7389 23.4681 58.5756 16.9378C57.503 10.9157 61.4136 5.53174 67.7731 6.03459C69.6445 6.1826 71.7975 7.40692 72.7692 9.01768C73.0165 9.04444 72.8055 8.80314 72.8055 8.75748V6.44718C72.8055 6.43932 72.9095 6.33545 72.9173 6.33545H76.4232C76.4311 6.33545 76.5351 6.43932 76.5351 6.44718V23.5134C76.5351 23.5213 76.4311 23.6251 76.4232 23.6251H72.9173C72.9095 23.6251 72.8055 23.5213 72.8055 23.5134C72.8055 22.7309 72.7686 21.9043 72.8055 21.1286ZM63.7317 10.7589C61.0347 13.3865 61.6684 18.9072 65.4025 20.2526C70.3718 22.0433 74.4542 17.2495 72.4692 12.5216C71.0849 9.2245 66.3029 8.25357 63.7315 10.7589H63.7317Z" fill="#3876EA"/>
<path d="M41.2901 0L48.5249 18.7065L55.5 0H59.528C59.5321 0.152246 59.5379 0.306155 59.4962 0.455226C59.4564 0.597645 59.3308 0.595831 59.3241 0.610194C59.255 0.761533 59.1017 1.50583 58.9883 1.80836C57.5843 5.5498 56.0572 9.21369 54.5675 12.9672C54.2114 13.8645 53.9632 14.8388 53.5076 15.706C53.4587 15.7993 53.3339 15.7994 53.335 15.8421C53.3368 15.9075 53.4116 15.9896 53.413 16.0545C53.4136 16.0852 53.1396 16.2855 53.0704 16.5433C52.9257 17.0818 52.7441 17.4743 52.5234 18.0201C52.4032 18.3173 52.2443 19.0731 52.1661 19.2075C51.9306 19.6124 51.9455 19.7527 51.7632 20.2117C51.527 20.8063 51.2713 21.3943 51.0629 21.9851C50.8837 22.4934 50.6196 22.8103 50.5738 23.2805C50.5718 23.3014 50.3222 23.3928 50.4268 23.6237L46.4653 23.5817C46.4107 23.4527 46.4259 23.2846 46.377 23.1621C43.3641 15.6045 40.4412 7.89533 37.424 0.281965C37.3448 0.201987 37.4016 0.000151188 37.4854 0.000151188H41.2896L41.2901 0Z" fill="#3876EA"/>
<path d="M125.393 16.3952C125.679 18.8713 127.683 20.4463 130.064 20.7834C132.186 21.0838 134.35 20.5302 135.938 19.0831C136.19 19.4227 137.524 20.5875 137.599 20.8649C137.633 20.9922 137.205 21.4627 137.078 21.5856C134.761 23.8309 130.951 24.4381 127.915 23.5275C119.531 21.0138 119.904 8.2138 128.404 6.24957C134.791 4.77383 139.478 9.60836 138.898 15.9143C138.888 16.0225 138.828 16.3952 138.708 16.3952H125.393ZM135.538 13.6378C135.385 9.88745 131.229 8.17812 128.052 9.69847C126.564 10.4106 125.497 12.0057 125.319 13.6378H135.538Z" fill="#3876EA"/>
<path d="M29.1687 14.5317L31.56 16.8759L31.6223 17.0878L24.8152 23.9909L15.8437 14.9097L6.68699 23.9186L0 17.2372L0.0724283 16.8736C0.832396 16.2259 1.52931 15.4904 2.20475 14.7564C2.28943 14.6644 2.3915 14.6032 2.38983 14.4572C3.71985 15.8231 5.06272 17.1767 6.42011 18.5165C6.54879 18.6435 6.60383 18.903 6.81461 18.8457L15.7794 9.83398L24.8154 18.8487C24.9923 18.88 25.9986 17.6628 26.1832 17.4734C27.1582 16.4731 28.185 15.5208 29.169 14.5315L29.1687 14.5317Z" fill="#1C1C1C"/>
<path d="M146.503 9.31563V19.1902C146.503 19.3475 146.759 19.8013 146.876 19.9352C147.357 20.4818 148.168 20.5678 148.857 20.4985C149.163 20.4677 149.656 20.1946 149.826 20.1956C149.897 20.1959 150.009 20.2683 150.009 20.3082V23.0655C150.009 23.2824 148.592 23.7427 148.331 23.774C145.631 24.0974 142.773 22.9874 142.773 19.861V9.31578H140.498C140.49 9.31578 140.386 9.21191 140.386 9.20405V6.33481H142.773V1.97501C142.773 1.96715 142.877 1.86328 142.885 1.86328H146.317C146.33 1.86328 146.503 2.03639 146.503 2.04954V6.22293C146.503 6.23079 146.607 6.33466 146.615 6.33466H149.897C149.905 6.33466 150.009 6.43853 150.009 6.44639V9.20375C150.009 9.21161 149.905 9.31548 149.897 9.31548H146.503L146.503 9.31563Z" fill="#3876EA"/>
<path d="M90.3348 9.61404C88.7879 9.44758 87.1401 9.65954 85.8946 10.6554C84.4043 11.8469 83.8778 13.6198 83.7713 15.4649C83.6174 18.1336 83.8847 20.9419 83.7706 23.6246H80.2275C80.2196 23.6246 80.1156 23.5207 80.1156 23.5129V6.37212C80.1156 6.36426 80.2196 6.26039 80.2275 6.26039H83.2113C83.2284 6.26039 83.2854 6.31588 83.3581 6.32238C83.4301 6.32873 83.8454 6.20279 83.8454 6.4468V10.2103L84.1292 9.41326C85.0186 7.64451 86.4323 6.21216 88.5087 6.03814C88.7589 6.01713 90.3351 5.96603 90.3351 6.22335V9.61419L90.3348 9.61404Z" fill="#3876EA"/>
<path d="M15.7201 19.016C15.8064 18.9915 15.8886 18.9856 15.9659 19.0408L18.208 21.4257L15.779 23.9262L13.3491 21.4997L13.4258 21.2736C13.8818 20.9871 15.3804 19.1124 15.7201 19.016Z" fill="#3876EA"/>
</g>
<defs>
<clipPath id="clip0_5844_136899">
<rect width="170" height="24" fill="white"/>
</clipPath>
</defs>
</svg>
