<svg width="170" height="30" viewBox="0 0 170 30" fill="none" xmlns="http://www.w3.org/2000/svg">
<g clip-path="url(#clip0_1928_185782)">
<path d="M14.642 29.7251C6.85349 29.691 -0.0216956 23.4651 5.14524e-05 14.8253C0.0217985 6.21966 6.88455 -0.00310556 14.7166 1.16276e-06C22.8252 0.00621461 29.4332 6.76023 29.4238 15.0397C29.4145 23.1109 22.7568 29.7283 14.642 29.7251ZM20.8586 18.2893C19.9514 18.2893 19.1033 18.2893 18.2552 18.2893C15.282 18.2893 12.3058 18.2831 9.33265 18.2893C8.36957 18.2893 8.08686 18.5813 8.06822 19.5351C8.0589 20.0757 8.0589 20.6193 8.06822 21.1599C8.08996 22.3249 8.3385 22.5766 9.48488 22.5766C13.0794 22.5766 16.6738 22.5766 20.2714 22.5766C20.4609 22.5766 20.6753 22.6418 20.8772 22.4647C20.2 21.0947 20.3367 19.7184 20.8617 18.2862L20.8586 18.2893ZM5.7972 17.028C9.78623 17.028 13.7069 17.0342 17.6276 17.0217C18.2055 17.0217 18.5286 16.68 18.5379 16.0897C18.5472 15.4466 18.541 14.8035 18.541 14.1573C18.541 12.9861 18.3173 12.7469 17.1585 12.7469C13.623 12.7438 10.0876 12.7469 6.55213 12.7469C6.42165 12.7469 6.29428 12.7469 6.16379 12.7469C5.90283 12.7531 5.78477 12.837 5.89661 13.129C6.38437 14.409 6.28806 15.689 5.7972 17.0217V17.028ZM20.9021 7.2511C16.8602 7.2511 12.9365 7.2511 9.01577 7.2511C8.43792 7.2511 8.13967 7.59594 8.1086 8.10545C8.0589 8.92562 8.05579 9.75201 8.09928 10.5722C8.13035 11.1656 8.48762 11.4794 9.1245 11.4794C12.8681 11.47 16.6117 11.47 20.3553 11.4825C20.7499 11.4825 20.8648 11.3924 20.7157 11.0102C20.2373 9.77376 20.3242 8.54971 20.9021 7.24799V7.2511Z" fill="#6CE8C0"/>
<path d="M46.5823 22.2232C42.5063 22.1331 39.791 19.6135 39.4058 15.5002C39.1603 12.872 39.7164 10.4798 41.7327 8.59399C45.5012 5.07097 52.1123 6.89772 53.4979 11.8623C54.0353 13.7853 54.0695 15.7395 53.3798 17.6346C52.28 20.6636 49.8164 22.2946 46.5823 22.2232ZM49.7636 14.5092C49.7915 13.6611 49.6859 12.8782 49.3504 12.1357C48.8906 11.1167 48.1263 10.4922 46.9986 10.3773C45.7683 10.253 44.7587 10.6631 44.0596 11.71C43.0624 13.2013 43.0717 15.8047 44.0783 17.3021C44.7338 18.2777 45.6534 18.7809 46.8402 18.6846C48.0953 18.5852 48.9465 17.9017 49.4032 16.7429C49.689 16.016 49.8071 15.2548 49.7667 14.5092H49.7636Z" fill="#181DE1"/>
<path d="M122.535 12.4297C124.744 10.8577 126.447 10.9447 128.087 12.7124C128.789 11.7742 129.802 11.4355 130.905 11.3361C133.31 11.1218 134.9 12.5074 135.071 15.058C135.214 17.1954 135.056 19.3359 134.978 21.4734C134.965 21.8027 134.838 21.9518 134.524 21.958C133.673 21.9736 132.819 21.9767 131.967 21.9984C131.514 22.0077 131.57 21.6939 131.576 21.4174C131.601 19.8703 131.638 18.3231 131.648 16.7791C131.651 16.3193 131.62 15.8502 131.542 15.3966C131.446 14.8436 131.129 14.4615 130.52 14.4025C129.92 14.3434 129.463 14.5516 129.159 15.0797C128.92 15.4991 128.886 15.9527 128.876 16.4218C128.842 18.0467 128.783 19.6684 128.768 21.2932C128.764 21.725 128.628 21.8866 128.193 21.8679C127.444 21.84 126.692 21.8244 125.947 21.8524C125.487 21.8679 125.375 21.6691 125.384 21.259C125.419 19.8144 125.437 18.3729 125.45 16.9282C125.453 16.4902 125.443 16.0521 125.384 15.6172C125.297 14.9492 125.008 14.4397 124.232 14.3931C123.495 14.3496 122.874 14.7846 122.694 15.5271C122.616 15.8502 122.598 16.1888 122.595 16.5212C122.57 18.1181 122.542 19.7181 122.548 21.3149C122.548 21.7996 122.424 22.0233 121.899 21.9891C121.256 21.9456 120.606 21.9487 119.963 21.9549C119.441 21.9611 119.18 21.8089 119.183 21.2062C119.196 18.1647 119.171 15.1232 119.14 12.0817C119.137 11.6282 119.27 11.4076 119.749 11.4262C120.367 11.448 120.988 11.4573 121.607 11.4511C122.259 11.4449 122.731 11.5971 122.535 12.4328V12.4297Z" fill="#181DE1"/>
<path d="M140.604 12.2468C141.316 11.7901 142.067 11.4887 142.894 11.3707C145.084 11.06 147.082 12.1753 147.809 14.2506C148.486 16.1768 148.47 18.1123 147.333 19.8893C146.206 21.6508 143.605 22.7164 140.7 21.2283C140.7 22.5984 140.707 23.9187 140.7 25.2391C140.694 26.3233 140.685 26.3233 139.61 26.4228C137.013 26.6589 136.988 26.6589 137.028 24.13C137.09 20.085 137.069 16.0401 137.233 11.9982C137.258 11.3676 137.473 11.2122 138.047 11.2744C138.56 11.3272 139.079 11.3054 139.594 11.3241C140.191 11.3448 140.529 11.6555 140.607 12.2561L140.604 12.2468ZM144.584 16.7608C144.593 15.4591 143.854 14.6234 142.676 14.6079C141.455 14.5892 140.648 15.3846 140.623 16.6366C140.598 17.8699 141.477 18.8641 142.605 18.8734C143.767 18.8796 144.578 18.0191 144.587 16.7639L144.584 16.7608Z" fill="#181DE1"/>
<path d="M59.1209 21.3651C59.1209 22.7352 59.1023 24.1208 59.1302 25.5064C59.1427 26.1029 58.9594 26.339 58.3225 26.4042C55.4736 26.6931 55.4612 26.7149 55.4892 23.9251C55.5295 20.0572 55.5948 16.1893 55.6569 12.3214C55.6725 11.2527 55.6849 11.2527 56.7847 11.2807C57.173 11.29 57.5613 11.2962 57.9466 11.3086C58.5845 11.3294 58.9449 11.6442 59.0277 12.2531C59.7392 11.7995 60.4879 11.4919 61.3205 11.3739C63.5511 11.0508 65.4959 12.191 66.2819 14.3066C67.3444 17.1679 66.3596 20.2684 63.9954 21.4304C62.6781 22.0797 61.3174 22.1076 59.9442 21.5826C59.7112 21.4925 59.5093 21.2937 59.124 21.362L59.1209 21.3651ZM59.0681 16.6926C59.0712 17.9322 59.9535 18.8859 61.0813 18.8735C62.2276 18.858 63.0385 17.9819 63.0478 16.7485C63.0571 15.4654 62.237 14.5862 61.0409 14.6049C59.8417 14.6235 59.0619 15.4499 59.065 16.6957L59.0681 16.6926Z" fill="#181DE1"/>
<path d="M102.488 6.88086C103.945 6.92125 105.365 7.12008 106.682 7.80977C107.191 8.07695 107.421 8.38141 107.17 8.96547C106.887 9.6272 106.638 10.3014 106.293 10.9382C106.051 11.3856 105.831 11.5037 105.337 11.2303C104.544 10.7922 103.678 10.5406 102.755 10.4971C100.757 10.4008 99.061 11.7771 98.8032 13.7591C98.7069 14.5017 98.7255 15.2411 98.9306 15.9805C99.4898 17.9936 101.351 19.0685 103.376 18.5031C103.821 18.3788 104.252 18.1956 104.662 17.9812C105.8 17.3816 105.796 17.3692 106.489 18.5031C106.623 18.7237 106.75 18.9474 106.874 19.1711C107.521 20.3174 107.549 20.4044 106.424 21.0196C103.479 22.632 100.481 22.896 97.5698 20.9636C95.7399 19.7489 95.0285 17.8352 94.78 15.7537C94.5967 14.2345 94.6619 12.7184 95.2708 11.2707C96.4265 8.52121 99.1884 6.83737 102.485 6.88397L102.488 6.88086Z" fill="#181DE1"/>
<path d="M156.523 20.8768C155.706 21.5758 154.88 22.0232 153.904 22.1226C151.5 22.368 149.931 21.0601 149.738 18.5343C149.567 16.3192 149.837 14.1073 149.934 11.8922C149.949 11.51 150.142 11.423 150.471 11.4199C151.22 11.4137 151.969 11.4044 152.717 11.3671C153.214 11.3423 153.323 11.5628 153.298 12.0164C153.239 13.1224 153.218 14.2315 153.186 15.3406C153.168 15.9837 153.118 16.6299 153.143 17.273C153.186 18.4753 153.736 19.0935 154.699 19.0842C155.69 19.0749 156.349 18.3945 156.396 17.2637C156.458 15.7445 156.483 14.2222 156.52 12.703C156.541 11.8642 156.973 11.4458 157.815 11.4479C159.189 11.4541 159.864 12.1511 159.841 13.5387C159.807 16.0893 159.77 18.6431 159.767 21.1937C159.767 21.7281 159.571 21.9486 159.061 21.9486C158.518 21.9486 157.977 21.9486 157.433 21.9424C156.79 21.9331 156.259 21.8119 156.526 20.8799L156.523 20.8768Z" fill="#181DE1"/>
<path d="M82.1418 12.477C82.9526 11.7935 83.7479 11.3928 84.6675 11.3058C87.1684 11.0666 88.8865 12.592 89.0014 15.2171C89.0915 17.2769 89.0138 19.3429 88.8927 21.4026C88.8709 21.7506 88.7653 21.9339 88.4111 21.9463C88.3583 21.9463 88.3086 21.9556 88.2558 21.9587C86.4042 22.1514 85.4981 21.3219 85.5374 19.4703C85.5591 18.414 85.5964 17.3546 85.5747 16.2983C85.5467 14.9904 84.9751 14.3007 84.0027 14.3162C82.9309 14.3317 82.2225 15.155 82.2132 16.4101C82.2008 18.0101 82.1759 19.607 82.1946 21.2069C82.2008 21.7071 82.0486 21.9028 81.539 21.8593C80.6754 21.7879 79.5787 22.1886 79.004 21.6356C78.4945 21.1417 78.8113 20.0636 78.802 19.2435C78.7803 16.9227 78.8082 14.602 78.7772 12.2813C78.771 11.75 78.9698 11.5233 79.4638 11.4891C80.0323 11.4518 80.5977 11.4114 81.1662 11.3959C81.8031 11.3803 82.5612 11.2685 82.1355 12.4708L82.1418 12.477Z" fill="#181DE1"/>
<path d="M113.796 16.064C113.796 14.5293 112.706 13.8023 111.274 14.3181C111.131 14.3709 111.003 14.4796 110.857 14.52C110.466 14.6287 110.261 15.219 109.81 15.0388C109.257 14.8151 108.866 14.3336 108.459 13.9049C108.139 13.5662 108.375 13.2773 108.586 13.0226C109.664 11.7022 111.106 11.1896 112.765 11.2579C115.496 11.3698 117.021 12.7989 117.151 15.5328C117.242 17.4341 117.111 19.3416 117.089 21.2492C117.086 21.6437 116.915 21.8115 116.527 21.7959C116.011 21.7773 115.496 21.7556 114.98 21.7649C114.477 21.7742 114.057 21.7027 114.101 21.0348C111.858 22.2526 109.935 22.234 108.853 21.0286C107.996 20.0717 107.872 18.3009 108.586 17.198C109.515 15.7627 111.584 15.3091 113.796 16.0734V16.064ZM113.656 18.7079C113.647 18.0834 113.054 17.5863 112.327 17.5957C111.575 17.605 111.037 18.0896 111.056 18.742C111.078 19.3758 111.662 19.8387 112.404 19.8108C113.116 19.7859 113.663 19.3012 113.653 18.7048L113.656 18.7079Z" fill="#181DE1"/>
<path d="M74.1077 17.5811C73.2813 17.5811 72.4519 17.6059 71.6255 17.5717C71.0942 17.55 71.0476 17.8048 71.2123 18.1838C71.4701 18.7772 71.9672 19.0878 72.5885 19.1872C73.5361 19.3426 74.4526 19.2214 75.2852 18.7368C75.686 18.5038 75.8879 18.5939 76.0494 18.9853C76.1271 19.1748 76.2358 19.3519 76.329 19.5352C77.0498 20.9891 77.0001 21.1476 75.4685 21.6509C73.5206 22.2909 71.5789 22.3188 69.808 21.1662C67.8446 19.8863 67.1797 16.9535 68.1863 14.4774C69.1805 12.0262 71.6224 10.8115 74.1792 11.4919C76.5186 12.1163 77.9414 14.7695 77.2455 17.143C77.1399 17.5034 76.9255 17.4941 76.6708 17.4941C75.8164 17.5003 74.9652 17.4941 74.1108 17.4941C74.1108 17.522 74.1108 17.5469 74.1108 17.5749L74.1077 17.5811ZM72.6134 15.5213C72.6134 15.5213 72.6134 15.4996 72.6134 15.4871C72.9986 15.4871 73.3839 15.4654 73.766 15.4933C74.2134 15.5275 74.2879 15.338 74.1823 14.9528C74.0176 14.3656 73.6977 13.912 73.0794 13.8033C72.399 13.6852 71.8088 13.8965 71.4173 14.5085C71.2371 14.7881 70.9762 15.1112 71.1315 15.4157C71.2651 15.6766 71.6472 15.4996 71.9206 15.5182C72.1505 15.5337 72.3835 15.5213 72.6134 15.5213Z" fill="#181DE1"/>
<path d="M165.682 22.1349C164.367 22.1784 163.128 21.8709 161.929 21.3552C161.46 21.1563 161.304 20.8612 161.497 20.3859C161.506 20.361 161.506 20.3361 161.515 20.3113C161.736 19.7614 161.811 19.0593 162.264 18.73C162.792 18.3478 163.224 19.0686 163.734 19.227C164.448 19.4507 165.135 19.7769 165.908 19.5781C166.247 19.4911 166.567 19.3389 166.583 18.9381C166.595 18.5684 166.297 18.3913 165.995 18.3043C165.452 18.1459 164.892 18.0434 164.339 17.9098C162.27 17.4127 161.413 16.403 161.494 14.5732C161.575 12.7961 162.687 11.5969 164.635 11.3391C166.138 11.1402 167.617 11.3515 169.049 11.8952C169.543 12.0847 169.692 12.3612 169.49 12.8365C169.472 12.8831 169.456 12.9328 169.435 12.9794C169.208 13.4982 169.111 14.1693 168.723 14.4924C168.238 14.8963 167.738 14.2004 167.207 14.0947C166.673 13.9891 166.157 13.8245 165.607 13.9208C165.222 13.986 164.902 14.1569 164.868 14.5856C164.833 15.0112 165.172 15.1603 165.505 15.2411C166.03 15.3654 166.57 15.4337 167.098 15.5518C169.223 16.0209 170.124 17.0461 169.988 18.8201C169.838 20.7245 168.534 21.9796 166.536 22.1287C166.253 22.1505 165.967 22.1287 165.685 22.1287L165.682 22.1349Z" fill="#181DE1"/>
<path d="M20.8586 18.2891C20.3304 19.7213 20.1938 21.0975 20.8741 22.4676C20.6722 22.6447 20.4578 22.5795 20.2683 22.5795C16.6738 22.5857 13.0793 22.5857 9.48176 22.5795C8.33538 22.5795 8.08374 22.3278 8.0651 21.1628C8.05578 20.6222 8.05578 20.0785 8.0651 19.538C8.08374 18.5842 8.36956 18.2953 9.32953 18.2922C12.3027 18.286 15.2789 18.2922 18.252 18.2922C19.1002 18.2922 19.9514 18.2922 20.8555 18.2922L20.8586 18.2891Z" fill="#181DE1"/>
<path d="M5.79395 17.0282C6.28481 15.6954 6.38112 14.4154 5.89336 13.1355C5.78152 12.8434 5.89957 12.7595 6.16054 12.7533C6.29102 12.7502 6.4184 12.7533 6.54888 12.7533C10.0843 12.7533 13.6198 12.7533 17.1552 12.7533C18.314 12.7533 18.5377 12.9926 18.5377 14.1638C18.5377 14.8069 18.5439 15.45 18.5346 16.0962C18.5253 16.6864 18.2022 17.0251 17.6244 17.0282C13.7037 17.0406 9.78609 17.0344 5.79395 17.0344V17.0282Z" fill="#181DE1"/>
<path d="M20.8989 7.25391C20.3211 8.55562 20.2341 9.77967 20.7125 11.0161C20.8585 11.3983 20.7467 11.4884 20.3522 11.4884C16.6085 11.4759 12.8649 11.4759 9.12134 11.4853C8.48446 11.4853 8.12719 11.1746 8.09612 10.5781C8.05263 9.75793 8.05573 8.93154 8.10544 8.11136C8.13651 7.60186 8.43475 7.25701 9.0126 7.25701C12.9364 7.25701 16.8571 7.25701 20.8989 7.25701V7.25391Z" fill="#181DE1"/>
</g>
<defs>
<clipPath id="clip0_1928_185782">
<rect width="170" height="29.7251" fill="white"/>
</clipPath>
</defs>
</svg>
