<svg width="170" height="52" viewBox="0 0 170 52" fill="none" xmlns="http://www.w3.org/2000/svg">
<path d="M25.9275 0C11.6061 0 0 11.6061 0 25.9275C0 40.2489 11.6061 51.855 25.9275 51.855C40.2489 51.855 51.855 40.2489 51.855 25.9275C51.855 11.6061 40.2489 0 25.9275 0ZM28.0554 5.81751H30.4914V8.26892H28.0554V5.81751ZM23.3009 10.7319V8.32669H25.6579V10.7242H25.6637V13.087H23.297V10.7319H23.3009ZM40.0698 37.11H37.7243L37.7127 39.4516H35.3615V37.1061H37.7243V32.2881H23.2123V34.701H20.8129V37.1138H15.9909V39.5133H13.6397V41.8587H13.6339V41.878H11.2788V39.5171H11.2826L13.6397 39.5133V34.7529H18.4462V27.4681H16.0429V22.7193H18.4V25.1245H28.0785V22.7155H30.4875V15.4517H28.0477L25.6695 15.4479V13.087H28.0785V13.0812H30.4933V8.27469H32.8388V10.6298H32.8292V15.4845H35.2498L35.271 15.4903H37.68L40.0621 15.4941V17.8492H37.653V20.2409H35.2478V29.9445H37.7127L40.0698 29.9406V37.1138V37.11Z" fill="#BD3D36"/>
<path d="M62.7756 36.097C62.7043 36.097 62.6677 36.0527 62.6677 35.9622L62.7216 17.5141C62.7216 17.4428 62.7582 17.4062 62.8295 17.4062H67.9846C69.0052 17.4062 69.918 17.6527 70.7229 18.1438C71.5278 18.6368 72.1633 19.2857 72.6293 20.0907C73.0953 20.8956 73.3284 21.7737 73.3284 22.7231C73.3284 23.4934 73.1531 24.2097 72.8046 24.8722C72.456 25.5346 72.0401 26.0719 71.5567 26.484C72.0767 27.0039 72.4791 27.6028 72.766 28.2826C73.053 28.9623 73.1955 29.6787 73.1955 30.4316C73.1955 31.4696 72.9451 32.4189 72.4445 33.2778C71.9438 34.1367 71.2679 34.8222 70.4167 35.3325C69.5656 35.8428 68.622 36.097 67.584 36.097H62.7775H62.7756ZM65.9164 32.8214H67.5821C68.2272 32.8214 68.7818 32.5845 69.2478 32.1089C69.7138 31.6352 69.9468 31.0748 69.9468 30.4297C69.9468 29.7846 69.7138 29.23 69.2478 28.764C68.7818 28.298 68.2272 28.0669 67.5821 28.0669H65.9433L65.9164 32.8195V32.8214ZM65.9433 24.8182H67.9846C68.6104 24.8182 69.1169 24.5987 69.502 24.1596C69.8871 23.7206 70.0797 23.243 70.0797 22.7231C70.0797 22.1512 69.8737 21.6543 69.4616 21.2326C69.0495 20.8128 68.5565 20.601 67.9846 20.601H65.9433V24.8163V24.8182Z" fill="#BD3D36"/>
<path d="M75.2348 36.097C75.1635 36.097 75.127 36.0527 75.127 35.9622L75.1539 17.5141C75.1539 17.4428 75.1905 17.4062 75.2617 17.4062H83.8811C83.9524 17.4062 83.989 17.4505 83.989 17.541V20.549C83.989 20.6202 83.9524 20.6568 83.8811 20.6568H78.3756V24.8452H83.8811C83.9524 24.8452 83.989 24.8818 83.989 24.953L84.0159 27.9879C84.0159 28.0592 83.9794 28.0958 83.9081 28.0958H78.3756V32.7944H83.9081C83.9794 32.7944 84.0159 32.8387 84.0159 32.9292V35.9911C84.0159 36.0623 83.9794 36.0989 83.9081 36.0989H75.2348V36.097Z" fill="#BD3D36"/>
<path d="M86.5136 36.097C86.4423 36.097 86.4058 36.0527 86.4058 35.9622L86.4597 17.5141C86.4597 17.4428 86.4943 17.4062 86.5675 17.4062H91.9922C92.9589 17.4062 93.8486 17.6431 94.665 18.1188C95.4796 18.5925 96.1286 19.228 96.6119 20.0252C97.0953 20.8224 97.336 21.7217 97.336 22.7231C97.336 23.3855 97.2378 23.9806 97.0413 24.5082C96.8449 25.0358 96.6119 25.4845 96.3423 25.8504C96.0747 26.2182 95.832 26.4917 95.6163 26.6688C96.583 27.7434 97.0664 29.0047 97.0664 30.4547L97.0933 35.9603C97.0933 36.0508 97.0491 36.0951 96.9585 36.0951H93.9237C93.8524 36.0951 93.8158 36.0681 93.8158 36.0142V30.4547C93.8158 29.8096 93.5867 29.2512 93.1303 28.7755C92.6739 28.3018 92.1135 28.063 91.4511 28.063H89.6794L89.6525 35.9584C89.6525 36.0489 89.6159 36.0932 89.5446 36.0932H86.5097L86.5136 36.097ZM89.6814 24.8452H91.9903C92.5449 24.8452 93.0378 24.6391 93.4673 24.227C93.8967 23.8149 94.1124 23.3143 94.1124 22.7231C94.1124 22.1319 93.9025 21.6582 93.4807 21.2461C93.059 20.834 92.5622 20.6279 91.9903 20.6279H89.6814V24.8433V24.8452Z" fill="#BD3D36"/>
<path d="M98.4355 35.9622L101.765 17.5141C101.782 17.4428 101.829 17.4062 101.9 17.4062H105.794C105.865 17.4062 105.909 17.4428 105.928 17.5141L109.123 35.9622C109.14 36.0527 109.106 36.097 109.015 36.097H106.034C105.963 36.097 105.917 36.0527 105.9 35.9622L105.605 34.0019H101.954L101.659 35.9622C101.642 36.0527 101.596 36.097 101.524 36.097H98.5434C98.4721 36.097 98.4355 36.0527 98.4355 35.9622ZM102.491 31.1287H105.07L103.968 23.5819L103.806 22.5883L103.698 23.5819L102.489 31.1287H102.491Z" fill="#BD3D36"/>
<path d="M110.924 36.097C110.852 36.097 110.816 36.0527 110.816 35.9622L110.87 17.5141C110.87 17.4428 110.906 17.4062 110.977 17.4062H116.133C117.153 17.4062 118.066 17.6527 118.871 18.1438C119.676 18.6368 120.311 19.2857 120.777 20.0907C121.243 20.8956 121.476 21.7737 121.476 22.7231C121.476 23.4934 121.301 24.2097 120.953 24.8722C120.604 25.5346 120.188 26.0719 119.705 26.484C120.225 27.0039 120.627 27.6028 120.914 28.2826C121.201 28.9623 121.343 29.6787 121.343 30.4316C121.343 31.4696 121.093 32.4189 120.592 33.2778C120.092 34.1367 119.416 34.8222 118.565 35.3325C117.713 35.8428 116.77 36.097 115.732 36.097H110.925H110.924ZM114.064 32.8214H115.73C116.375 32.8214 116.93 32.5845 117.396 32.1089C117.862 31.6352 118.095 31.0748 118.095 30.4297C118.095 29.7846 117.862 29.23 117.396 28.764C116.93 28.298 116.375 28.0669 115.73 28.0669H114.091L114.064 32.8195V32.8214ZM114.091 24.8182H116.133C116.758 24.8182 117.265 24.5987 117.65 24.1596C118.035 23.7206 118.228 23.243 118.228 22.7231C118.228 22.1512 118.022 21.6543 117.61 21.2326C117.197 20.8128 116.704 20.601 116.133 20.601H114.091V24.8163V24.8182Z" fill="#BD3D36"/>
<path d="M128.216 36.3647C127.267 36.3647 126.391 36.1182 125.584 35.6272C124.777 35.1361 124.138 34.4775 123.664 33.6533C123.19 32.8311 122.951 31.926 122.951 30.942L123.005 17.516C123.005 17.4448 123.042 17.4082 123.113 17.4082H126.121C126.192 17.4082 126.229 17.4448 126.229 17.516V30.942C126.229 31.5505 126.422 32.0646 126.807 32.4864C127.192 32.9081 127.662 33.118 128.216 33.118C128.771 33.118 129.268 32.9081 129.653 32.4864C130.038 32.0666 130.231 31.5505 130.231 30.942V17.516C130.231 17.4448 130.267 17.4082 130.338 17.4082H133.346C133.418 17.4082 133.454 17.4448 133.454 17.516L133.508 30.942C133.508 31.9452 133.271 32.858 132.796 33.6803C132.322 34.5045 131.684 35.1573 130.889 35.6406C130.092 36.124 129.202 36.3666 128.216 36.3666V36.3647Z" fill="#BD3D36"/>
<path d="M140.57 36.3644C139.586 36.3644 138.694 36.1179 137.897 35.6269C137.099 35.1339 136.47 34.4772 136.004 33.653C135.538 32.8308 135.307 31.9084 135.307 30.8877L135.334 22.5091C135.334 21.525 135.563 20.6257 136.019 19.8112C136.476 18.9966 137.101 18.3438 137.899 17.8508C138.696 17.3578 139.586 17.1133 140.571 17.1133C141.557 17.1133 142.441 17.354 143.231 17.8373C144.018 18.3207 144.644 18.9696 145.11 19.7842C145.576 20.5988 145.809 21.5077 145.809 22.5091V23.7434C145.809 23.8147 145.773 23.8513 145.702 23.8513H142.694C142.622 23.8513 142.586 23.8147 142.586 23.7434V22.5091C142.586 21.9179 142.393 21.4076 142.008 20.9781C141.623 20.5487 141.143 20.333 140.571 20.333C139.926 20.333 139.433 20.5526 139.094 20.9916C138.754 21.4307 138.584 21.9352 138.584 22.5091V30.8877C138.584 31.5502 138.777 32.0875 139.162 32.4996C139.547 32.9116 140.017 33.1177 140.571 33.1177C141.126 33.1177 141.623 32.8885 142.008 32.4322C142.393 31.9758 142.586 31.4616 142.586 30.8877V29.6534C142.586 29.5821 142.622 29.5455 142.694 29.5455H145.728C145.8 29.5455 145.836 29.5821 145.836 29.6534V30.8877C145.836 31.9084 145.599 32.8308 145.124 33.653C144.65 34.4772 144.018 35.1339 143.231 35.6269C142.443 36.1198 141.557 36.3644 140.571 36.3644H140.57Z" fill="#BD3D36"/>
<path d="M147.899 36.097C147.828 36.097 147.791 36.0527 147.791 35.9622L147.845 17.541C147.845 17.4525 147.882 17.4062 147.953 17.4062H150.961C151.032 17.4062 151.069 17.4505 151.069 17.541V23.9055L155.284 17.5141C155.338 17.4428 155.399 17.4062 155.473 17.4062H158.561C158.633 17.4062 158.65 17.4428 158.615 17.5141L153.971 24.9261L159.18 35.9892C159.216 36.0604 159.17 36.097 159.045 36.097H155.769C155.679 36.097 155.625 36.0604 155.607 35.9892L151.981 28.0938L151.042 29.5708V35.9622C151.042 36.0527 151.005 36.097 150.934 36.097H147.899Z" fill="#BD3D36"/>
<path d="M163.932 36.3648C162.965 36.3648 162.083 36.1183 161.286 35.6273C160.489 35.1343 159.853 34.4815 159.38 33.6669C158.906 32.8523 158.667 31.953 158.667 30.969V29.7327C158.667 29.6441 158.712 29.5979 158.802 29.5979H161.81C161.881 29.5979 161.918 29.6422 161.918 29.7327V30.969C161.918 31.5602 162.114 32.0667 162.509 32.4865C162.902 32.9082 163.377 33.1181 163.932 33.1181C164.487 33.1181 164.96 32.9024 165.355 32.473C165.748 32.0435 165.946 31.5429 165.946 30.969C165.946 30.3066 165.517 29.7327 164.658 29.2513C164.371 29.0895 163.924 28.8392 163.316 28.5003C162.707 28.1594 162.133 27.8378 161.598 27.5336C160.614 26.9616 159.884 26.2395 159.409 25.371C158.935 24.5025 158.696 23.5224 158.696 22.4305C158.696 21.4272 158.937 20.5279 159.422 19.7326C159.905 18.9373 160.545 18.3057 161.342 17.8397C162.139 17.3736 163.002 17.1406 163.934 17.1406C164.866 17.1406 165.756 17.3775 166.553 17.8531C167.35 18.3269 167.986 18.9623 168.459 19.7596C168.933 20.5568 169.172 21.4465 169.172 22.4324V24.6354C169.172 24.7067 169.135 24.7433 169.064 24.7433H166.056C165.985 24.7433 165.948 24.7067 165.948 24.6354L165.921 22.4324C165.921 21.8066 165.725 21.2963 165.33 20.9015C164.935 20.5087 164.471 20.3103 163.934 20.3103C163.397 20.3103 162.904 20.5202 162.511 20.9419C162.116 21.3637 161.92 21.8605 161.92 22.4324C161.92 23.0044 162.045 23.5166 162.295 23.9094C162.546 24.3042 163.002 24.6797 163.664 25.0379C163.753 25.0918 163.928 25.1862 164.188 25.319C164.448 25.4538 164.729 25.606 165.034 25.7754C165.338 25.9449 165.611 26.0932 165.852 26.2183C166.093 26.3435 166.241 26.4244 166.295 26.459C167.19 26.9597 167.897 27.574 168.417 28.2981C168.937 29.0221 169.195 29.9137 169.195 30.9709C169.195 32.0281 168.958 32.9082 168.482 33.7227C168.009 34.5373 167.371 35.1824 166.576 35.6561C165.779 36.1299 164.897 36.3686 163.93 36.3686L163.932 36.3648Z" fill="#BD3D36"/>
</svg>
