<svg width="170" height="54" viewBox="0 0 170 54" fill="none" xmlns="http://www.w3.org/2000/svg">
<path d="M33.2522 24.7266H19.77V28.1254H33.2522V24.7266Z" fill="#222222"/>
<path d="M36.1413 37.1609H33.0823V30.5898H19.6285V37.1609H16.5695V15.8331H19.6285V22.2626H33.1106V15.8331H36.1696V37.1609H36.1413ZM26.3412 0C11.8111 0 0 11.9244 0 26.6245C0 41.3246 11.7827 53.2489 26.3412 53.2489C40.8997 53.2489 52.6824 41.3246 52.6824 26.6245C52.6824 11.9244 40.8997 0 26.3412 0Z" fill="#222222"/>
<path d="M78.882 16.7686H81.856V36.8503H78.882V28.1265H67.1559V36.8503H64.2102V16.7686H67.1842V25.3225H78.9103V16.7686H78.882ZM92.1376 22.4617C96.3295 22.4617 99.2469 25.6057 99.2469 30.1375V30.2791H87.9173C88.1156 32.8 89.9283 34.556 92.3925 34.556C95.3665 34.556 96.2729 32.8 96.3012 32.715L96.3295 32.63H99.0769L99.0486 32.8C98.8503 33.9329 97.1509 37.1902 92.3642 37.1902C88.2005 37.1902 85.0566 34.0179 85.0566 29.826C85.0566 25.634 88.1156 22.4617 92.1376 22.4617ZM92.1376 24.9259C90.1266 24.9259 88.682 26.0022 88.1156 27.8716H96.1029C95.4515 25.9456 94.0919 24.9259 92.1376 24.9259ZM113.097 16.0605H115.901V36.8786H113.097V34.8676C112.531 35.6607 111.03 37.2185 108.282 37.2185C104.232 37.2185 101.399 34.1878 101.399 29.8543C101.399 25.5207 104.232 22.4901 108.282 22.4901C110.831 22.4901 112.417 23.7646 113.097 24.7277V16.0605ZM108.764 34.556C111.341 34.556 113.154 32.6017 113.154 29.826C113.154 27.0502 111.341 25.0959 108.764 25.0959C106.13 25.0959 104.317 27.0502 104.317 29.826C104.289 32.6017 106.13 34.556 108.764 34.556ZM126.296 22.4617C130.488 22.4617 133.405 25.6057 133.405 30.1375V30.2791H122.076C122.274 32.8 124.087 34.556 126.551 34.556C129.525 34.556 130.431 32.8 130.46 32.715L130.488 32.63H133.236L133.207 32.8C133.009 33.9329 131.31 37.1902 126.523 37.1902C122.359 37.1902 119.215 34.0179 119.215 29.826C119.215 25.634 122.246 22.4617 126.296 22.4617ZM126.296 24.9259C124.285 24.9259 122.841 26.0022 122.274 27.8716H130.262C129.582 25.9456 128.222 24.9259 126.296 24.9259ZM139.353 24.841V22.8016H136.549V36.8786H139.353V28.9479C139.353 26.4837 140.628 25.5207 143.885 25.5207H147.511V22.6883H143.942C141.166 22.6883 139.92 23.9346 139.353 24.841ZM159.945 22.8016H162.749V36.8786H159.945V34.8676C159.294 35.8023 157.877 37.1902 155.272 37.1902C151.278 37.1902 148.474 34.1595 148.474 29.826C148.474 24.9826 151.901 22.4617 155.272 22.4617C157.991 22.4617 159.407 23.9346 159.945 24.6993V22.8016ZM160.002 29.826C160.002 27.0785 158.217 25.0959 155.753 25.0959C153.176 25.0959 151.391 27.0502 151.391 29.826C151.391 32.6017 153.176 34.556 155.753 34.556C158.217 34.556 160.002 32.5734 160.002 29.826ZM165.468 22.9432V23.1982H166.233V24.9542H166.516V23.1982H167.281V22.9432H165.468ZM169.518 22.9432L168.867 24.5577L168.216 22.9432H167.762V24.9826H168.046V23.2265L168.782 25.0109H168.98L169.717 23.2548V25.0109H170V22.9716H169.518V22.9432Z" fill="#222222"/>
</svg>
