<svg width="160" height="34" viewBox="0 0 160 34" fill="none" xmlns="http://www.w3.org/2000/svg">
<g clip-path="url(#clip0_1928_185818)">
<path d="M2.40629e-05 0.0136719H10.4045C10.4596 2.76184 10.8698 5.42075 11.8594 8.05458C14.9404 5.47491 18.3225 3.46894 22.0698 2.09185C25.8222 0.71275 29.6936 0.0297196 33.7201 0.0166808V10.3614C32.8105 10.4357 31.901 10.4908 30.9964 10.5881C28.713 10.8328 26.5136 11.4166 24.4233 12.3634C22.4871 13.24 21.4915 14.7886 21.5065 16.9019C21.5215 18.9951 22.5331 20.5196 24.4543 21.3712C27.146 22.5647 29.9768 23.1906 32.9226 23.2808C33.1688 23.2889 33.4159 23.2808 33.7041 23.2808V33.7038C25.4669 33.6256 18.2194 30.9366 11.8564 25.673C10.8758 28.2657 10.4606 30.9145 10.4045 33.6577C10.2634 33.6727 10.1524 33.6938 10.0413 33.6938C6.80928 33.6958 3.57626 33.6958 0.344239 33.6938C0.229167 33.6938 0.114095 33.6697 -0.000976562 33.6577C-0.000976562 33.092 -0.000976562 32.5263 -0.000976562 31.9607C0.0270409 31.8002 0.0720691 31.6417 0.0820753 31.4802C0.406278 26.4402 1.80715 21.7172 4.27369 17.3111C4.45781 16.9821 4.46582 16.7474 4.2777 16.4144C2.15437 12.6322 0.813533 8.58816 0.2822 4.28136C0.180137 3.45891 0.0930822 2.63446 2.40629e-05 1.81102V0.0136719Z" fill="#EC1C24"/>
<path d="M98.9999 33.8571V0.0515932C99.151 0.0375514 99.2781 0.0164888 99.4052 0.0164888C102.537 0.0164888 105.67 -0.00858573 108.801 0.0265186C111.612 0.0576111 114.379 0.417682 117.038 1.38556C121.841 3.13376 124.85 6.48873 126.006 11.4595C126.868 15.1675 126.842 18.8926 125.872 22.5705C124.43 28.0358 120.855 31.454 115.444 32.9333C113.866 33.3646 112.207 33.499 110.585 33.7708C110.423 33.7979 110.261 33.829 110.099 33.8581H98.9989L98.9999 33.8571ZM108.298 8.01928V25.9656C109.243 25.8643 110.154 25.8142 111.048 25.6637C114.466 25.089 116.584 23.062 117.328 19.684C117.669 18.1414 117.682 16.5837 117.504 15.0191C116.928 9.93698 113.127 7.83172 108.298 8.01928Z" fill="#EC1C24"/>
<path d="M126.1 33.8558C130.167 22.7207 134.238 11.5876 138.295 0.448514C138.418 0.110509 138.575 0.00118372 138.933 0.00318968C141.698 0.0192374 144.463 0.0272612 147.228 -0.00182522C147.726 -0.00684013 147.934 0.13458 148.103 0.605982C152.057 11.6929 156.03 22.7739 160 33.8558H150.6C150.17 32.6874 149.741 31.5179 149.307 30.3504C148.76 28.875 147.694 27.9252 146.226 27.4377C143.965 26.6865 141.702 26.7537 139.472 27.5782C138.457 27.9533 137.594 28.5842 137.158 29.5932C136.552 30.9913 136.048 32.4336 135.501 33.8568H126.101L126.1 33.8558ZM146.071 20.7188C145.088 17.6597 144.128 14.6758 143.12 11.5405C142.095 14.6818 141.117 17.6757 140.125 20.7188H146.071Z" fill="#EC1C24"/>
<path d="M83.5001 33.8564C83.5062 33.6407 83.5162 33.4241 83.5162 33.2085C83.5162 22.3793 83.5162 11.5491 83.5162 0.719876C83.5162 0.507244 83.5162 0.293609 83.5162 0.046875H92.5988V33.8564H83.4991H83.5001Z" fill="#EC1C24"/>
<path d="M72.8035 0.0519965C72.8265 2.1372 72.6204 4.16623 72.2482 6.18022C71.5697 9.85614 70.2969 13.3164 68.4748 16.5811C68.3928 16.7276 68.3968 17.0004 68.4798 17.1478C70.6492 21.0243 72.026 25.1616 72.5584 29.5687C72.7205 30.9147 72.7675 32.2748 72.8705 33.6669H62.418C62.36 30.9448 61.9477 28.2749 60.9621 25.6742C54.6151 30.9298 47.3666 33.6248 39.1115 33.706V23.3573C40.1841 23.264 41.2288 23.2038 42.2654 23.0754C44.4258 22.8087 46.5121 22.237 48.4833 21.3142C50.3685 20.4326 51.3261 18.892 51.3111 16.8188C51.2961 14.7677 50.3295 13.2482 48.4553 12.3917C45.6645 11.1169 42.7097 10.5161 39.6478 10.4158C39.4837 10.4108 39.3186 10.4158 39.1175 10.4158V0.00585938C47.3386 0.10014 54.5931 2.77008 60.9601 8.04676C61.9387 5.45205 62.366 2.80418 62.409 0.0509936H72.8045L72.8035 0.0519965Z" fill="#EC1C24"/>
</g>
<defs>
<clipPath id="clip0_1928_185818">
<rect width="160" height="33.8567" fill="white"/>
</clipPath>
</defs>
</svg>
