<svg width="153" height="80" viewBox="0 0 153 80" fill="none" xmlns="http://www.w3.org/2000/svg">
<g clip-path="url(#clip0_4362_116744)">
<path d="M56.6309 61.042C60.5972 62.8684 62.4016 65.8665 62.2237 69.9906C62.0385 74.2815 59.8454 77.2852 55.9836 79.0914C54.5294 79.7717 52.9744 79.9972 51.3754 79.9936C48.2893 79.9862 45.2013 80.0027 42.1151 79.9881C39.8028 79.9771 38.5705 78.7521 38.5687 76.4527C38.5595 66.3873 38.5613 56.3238 38.5668 46.2585C38.5668 43.9682 39.8193 42.6937 42.1151 42.7304C45.7495 42.7891 49.4005 42.426 53.0148 42.9193C59.1431 43.7536 63.1406 50.0892 61.3179 55.9259C60.5734 58.3061 58.9744 59.9363 56.6309 61.0402V61.042ZM44.9042 61.3317C44.9042 65.2614 44.9244 69.1929 44.8877 73.1226C44.8804 73.8964 45.1059 74.1422 45.8797 74.111C47.6401 74.0413 49.4097 74.1238 51.1664 74.0193C53.8033 73.8616 55.6792 71.8885 55.78 69.3066C55.8791 66.7889 54.0728 64.6159 51.5148 64.24C50.7575 64.1282 49.9781 64.1557 49.2098 64.1135C47.7318 64.0347 46.6022 62.8867 46.5454 61.4124C46.4665 59.3825 47.7263 58.3391 50.2954 58.3098C53.0973 58.2768 55.2262 56.1918 55.2428 53.4632C55.2593 50.7823 53.1981 48.6882 50.4274 48.6185C48.8852 48.58 47.3394 48.6497 45.7972 48.5947C45.0436 48.5672 44.8877 48.8477 44.8914 49.5409C44.9207 53.4706 44.906 57.4021 44.9042 61.3317Z" fill="#158785"/>
<path d="M83.6694 13.1263C89.5721 8.59332 97.3948 9.72472 101.735 14.5218C106.325 19.5938 106.551 27.9465 102.208 33.389C98.4492 38.0998 90.6577 40.3846 83.6382 35.4097C83.6382 36.3339 83.6382 37.1518 83.6382 37.9715C83.6382 40.3223 83.6712 42.6731 83.6217 45.0221C83.5795 47.0612 81.6101 48.5557 79.67 48.1028C78.4873 47.8259 77.6107 46.8834 77.4494 45.6529C77.3833 45.145 77.3888 44.6279 77.3888 44.1144C77.3852 34.1995 77.3852 24.2863 77.3852 14.3714C77.3852 14.1147 77.3797 13.8579 77.3888 13.6012C77.4512 11.7198 78.313 10.5792 79.8644 10.3262C81.4579 10.0658 82.9469 11.001 83.5392 12.6422C83.5887 12.7779 83.6143 12.9227 83.6675 13.13L83.6694 13.1263ZM83.288 24.1928C83.299 29.6812 87.8044 33.6567 92.8435 32.628C96.2157 31.9403 98.7683 29.2723 99.2744 25.9129C99.8667 21.9832 98.3208 18.4276 95.2824 16.7259C89.761 13.6342 83.2733 17.6721 83.288 24.1928Z" fill="#168D84"/>
<path d="M48.073 26.4084C45.2803 26.4084 42.4857 26.4084 39.6929 26.4084C38.4276 26.4084 38.38 26.4873 38.8897 27.6939C41.07 32.8503 47.5614 34.629 52.4795 31.3962C53.5119 30.7177 54.5571 30.2684 55.7783 30.7727C56.7539 31.1743 57.4085 31.8876 57.5901 32.9548C57.7698 34.0074 57.348 34.8124 56.4972 35.423C53.6274 37.4823 50.4037 38.5477 46.8976 38.4377C41.0022 38.2543 36.3867 35.7806 33.8525 30.2629C31.2376 24.571 32.2021 15.186 40.0285 11.2325C45.5223 8.45623 52.6097 9.62798 56.3083 13.9666C58.694 16.7648 59.4733 20.1279 59.5008 23.6927C59.5137 25.3632 58.3547 26.3937 56.6714 26.4029C53.8053 26.4176 50.9373 26.4066 48.0712 26.4084H48.073ZM38.6825 21.2905C38.9392 21.3033 39.1941 21.329 39.449 21.329C43.971 21.3308 48.493 21.3235 53.0149 21.34C53.6732 21.3418 53.5999 21.0613 53.4825 20.59C52.4795 16.5943 48.8634 14.4929 44.5064 15.3969C41.501 16.0204 39.1116 18.4262 38.6825 21.2905Z" fill="#158785"/>
<path d="M74.6365 54.4058C74.752 54.3398 74.8895 54.2903 74.9904 54.1986C79.9396 49.7335 90.1131 51.2555 92.2127 60.6038C92.4878 61.8251 92.6235 63.0573 92.618 64.3134C92.6015 68.4265 92.6125 72.5414 92.6088 76.6544C92.607 78.6385 91.4591 79.9515 89.7207 79.9771C87.9126 80.0046 86.7005 78.7063 86.6932 76.6709C86.6785 72.2993 86.7079 67.9295 86.6804 63.5579C86.6602 60.2609 84.7091 57.9009 81.6725 57.4039C77.7061 56.7566 74.6016 59.4596 74.5649 63.6551C74.5283 68.0249 74.5649 72.3965 74.5521 76.7681C74.5466 78.4955 73.5766 79.7277 72.1023 79.9478C70.1457 80.2375 68.642 78.8934 68.6365 76.7938C68.6218 71.4686 68.631 66.1417 68.631 60.8165C68.631 58.9424 68.6273 57.0702 68.631 55.1961C68.6347 53.4028 69.5149 52.187 70.9745 51.9449C72.6707 51.6625 73.7948 52.3924 74.4678 54.2059C74.4916 54.2683 74.5558 54.3159 74.631 54.404L74.6365 54.4058Z" fill="#168D84"/>
<path d="M6.21453 20.4409C8.52319 19.3993 10.6852 18.4219 12.8471 17.4446C13.9492 16.9458 15.0384 16.4177 16.1552 15.9519C17.811 15.2606 19.4192 15.8932 20.1032 17.4629C20.7615 18.9776 20.1674 20.5821 18.5775 21.3192C14.7854 23.0778 10.9804 24.8088 7.16073 26.5068C6.46208 26.8167 6.17419 27.1707 6.19436 27.9665C6.25487 30.3173 6.22553 32.67 6.2127 35.0208C6.20169 36.9719 4.94192 38.3032 3.1357 38.3124C1.25063 38.3215 0.0036973 36.9976 0.00186358 34.9695C2.98496e-05 24.6089 2.98496e-05 14.2465 0.00186358 3.88416C0.00186358 1.94408 1.26163 0.590786 3.05685 0.572449C4.90158 0.554111 6.20719 1.91474 6.21086 3.90616C6.22003 9.01309 6.21453 14.12 6.21453 19.2288V20.4409Z" fill="#107B86"/>
<path d="M27.7938 19.6424C27.7938 24.786 27.7957 29.9314 27.7938 35.0751C27.7938 37.05 26.501 38.4674 24.704 38.4894C22.8996 38.5115 21.528 37.1417 21.4418 35.1869C21.4051 34.3434 21.4345 33.4962 21.4345 32.6527C21.4345 23.319 21.4345 13.9872 21.4345 4.65352C21.4345 4.2501 21.4234 3.84118 21.4931 3.44693C21.803 1.69755 23.292 0.461619 24.8672 0.611984C26.6092 0.778854 27.792 2.13214 27.7938 3.98971C27.7993 9.20666 27.7938 14.4254 27.7938 19.6424Z" fill="#107B86"/>
<path d="M70.5894 19.5398C70.5894 24.7164 70.5986 29.893 70.5839 35.0715C70.5802 36.7108 69.5552 37.9853 68.0937 38.2677C66.6102 38.5556 65.1579 37.7982 64.5748 36.4376C64.3382 35.8857 64.2906 35.3025 64.2906 34.7139C64.2906 24.5441 64.2851 14.3742 64.2924 4.20253C64.2924 2.37614 65.0332 1.21722 66.4397 0.727616C67.705 0.285688 69.0216 0.676272 69.8981 1.75267C70.4335 2.41098 70.5986 3.17381 70.5967 4.01182C70.5857 9.18843 70.5912 14.365 70.5912 19.5435L70.5894 19.5398Z" fill="#158785"/>
<path d="M104.814 60.8829C104.814 66.2081 104.821 71.535 104.809 76.8602C104.805 78.3583 104.07 79.4146 102.817 79.84C101.691 80.2214 100.404 79.862 99.6228 78.9433C99.1241 78.3583 98.9205 77.6689 98.9205 76.9097C98.9205 66.2209 98.9113 55.534 98.9278 44.8452C98.9297 43.0151 100.136 41.814 101.851 41.8067C103.624 41.7993 104.803 43.0041 104.809 44.9057C104.823 50.2308 104.814 55.5578 104.814 60.8829Z" fill="#168D84"/>
<path d="M118.009 51.9119C119.266 51.899 120.126 52.3868 120.61 53.4137C121.112 54.4772 120.953 55.4913 120.197 56.3953C117.841 59.2138 115.495 62.0414 113.11 64.8341C112.666 65.3531 112.646 65.641 113.106 66.1746C115.558 69.0095 117.958 71.8867 120.373 74.7509C121.763 76.3995 121.624 78.3964 120.049 79.4563C118.807 80.2925 117.236 80.1733 116.253 79.029C113.117 75.3781 110.003 71.7088 106.932 68.0047C105.729 66.5542 105.793 65.0505 107.005 63.5964C109.945 60.0683 112.908 56.5585 115.864 53.0451C116.453 52.3446 117.129 51.8055 118.009 51.9119Z" fill="#168D84"/>
<path fill-rule="evenodd" clip-rule="evenodd" d="M144.65 22.4468L144.649 22.4442C145.599 21.7861 146.242 20.8664 146.884 19.9468C147.224 19.4597 147.565 18.9726 147.951 18.5244C148.012 18.4527 148.069 18.3768 148.125 18.3011C148.284 18.0867 148.442 17.8747 148.712 17.769C148.44 16.3599 147.977 15.0023 147.515 13.6494L147.438 13.4246L147.375 13.2396C147.113 12.4676 147.208 11.868 147.657 11.1987C148.619 9.76641 149.555 8.31593 150.491 6.86557L150.494 6.86091L150.497 6.85729C150.953 6.15089 151.409 5.44453 151.867 4.74032C152.467 3.81979 152.649 2.85158 152.247 1.81002C151.814 0.689618 150.899 0.159671 149.792 0.0221411C148.523 -0.135559 147.611 0.566758 146.953 1.56797C145.824 3.2851 144.717 5.01751 143.61 6.75004L143.609 6.75254L143.601 6.76495L143.596 6.77341C143.272 7.2792 142.949 7.78499 142.626 8.29042L142.594 8.34038C142.33 8.7533 142.095 9.12216 141.49 9.19444C139.266 9.45879 137.044 9.74244 134.822 10.0261L134.821 10.0262L134.821 10.0263C133.05 10.2522 131.28 10.4782 129.509 10.6944C127.627 10.9236 126.458 12.2036 126.643 13.9071C126.837 15.684 128.258 16.7347 130.16 16.4963C130.96 16.3963 131.761 16.2969 132.562 16.1975L132.569 16.1966C135.479 15.8352 138.388 15.4738 141.294 15.0844C142.072 14.9799 142.398 15.2219 142.616 15.9682C143.073 17.5318 143.572 19.0839 144.071 20.6362L144.075 20.6496C144.267 21.2475 144.459 21.8455 144.649 22.4442L144.648 22.445L144.65 22.4468ZM144.65 22.4468V22.4486C144.77 22.861 144.885 23.2753 144.999 23.6895C145.265 24.6492 145.53 25.6088 145.862 26.5452C146.309 27.8068 147.841 28.4632 149.137 28.0763C150.34 27.7169 151.347 26.2536 151.017 25.08C150.958 24.8712 150.899 24.6623 150.84 24.4534C150.208 22.2037 149.574 19.9504 148.713 17.7708C148.444 17.8749 148.288 18.0858 148.129 18.3004C148.072 18.3767 148.015 18.4536 147.953 18.5263C147.565 18.9758 147.223 19.4643 146.882 19.9526C146.241 20.8707 145.599 21.7884 144.65 22.4468ZM115.07 10.8686C116.434 10.8705 117.34 11.6076 117.766 13.148C117.902 13.6398 118.038 14.1316 118.175 14.6233C118.953 17.4222 119.731 20.221 120.425 23.0409C120.678 24.0678 121.136 24.2695 122.091 24.1632C124.253 23.9196 126.418 23.7065 128.584 23.4934L128.584 23.4933C129.777 23.376 130.969 23.2587 132.16 23.1363C133.692 22.9786 135.138 23.0244 135.976 24.6088C136.932 26.415 135.976 28.5384 133.959 28.8172C132.012 29.0877 130.052 29.266 128.091 29.4442C127.275 29.5184 126.459 29.5926 125.643 29.6735C125.246 29.713 124.848 29.7545 124.45 29.796C123.389 29.9069 122.327 30.0177 121.263 30.0898C120.773 30.1222 120.571 30.4232 120.363 30.7335L120.333 30.7787C120.316 30.804 120.299 30.8293 120.282 30.8544C119.76 31.6048 119.242 32.3586 118.725 33.1125L118.722 33.1167L118.72 33.1195C117.827 34.421 116.934 35.7226 116.016 37.0066C114.768 38.7541 112.793 38.9632 111.386 37.5567C110.345 36.5151 110.244 35.1087 111.173 33.7389C112.534 31.7346 113.919 29.7487 115.314 27.7683C115.694 27.2291 115.829 26.7615 115.626 26.0574C114.503 22.1516 113.445 18.2274 112.408 14.2977C111.927 12.4768 113.218 10.865 115.07 10.8686ZM134.767 39.2137L134.765 39.2118L134.764 39.2111C134.397 38.904 134.031 38.597 133.666 38.2884L133.668 38.2865C133.233 37.9022 132.8 37.516 132.366 37.1299C131.309 36.1876 130.252 35.2455 129.171 34.3312C127.989 33.3336 126.384 33.4547 125.427 34.5384C124.428 35.6698 124.473 37.3531 125.632 38.3929C126.709 39.3602 127.82 40.2901 128.931 41.2199L128.932 41.2206C129.417 41.6267 129.901 42.0327 130.384 42.4417C130.789 42.8002 131.193 43.1597 131.597 43.5191L131.598 43.5199L131.598 43.5204C132.672 44.475 133.745 45.4292 134.834 46.3641C135.322 46.7822 135.527 47.2333 135.514 47.8824C135.465 50.4148 135.437 52.949 135.452 55.4814C135.463 57.2051 136.699 58.3842 138.386 58.3695C140.02 58.3548 141.096 57.1977 141.219 55.4942C141.356 53.6028 141.361 51.7105 141.366 49.8186V49.8172C141.367 49.1435 141.369 48.4698 141.377 47.7962C141.382 47.1929 141.575 46.8005 142.057 46.4118C145.228 43.8555 148.382 41.2792 151.508 38.6679C152.636 37.7254 152.839 36.572 152.273 35.303C151.719 34.0653 150.676 33.5152 149.236 33.6142C148.386 33.6721 147.796 34.1596 147.206 34.6475C147.157 34.6883 147.107 34.7291 147.058 34.7696C147.025 34.7966 146.992 34.8234 146.959 34.8501C144.19 37.0836 141.423 39.3189 138.687 41.5891C138.214 41.9833 137.953 41.954 137.515 41.5634C136.615 40.7619 135.691 39.9876 134.767 39.2137Z" fill="url(#paint0_linear_4362_116744)"/>
</g>
<defs>
<linearGradient id="paint0_linear_4362_116744" x1="114.516" y1="8.80189" x2="144.773" y2="39.7919" gradientUnits="userSpaceOnUse">
<stop stop-color="#4AB6E6"/>
<stop offset="1" stop-color="#68BDCA"/>
</linearGradient>
<clipPath id="clip0_4362_116744">
<rect width="152.575" height="80" fill="white"/>
</clipPath>
</defs>
</svg>
